<svg width="9" height="10" viewBox="0 0 9 10" fill="none" xmlns="http://www.w3.org/2000/svg">
<path d="M0.00390625 7.88486V9.20787C0.00390625 9.28438 0.0342929 9.35776 0.0883815 9.41187C0.14247 9.46597 0.21583 9.49636 0.292323 9.49636H1.61788C1.69423 9.49635 1.76745 9.46605 1.82151 9.41212L7.27142 3.96081L5.54092 2.22987L0.0887008 7.68118C0.0345733 7.73515 0.00407548 7.80841 0.00390625 7.88486ZM6.25504 1.51499L7.98554 3.24593L8.82772 2.40354C8.93586 2.29534 8.99661 2.14861 8.99661 1.99561C8.99661 1.84262 8.93586 1.69589 8.82772 1.58769L7.91344 0.672594C7.80527 0.564427 7.65857 0.503662 7.50562 0.503662C7.35266 0.503662 7.20597 0.564427 7.0978 0.672594L6.25504 1.51499Z" fill="#959595"/>
</svg>
