<svg width="17" height="15" viewBox="0 0 17 15" fill="none" xmlns="http://www.w3.org/2000/svg">
<path d="M16.5 5.0219C16.5 10.1273 9.08643 14.2597 8.77071 14.4304C8.6875 14.4761 8.59449 14.5 8.5 14.5C8.40551 14.5 8.3125 14.4761 8.22929 14.4304C7.91357 14.2597 0.5 10.1273 0.5 5.0219C0.501323 3.82303 0.968329 2.67365 1.79856 1.82593C2.62879 0.978198 3.75445 0.501351 4.92857 0.5C6.40357 0.5 7.695 1.14765 8.5 2.24239C9.305 1.14765 10.5964 0.5 12.0714 0.5C13.2456 0.501351 14.3712 0.978198 15.2014 1.82593C16.0317 2.67365 16.4987 3.82303 16.5 5.0219Z" fill="#FE4040"/>
</svg>
