<svg width="147" height="16" viewBox="0 0 147 16" fill="none" xmlns="http://www.w3.org/2000/svg">
<g clip-path="url(#clip0_1493_1197)">
<path d="M146.707 9.06057C147.098 8.67005 147.098 8.03688 146.707 7.64636L140.343 1.2824C139.953 0.89187 139.319 0.89187 138.929 1.2824C138.538 1.67292 138.538 2.30609 138.929 2.69661L144.586 8.35347L138.929 14.0103C138.538 14.4008 138.538 15.034 138.929 15.4245C139.319 15.815 139.953 15.815 140.343 15.4245L146.707 9.06057ZM0 9.35347H1.52083V7.35347H0V9.35347ZM4.5625 9.35347H7.60417V7.35347H4.5625V9.35347ZM10.6458 9.35347H13.6875V7.35347H10.6458V9.35347ZM16.7292 9.35347H19.7708V7.35347H16.7292V9.35347ZM22.8125 9.35347H25.8542V7.35347H22.8125V9.35347ZM28.8958 9.35347H31.9375V7.35347H28.8958V9.35347ZM34.9792 9.35347H38.0208V7.35347H34.9792V9.35347ZM41.0625 9.35347H44.1042V7.35347H41.0625V9.35347ZM47.1458 9.35347H50.1875V7.35347H47.1458V9.35347ZM53.2292 9.35347H56.2708V7.35347H53.2292V9.35347ZM59.3125 9.35347H62.3542V7.35347H59.3125V9.35347ZM65.3958 9.35347H68.4375V7.35347H65.3958V9.35347ZM71.4792 9.35347H74.5208V7.35347H71.4792V9.35347ZM77.5625 9.35347H80.6042V7.35347H77.5625V9.35347ZM83.6458 9.35347H86.6875V7.35347H83.6458V9.35347ZM89.7292 9.35347H92.7708V7.35347H89.7292V9.35347ZM95.8125 9.35347H98.8541V7.35347H95.8125V9.35347ZM101.896 9.35347H104.937V7.35347H101.896V9.35347ZM107.979 9.35347H111.021V7.35347H107.979V9.35347ZM114.062 9.35347H117.104V7.35347H114.062V9.35347ZM120.146 9.35347H123.187V7.35347H120.146V9.35347ZM126.229 9.35347H129.271V7.35347H126.229V9.35347ZM132.312 9.35347H135.354V7.35347H132.312V9.35347ZM138.396 9.35347H141.437V7.35347H138.396V9.35347ZM144.479 9.35347H146V7.35347H144.479V9.35347ZM146.707 9.06057C147.098 8.67005 147.098 8.03688 146.707 7.64636L140.343 1.2824C139.953 0.89187 139.319 0.89187 138.929 1.2824C138.538 1.67292 138.538 2.30609 138.929 2.69661L144.586 8.35347L138.929 14.0103C138.538 14.4008 138.538 15.034 138.929 15.4245C139.319 15.815 139.953 15.815 140.343 15.4245L146.707 9.06057ZM0 9.35347H1.52083V7.35347H0V9.35347ZM4.5625 9.35347H7.60417V7.35347H4.5625V9.35347ZM10.6458 9.35347H13.6875V7.35347H10.6458V9.35347ZM16.7292 9.35347H19.7708V7.35347H16.7292V9.35347ZM22.8125 9.35347H25.8542V7.35347H22.8125V9.35347ZM28.8958 9.35347H31.9375V7.35347H28.8958V9.35347ZM34.9792 9.35347H38.0208V7.35347H34.9792V9.35347ZM41.0625 9.35347H44.1042V7.35347H41.0625V9.35347ZM47.1458 9.35347H50.1875V7.35347H47.1458V9.35347ZM53.2292 9.35347H56.2708V7.35347H53.2292V9.35347ZM59.3125 9.35347H62.3542V7.35347H59.3125V9.35347ZM65.3958 9.35347H68.4375V7.35347H65.3958V9.35347ZM71.4792 9.35347H74.5208V7.35347H71.4792V9.35347ZM77.5625 9.35347H80.6042V7.35347H77.5625V9.35347ZM83.6458 9.35347H86.6875V7.35347H83.6458V9.35347ZM89.7292 9.35347H92.7708V7.35347H89.7292V9.35347ZM95.8125 9.35347H98.8541V7.35347H95.8125V9.35347ZM101.896 9.35347H104.937V7.35347H101.896V9.35347ZM107.979 9.35347H111.021V7.35347H107.979V9.35347ZM114.062 9.35347H117.104V7.35347H114.062V9.35347ZM120.146 9.35347H123.187V7.35347H120.146V9.35347ZM126.229 9.35347H129.271V7.35347H126.229V9.35347ZM132.312 9.35347H135.354V7.35347H132.312V9.35347ZM138.396 9.35347H141.437V7.35347H138.396V9.35347ZM144.479 9.35347H146V7.35347H144.479V9.35347Z" fill="url(#paint0_linear_1493_1197)"/>
</g>
<defs>
<linearGradient id="paint0_linear_1493_1197" x1="0" y1="8.85347" x2="146" y2="8.85347" gradientUnits="userSpaceOnUse">
<stop stop-color="white"/>
<stop offset="1" stop-color="#191919"/>
</linearGradient>
<clipPath id="clip0_1493_1197">
<rect width="147" height="16" fill="white"/>
</clipPath>
</defs>
</svg>
