<svg width="74" height="37" viewBox="0 0 74 37" fill="none" xmlns="http://www.w3.org/2000/svg">
<path d="M19.4961 15.4922V16.4062H16.3789V17.3086H20.6328V18.2227H10.9883V17.3086H15.2539V16.4062H12.2539V13.1719H19.3906V14.0859H13.3789V15.4922H19.4961ZM12.1367 19.8867V19.0195H19.4141V21.5273H13.2852V22.4531H19.7305V23.332H12.1602V20.707H18.3008V19.8867H12.1367ZM24.6172 13.5703C26.1992 13.5703 27.3359 15.0234 27.3359 17.3086C27.3359 19.6055 26.1992 21.0703 24.6172 21.0703C23.0352 21.0703 21.8984 19.6055 21.8984 17.3086C21.8984 15.0234 23.0352 13.5703 24.6172 13.5703ZM22.9883 17.3086C22.9883 19.0078 23.6562 20.0508 24.6172 20.0508C25.5781 20.0508 26.2461 19.0078 26.2461 17.3086C26.2461 15.6328 25.5781 14.5898 24.6172 14.5898C23.6562 14.5898 22.9883 15.6328 22.9883 17.3086ZM28.8828 23.4492V12.7734H30.0195V16.9688H31.707V17.918H30.0195V23.4492H28.8828ZM40.8008 12.7617V17.0273H42.4414V17.9648H40.8008V23.4375H39.6641V12.7617H40.8008ZM32.5742 20.6016C35.2227 19.2539 36.6406 17.3203 36.875 14.8359H33.0898V13.8984H38.0234C38.0234 16.9805 36.6875 19.7227 33.207 21.4688L32.5742 20.6016ZM52.1328 12.7734V23.4375H50.9961V12.7734H52.1328ZM43.4375 20.6016C46.25 19.2422 47.6094 17.3203 47.8203 14.8242H43.9531V13.9102H48.9805C48.9805 17.0508 47.6797 19.7461 44.0469 21.5039L43.4375 20.6016Z" fill="#393939"/>
<path d="M60 22.5L64 18.5L60 14.5" stroke="#393939" stroke-width="1.08333"/>
</svg>
