<svg width="1443" height="815" viewBox="0 0 1443 815" fill="none" xmlns="http://www.w3.org/2000/svg">
<g clip-path="url(#clip0_1719_1826)">
<path d="M1443 0H0V815H1443V0Z" fill="white"/>
<mask id="mask0_1719_1826" style="mask-type:luminance" maskUnits="userSpaceOnUse" x="0" y="245" width="1440" height="570">
<path d="M1440 245H0V815H1440V245Z" fill="white"/>
</mask>
<g mask="url(#mask0_1719_1826)">
<path d="M1420.35 603.971L1397.9 920.871L969.426 890.519L991.874 573.618C1000.26 455.297 1102.97 366.173 1221.29 374.555C1339.61 382.936 1428.73 485.65 1420.35 603.971Z" fill="#FDFDFD" stroke="#191919" stroke-width="8.94559"/>
<path d="M1296.17 535.019C1295.34 533.515 1293.94 532.4 1292.74 531.237C1293.71 531.413 1296.82 532.575 1297.73 533.016C1300.71 534.457 1307.71 541.102 1312.45 547.375C1313.75 549.087 1315.68 551.413 1316.3 553.621C1316.67 554.94 1316.88 555.22 1317.21 557.596C1317.61 560.393 1316.47 563.693 1315.06 564.358C1313.13 565.271 1311.11 565.645 1308.43 564.066C1305.76 562.486 1303.89 560.863 1301.88 553.35C1301.1 550.608 1300.39 547.309 1299.62 544.573C1298.66 541.139 1297.9 538.165 1296.17 535.019Z" fill="#5FB2FF"/>
<path d="M1309.91 531.273C1309.16 530.766 1308.25 530.622 1307.42 530.391C1307.91 530.195 1309.71 530.101 1310.24 530.054C1311.96 529.9 1316.69 530.924 1320.38 532.66C1321.39 533.134 1322.83 533.728 1323.65 534.646C1324.13 535.195 1324.3 535.273 1325.02 536.36C1325.87 537.64 1325.63 539.261 1325.4 540.058C1325.23 540.65 1324.17 542.075 1322.56 542.071C1320.95 542.068 1319.65 541.893 1316.93 538.737C1315.91 537.6 1314.79 536.162 1313.78 535.024C1312.52 533.595 1311.46 532.334 1309.91 531.273Z" fill="#5FB2FF"/>
<path d="M1119.72 583.048C1116.12 583.024 1113.28 577.99 1113.38 571.803C1113.47 565.616 1116.46 560.62 1120.06 560.643C1123.66 560.667 1126.49 565.701 1126.4 571.888C1126.31 578.075 1123.31 583.071 1119.72 583.048Z" fill="#191919"/>
<path d="M1073.16 578.635C1069.56 578.611 1066.71 573.826 1066.8 567.946C1066.89 562.067 1069.88 557.32 1073.49 557.343C1077.09 557.367 1079.94 562.152 1079.85 568.032C1079.76 573.911 1076.76 578.658 1073.16 578.635Z" fill="#191919"/>
<path d="M1222.18 686.053C1219.51 685.681 1216.22 685.224 1212.42 684.702C1201.71 683.227 1186.99 681.23 1170.98 679.142C1138.99 674.97 1101.69 670.412 1080.83 668.934C1048.53 666.646 1006.31 665.941 974.706 665.77C954.941 665.663 940.778 646.478 946.655 627.684C950.792 614.454 963.718 606.005 977.496 607.525L1187.29 630.671C1202.99 632.403 1215.14 645.165 1214.79 660.516C1214.61 668.008 1217.6 676.252 1220.36 682.294C1220.98 683.639 1221.59 684.901 1222.18 686.053Z" fill="#FFDC27"/>
<path d="M1222.18 686.053C1219.51 685.681 1216.22 685.224 1212.42 684.702C1201.71 683.227 1186.99 681.23 1170.98 679.142C1138.99 674.97 1101.69 670.412 1080.83 668.934C1048.53 666.646 1006.31 665.941 974.706 665.77C954.941 665.663 940.778 646.478 946.655 627.684C950.792 614.454 963.718 606.005 977.496 607.525L1187.29 630.671C1202.99 632.403 1215.14 645.165 1214.79 660.516C1214.61 668.008 1217.6 676.252 1220.36 682.294C1220.98 683.639 1221.59 684.901 1222.18 686.053Z" fill="url(#paint0_linear_1719_1826)" fill-opacity="0.2"/>
<path d="M1222.18 686.053C1219.51 685.681 1216.22 685.224 1212.42 684.702C1201.71 683.227 1186.99 681.23 1170.98 679.142C1138.99 674.97 1101.69 670.412 1080.83 668.934C1048.53 666.646 1006.31 665.941 974.706 665.77C954.941 665.663 940.778 646.478 946.655 627.684C950.792 614.454 963.718 606.005 977.496 607.525L1187.29 630.671C1202.99 632.403 1215.14 645.165 1214.79 660.516C1214.61 668.008 1217.6 676.252 1220.36 682.294C1220.98 683.639 1221.59 684.901 1222.18 686.053Z" stroke="#191919" stroke-width="7.66765"/>
<path d="M1122.51 540.053C1121.87 538.632 1121.85 537.17 1126.92 542.692C1131.99 548.214 1138.07 548.706 1140.48 548.261" stroke="#191919" stroke-width="6.38971" stroke-linecap="round" stroke-linejoin="round"/>
<path d="M1062.71 533.965C1061.53 533.03 1060.89 531.749 1067.78 534.105C1074.67 536.46 1080.31 533.877 1082.26 532.291" stroke="#191919" stroke-width="6.38971" stroke-linecap="round" stroke-linejoin="round"/>
<path d="M1029.53 837.775C1023.36 869.631 1013.2 883.226 1002.85 888.363C992.468 893.515 980.741 890.76 969.525 886.55C958.306 882.338 948.162 876.879 941.927 865.643C935.629 854.292 932.589 835.71 938.795 803.712C945.1 771.206 952.97 730.713 965.134 700.566C971.222 685.476 978.226 673.405 986.321 666.193C994.216 659.16 1002.95 656.87 1013.15 660.636C1024.27 665.968 1031.65 675.104 1036.37 687.175C1041.2 699.493 1043.22 714.809 1043.29 731.855C1043.45 765.957 1035.84 805.261 1029.53 837.775Z" fill="#FDFDFD" stroke="#191919" stroke-width="8.94559"/>
<path d="M1119.27 820.745C1124.41 850.926 1120.63 867.848 1114.12 877.703C1107.66 887.49 1097.75 891.489 1087.63 894.041C1077.52 896.592 1068.03 897.488 1059.74 891.571C1051.27 885.518 1043.01 871.593 1037.84 841.284C1032.61 810.531 1026.1 772.208 1026.24 740.241C1026.31 724.232 1028.05 710.285 1032.18 699.846C1036.19 689.673 1042.26 683.24 1051.14 680.928C1061.3 679.413 1069.84 682.944 1077.34 690.476C1085 698.175 1091.42 709.93 1096.84 724.224C1107.69 752.804 1114.04 789.984 1119.27 820.745Z" fill="#FDFDFD" stroke="#191919" stroke-width="8.94559"/>
<path d="M-130.095 630.082L-130.094 630.182L-130.096 630.281L-135.427 873.871H376.357V515.5C376.357 375.194 262.616 261.453 122.309 261.453C-19.4445 261.453 -133.777 377.463 -131.711 519.202L-130.095 630.082Z" fill="#005AFF" stroke="#191919" stroke-width="10.9061"/>
<path d="M224.29 508.491C223.726 511.286 222.391 513.58 220.823 515.05C219.25 516.524 217.63 517.029 216.279 516.82C214.928 516.61 213.605 515.649 212.705 513.791C211.807 511.939 211.452 509.383 212.017 506.587C212.581 503.792 213.916 501.498 215.484 500.028C217.057 498.554 218.676 498.049 220.028 498.258C221.379 498.468 222.702 499.43 223.602 501.287C224.5 503.14 224.855 505.696 224.29 508.491Z" fill="#191919" stroke="#191919" stroke-width="5.27356"/>
<path d="M282.73 512.677C282.489 515.222 281.489 517.384 280.199 518.832C278.907 520.28 277.473 520.883 276.2 520.819C274.928 520.756 273.621 520.017 272.616 518.455C271.611 516.893 271.03 514.652 271.272 512.108C271.514 509.563 272.514 507.401 273.804 505.953C275.095 504.505 276.53 503.902 277.802 503.966C279.075 504.029 280.381 504.768 281.386 506.33C282.39 507.892 282.972 510.132 282.73 512.677Z" fill="#191919" stroke="#191919" stroke-width="5.27356"/>
<path d="M193.641 623.628C199.952 588.503 210.724 577.326 216.834 569.841C238.699 546.846 269.586 565.231 278.2 584.676C285.971 602.218 282.93 637.061 277.105 655.706C265.383 693.228 221.939 700.541 206.837 696.229C184.437 689.833 187.331 658.753 193.641 623.628Z" fill="white" stroke="#191919" stroke-width="7.59071" stroke-linecap="round" stroke-linejoin="round"/>
<path d="M195.41 476.638C202.315 469.623 224.185 463.31 239.035 482.93" stroke="#191919" stroke-width="5.8725" stroke-linecap="round"/>
<path d="M261.687 478.316C266.862 472.755 282.112 467.967 291.646 484.24" stroke="#191919" stroke-width="5.8725" stroke-linecap="round"/>
<path d="M357.738 764.269L387.73 875.131C347.111 880.806 291.347 899.035 282.765 881.295C271.54 858.091 263.647 780.195 257.936 748.919C249.891 723.979 236.185 692.087 241.54 659.205C243.599 646.564 253.008 613.753 302.432 623.93C335.13 630.663 341.253 673.521 341.363 682.729C343.856 690.002 369.069 682.57 357.662 717.764C350.159 740.913 355.569 753.148 357.738 764.269Z" fill="#005AFF" stroke="#191919" stroke-width="9.22821"/>
<path d="M386.7 401.714C395.168 400.676 412.358 406.485 413.376 438.023" stroke="#191919" stroke-width="7.17641" stroke-linecap="round"/>
<path d="M412.538 367.061C430.604 376.638 461.314 408.374 439.623 458.694" stroke="#191919" stroke-width="7.17641" stroke-linecap="round"/>
<path d="M412.536 367.061C430.602 376.639 461.312 408.374 439.621 458.695" stroke="#191919" stroke-width="7.17641" stroke-linecap="round"/>
<path d="M4.99902 707.367C21.1866 700.579 57.6228 694.284 73.8674 723.402" stroke="black" stroke-width="9.22821" stroke-linecap="round"/>
<path d="M83.1338 738.384C87.6026 752.413 96.4313 790.957 95.996 832.902" stroke="black" stroke-width="9.22821" stroke-linecap="round"/>
<path d="M350.335 579.734H500.753C516.144 579.734 528.62 567.257 528.62 551.867C528.62 536.476 516.144 524 500.753 524H389.397C370.667 524 355.151 539.04 355.951 557.435C356.273 564.863 354.104 571.639 351.935 576.471C351.395 577.674 350.85 578.768 350.335 579.734Z" fill="white" stroke="#191919" stroke-width="6"/>
<path d="M388.014 541.157H388.413C388.879 541.157 389.559 542.783 390.453 546.036C392.079 546.206 392.892 546.612 392.892 547.255C392.619 547.728 392.482 548.271 392.482 548.885H388.014C385.028 548.885 383.535 548.478 383.535 547.665V546.446L383.945 545.636L386.783 546.036H388.014V545.636C387.467 543.87 387.193 542.647 387.193 541.967C387.282 541.427 387.556 541.157 388.014 541.157ZM397.36 544.816H398.99L399.4 547.665H403.059L403.458 549.694V550.105L400.62 550.515C400.62 550.241 400.483 550.105 400.21 550.105C399.936 550.555 399.8 551.232 399.8 552.134H398.58C397.848 552.134 397.309 550.238 396.961 546.446C397.227 545.973 397.36 545.429 397.36 544.816ZM388.413 549.295C391.399 549.295 392.892 550.921 392.892 554.174C392.094 556.073 390.874 557.023 389.233 557.023C386.521 556.565 385.164 555.208 385.164 552.954V551.734L385.564 549.694H386.384C386.65 549.694 386.783 549.831 386.783 550.105L388.413 549.295ZM387.193 552.134V552.954C387.74 554.041 388.553 554.584 389.633 554.584C390.874 554.052 391.554 553.508 391.673 552.954L390.453 552.134H387.193ZM394.511 554.983H394.921L395.331 557.023V559.462L399.8 558.243L400.21 559.052V560.272C400.21 560.9 398.31 561.576 394.511 562.301C393.986 562.034 393.58 561.901 393.291 561.901V556.203C393.291 555.818 393.698 555.412 394.511 554.983ZM419.657 547.266H420.056C420.736 547.266 421.279 548.756 421.686 551.734C423.142 551.734 424.088 552.278 424.524 553.364C424.524 553.808 423.711 554.351 422.085 554.994C422.085 556.073 421.682 556.613 420.876 556.613H420.466C419.697 556.613 419.154 553.634 418.836 547.676L419.657 547.266ZM413.559 547.676H415.588C416.127 547.758 416.397 548.028 416.397 548.486V548.896C415.858 555.401 415.181 558.653 414.368 558.653H413.958C413.315 557.84 410.606 557.16 405.831 556.613C405.291 555.733 405.022 555.057 405.022 554.584L405.432 548.896H407.461V554.174C409.745 554.447 411.641 554.854 413.149 555.393L414.368 550.515H413.958C413.197 550.515 411.301 551.058 408.27 552.145V549.705C409.815 548.353 411.578 547.676 413.559 547.676ZM442.74 546.878H443.14C444.226 546.878 445.039 549.853 445.579 555.803L444.359 556.624H443.96C443.206 556.624 442.393 553.645 441.521 547.688L442.74 546.878ZM437.053 547.688C437.326 548.161 437.463 548.7 437.463 549.306C436.864 549.735 434.019 550.411 428.926 551.335C428.926 552.015 429.199 553.778 429.746 556.624C433.797 555.811 436.096 555.404 436.642 555.404L437.463 556.624V557.433C437.463 558.076 434.754 558.616 429.336 559.052H428.926C427.507 559.052 426.56 555.94 426.087 549.716C429.894 548.364 433.549 547.688 437.053 547.688ZM452.009 539.128C452.689 539.128 453.369 540.481 454.049 543.186H456.078C456.618 543.275 456.888 543.548 456.888 544.007V545.636C453.702 545.902 451.4 546.036 449.98 546.036H448.351C447.811 546.036 447.541 545.766 447.541 545.226V544.007C447.623 543.46 447.892 543.186 448.351 543.186H451.61V542.787C451.063 541.893 450.79 541.08 450.79 540.348C450.79 539.956 451.196 539.549 452.009 539.128ZM460.957 542.377H462.587L462.997 544.406H464.216L467.055 544.816V546.446C467.055 546.985 466.785 547.255 466.245 547.255H463.396C463.396 548.881 462.989 549.694 462.176 549.694C461.363 549.694 460.824 547.662 460.558 543.596C460.824 543.072 460.957 542.665 460.957 542.377ZM447.94 547.665H449.57V549.295C449.57 549.561 449.433 549.694 449.16 549.694C449.522 551.32 449.929 552.134 450.38 552.134H451.2C452.604 552.134 453.417 551.727 453.639 550.914C453.639 550.426 452.42 550.02 449.98 549.694V548.885C450.247 548.36 450.38 547.954 450.38 547.665H452.42C453.891 547.665 454.973 548.342 455.668 549.694V550.914C455.668 553.117 453.905 554.473 450.38 554.983H449.57C448.484 554.443 447.671 553.63 447.131 552.544V551.324C447.131 550.644 447.401 549.425 447.94 547.665ZM462.997 552.134C463.263 552.614 463.396 553.157 463.396 553.763V556.203C462.701 557.563 461.618 558.243 460.147 558.243H456.888C456.348 558.324 456.078 558.594 456.078 559.052C459.065 559.325 460.558 559.732 460.558 560.272V561.491C460.558 562.031 460.284 562.301 459.737 562.301H459.327C455.262 562.301 453.229 561.624 453.229 560.272C453.229 557.019 455.942 555.393 461.367 555.393V554.584H460.957C460.144 554.584 459.061 554.854 457.708 555.393C457.183 555.12 456.777 554.983 456.489 554.983V553.353C456.489 552.54 458.658 552.134 462.997 552.134ZM475.525 547.277H475.925C477.824 547.277 478.774 548.227 478.774 550.127V551.335C478.774 554.114 476.335 556.01 471.456 557.023L471.057 559.052V559.872C471.139 560.412 471.408 560.682 471.867 560.682L477.144 559.872L477.954 561.081V561.901C477.954 562.714 475.655 563.121 471.057 563.121C469.431 562.559 468.618 561.476 468.618 559.872V557.433C468.618 555.319 470.647 553.967 474.705 553.375C475.518 552.333 475.925 551.113 475.925 549.716C473.086 550.256 470.921 550.526 469.427 550.526L469.028 549.716V548.497C469.028 547.684 471.194 547.277 475.525 547.277ZM481.202 550.127H482.023C482.643 550.127 483.32 551.343 484.052 553.774H485.271C485.759 553.774 486.165 552.559 486.491 550.127H487.699C488.571 550.127 489.115 553.102 489.329 559.052L488.109 559.872C486.964 559.872 486.287 558.653 486.08 556.214H484.451C483.911 556.214 483.508 557.027 483.242 558.653H482.023C481.343 558.653 480.936 558.11 480.803 557.023C480.803 556.735 480.936 556.328 481.202 555.803C480.663 553.372 480.393 551.612 480.393 550.526L481.202 550.127ZM496.569 543.208C499.821 543.534 501.447 545.156 501.447 548.076C501.447 549.82 499.821 551.989 496.569 554.584H495.349L494.95 552.555C495.305 552.555 496.658 551.198 499.008 548.486V547.266C499.008 546.594 498.465 546.187 497.378 546.047C496.639 546.047 494.61 546.723 491.291 548.076L490.881 547.266C490.881 545.381 492.777 544.029 496.569 543.208ZM496.17 558.243H498.199C499.278 558.679 499.818 559.625 499.818 561.081V562.301C499.818 562.685 499.005 563.498 497.378 564.74H495.349C493.997 564.06 493.32 562.84 493.32 561.081C493.668 559.189 494.618 558.243 496.17 558.243ZM495.76 561.491V561.901H496.979C497.519 561.901 497.789 561.628 497.789 561.081L496.979 560.682H496.569C496.029 560.763 495.76 561.033 495.76 561.491Z" fill="#191919"/>
<path d="M312.022 674.792H577.662C599.94 674.792 618 656.732 618 634.455C618 612.177 599.94 594.117 577.662 594.117H370.357C343.517 594.117 321.039 615.847 322.421 642.299C322.96 652.601 319.34 662.002 315.726 668.698C314.452 671.061 313.162 673.116 312.022 674.792Z" fill="#FFDC27" stroke="#191919" stroke-width="6"/>
<path d="M396.119 625.557H396.62C397.089 625.557 397.581 626.053 398.095 627.045V631.999H401.073C401.876 632.658 402.534 632.987 403.049 632.987V633.975C403.049 634.634 402.719 634.963 402.061 634.963H398.095L398.596 639.917V640.905H397.608C396.408 640.905 395.582 637.936 395.131 631.999C395.131 631.169 395.46 629.021 396.119 625.557ZM383.735 626.044H386.212C387.764 626.044 389.415 630.506 391.165 639.429H390.665C390.024 639.754 389.532 639.917 389.189 639.917C388.522 638.978 387.529 635.676 386.212 630.01L385.224 629.522C383.239 632.157 381.588 635.292 380.27 638.929H379.769C379.111 638.929 378.781 638.599 378.781 637.941V636.452C378.781 634.557 380.433 631.088 383.735 626.044ZM410.411 624.054H411.9C415.536 624.054 417.355 625.376 417.355 628.02C416.407 628.967 413.597 630.785 408.923 633.474C408.923 633.826 408.756 634.322 408.422 634.963L409.423 635.45H412.888L415.365 635.951V637.44C415.365 638.099 415.036 638.428 414.377 638.428H409.911C406.608 638.184 404.957 637.192 404.957 635.45C404.957 633.077 407.601 630.271 412.888 627.032H411.399L405.458 627.519L404.957 626.531V625.543C404.957 624.551 406.775 624.054 410.411 624.054ZM422.308 624.555H423.296C424.144 624.555 424.808 626.039 425.286 629.008C428.922 629.008 430.74 629.504 430.74 630.497V631.485L428.25 631.986H424.785C424.785 633.971 423.792 634.963 421.807 634.963C421.807 634.304 421.478 633.975 420.819 633.975L421.32 630.497V625.543C421.419 624.884 421.749 624.555 422.308 624.555ZM423.797 637.44C426.107 637.963 427.262 638.789 427.262 639.917C426.269 645.538 425.277 648.349 424.284 648.349H421.807C418.171 648.349 416.353 646.693 416.353 643.382C416.353 640.196 418.834 638.216 423.797 637.44ZM419.831 642.894V644.87H422.809L423.797 641.405V640.905C421.153 641.509 419.831 642.172 419.831 642.894ZM438.103 620.089H441.08C445.375 620.089 447.523 620.747 447.523 622.065V623.554C447.171 623.554 446.675 623.721 446.034 624.054C444.951 623.396 443.959 623.066 443.056 623.066H438.604C438.604 624.384 438.437 625.042 438.103 625.042C438.437 625.62 438.604 626.283 438.604 627.032H445.046C445.515 627.032 446.011 627.528 446.535 628.521C446.039 629.838 445.542 630.497 445.046 630.497H439.091C437.295 630.497 435.973 629.838 435.125 628.521V621.578C435.459 620.585 436.452 620.089 438.103 620.089ZM442.068 632.486H447.523C448.272 632.486 448.768 633.312 449.012 634.963C447.92 635.622 446.927 635.951 446.034 635.951H439.592L433.636 636.452C432.978 635.378 432.648 634.553 432.648 633.975C433.668 632.983 436.808 632.486 442.068 632.486ZM443.056 637.941H444.044C447.022 637.941 448.511 639.921 448.511 643.882C448.123 645.867 444.983 646.86 439.091 646.86V647.347C438.766 647.934 438.604 648.597 438.604 649.337H446.034C446.512 649.337 447.008 649.833 447.523 650.825V652.801H442.068C439.993 652.801 437.679 652.305 435.125 651.313V649.337C435.125 645.7 437.273 643.882 441.568 643.882C443.887 643.548 445.046 643.052 445.046 642.393C445.046 641.735 444.712 641.405 444.044 641.405H443.557L438.604 641.906L437.602 640.417V639.416C437.602 638.432 439.42 637.941 443.056 637.941ZM468.799 618.559H469.286C469.764 618.559 470.261 619.056 470.775 620.048V623.527C470.775 625.827 471.109 628.972 471.776 632.96L470.288 633.948C468.627 633.948 467.797 630.474 467.797 623.527V619.561C467.906 618.893 468.239 618.559 468.799 618.559ZM457.376 619.561C461.012 620.553 462.83 622.209 462.83 624.528V626.504C462.83 629.734 460.182 632.216 454.886 633.948C452.242 633.948 450.92 631.963 450.92 627.993C450.92 623.301 452.409 620.653 455.386 620.048C455.964 619.723 456.627 619.561 457.376 619.561ZM453.897 628.494V629.482C454.006 630.149 454.335 630.483 454.886 630.483C458.531 629.725 460.353 627.903 460.353 625.015V624.528C460.02 623.527 459.027 623.026 457.376 623.026H456.388C455.233 623.026 454.403 624.848 453.897 628.494ZM485.473 624.555C486.222 625.214 489.529 625.706 495.394 626.03C496.387 627.239 496.883 628.399 496.883 629.509C495.809 635.491 494.487 639.127 492.917 640.417H491.428V638.929L494.406 630.01C494.072 629.369 493.905 628.873 493.905 628.521H488.952C486.416 628.521 484.927 627.858 484.485 626.531V625.543C484.585 624.884 484.914 624.555 485.473 624.555ZM506.79 624.555H507.778C508.771 624.555 509.601 629.843 510.268 640.417L509.267 640.905H508.78C507.453 640.905 506.79 636.28 506.79 627.032V624.555ZM516.643 628.006H522.598L525.075 628.507V629.996C525.075 630.655 524.746 630.984 524.087 630.984L521.109 630.483C517.139 630.736 515.154 631.07 515.154 631.485C515.154 633.614 515.484 636.095 516.142 638.929H517.144C521.971 638.261 524.615 637.927 525.075 637.927L525.576 638.929V640.905C524.98 640.905 521.836 641.401 516.142 642.393C513.499 641.076 512.177 637.273 512.177 630.984C512.177 628.999 513.666 628.006 516.643 628.006ZM529.041 628.507H530.529C531.387 628.507 532.05 630.822 532.519 635.45H533.006L535.497 634.95L536.485 636.438V636.939C536.485 637.39 535.325 638.216 533.006 639.416C533.006 640.742 532.677 641.405 532.018 641.405H531.531C530.042 641.405 529.212 637.106 529.041 628.507ZM543.834 628.02C546.351 628.02 547.84 629.671 548.3 632.974V634.963C548.3 637.607 546.315 638.929 542.345 638.929V641.906L544.822 642.393H546.811V644.87C546.811 645.538 546.315 645.872 545.323 645.872C542.056 645.872 539.909 644.879 538.88 642.894V642.393C538.88 637.765 540.698 635.45 544.335 635.45H544.822V632.486C544.822 632.252 544.325 631.755 543.333 630.998L542.345 631.485H539.367C538.709 631.485 538.379 631.155 538.379 630.497V629.008C540.725 628.349 542.543 628.02 543.834 628.02ZM559.696 630.497H561.185C562.502 634.945 563.161 639.24 563.161 643.382L561.672 644.383H561.185C560.607 644.383 559.615 640.084 558.207 631.485L559.696 630.497ZM550.777 633.474C552.076 633.474 554.386 633.971 557.707 634.963V636.939C557.364 636.939 556.872 637.106 556.231 637.44C551.927 637.196 549.775 636.7 549.775 635.951V634.462C549.884 633.804 550.217 633.474 550.777 633.474ZM551.264 638.929H558.708V640.905C558.708 641.897 556.89 642.393 553.254 642.393H550.777C550.109 642.393 549.775 642.064 549.775 641.405V640.417C549.775 639.939 550.272 639.443 551.264 638.929Z" fill="#191919"/>
<path d="M519.354 270.685H520.278C521.943 273.548 523.466 281.181 524.848 293.583H526.696C529.675 293.583 532.73 292.667 535.86 290.836C538.29 291.452 539.505 293.283 539.505 296.329C539.505 297.112 534.32 298.635 523.949 300.899C521.269 300.899 519.13 291.136 517.532 271.609L519.354 270.685ZM544.999 273.432H547.771C548.986 277.444 549.901 282.329 550.517 288.089H553.264L557.834 287.165L559.656 289.912V291.76C559.656 293.325 556.91 294.54 551.416 295.406V300H548.669C546.389 300 544.866 292.06 544.1 276.178C544.699 274.997 544.999 274.081 544.999 273.432ZM571.22 266.115C580.975 266.115 585.852 270.077 585.852 278.001C585.852 284.077 580.667 287.748 570.296 289.013C564.802 286.966 562.056 283.603 562.056 278.925V278.001C562.056 272.125 565.11 268.163 571.22 266.115ZM566.625 278.925C567.624 281.988 569.455 283.52 572.118 283.52C575.331 283.52 578.078 281.68 580.359 278.001V275.255C580.359 274.389 579.443 273.473 577.612 272.508H574.865C572.701 274.422 570.262 275.954 567.549 277.102L566.625 278.925ZM593.193 273.432H595.94C597.155 280.84 598.678 288.164 600.51 295.406C599.91 296.587 599.611 297.503 599.611 298.152C595.932 298.152 593.485 292.967 592.269 282.596L591.371 274.356L593.193 273.432ZM584.953 296.329L585.852 298.152V299.076C585.852 301.523 578.528 302.747 563.878 302.747C562.996 302.747 562.08 301.831 561.132 300V297.253C573.134 296.637 581.074 296.329 584.953 296.329ZM792.615 263.419C793.498 263.419 794.413 264.326 795.362 266.14L794.463 277.127C799.94 278.01 802.678 279.233 802.678 280.798V283.52C802.678 284.752 802.071 285.368 800.855 285.368C797.559 284.752 794.813 284.444 792.615 284.444V286.266C792.615 290.761 791.708 293.2 789.894 293.583H788.97C788.054 293.583 787.139 292.367 786.223 289.937C789.186 272.258 791.317 263.419 792.615 263.419ZM768.844 266.14C773.122 267.672 775.261 270.119 775.261 273.482V275.305C771.882 290.536 769.443 298.152 767.945 298.152H765.198C765.198 296.787 764.89 295.572 764.274 294.507C767.936 282.571 769.768 275.862 769.768 274.381V273.482H767.945L758.781 274.381L756.958 271.634V268.887C756.958 267.505 760.92 266.59 768.844 266.14ZM844.008 256.976L844.907 258.799V259.723C840.812 272.541 838.065 278.95 836.667 278.95H835.768L833.021 277.102H824.781C823.899 277.102 822.983 276.187 822.034 274.356V265.217C822.034 260.722 822.95 258.283 824.781 257.9H827.528L826.604 268.862V269.786C826.804 271.001 827.419 271.609 828.452 271.609H835.768C835.768 270.527 836.683 267.788 838.515 263.394C833.704 265.225 830.649 266.14 829.35 266.14L828.452 264.293V262.47C828.452 259.806 833.637 257.975 844.008 256.976ZM851.324 258.799C852.723 258.799 853.946 261.854 854.995 267.963C860.472 267.963 863.21 268.879 863.21 270.71V271.609C863.21 272.491 862.295 273.407 860.463 274.356H855.894C855.894 277.419 854.978 278.95 853.147 278.95C851.1 278.95 849.576 273.765 848.578 263.394C849.36 260.331 850.276 258.799 851.324 258.799ZM840.337 287.19H842.16L843.084 291.76V294.507H844.008L853.147 293.583L854.995 296.329C854.995 299.376 849.801 300.899 839.413 300.899L837.591 298.152V296.329C837.591 295.713 837.899 295.406 838.515 295.406L837.591 293.583C838.207 289.321 839.122 287.19 840.337 287.19ZM882.988 258.824C885.419 259.74 886.634 260.655 886.634 261.571V262.495C886.634 263.377 885.719 264.293 883.887 265.242H874.748C872.301 266.057 871.078 268.804 871.078 273.482C871.078 274.697 874.132 275.604 880.242 276.203C881.307 275.604 882.522 275.305 883.887 275.305H884.811L889.381 276.203V279.874C889.381 281.089 888.773 281.697 887.558 281.697H876.571C868.647 281.697 864.685 278.343 864.685 271.634C866.35 263.71 870.312 259.748 876.571 259.748C880.067 259.748 882.206 259.44 882.988 258.824ZM892.128 290.836L893.95 293.583V294.507C893.95 295.555 892.427 296.471 889.381 297.253C888.765 297.253 888.457 296.945 888.457 296.329C881.981 297.545 875.581 298.152 869.255 298.152L867.432 295.431V293.583C867.615 292.367 868.223 291.76 869.255 291.76C882.239 291.144 889.864 290.836 892.128 290.836ZM899.071 257.9H900.894C901.776 257.9 902.692 258.816 903.641 260.647V272.533L915.527 270.71C917.974 271.626 919.197 272.541 919.197 273.457V274.356C919.197 276.803 913.404 278.026 901.818 278.026H900.894C899.945 278.026 898.722 276.803 897.224 274.356V259.723C897.423 258.508 898.039 257.9 899.071 257.9ZM897.224 282.596C904.781 283.212 908.751 283.52 909.134 283.52L918.273 282.596C920.72 283.511 921.944 284.427 921.944 285.343V287.19C921.944 288.406 921.336 289.013 920.121 289.013H901.818C898.539 289.013 896.399 287.79 895.401 285.343V284.444C895.584 283.212 896.191 282.596 897.224 282.596ZM899.071 294.507L903.641 295.406V303.646C906.454 303.646 911.332 303.038 918.273 301.823L921.02 305.493V306.392C921.02 307.841 915.535 309.064 904.565 310.063C900.287 308.998 898.147 306.251 898.147 301.823V299.076L899.071 294.507ZM576.314 327.61C580.743 328.842 584.097 331.289 586.377 334.951V336.774C586.377 341.069 581.8 344.124 572.644 345.938H570.821C565.927 344.357 563.48 341.61 563.48 337.698C563.48 332.438 567.758 329.075 576.314 327.61ZM568.973 337.698C569.173 338.913 569.789 339.521 570.821 339.521H575.391C575.873 339.521 576.789 338.605 578.137 336.774C577.538 335.592 577.238 334.677 577.238 334.028H575.391C572.111 334.028 569.972 335.251 568.973 337.698ZM579.985 354.178C590.972 354.794 596.465 356.318 596.465 358.748L593.719 362.419L587.301 361.52H584.555C583.09 361.52 581.866 367.621 580.884 379.823H576.314V375.253C576.314 372.19 576.622 367.612 577.238 361.52L575.391 362.419H568.973C567.608 362.419 566.393 362.727 565.328 363.342C562.881 362.427 561.657 361.511 561.657 360.596V358.748C561.657 357.533 567.458 356.318 579.061 355.102C579.061 354.486 579.369 354.178 579.985 354.178ZM609.826 341.394C613.689 341.394 616.427 345.048 618.042 352.356V354.203C618.042 358.465 613.772 360.596 605.232 360.596C604.017 360.796 603.409 361.411 603.409 362.444C603.792 364.275 606.231 365.19 610.725 365.19H617.143C618.358 365.373 618.966 365.981 618.966 367.013V370.684C617.75 370.684 617.143 370.983 617.143 371.583C604.325 370.834 597.916 368.703 597.916 365.19V362.444C597.916 357.549 601.27 355.102 607.979 355.102C609.643 355.102 611.475 354.495 613.472 353.28C611.874 349.368 610.351 347.228 608.903 346.862C604.941 348.094 602.194 348.71 600.662 348.71C599.447 348.71 598.84 348.094 598.84 346.862V344.14C602.802 342.309 606.464 341.394 609.826 341.394ZM635.446 345.039C637.277 345.422 638.193 347.861 638.193 352.356V361.52C638.193 362.885 638.492 364.108 639.092 365.19C637.91 367.97 636.694 369.493 635.446 369.76H634.522C633.307 369.76 632.699 369.152 632.699 367.937V352.356C632.699 347.861 633.615 345.422 635.446 345.039ZM657.047 340.445C660.11 341.294 661.642 343.433 661.642 346.862C661.642 347.944 660.726 350.691 658.895 355.102C660.526 355.801 662.657 358.548 665.287 363.342V366.089L661.642 367.013C659.644 363.501 657.505 361.054 655.224 359.672C650.946 363.284 648.807 366.031 648.807 367.912H645.136L644.237 363.342C649.115 358.615 653.385 353.121 657.047 346.862V345.938C655.832 345.938 655.224 345.63 655.224 345.014L643.314 347.761C642.132 347.162 641.216 346.862 640.567 346.862V343.192C640.567 341.36 646.06 340.445 657.047 340.445ZM674.451 342.268H677.198C679.645 342.268 681.177 350.208 681.793 366.089L679.945 367.013H678.122C676.907 367.013 676.299 366.397 676.299 365.165V363.342C676.299 359.713 675.683 352.689 674.451 342.268ZM724.494 337.698C726.924 338.297 728.139 340.129 728.139 343.192V352.356C728.139 357.233 726.008 359.672 721.747 359.672C721.747 359.023 721.439 358.107 720.823 356.925C721.439 355.743 721.747 354.828 721.747 354.178H720.823C715.413 354.794 712.05 355.102 710.735 355.102L706.166 354.178C703.086 360.288 698.816 363.342 693.356 363.342C686.63 361.944 683.268 358.582 683.268 353.255C683.268 346.746 687.546 341.86 696.103 338.597L705.242 340.445C705.558 340.445 706.781 340.137 708.912 339.521H721.747C721.747 338.905 722.662 338.297 724.494 337.698ZM696.103 344.115C696.103 345.331 694.263 347.162 690.584 349.609L689.685 355.102L695.179 357.849C700.672 355.002 703.419 351.34 703.419 346.862C703.036 345.031 700.597 344.115 696.103 344.115ZM707.988 345.938V347.761L712.583 348.685H717.152L721.747 347.761V345.938H707.988ZM723.57 365.165C725.401 367.513 726.316 370.259 726.316 373.405V377.076L725.393 381.671H721.747C720.515 381.671 719.899 381.055 719.899 379.823V371.583L708.912 372.507C706.465 371.591 705.242 370.675 705.242 369.76V367.912C705.242 366.081 711.351 365.165 723.57 365.165ZM739.702 344.115C749.457 344.115 754.335 348.077 754.335 356.001C754.335 362.077 749.15 365.748 738.779 367.013C733.285 364.966 730.538 361.603 730.538 356.925V356.001C730.538 350.125 733.593 346.163 739.702 344.115ZM735.108 356.925C736.107 359.988 737.938 361.52 740.601 361.52C743.814 361.52 746.561 359.68 748.842 356.001V353.255C748.842 352.389 747.926 351.473 746.095 350.508H743.348C741.184 352.422 738.745 353.954 736.032 355.102L735.108 356.925ZM761.676 351.432H764.423C765.638 358.84 767.161 366.164 768.993 373.405C768.393 374.587 768.094 375.503 768.094 376.152C764.415 376.152 761.968 370.967 760.752 360.596L759.853 352.356L761.676 351.432ZM753.436 374.329L754.335 376.152V377.076C754.335 379.523 747.01 380.747 732.361 380.747C731.479 380.747 730.563 379.831 729.615 378V375.253C741.617 374.637 749.557 374.329 753.436 374.329ZM790.171 328.534C791.054 328.534 791.969 329.45 792.918 331.281V337.698L803.93 338.597V330.357C804.113 329.142 804.721 328.534 805.753 328.534H806.677C808.075 328.534 808.99 333.112 809.423 342.268H810.322V339.521H822.233L824.081 340.445V337.698H815.816C814.6 337.698 813.993 337.082 813.993 335.85V334.028C813.993 332.629 818.271 331.714 826.828 331.281C829.874 340.054 831.397 345.547 831.397 347.761V348.685C831.397 349.9 830.481 350.508 828.65 350.508C827.468 349.909 826.553 349.609 825.904 349.609V345.938L824.98 341.369H824.081C824.081 343.799 823.165 345.014 821.334 345.014H812.17L809.423 343.192C809.423 349.301 808.807 352.356 807.575 352.356H806.677C804.612 352.356 799.419 352.655 791.095 353.255C789.264 351.007 788.348 343.075 788.348 329.458L790.171 328.534ZM793.842 343.192V347.761H800.259L804.829 346.862V343.192H793.842ZM810.322 353.255H811.246C812.461 353.454 813.069 354.07 813.069 355.102C813.069 357.666 812.461 360.721 811.246 364.266C811.862 364.266 812.17 364.566 812.17 365.165L827.726 360.596C828.908 361.212 829.824 361.52 830.473 361.52V366.089C818.238 369.136 811.221 370.659 809.423 370.659L807.575 367.912V360.596C807.575 356.084 808.491 353.637 810.322 353.255ZM834.695 344.041H850.302C852.749 345.256 853.972 347.087 853.972 349.534L852.124 350.458H839.265L834.695 349.534V344.041ZM853.972 353.205C854.888 353.205 855.803 354.428 856.719 356.875C856.103 358.723 855.487 359.647 854.871 359.647C853.889 359.647 847.463 360.255 835.594 361.47L833.771 358.723V355.052L838.366 354.128C838.965 354.128 839.265 354.436 839.265 355.052C841.912 353.821 846.814 353.205 853.972 353.205ZM864.984 360.546H866.807C866.807 367.904 868.338 371.583 871.401 371.583L877.844 372.482V378H870.477C869.262 378.183 868.655 378.791 868.655 379.823L869.578 385.341C869.578 386.224 868.655 387.139 866.807 388.088H864.984C863.752 381.413 863.136 373.763 863.136 365.14V362.394C863.336 361.162 863.952 360.546 864.984 360.546ZM847.53 363.318C852.424 363.318 855.179 365.765 855.795 370.659C855.795 375.553 852.432 378.608 845.707 379.823C845.707 384.118 847.846 386.265 852.124 386.265H855.795C856.411 387.447 856.719 388.363 856.719 389.012C856.103 391.459 854.879 392.682 853.048 392.682L843.859 391.759C840.546 392.375 837.791 392.682 835.594 392.682C834.412 392.067 833.497 391.759 832.847 391.759V386.265H837.442L842.036 385.341L841.112 380.747V378C838.665 378 837.442 375.861 837.442 371.583C837.442 366.073 840.805 363.318 847.53 363.318ZM842.036 370.659C842.036 371.541 842.952 372.457 844.783 373.405C848.462 372.79 850.302 371.874 850.302 370.659V369.735H846.606L842.036 370.659Z" fill="#191919"/>
<path d="M629.953 253.281H630.852C631.901 253.281 633.433 256.943 635.447 264.268C639.109 264.651 640.94 265.566 640.94 267.014C640.324 268.08 640.016 269.303 640.016 270.685H629.953C623.228 270.685 619.866 269.769 619.866 267.938V265.192L620.789 263.369L627.182 264.268H629.953V263.369C628.722 259.39 628.106 256.635 628.106 255.104C628.305 253.888 628.921 253.281 629.953 253.281ZM651.003 261.521H654.674L655.598 267.938H663.838L664.737 272.508V273.432L658.345 274.356C658.345 273.74 658.037 273.432 657.421 273.432C656.805 274.447 656.497 275.97 656.497 278.001H653.75C652.102 278.001 650.887 273.731 650.104 265.192C650.704 264.126 651.003 262.903 651.003 261.521ZM630.852 271.609C637.578 271.609 640.94 275.271 640.94 282.596C639.142 286.874 636.396 289.013 632.7 289.013C626.591 287.981 623.536 284.926 623.536 279.849V277.102L624.435 272.508H626.283C626.882 272.508 627.182 272.816 627.182 273.432L630.852 271.609ZM628.106 278.001V279.849C629.338 282.296 631.169 283.52 633.599 283.52C636.396 282.321 637.927 281.098 638.194 279.849L635.447 278.001H628.106ZM644.586 284.419H645.51L646.434 289.013V294.507L656.497 291.76L657.421 293.583V296.329C657.421 297.744 653.142 299.268 644.586 300.899C643.404 300.3 642.489 300 641.839 300V287.165C641.839 286.3 642.755 285.384 644.586 284.419ZM699.173 267.039H700.072C701.603 267.039 702.827 270.394 703.742 277.102C707.022 277.102 709.153 278.326 710.135 280.773C710.135 281.772 708.304 282.995 704.641 284.444C704.641 286.874 703.734 288.089 701.92 288.089H700.996C699.264 288.089 698.041 281.381 697.325 267.963L699.173 267.039ZM685.439 267.963H690.009C691.224 268.146 691.832 268.754 691.832 269.786V270.71C690.616 285.359 689.093 292.684 687.262 292.684H686.338C684.89 290.853 678.789 289.321 668.035 288.089C666.82 286.108 666.212 284.585 666.212 283.52L667.136 270.71H671.706V282.596C676.849 283.212 681.119 284.127 684.515 285.342L687.262 274.356H686.338C684.624 274.356 680.354 275.579 673.528 278.026V272.533C677.008 269.486 680.978 267.963 685.439 267.963ZM749.115 266.165H750.014C752.461 266.165 754.292 272.866 755.508 286.266L752.761 288.114H751.862C750.164 288.114 748.333 281.406 746.369 267.988L749.115 266.165ZM736.306 267.988C736.921 269.054 737.229 270.269 737.229 271.634C735.881 272.599 729.472 274.123 718.002 276.203C718.002 277.735 718.618 281.705 719.85 288.114C728.973 286.283 734.15 285.368 735.382 285.368L737.229 288.114V289.937C737.229 291.385 731.128 292.601 718.926 293.583H718.002C714.806 293.583 712.675 286.574 711.61 272.558C720.183 269.511 728.415 267.988 736.306 267.988Z" fill="#005AFF"/>
</g>
</g>
<defs>
<linearGradient id="paint0_linear_1719_1826" x1="932.122" y1="632.72" x2="1231.93" y2="653.958" gradientUnits="userSpaceOnUse">
<stop stop-opacity="0"/>
<stop offset="1" stop-color="#F78500"/>
</linearGradient>
<clipPath id="clip0_1719_1826">
<rect width="1443" height="815" fill="white"/>
</clipPath>
</defs>
</svg>
