<svg width="254" height="213" viewBox="0 0 254 213" fill="none" xmlns="http://www.w3.org/2000/svg">
<path d="M109.379 52.954C129.75 49.432 153.043 53.2111 167.262 56.6309C188.187 61.6636 205.603 81.3428 213.975 97.7462C223.511 137.742 190.6 157.028 167.607 164.357C146.864 170.969 104.311 169.194 82.264 164.238C63.3804 159.994 31.8484 151.398 24.2116 141.316C13.9046 127.708 45.4679 140.372 52.6963 122.157C56.5901 112.345 52.5164 97.8557 60.785 84.1216C68.5771 71.1789 85.0092 57.1675 109.379 52.954Z" fill="white" stroke="#060C1B" stroke-width="5.72867" stroke-linecap="round" stroke-linejoin="round"/>
<path d="M203.977 46.9475C211.659 45.51 220.442 47.0525 225.803 48.4483C233.694 50.5025 240.261 58.5349 243.417 65.2302C247.013 81.5552 234.604 89.427 225.934 92.4184C218.112 95.117 202.066 94.3926 193.753 92.3699C186.633 90.6374 174.743 87.1289 171.863 83.0138C167.977 77.4597 179.878 82.6284 182.604 75.1938C184.072 71.1891 182.536 65.2749 185.654 59.6691C188.592 54.3863 194.788 48.6673 203.977 46.9475Z" fill="#005AFF" stroke="#060C1B" stroke-width="5.03202" stroke-linecap="round" stroke-linejoin="round"/>
<path d="M178.362 42.3628C176.515 42.5734 175.176 40.8982 173.889 39.9779C173.491 39.6936 172.883 38.7522 172.853 38.1301C172.817 37.4029 172.979 36.6148 172.981 35.8936C173.246 34.3373 173.304 34.5259 173.574 33.7569C174.404 32.0221 174.926 31.866 175.228 31.5642C177.374 29.9552 177.538 30.4216 179.021 30.4345C180.669 30.565 180.715 31.0489 181.389 32.0082C182.386 33.4268 182.222 35.7216 181.606 37.8154C181.227 39.1038 179.863 42.1916 178.362 42.3628Z" fill="black" stroke="black" stroke-width="1.68512" stroke-linecap="round"/>
<path d="M134.723 34.942C133.245 33.4772 133.227 30.8217 132.811 28.8704C132.683 28.2676 132.778 26.9036 133.113 26.3339C133.506 25.6679 134.078 25.1253 134.494 24.4974C135.584 23.3768 135.518 23.593 136.159 23.1637C137.766 22.3906 138.239 22.7208 138.635 22.7273C141.135 23.2382 140.987 23.7914 142.069 25.1261C143.203 26.7103 142.959 27.1735 142.902 28.6117C142.817 30.7385 141.377 32.5943 139.72 33.8705C138.7 34.6558 135.923 36.1321 134.723 34.942Z" fill="black" stroke="black" stroke-width="1.8376" stroke-linecap="round"/>
<path d="M89.7584 95.9156H90.466C91.2916 95.9156 92.4972 98.7985 94.0827 104.564C96.9656 104.866 98.4071 105.586 98.4071 106.727C97.9222 107.565 97.6798 108.528 97.6798 109.616H89.7584C84.4644 109.616 81.8174 108.895 81.8174 107.454V105.292L82.5447 103.857L87.5766 104.564H89.7584V103.857C88.7887 100.725 88.3039 98.5561 88.3039 97.3505C88.4611 96.3939 88.946 95.9156 89.7584 95.9156ZM106.329 102.402H109.218L109.945 107.454H116.432L117.139 111.051V111.778L112.108 112.505C112.108 112.021 111.865 111.778 111.38 111.778C110.895 112.577 110.653 113.776 110.653 115.375H108.491C107.194 115.375 106.237 112.014 105.621 105.292C106.093 104.453 106.329 103.49 106.329 102.402ZM90.466 110.343C95.7601 110.343 98.4071 113.226 98.4071 118.992C96.9918 122.36 94.8297 124.043 91.9206 124.043C87.1114 123.231 84.7068 120.826 84.7068 116.83V114.668L85.4144 111.051H86.869C87.3407 111.051 87.5766 111.293 87.5766 111.778L90.466 110.343ZM88.3039 115.375V116.83C89.2736 118.756 90.715 119.719 92.6282 119.719C94.8297 118.776 96.0352 117.813 96.2449 116.83L94.0827 115.375H88.3039ZM101.277 120.427H102.004L102.732 124.043V128.368L110.653 126.206L111.38 127.641V129.803C111.38 130.917 108.013 132.116 101.277 133.4C100.347 132.928 99.6257 132.692 99.1147 132.692V122.589C99.1147 121.908 99.8354 121.187 101.277 120.427ZM145.857 106.746H146.565C147.77 106.746 148.733 109.387 149.454 114.668C152.035 114.668 153.713 115.631 154.486 117.557C154.486 118.343 153.044 119.306 150.162 120.446C150.162 122.36 149.447 123.316 148.019 123.316H147.292C145.929 123.316 144.966 118.035 144.402 107.473L145.857 106.746ZM135.046 107.473H138.643C139.6 107.618 140.078 108.096 140.078 108.908V109.636C139.121 121.167 137.922 126.933 136.481 126.933H135.754C134.614 125.491 129.811 124.286 121.346 123.316C120.389 121.757 119.911 120.558 119.911 119.719L120.638 109.636H124.235V118.992C128.284 119.477 131.646 120.197 134.319 121.154L136.481 112.505H135.754C134.404 112.505 131.043 113.469 125.67 115.395V111.071C128.409 108.672 131.534 107.473 135.046 107.473ZM186.781 106.058H187.488C189.415 106.058 190.856 111.333 191.813 121.881L189.651 123.336H188.943C187.606 123.336 186.165 118.055 184.619 107.493L186.781 106.058ZM176.697 107.493C177.182 108.332 177.425 109.288 177.425 110.363C176.363 111.123 171.318 112.322 162.289 113.96C162.289 115.166 162.774 118.291 163.744 123.336C170.925 121.894 175 121.174 175.97 121.174L177.425 123.336V124.771C177.425 125.911 172.622 126.867 163.017 127.641H162.289C159.773 127.641 158.096 122.124 157.257 111.09C164.006 108.692 170.486 107.493 176.697 107.493Z" fill="black"/>
<path d="M40.4072 189.781C41.4854 190.08 42.0244 190.833 42.0244 192.04C42.0244 192.421 41.7021 193.388 41.0576 194.94C41.6318 195.187 42.3818 196.153 43.3076 197.841V198.808L42.0244 199.133C41.3213 197.896 40.5684 197.035 39.7656 196.549C38.2598 197.82 37.5068 198.787 37.5068 199.449H36.2148L35.8984 197.841C37.6152 196.177 39.1182 194.243 40.4072 192.04V191.715C39.9795 191.715 39.7656 191.606 39.7656 191.39L35.5732 192.356C35.1572 192.146 34.835 192.04 34.6064 192.04V190.748C34.6064 190.104 36.54 189.781 40.4072 189.781ZM46.5332 190.423H47.5C48.3613 190.423 48.9004 193.218 49.1172 198.808L48.4668 199.133H47.8252C47.3975 199.133 47.1836 198.916 47.1836 198.482V197.841C47.1836 196.563 46.9668 194.091 46.5332 190.423ZM64.8672 188.814C65.7227 189.025 66.1504 189.67 66.1504 190.748V193.974C66.1504 195.69 65.4004 196.549 63.9004 196.549C63.9004 196.32 63.792 195.998 63.5752 195.582C63.792 195.166 63.9004 194.844 63.9004 194.615H63.5752C61.6709 194.832 60.4873 194.94 60.0244 194.94L58.416 194.615C57.332 196.766 55.8291 197.841 53.9072 197.841C51.54 197.349 50.3564 196.165 50.3564 194.29C50.3564 191.999 51.8623 190.279 54.874 189.131L58.0908 189.781C58.2021 189.781 58.6328 189.673 59.3828 189.456H63.9004C63.9004 189.239 64.2227 189.025 64.8672 188.814ZM54.874 191.073C54.874 191.501 54.2266 192.146 52.9316 193.007L52.6152 194.94L54.5488 195.907C56.4824 194.905 57.4492 193.616 57.4492 192.04C57.3145 191.396 56.4561 191.073 54.874 191.073ZM59.0576 191.715V192.356L60.6748 192.682H62.2832L63.9004 192.356V191.715H59.0576ZM64.542 198.482C65.1865 199.309 65.5088 200.275 65.5088 201.383V202.675L65.1836 204.292H63.9004C63.4668 204.292 63.25 204.075 63.25 203.642V200.741L59.3828 201.066C58.5215 200.744 58.0908 200.422 58.0908 200.1V199.449C58.0908 198.805 60.2412 198.482 64.542 198.482ZM69.6484 186.521H70.624C71.0518 186.521 71.6963 187.704 72.5576 190.071H74.8252C75.1299 190.071 75.4521 190.396 75.792 191.047V191.688C75.792 192.122 75.4697 192.339 74.8252 192.339C73.6533 192.339 71.6055 192.444 68.6816 192.655C67.8203 192.333 67.3896 192.011 67.3896 191.688V190.722C67.3896 190.288 68.4678 190.071 70.624 190.071C69.9736 188.993 69.6484 188.132 69.6484 187.487V186.521ZM79.0264 190.722H79.3428C79.8525 190.722 80.1777 191.475 80.3184 192.98H82.252C82.5625 192.98 82.8877 193.306 83.2275 193.956V194.598C83.2275 195.031 83.0107 195.248 82.5771 195.248H80.96C80.96 196.537 80.7461 197.182 80.3184 197.182H79.9932C79.2139 196.936 78.6748 194.891 78.376 191.047L79.0264 190.722ZM72.2324 193.631C73.6211 193.631 74.4854 194.601 74.8252 196.54C73.7472 197.94 73.208 199.016 73.208 199.766V200.091C74.4971 200.091 75.1416 200.308 75.1416 200.741V201.383C75.1416 202.115 73.0967 202.654 69.0068 203L68.3564 202.033V201.383C68.5732 200.738 69.2207 200.416 70.2988 200.416H71.2656V199.124C70.1465 199.124 69.3936 198.154 69.0068 196.215V195.89C69.7744 194.384 70.8496 193.631 72.2324 193.631ZM70.624 196.54V196.856L72.2324 197.182L72.8828 196.215V195.89H71.2656C70.8379 195.96 70.624 196.177 70.624 196.54ZM79.9932 199.124C80.8545 199.341 81.2852 199.985 81.2852 201.058V201.383C81.2852 203.287 79.5625 204.688 76.1172 205.584V205.909L76.4336 206.551L78.7012 206.234H79.9932C80.3037 206.234 80.626 206.557 80.96 207.201V208.493H80.6348C79.6739 208.493 78.2734 208.602 76.4336 208.818C74.7109 208.561 73.8496 208.13 73.8496 207.526C73.8496 205.118 75.3584 203.393 78.376 202.35C78.6865 202.35 79.0088 202.027 79.3428 201.383C78.4814 201.816 77.7285 202.033 77.084 202.033L76.4336 201.058V200.741C77.4004 199.663 78.5869 199.124 79.9932 199.124ZM94.7676 188.498H95.0928C95.8896 188.498 96.8535 191.185 97.9844 196.558L97.0264 197.199H96.376C95.9482 197.199 95.7344 196.985 95.7344 196.558L96.0596 195.266C95.7607 193.549 94.5771 192.69 92.5088 192.69L91.8672 193.007H91.2256L90.2588 192.365L91.542 195.266C91.3311 195.682 91.2256 196.004 91.2256 196.232H89.9336C88.7852 193.227 87.9268 191.724 87.3584 191.724C86.7139 194.513 86.1777 195.907 85.75 195.907H84.7832C84.7832 195.679 84.6748 195.356 84.458 194.94C85.5127 191.267 86.3711 189.336 87.0332 189.148H87.3584C89.0752 190.467 89.9336 191.431 89.9336 192.04H90.2588V190.757H93.8008L94.4424 191.082V190.757L94.126 188.823L94.7676 188.498ZM91.542 200.425H92.5088C94.4424 201.333 95.4092 202.836 95.4092 204.934C95.1982 205.578 94.9844 205.9 94.7676 205.9C94.3516 205.684 94.0293 205.575 93.8008 205.575C93.8008 206.144 93.2646 206.68 92.1924 207.184C90.2588 206.516 89.292 205.443 89.292 203.967V202.675C89.7725 201.667 90.5225 200.917 91.542 200.425ZM90.5752 203.642C90.8975 204.503 91.2197 204.934 91.542 204.934H91.8672C92.084 204.934 92.5146 204.503 93.1592 203.642C92.9424 203.226 92.834 202.903 92.834 202.675H91.542C91.2373 202.675 90.9151 202.997 90.5752 203.642ZM99.874 191.047H105.367C106.229 191.475 106.659 192.119 106.659 192.98L106.009 193.306H101.482L99.874 192.98V191.047ZM106.659 194.272C106.981 194.272 107.304 194.703 107.626 195.564C107.409 196.215 107.192 196.54 106.976 196.54C106.63 196.54 104.368 196.754 100.19 197.182L99.5488 196.215V194.923L101.166 194.598C101.377 194.598 101.482 194.706 101.482 194.923C102.414 194.489 104.14 194.272 106.659 194.272ZM110.535 196.856H111.177C111.177 199.446 111.716 200.741 112.794 200.741L115.062 201.058V203H112.469C112.041 203.064 111.827 203.278 111.827 203.642L112.152 205.584C112.152 205.895 111.827 206.217 111.177 206.551H110.535C110.102 204.201 109.885 201.509 109.885 198.474V197.507C109.955 197.073 110.172 196.856 110.535 196.856ZM104.392 197.832C106.114 197.832 107.084 198.693 107.301 200.416C107.301 202.139 106.117 203.214 103.75 203.642C103.75 205.153 104.503 205.909 106.009 205.909H107.301C107.518 206.325 107.626 206.647 107.626 206.876C107.409 207.737 106.979 208.168 106.334 208.168L103.1 207.843C101.934 208.06 100.964 208.168 100.19 208.168C99.7744 207.951 99.4521 207.843 99.2236 207.843V205.909H100.841L102.458 205.584L102.133 203.967V203C101.271 203 100.841 202.247 100.841 200.741C100.841 198.802 102.024 197.832 104.392 197.832ZM102.458 200.416C102.458 200.727 102.78 201.049 103.425 201.383C104.72 201.166 105.367 200.844 105.367 200.416V200.091H104.066L102.458 200.416ZM123.701 186.564C124.346 187.35 124.668 188.103 124.668 188.823V190.115C124.668 190.684 123.165 191.434 120.159 192.365V193.007C120.687 193.007 121.867 192.793 123.701 192.365L124.343 193.332V194.299C121.899 194.943 120.505 195.266 120.159 195.266C118.87 194.832 118.226 194.401 118.226 193.974V192.69C118.226 191.671 118.979 190.704 120.484 189.79L118.867 190.115C118.439 190.115 118.226 189.898 118.226 189.465V188.498C118.226 187.906 120.051 187.262 123.701 186.564ZM120.801 189.465V190.115C121.68 189.682 122.324 189.465 122.734 189.465V189.148H121.768C121.352 189.359 121.029 189.465 120.801 189.465ZM117.259 195.591C118.36 196.235 119.436 196.558 120.484 196.558H120.801L122.409 196.232V196.558L123.06 196.232H125.31C125.743 196.297 125.96 196.511 125.96 196.874V197.841C124.647 198.274 123.464 198.491 122.409 198.491V198.808C123.915 199.065 124.668 200.032 124.668 201.708C124.668 203.642 122.951 204.608 119.518 204.608L119.192 205.25H120.801L122.734 204.934C123.438 205.145 123.868 205.572 124.026 206.217C123.81 206.633 123.701 206.955 123.701 207.184H122.409L120.801 207.509V207.184L120.159 207.509H119.518C117.584 207.509 116.617 206.756 116.617 205.25C117.174 203.105 119.213 202.033 122.734 202.033V201.708C122.734 201.28 122.521 201.066 122.093 201.066H118.867C118.867 200.838 118.762 200.516 118.551 200.1C118.762 199.684 118.867 199.361 118.867 199.133H120.801C121.229 199.133 121.442 198.919 121.442 198.491C118.114 198.491 116.397 197.952 116.292 196.874V196.558C116.292 196.247 116.614 195.925 117.259 195.591ZM134.846 190.748H136.463L136.779 192.04L138.396 191.715H139.363C140.061 191.715 140.491 192.896 140.655 195.257C140.157 197.407 139.082 198.482 137.43 198.482H136.463C135.174 197.838 134.529 196.871 134.529 195.582V193.974L134.846 190.748ZM145.489 191.715H145.814C146.67 191.715 147.314 194.724 147.748 200.741L147.098 201.066H146.456C145.923 201.066 145.278 198.163 144.522 192.356L145.489 191.715ZM136.463 194.29V195.582C136.527 196.01 136.741 196.224 137.104 196.224H137.755C138.089 196.224 138.517 195.796 139.038 194.94V194.29C138.61 194.29 138.396 194.185 138.396 193.974C138.074 194.185 137.43 194.29 136.463 194.29ZM141.622 199.449L142.264 200.416V200.741C141.836 201.263 141.622 201.693 141.622 202.033H138.722C138.933 203.592 139.146 204.559 139.363 204.934C139.146 205.35 139.038 205.672 139.038 205.9H138.396C137.318 205.156 136.779 203.973 136.779 202.35H134.846C134.418 202.35 134.204 202.136 134.204 201.708V200.1C138.558 199.666 141.03 199.449 141.622 199.449ZM152.538 186.556H152.854C153.224 186.556 153.763 187.845 154.472 190.423C155.761 190.558 156.405 190.88 156.405 191.39C156.188 191.765 156.08 192.195 156.08 192.682H152.538C150.171 192.682 148.987 192.359 148.987 191.715V190.748L149.312 190.106L151.562 190.423H152.538V190.106C152.104 188.706 151.888 187.736 151.888 187.197C151.958 186.77 152.175 186.556 152.538 186.556ZM159.947 189.456H161.239L161.564 191.715H164.465L164.781 193.323V193.648L162.531 193.974C162.531 193.757 162.423 193.648 162.206 193.648C161.989 194.006 161.881 194.542 161.881 195.257H160.914C160.334 195.257 159.906 193.754 159.631 190.748C159.842 190.373 159.947 189.942 159.947 189.456ZM152.854 193.007C155.222 193.007 156.405 194.296 156.405 196.874C155.772 198.38 154.806 199.133 153.505 199.133C151.354 198.77 150.279 197.694 150.279 195.907V194.94L150.596 193.323H151.246C151.457 193.323 151.562 193.432 151.562 193.648L152.854 193.007ZM151.888 195.257V195.907C152.321 196.769 152.966 197.199 153.821 197.199C154.806 196.777 155.345 196.347 155.438 195.907L154.472 195.257H151.888ZM157.688 197.516H158.014L158.339 199.133V201.066L161.881 200.1L162.206 200.741V201.708C162.206 202.206 160.7 202.742 157.688 203.316C157.272 203.105 156.95 203 156.722 203V198.482C156.722 198.178 157.044 197.855 157.688 197.516ZM176.585 186.556H176.901C177.271 186.556 177.81 187.845 178.519 190.423C179.808 190.558 180.452 190.88 180.452 191.39C180.235 191.765 180.127 192.195 180.127 192.682H176.585C174.218 192.682 173.034 192.359 173.034 191.715V190.748L173.359 190.106L175.609 190.423H176.585V190.106C176.151 188.706 175.935 187.736 175.935 187.197C176.005 186.77 176.222 186.556 176.585 186.556ZM183.994 189.456H185.286L185.611 191.715H188.512L188.828 193.323V193.648L186.578 193.974C186.578 193.757 186.47 193.648 186.253 193.648C186.036 194.006 185.928 194.542 185.928 195.257H184.961C184.381 195.257 183.953 193.754 183.678 190.748C183.889 190.373 183.994 189.942 183.994 189.456ZM176.901 193.007C179.269 193.007 180.452 194.296 180.452 196.874C179.819 198.38 178.853 199.133 177.552 199.133C175.401 198.77 174.326 197.694 174.326 195.907V194.94L174.643 193.323H175.293C175.504 193.323 175.609 193.432 175.609 193.648L176.901 193.007ZM175.935 195.257V195.907C176.368 196.769 177.013 197.199 177.868 197.199C178.853 196.777 179.392 196.347 179.485 195.907L178.519 195.257H175.935ZM181.735 197.516H182.061L182.386 199.133V201.066L185.928 200.1L186.253 200.741V201.708C186.253 202.206 184.747 202.742 181.735 203.316C181.319 203.105 180.997 203 180.769 203V198.482C180.769 198.178 181.091 197.855 181.735 197.516ZM201.669 191.398H201.985C202.524 191.398 202.955 192.579 203.277 194.94C204.432 194.94 205.182 195.371 205.527 196.232C205.527 196.584 204.883 197.015 203.594 197.524C203.594 198.38 203.274 198.808 202.636 198.808H202.311C201.701 198.808 201.271 196.446 201.019 191.724L201.669 191.398ZM196.835 191.724H198.443C198.871 191.788 199.085 192.002 199.085 192.365V192.69C198.657 197.847 198.121 200.425 197.477 200.425H197.151C196.642 199.78 194.494 199.241 190.709 198.808C190.281 198.11 190.067 197.574 190.067 197.199L190.393 192.69H192.001V196.874C193.812 197.091 195.314 197.413 196.51 197.841L197.477 193.974H197.151C196.548 193.974 195.045 194.404 192.643 195.266V193.332C193.867 192.26 195.265 191.724 196.835 191.724ZM219.968 191.091H220.284C221.146 191.091 221.79 193.449 222.218 198.166L221.251 198.816H220.935C220.337 198.816 219.692 196.455 219.001 191.732L219.968 191.091ZM215.459 191.732C215.676 192.107 215.784 192.535 215.784 193.016C215.31 193.355 213.054 193.892 209.017 194.624C209.017 195.163 209.233 196.561 209.667 198.816C212.878 198.172 214.7 197.85 215.134 197.85L215.784 198.816V199.458C215.784 199.968 213.637 200.396 209.342 200.741H209.017C207.892 200.741 207.142 198.274 206.767 193.341C209.784 192.269 212.682 191.732 215.459 191.732Z" fill="black"/>
</svg>
