<svg width="234" height="160" viewBox="0 0 234 160" fill="none" xmlns="http://www.w3.org/2000/svg">
<g clip-path="url(#clip0_1549_2439)">
<rect width="234" height="160" rx="4" fill="#E8E8E8"/>
<path d="M137.664 59.3335H96.3307C93.4813 59.3335 91.1641 61.6507 91.1641 64.5002V95.5002C91.1641 98.3496 93.4813 100.667 96.3307 100.667H137.664C140.513 100.667 142.831 98.3496 142.831 95.5002V64.5002C142.831 61.6507 140.513 59.3335 137.664 59.3335ZM102.789 67.0835C103.817 67.0835 104.802 67.4918 105.529 68.2185C106.256 68.9452 106.664 69.9308 106.664 70.9585C106.664 71.9862 106.256 72.9718 105.529 73.6985C104.802 74.4252 103.817 74.8335 102.789 74.8335C101.761 74.8335 100.776 74.4252 100.049 73.6985C99.3223 72.9718 98.9141 71.9862 98.9141 70.9585C98.9141 69.9308 99.3223 68.9452 100.049 68.2185C100.776 67.4918 101.761 67.0835 102.789 67.0835ZM116.997 92.9168H98.9141L109.247 80.0002L113.122 85.1668L120.872 74.8335L135.081 92.9168H116.997Z" fill="white"/>
<g clip-path="url(#clip1_1549_2439)">
<rect width="234" height="160" rx="4" fill="#F6F6F6"/>
<path d="M78.6719 121.781V183.545H165.002V121.781C165.002 97.2883 145.676 77.4331 121.837 77.4331C97.9977 77.4331 78.6719 97.2883 78.6719 121.781Z" fill="white" stroke="black" stroke-width="1.30689"/>
<path d="M112.762 118.429C112.665 118.979 112.449 119.434 112.199 119.727C111.946 120.023 111.702 120.112 111.517 120.08C111.333 120.047 111.134 119.88 110.998 119.514C110.865 119.153 110.818 118.652 110.915 118.102C111.012 117.552 111.229 117.097 111.479 116.804C111.732 116.507 111.976 116.419 112.16 116.451C112.344 116.484 112.543 116.651 112.679 117.017C112.813 117.378 112.86 117.879 112.762 118.429Z" fill="#191919" stroke="#191919" stroke-width="1.21505"/>
<path d="M127.924 118.325C127.882 118.871 127.714 119.337 127.497 119.651C127.278 119.965 127.035 120.098 126.819 120.085C126.603 120.072 126.382 119.91 126.214 119.571C126.046 119.233 125.951 118.751 125.992 118.205C126.034 117.66 126.201 117.194 126.419 116.88C126.638 116.565 126.881 116.432 127.097 116.446C127.313 116.459 127.533 116.62 127.702 116.959C127.87 117.297 127.965 117.779 127.924 118.325Z" fill="#191919" stroke="#191919" stroke-width="1.21505"/>
<path d="M118.431 128.178C123.777 128.124 121.097 127.94 127.507 127.516C138.334 125.863 132.409 138.595 129.895 140.746C124.792 145.644 116.95 144.066 113.177 142.234C107.371 138.822 106.895 133.611 106.967 130.824C107.074 126.69 113.085 128.232 118.431 128.178Z" fill="#F59D91" stroke="#060C1B" stroke-width="1.30689" stroke-linecap="round" stroke-linejoin="round"/>
<path d="M76.3876 146.433L56.2136 160.616C60.4074 167.905 64.784 179.448 68.1759 178.198C72.6128 176.564 83.8803 166.344 88.7136 162.645C92.9931 160.25 96.7911 158.801 100.49 153.107C101.912 150.918 104.268 145.998 96.9044 139.645C92.0331 135.443 85.049 138.072 83.8172 139.411C82.5515 140.086 77.014 130.313 74.6675 135.193C75.978 141.219 78.1232 145.14 76.3876 146.433Z" fill="white" stroke="black" stroke-width="1.30689"/>
<path d="M98.3341 63.3792L92.5009 73.7923C92.1894 72.7575 91.7364 71.4315 91.2438 70.0493C90.62 68.2991 89.9125 66.4023 89.3451 64.8808C89.0054 63.9693 88.7156 63.1928 88.5246 62.6635L88.4819 62.5458L88.4052 62.4475C87.954 61.8714 87.3165 61.5572 86.6498 61.3825C85.9859 61.2084 85.2294 61.1564 84.4572 61.1531C83.7417 61.1499 82.9712 61.1892 82.2029 61.2286C82.1386 61.2319 82.0746 61.2351 82.0102 61.2384C81.1693 61.281 80.3287 61.3197 79.5126 61.307C77.8553 61.2816 76.4451 61.0422 75.4548 60.3282C74.5238 59.6567 73.823 58.457 73.823 56.1337C73.823 54.4964 73.8144 52.9918 73.8068 51.6073C73.7893 48.5081 73.7752 46.0114 73.8673 43.9783C74.002 41.0131 74.3614 39.2418 75.1208 38.1237C75.8379 37.0681 77.0131 36.4604 79.214 36.1426C81.4304 35.8227 84.498 35.8208 88.8191 35.8208H157.1C159.97 35.8208 162.158 35.9943 163.835 36.4084C165.5 36.8192 166.613 37.4555 167.389 38.3514C168.172 39.2542 168.681 40.5001 168.989 42.2636C169.297 44.0326 169.391 46.2554 169.391 49.0582C169.391 53.0823 169.122 56.4437 168.167 58.7836C167.697 59.9362 167.075 60.7999 166.272 61.3795C165.473 61.956 164.433 62.2956 163.047 62.2956H163.043H163.039L98.9846 62.9892L98.55 62.994L98.3341 63.3792Z" fill="#FFDC27" stroke="black" stroke-width="1.30689"/>
<path d="M107.937 108.643C109.25 107.465 112.551 105.816 115.253 108.643" stroke="black" stroke-width="1.30689" stroke-linecap="round"/>
<path d="M123.057 108.643C124.37 107.465 127.671 105.816 130.373 108.643" stroke="black" stroke-width="1.30689" stroke-linecap="round"/>
<path d="M161.088 147.932L180.084 161.74C175.995 168.607 171.673 179.52 168.463 178.278C164.265 176.653 153.687 166.756 149.14 163.161C145.102 160.816 141.509 159.378 138.069 153.904C136.747 151.799 134.573 147.082 141.665 141.154C146.356 137.233 152.964 139.843 154.117 141.136C155.312 141.798 160.714 132.588 162.879 137.267C161.55 142.979 159.455 146.675 161.088 147.932Z" fill="white" stroke="black" stroke-width="1.30689"/>
<path d="M86.6958 44.3069H86.8642C87.0608 44.3069 87.3478 44.9932 87.7253 46.3659C88.4116 46.4377 88.7548 46.6093 88.7548 46.8807C88.6394 47.0804 88.5817 47.3097 88.5817 47.5686H86.6958C85.4354 47.5686 84.8052 47.397 84.8052 47.0538V46.5391L84.9783 46.1975L86.1763 46.3659H86.6958V46.1975C86.4649 45.4519 86.3495 44.9355 86.3495 44.6485C86.3869 44.4208 86.5023 44.3069 86.6958 44.3069ZM90.6407 45.8512H91.3286L91.5018 47.0538H93.046L93.2145 47.9102V48.0834L92.0165 48.2565C92.0165 48.1411 91.9588 48.0834 91.8434 48.0834C91.7279 48.2737 91.6702 48.5591 91.6702 48.9397H91.1555C90.8466 48.9397 90.6189 48.1395 90.4722 46.5391C90.5845 46.3394 90.6407 46.1101 90.6407 45.8512ZM86.8642 47.7418C88.1246 47.7418 88.7548 48.4281 88.7548 49.8008C88.4179 50.6026 87.9031 51.0035 87.2105 51.0035C86.0656 50.81 85.4931 50.2376 85.4931 49.286V48.7713L85.6616 47.9102H86.0079C86.1202 47.9102 86.1763 47.9679 86.1763 48.0834L86.8642 47.7418ZM86.3495 48.9397V49.286C86.5803 49.7446 86.9235 49.9739 87.379 49.9739C87.9031 49.7493 88.1901 49.52 88.24 49.286L87.7253 48.9397H86.3495ZM89.438 50.1424H89.6112L89.7843 51.0035V52.033L91.6702 51.5182L91.8434 51.8598V52.3746C91.8434 52.6398 91.0416 52.9252 89.438 53.231C89.2165 53.1187 89.0449 53.0625 88.9233 53.0625V50.6572C88.9233 50.4949 89.0949 50.3234 89.438 50.1424ZM100.051 46.8854H100.22C100.507 46.8854 100.736 47.514 100.908 48.7713C101.522 48.7713 101.922 49.0006 102.106 49.4592C102.106 49.6464 101.763 49.8757 101.076 50.1471C101.076 50.6026 100.906 50.8303 100.566 50.8303H100.393C100.069 50.8303 99.8393 49.5731 99.7052 47.0585L100.051 46.8854ZM97.4776 47.0585H98.334C98.5618 47.0928 98.6756 47.2067 98.6756 47.4001V47.5733C98.4479 50.3187 98.1624 51.6914 97.8193 51.6914H97.6461C97.3747 51.3482 96.2313 51.0612 94.2159 50.8303C93.9882 50.4591 93.8743 50.1736 93.8743 49.9739L94.0475 47.5733H94.9038V49.8008C95.8679 49.9162 96.6681 50.0878 97.3045 50.3156L97.8193 48.2565H97.6461C97.3248 48.2565 96.5246 48.4858 95.2455 48.9444V47.9149C95.8975 47.344 96.6416 47.0585 97.4776 47.0585ZM109.794 46.7216H109.963C110.422 46.7216 110.765 47.9773 110.992 50.4887L110.478 50.835H110.309C109.991 50.835 109.648 49.5777 109.28 47.0632L109.794 46.7216ZM107.394 47.0632C107.509 47.2629 107.567 47.4906 107.567 47.7464C107.314 47.9274 106.113 48.2128 103.964 48.6028C103.964 48.8898 104.079 49.6339 104.31 50.835C106.02 50.4918 106.99 50.3202 107.221 50.3202L107.567 50.835V51.1766C107.567 51.448 106.424 51.6758 104.137 51.8598H103.964C103.365 51.8598 102.965 50.5464 102.766 47.9196C104.372 47.3487 105.915 47.0632 107.394 47.0632ZM118.47 47.9149C119.269 47.9149 119.668 48.6012 119.668 49.9739L122.242 49.4592C122.242 48.7728 122.356 48.4297 122.584 48.4297C122.915 48.4453 123.202 48.7884 123.445 49.4592C123.673 49.4935 123.787 49.6074 123.787 49.8008V50.3156H123.445V50.6618L123.613 52.3746L123.272 52.5477H122.93C122.765 52.5477 122.593 52.3762 122.415 52.033V50.4887C121.835 50.4887 120.92 50.6603 119.668 51.0035V52.3746L119.842 53.5773L119.327 53.9189H119.154C118.92 53.869 118.692 53.5835 118.47 53.0625L118.639 52.7162C118.527 52.5165 118.47 52.2888 118.47 52.033C118.47 51.9175 118.527 51.8598 118.639 51.8598L118.47 51.5182C118.47 51.4028 118.527 51.3451 118.639 51.3451L118.47 50.1471V48.9444H117.956C117.497 48.9444 116.753 49.0583 115.724 49.286L115.382 48.7713C115.382 48.3158 116.411 48.0303 118.47 47.9149ZM126.328 44.6626H127.357C128.842 44.6626 129.585 44.8903 129.585 45.3458V45.8605C129.463 45.8605 129.291 45.9183 129.07 46.0337C128.695 45.8059 128.352 45.6921 128.04 45.6921H126.501C126.501 46.1476 126.443 46.3753 126.328 46.3753C126.443 46.575 126.501 46.8043 126.501 47.0632H128.728C128.89 47.0632 129.062 47.2348 129.243 47.578C129.071 48.0335 128.9 48.2612 128.728 48.2612H126.669C126.048 48.2612 125.591 48.0335 125.298 47.578V45.1773C125.414 44.8341 125.757 44.6626 126.328 44.6626ZM127.699 48.9491H129.585C129.844 48.9491 130.015 49.2346 130.099 49.8055C129.722 50.0332 129.379 50.1471 129.07 50.1471H126.842L124.783 50.3202C124.556 49.949 124.442 49.6635 124.442 49.4639C124.794 49.1207 125.88 48.9491 127.699 48.9491ZM128.04 50.835H128.382C129.411 50.835 129.926 51.5198 129.926 52.8894C129.792 53.5757 128.706 53.9189 126.669 53.9189V54.0873C126.557 54.2901 126.501 54.5194 126.501 54.7752H129.07C129.235 54.7752 129.407 54.9468 129.585 55.29V55.9732H127.699C126.981 55.9732 126.181 55.8016 125.298 55.4585V54.7752C125.298 53.518 126.041 52.8894 127.526 52.8894C128.327 52.7739 128.728 52.6023 128.728 52.3746C128.728 52.1469 128.613 52.033 128.382 52.033H128.213L126.501 52.2061L126.154 51.6914V51.3451C126.154 51.005 126.783 50.835 128.04 50.835ZM133.501 47.7464C134.684 47.7464 135.484 48.2035 135.902 49.1176L136.932 49.2907H137.442V48.2612C137.442 48.0023 137.729 47.8307 138.303 47.7464C138.487 48.1333 138.715 49.2767 138.986 51.1766C138.871 51.7475 138.585 52.033 138.13 52.033C137.786 51.668 137.615 51.1532 137.615 50.4887H135.561C135.561 51.7584 134.816 52.5587 133.328 52.8894C131.616 52.5212 130.759 51.8364 130.759 50.835C131.246 49.4904 132.046 48.5186 133.16 47.9196L133.501 47.7464ZM132.13 50.835V51.0035C132.283 51.4621 132.798 51.6914 133.675 51.6914C134.246 51.5198 134.531 50.9473 134.531 49.9739V49.1176C132.931 49.258 132.13 49.8304 132.13 50.835ZM139.983 44.9948H142.73C142.961 45.0291 143.076 45.143 143.076 45.3364V46.3659C144.233 46.3659 145.205 46.7091 145.991 47.3955V48.2565L145.135 48.425C145.135 47.9695 144.333 47.6263 142.73 47.3955C142.187 48.425 141.844 48.9397 141.7 48.9397H141.185C141.185 48.8181 141.128 48.6465 141.012 48.425L142.047 46.0243H141.7L140.671 46.1975C139.984 46.0352 139.641 45.6905 139.641 45.1633L139.983 44.9948ZM147.709 47.3955H148.565C148.912 49.2143 149.085 50.5885 149.085 51.5182L148.397 51.6867L147.709 49.9739C146.795 49.8585 146.338 49.6854 146.338 49.4545V48.7713H147.709V47.3955ZM141.185 50.3156C141.856 50.6587 142.429 50.8303 142.903 50.8303C143.876 50.7149 144.678 50.6572 145.308 50.6572L145.477 51.0035V51.3451C145.477 51.604 144.848 51.8333 143.591 52.033V53.5773C143.591 53.805 143.475 53.9189 143.244 53.9189H142.903C142.675 53.9189 142.561 53.805 142.561 53.5773V51.8598C141.301 51.8598 140.671 51.4589 140.671 50.6572C140.671 50.4294 140.842 50.3156 141.185 50.3156ZM150.428 46.7169H151.111C151.111 46.8355 151.169 47.0055 151.284 47.227C151.169 48.478 151.111 49.5653 151.111 50.4887V51.0035C151.111 51.2312 150.997 51.3451 150.769 51.3451H150.428L150.255 50.4887V48.4297L150.428 46.7169ZM151.111 52.7162H151.457C151.913 52.9034 152.14 53.3043 152.14 53.9189V54.092C152.14 54.7908 151.626 55.2479 150.596 55.4632C150.025 55.2479 149.74 54.7908 149.74 54.092V53.231C149.812 52.8878 150.269 52.7162 151.111 52.7162ZM150.596 53.9189L150.769 54.2605C150.991 54.1482 151.162 54.092 151.284 54.092V53.7457H151.111C150.889 53.8612 150.718 53.9189 150.596 53.9189Z" fill="black"/>
</g>
</g>
<defs>
<clipPath id="clip0_1549_2439">
<rect width="234" height="160" rx="4" fill="white"/>
</clipPath>
<clipPath id="clip1_1549_2439">
<rect width="234" height="160" rx="4" fill="white"/>
</clipPath>
</defs>
</svg>
