<svg width="71" height="42" viewBox="0 0 71 42" fill="none" xmlns="http://www.w3.org/2000/svg">
<rect width="71" height="42" fill="#222222"/>
<g id="Section 2">
<path d="M-17620 -1187.65C-17620 -1188.75 -17619.1 -1189.65 -17618 -1189.65H7460C7461.1 -1189.65 7462 -1188.75 7462 -1187.65V5713.35C7462 5714.46 7461.1 5715.35 7460 5715.35H-17618C-17619.1 5715.35 -17620 5714.46 -17620 5713.35V-1187.65Z" fill="#E9E9E9"/>
<path d="M-17618 -1188.65H7460V-1190.65H-17618V-1188.65ZM7461 -1187.65V5713.35H7463V-1187.65H7461ZM7460 5714.35H-17618V5716.35H7460V5714.35ZM-17619 5713.35V-1187.65H-17621V5713.35H-17619ZM-17618 5714.35C-17618.6 5714.35 -17619 5713.91 -17619 5713.35H-17621C-17621 5715.01 -17619.7 5716.35 -17618 5716.35V5714.35ZM7461 5713.35C7461 5713.91 7460.55 5714.35 7460 5714.35V5716.35C7461.66 5716.35 7463 5715.01 7463 5713.35H7461ZM7460 -1188.65C7460.55 -1188.65 7461 -1188.2 7461 -1187.65H7463C7463 -1189.3 7461.66 -1190.65 7460 -1190.65V-1188.65ZM-17618 -1190.65C-17619.7 -1190.65 -17621 -1189.3 -17621 -1187.65H-17619C-17619 -1188.2 -17618.6 -1188.65 -17618 -1188.65V-1190.65Z" fill="white" fill-opacity="0.1"/>
<g id="Desktop - 110" clip-path="url(#clip0_444_7724)">
<rect width="1440" height="3416" transform="translate(-260 -262.646)" fill="white"/>
<g id="Group 94 2" clip-path="url(#clip1_444_7724)">
<path id="Vector" d="M2.83574 32.4968C2.47151 31.4756 2.48443 29.2375 2.48443 27.3057C2.48445 25.8232 2.48443 25.2541 2.48443 24.2587C2.48443 22.9693 2.55501 21.8079 2.74704 20.5412C2.90753 19.4825 3.10898 18.3112 3.37571 17.283C3.62414 16.3252 3.85859 15.4051 4.19541 14.4817C4.50601 13.6302 4.91986 12.9218 5.32088 12.137C5.81737 11.1654 6.82245 10.4312 7.66615 9.99121C8.83941 9.37938 9.9381 9.07438 11.2149 9.07438C11.7792 9.07438 12.379 9.01544 12.9357 9.15241C13.4882 9.28834 14.0569 9.66638 14.523 10.0302C16.3233 11.4354 17.5441 13.2819 18.7803 15.4249C19.6206 16.882 20.0138 18.3441 20.6426 20.7162C20.959 21.9101 20.953 22.944 20.953 23.9608C20.6473 26.283 20.185 26.6873 19.5562 28.3064C18.8635 29.4756 18.3392 30.0539 17.3594 30.8092C16.5206 31.4561 15.6644 31.8643 14.676 32.0381C11.8249 32.5393 9.50839 30.0328 8.0825 27.3057C7.47506 26.144 6.93426 24.6866 6.93426 23.295C6.93426 22.3686 6.70591 19.8568 7.29553 19.1497C8.04203 18.2543 8.8475 18.3441 10.3995 18.2185C12.2619 18.2185 12.7611 18.3606 13.8138 18.3737C15.245 18.3914 16.7791 18.7763 17.5904 20.236C17.7901 20.5953 17.849 20.8922 17.849 21.3224C17.849 21.7661 17.4148 22.0486 17.073 22.2537C15.521 22.4089 15.2911 22.2537 12.4975 22.2537C11.0576 22.2537 10.3995 22.2537 7.91632 21.9101C7.45064 22.0017 5.27795 20.8569 4.65714 21.6328" stroke="#191919" stroke-width="1.92263" stroke-linecap="round"/>
<path id="Vector_2" d="M11.6836 15.4247V16.1242" stroke="#191919" stroke-width="1.00738" stroke-linecap="round"/>
<path id="Vector_3" d="M14.1172 15.4247C14.1172 15.882 14.1172 15.8305 14.1172 16.28" stroke="#191919" stroke-width="1.00738" stroke-linecap="round"/>
<path id="Vector_4" d="M25.2676 20.8156H24.3063C23.6237 20.8156 23.0703 21.3689 23.0703 22.0515V33.038C23.0703 33.7206 23.6237 34.274 24.3063 34.274H25.2676C25.9502 34.274 26.5036 33.7206 26.5036 33.038V22.0515C26.5036 21.3689 25.9502 20.8156 25.2676 20.8156Z" fill="#191919"/>
<path id="Vector_5" d="M28.4672 28.3228C29.2986 28.3228 29.9727 27.6487 29.9727 26.8173C29.9727 25.9858 29.2986 25.3118 28.4672 25.3118H25.1744C24.343 25.3118 23.6689 25.9858 23.6689 26.8173C23.6689 27.6487 24.343 28.3228 25.1744 28.3228H28.4672Z" fill="#191919"/>
<path id="Vector_6" d="M13.3966 36.6299C13.2431 35.537 14.0045 34.5266 15.0974 34.3731C16.1903 34.2194 17.2007 34.9809 17.3543 36.0738L17.7376 38.8016L13.78 39.3578L13.3966 36.6299Z" fill="#191919"/>
<path id="Vector_7" d="M67.0974 22.3039C67.1446 21.482 67.8491 20.8538 68.671 20.9011L69.4152 20.9438C70.2372 20.991 70.8653 21.6955 70.8181 22.5174L70.028 36.284C69.9808 37.1059 69.2763 37.734 68.4542 37.6869L67.7081 37.644C66.8873 37.5969 66.2601 36.8934 66.3072 36.0725L67.0974 22.3039Z" fill="#191919"/>
<path id="Vector_8" d="M46.5216 20.8278L45.9496 20.8577C45.1274 20.9007 44.4958 21.6021 44.5388 22.4242L45.2591 36.1945C45.3021 37.0167 46.0035 37.6483 46.8257 37.6053L47.3976 37.5754C48.2198 37.5324 48.8515 36.831 48.8085 36.0089L48.0881 22.2386C48.0451 21.4164 47.3437 20.7847 46.5216 20.8278Z" fill="#191919"/>
<path id="Vector_9" d="M52.4989 27.9611L52.4934 27.8573C52.441 26.8543 51.5854 26.0838 50.5824 26.1363L47.8842 26.2774C46.8812 26.3299 46.1107 27.1855 46.1631 28.1885L46.1686 28.2922C46.221 29.2952 47.0767 30.0658 48.0796 30.0133L50.7778 29.8722C51.7808 29.8197 52.5513 28.9641 52.4989 27.9611Z" fill="#191919"/>
<path id="Vector_10" d="M40.2148 24.926C40.2148 24.1532 40.8412 23.5269 41.614 23.5269C42.3866 23.5269 43.0131 24.1532 43.0131 24.926V33.3207C43.0131 34.0935 42.3866 34.72 41.614 34.72C40.8412 34.72 40.2148 34.0935 40.2148 33.3207V24.926Z" fill="#191919"/>
<path id="Vector_11" d="M34.0586 24.926C34.0586 24.1532 34.685 23.5269 35.4577 23.5269C36.2305 23.5269 36.8568 24.1532 36.8568 24.926V33.3207C36.8568 34.0935 36.2305 34.7199 35.4577 34.7199C34.685 34.7199 34.0586 34.0935 34.0586 33.3207V24.926Z" fill="#191919"/>
<path id="Vector_12" d="M41.614 23.5269C42.3866 23.5269 43.0131 24.1532 43.0131 24.926C43.0131 25.6987 42.3866 26.3251 41.614 26.3251H35.4577C34.685 26.3251 34.0586 25.6987 34.0586 24.926C34.0586 24.1532 34.685 23.5269 35.4577 23.5269H41.614Z" fill="#191919"/>
<path id="Vector_13" d="M41.614 34.7201C42.3866 34.7201 43.0131 34.0938 43.0131 33.321C43.0131 32.5482 42.3866 31.9219 41.614 31.9219H35.4577C34.685 31.9219 34.0586 32.5482 34.0586 33.321C34.0586 34.0938 34.685 34.7201 35.4577 34.7201H41.614Z" fill="#191919"/>
<path id="Vector_14" d="M55.4805 24.7783C55.4805 23.955 56.1479 23.2876 56.9712 23.2876H57.2857C58.109 23.2876 58.7764 23.955 58.7764 24.7783V32.9207C58.7764 33.744 58.109 34.4114 57.2857 34.4114H56.9712C56.1479 34.4114 55.4805 33.744 55.4805 32.9207V24.7783Z" fill="#191919"/>
<path id="Vector_15" d="M62.9162 23.2876C63.7395 23.2876 64.407 23.955 64.407 24.7783V24.8181C64.407 25.6414 63.7395 26.3089 62.9162 26.3089H56.9712C56.1479 26.3089 55.4805 25.6414 55.4805 24.8181V24.7783C55.4805 23.955 56.1479 23.2876 56.9712 23.2876H62.9162Z" fill="#191919"/>
<path id="Vector_16" d="M62.9162 34.4114C63.7395 34.4114 64.407 33.744 64.407 32.9207V32.7435C64.407 31.9202 63.7395 31.2528 62.9162 31.2528H56.9712C56.1479 31.2528 55.4805 31.9202 55.4805 32.7435V32.9207C55.4805 33.744 56.1479 34.4114 56.9712 34.4114H62.9162Z" fill="#191919"/>
<path id="Vector_17" d="M0.960938 5.31388C2.02198 5.31388 3.11291 5.13855 4.16018 5.33166C5.57564 5.59266 6.96379 6.01462 8.39918 6.1759C10.466 6.40813 12.5236 6.63788 14.6111 6.67356C15.9439 6.69635 17.2773 6.81578 18.5923 7.02903C19.438 7.16617 20.3156 7.22536 21.1517 7.41117C21.7414 7.54219 22.3429 7.61468 22.938 7.73109C23.144 7.7714 24.1175 7.95728 24.0755 7.87328" stroke="#191919" stroke-width="1.92263" stroke-linecap="round"/>
<path id="Vector_18" d="M12.7188 6.59358C12.9116 6.56946 12.7987 5.20618 12.7987 5.02949C12.7987 4.48491 12.9409 3.84878 13.0564 3.31434C13.1525 2.87012 13.6045 1.68375 13.3586 1.31482" stroke="#191919" stroke-width="1.92263" stroke-linecap="round"/>
<path id="Vector_19" d="M26.6447 36.48C27.6483 36.339 28.5761 37.0382 28.7172 38.0419C28.8582 39.0455 28.1589 39.9734 27.1553 40.1145L16.615 41.5954C15.25 41.7871 13.988 40.8361 13.7962 39.4712L13.6328 38.3083L26.6447 36.48Z" fill="#191919"/>
</g>
</g>
</g>
<defs>
<clipPath id="clip0_444_7724">
<rect width="1440" height="3416" fill="white" transform="translate(-260 -262.646)"/>
</clipPath>
<clipPath id="clip1_444_7724">
<rect width="71" height="41.6112" fill="white" transform="translate(0 0.353516)"/>
</clipPath>
</defs>
</svg>
