<svg width="621" height="559" viewBox="0 0 621 559" fill="none" xmlns="http://www.w3.org/2000/svg">
<g clip-path="url(#clip0_1832_837)">
<path d="M-130.095 374.082L-130.094 374.182L-130.096 374.281L-135.427 617.871H376.357V259.5C376.357 119.194 262.616 5.45312 122.309 5.45312C-19.4449 5.45312 -133.777 121.463 -131.711 263.202L-130.095 374.082Z" fill="#005AFF" stroke="#191919" stroke-width="10.9061"/>
<path d="M224.29 252.491C223.726 255.286 222.391 257.58 220.823 259.05C219.25 260.524 217.63 261.029 216.279 260.82C214.928 260.61 213.605 259.649 212.705 257.791C211.807 255.939 211.452 253.383 212.017 250.587C212.581 247.792 213.916 245.498 215.484 244.028C217.057 242.554 218.676 242.049 220.028 242.258C221.379 242.468 222.702 243.43 223.602 245.287C224.5 247.14 224.855 249.696 224.29 252.491Z" fill="#191919" stroke="#191919" stroke-width="5.27356"/>
<path d="M282.73 256.677C282.488 259.222 281.489 261.384 280.198 262.832C278.907 264.28 277.472 264.883 276.2 264.819C274.927 264.756 273.621 264.017 272.615 262.455C271.611 260.893 271.03 258.652 271.272 256.108C271.513 253.563 272.513 251.401 273.804 249.953C275.095 248.505 276.529 247.902 277.802 247.966C279.074 248.029 280.381 248.768 281.386 250.33C282.391 251.892 282.972 254.132 282.73 256.677Z" fill="#191919" stroke="#191919" stroke-width="5.27356"/>
<path d="M193.642 367.628C199.952 332.503 210.725 321.326 216.835 313.841C238.699 290.846 269.586 309.231 278.2 328.676C285.971 346.218 282.93 381.061 277.105 399.706C265.383 437.228 221.94 444.541 206.837 440.229C184.437 433.833 187.331 402.753 193.642 367.628Z" fill="white" stroke="#191919" stroke-width="7.59071" stroke-linecap="round" stroke-linejoin="round"/>
<path d="M195.41 220.638C202.315 213.623 224.185 207.31 239.035 226.93" stroke="#191919" stroke-width="5.8725" stroke-linecap="round"/>
<path d="M261.685 222.316C266.86 216.755 282.11 211.967 291.644 228.24" stroke="#191919" stroke-width="5.8725" stroke-linecap="round"/>
<path d="M357.738 508.269L387.73 619.131C347.111 624.806 291.347 643.035 282.765 625.295C271.54 602.091 263.647 524.195 257.936 492.919C249.891 467.979 236.185 436.087 241.54 403.205C243.599 390.564 253.008 357.753 302.432 367.93C335.13 374.663 341.253 417.521 341.363 426.729C343.856 434.002 369.069 426.57 357.662 461.764C350.159 484.913 355.569 497.148 357.738 508.269Z" fill="#005AFF" stroke="#191919" stroke-width="9.22821"/>
<path d="M386.7 145.714C395.168 144.676 412.358 150.485 413.376 182.023" stroke="#191919" stroke-width="7.17641" stroke-linecap="round"/>
<path d="M412.538 111.061C430.604 120.638 461.314 152.374 439.623 202.694" stroke="#191919" stroke-width="7.17641" stroke-linecap="round"/>
<path d="M412.536 111.061C430.602 120.639 461.312 152.374 439.621 202.695" stroke="#191919" stroke-width="7.17641" stroke-linecap="round"/>
<path d="M4.99902 451.367C21.1866 444.579 57.6228 438.284 73.8674 467.402" stroke="black" stroke-width="9.22821" stroke-linecap="round"/>
<path d="M83.1343 482.384C87.603 496.413 96.4318 534.957 95.9965 576.902" stroke="black" stroke-width="9.22821" stroke-linecap="round"/>
<path d="M350.335 323.734H500.753C516.144 323.734 528.62 311.257 528.62 295.867C528.62 280.476 516.144 268 500.753 268H389.397C370.667 268 355.151 283.04 355.951 301.435C356.273 308.863 354.104 315.639 351.935 320.471C351.395 321.674 350.85 322.768 350.335 323.734Z" fill="white" stroke="#191919" stroke-width="6"/>
<path d="M388.014 285.157H388.413C388.879 285.157 389.559 286.783 390.453 290.036C392.079 290.206 392.892 290.612 392.892 291.255C392.619 291.728 392.482 292.271 392.482 292.885H388.014C385.028 292.885 383.535 292.478 383.535 291.665V290.446L383.945 289.636L386.783 290.036H388.014V289.636C387.467 287.87 387.193 286.647 387.193 285.967C387.282 285.427 387.556 285.157 388.014 285.157ZM397.36 288.816H398.99L399.4 291.665H403.059L403.458 293.694V294.105L400.62 294.515C400.62 294.241 400.483 294.105 400.21 294.105C399.936 294.555 399.8 295.232 399.8 296.134H398.58C397.848 296.134 397.309 294.238 396.961 290.446C397.227 289.973 397.36 289.429 397.36 288.816ZM388.413 293.295C391.399 293.295 392.892 294.921 392.892 298.174C392.094 300.073 390.874 301.023 389.233 301.023C386.521 300.565 385.164 299.208 385.164 296.954V295.734L385.564 293.694H386.384C386.65 293.694 386.783 293.831 386.783 294.105L388.413 293.295ZM387.193 296.134V296.954C387.74 298.041 388.553 298.584 389.633 298.584C390.874 298.052 391.554 297.508 391.673 296.954L390.453 296.134H387.193ZM394.511 298.983H394.921L395.331 301.023V303.462L399.8 302.243L400.21 303.052V304.272C400.21 304.9 398.31 305.576 394.511 306.301C393.986 306.034 393.58 305.901 393.291 305.901V300.203C393.291 299.818 393.698 299.412 394.511 298.983ZM419.657 291.266H420.056C420.736 291.266 421.279 292.756 421.686 295.734C423.142 295.734 424.088 296.278 424.524 297.364C424.524 297.808 423.711 298.351 422.085 298.994C422.085 300.073 421.682 300.613 420.876 300.613H420.466C419.697 300.613 419.154 297.634 418.836 291.676L419.657 291.266ZM413.559 291.676H415.588C416.127 291.758 416.397 292.028 416.397 292.486V292.896C415.858 299.401 415.181 302.653 414.368 302.653H413.958C413.315 301.84 410.606 301.16 405.831 300.613C405.291 299.733 405.022 299.057 405.022 298.584L405.432 292.896H407.461V298.174C409.745 298.447 411.641 298.854 413.149 299.393L414.368 294.515H413.958C413.197 294.515 411.301 295.058 408.27 296.145V293.705C409.815 292.353 411.578 291.676 413.559 291.676ZM442.74 290.878H443.14C444.226 290.878 445.039 293.853 445.579 299.803L444.359 300.624H443.96C443.206 300.624 442.393 297.645 441.521 291.688L442.74 290.878ZM437.053 291.688C437.326 292.161 437.463 292.7 437.463 293.306C436.864 293.735 434.019 294.411 428.926 295.335C428.926 296.015 429.199 297.778 429.746 300.624C433.797 299.811 436.096 299.404 436.642 299.404L437.463 300.624V301.433C437.463 302.076 434.754 302.616 429.336 303.052H428.926C427.507 303.052 426.56 299.94 426.087 293.716C429.894 292.364 433.549 291.688 437.053 291.688ZM452.009 283.128C452.689 283.128 453.369 284.481 454.049 287.186H456.078C456.618 287.275 456.888 287.548 456.888 288.007V289.636C453.702 289.902 451.4 290.036 449.98 290.036H448.351C447.811 290.036 447.541 289.766 447.541 289.226V288.007C447.623 287.46 447.892 287.186 448.351 287.186H451.61V286.787C451.063 285.893 450.79 285.08 450.79 284.348C450.79 283.956 451.196 283.549 452.009 283.128ZM460.957 286.377H462.587L462.997 288.406H464.216L467.055 288.816V290.446C467.055 290.985 466.785 291.255 466.245 291.255H463.396C463.396 292.881 462.989 293.694 462.176 293.694C461.363 293.694 460.824 291.662 460.558 287.596C460.824 287.072 460.957 286.665 460.957 286.377ZM447.94 291.665H449.57V293.295C449.57 293.561 449.433 293.694 449.16 293.694C449.522 295.32 449.929 296.134 450.38 296.134H451.2C452.604 296.134 453.417 295.727 453.639 294.914C453.639 294.426 452.42 294.02 449.98 293.694V292.885C450.247 292.36 450.38 291.954 450.38 291.665H452.42C453.891 291.665 454.973 292.342 455.668 293.694V294.914C455.668 297.117 453.905 298.473 450.38 298.983H449.57C448.484 298.443 447.671 297.63 447.131 296.544V295.324C447.131 294.644 447.401 293.425 447.94 291.665ZM462.997 296.134C463.263 296.614 463.396 297.157 463.396 297.763V300.203C462.701 301.563 461.618 302.243 460.147 302.243H456.888C456.348 302.324 456.078 302.594 456.078 303.052C459.065 303.325 460.558 303.732 460.558 304.272V305.491C460.558 306.031 460.284 306.301 459.737 306.301H459.327C455.262 306.301 453.229 305.624 453.229 304.272C453.229 301.019 455.942 299.393 461.367 299.393V298.584H460.957C460.144 298.584 459.061 298.854 457.708 299.393C457.183 299.12 456.777 298.983 456.489 298.983V297.353C456.489 296.54 458.658 296.134 462.997 296.134ZM475.525 291.277H475.925C477.824 291.277 478.774 292.227 478.774 294.127V295.335C478.774 298.114 476.335 300.01 471.456 301.023L471.057 303.052V303.872C471.139 304.412 471.408 304.682 471.867 304.682L477.144 303.872L477.954 305.081V305.901C477.954 306.714 475.655 307.121 471.057 307.121C469.431 306.559 468.618 305.476 468.618 303.872V301.433C468.618 299.319 470.647 297.967 474.705 297.375C475.518 296.333 475.925 295.113 475.925 293.716C473.086 294.256 470.921 294.526 469.427 294.526L469.028 293.716V292.497C469.028 291.684 471.194 291.277 475.525 291.277ZM481.202 294.127H482.023C482.643 294.127 483.32 295.343 484.052 297.774H485.271C485.759 297.774 486.165 296.559 486.491 294.127H487.699C488.571 294.127 489.115 297.102 489.329 303.052L488.109 303.872C486.964 303.872 486.287 302.653 486.08 300.214H484.451C483.911 300.214 483.508 301.027 483.242 302.653H482.023C481.343 302.653 480.936 302.11 480.803 301.023C480.803 300.735 480.936 300.328 481.202 299.803C480.663 297.372 480.393 295.612 480.393 294.526L481.202 294.127ZM496.569 287.208C499.821 287.534 501.447 289.156 501.447 292.076C501.447 293.82 499.821 295.989 496.569 298.584H495.349L494.95 296.555C495.305 296.555 496.658 295.198 499.008 292.486V291.266C499.008 290.594 498.465 290.187 497.378 290.047C496.639 290.047 494.61 290.723 491.291 292.076L490.881 291.266C490.881 289.381 492.777 288.029 496.569 287.208ZM496.17 302.243H498.199C499.278 302.679 499.818 303.625 499.818 305.081V306.301C499.818 306.685 499.005 307.498 497.378 308.74H495.349C493.997 308.06 493.32 306.84 493.32 305.081C493.668 303.189 494.618 302.243 496.17 302.243ZM495.76 305.491V305.901H496.979C497.519 305.901 497.789 305.628 497.789 305.081L496.979 304.682H496.569C496.029 304.763 495.76 305.033 495.76 305.491Z" fill="#191919"/>
<path d="M312.022 418.792H577.662C599.94 418.792 618 400.732 618 378.455C618 356.177 599.94 338.117 577.662 338.117H370.357C343.517 338.117 321.039 359.847 322.421 386.299C322.96 396.601 319.34 406.002 315.726 412.698C314.452 415.061 313.162 417.116 312.022 418.792Z" fill="#FFDC27" stroke="#191919" stroke-width="6"/>
<path d="M396.119 369.557H396.62C397.089 369.557 397.581 370.053 398.095 371.045V375.999H401.073C401.876 376.658 402.534 376.987 403.049 376.987V377.975C403.049 378.634 402.719 378.963 402.061 378.963H398.095L398.596 383.917V384.905H397.608C396.408 384.905 395.582 381.936 395.131 375.999C395.131 375.169 395.46 373.021 396.119 369.557ZM383.735 370.044H386.212C387.764 370.044 389.415 374.506 391.165 383.429H390.665C390.024 383.754 389.532 383.917 389.189 383.917C388.522 382.978 387.529 379.676 386.212 374.01L385.224 373.522C383.239 376.157 381.588 379.292 380.27 382.929H379.769C379.111 382.929 378.781 382.599 378.781 381.941V380.452C378.781 378.557 380.433 375.088 383.735 370.044ZM410.411 368.054H411.9C415.536 368.054 417.355 369.376 417.355 372.02C416.407 372.967 413.597 374.785 408.923 377.474C408.923 377.826 408.756 378.322 408.422 378.963L409.423 379.45H412.888L415.365 379.951V381.44C415.365 382.099 415.036 382.428 414.377 382.428H409.911C406.608 382.184 404.957 381.192 404.957 379.45C404.957 377.077 407.601 374.271 412.888 371.032H411.399L405.458 371.519L404.957 370.531V369.543C404.957 368.551 406.775 368.054 410.411 368.054ZM422.308 368.555H423.296C424.144 368.555 424.808 370.039 425.286 373.008C428.922 373.008 430.74 373.504 430.74 374.497V375.485L428.25 375.986H424.785C424.785 377.971 423.792 378.963 421.807 378.963C421.807 378.304 421.478 377.975 420.819 377.975L421.32 374.497V369.543C421.419 368.884 421.749 368.555 422.308 368.555ZM423.797 381.44C426.107 381.963 427.262 382.789 427.262 383.917C426.269 389.538 425.277 392.349 424.284 392.349H421.807C418.171 392.349 416.353 390.693 416.353 387.382C416.353 384.196 418.834 382.216 423.797 381.44ZM419.831 386.894V388.87H422.809L423.797 385.405V384.905C421.153 385.509 419.831 386.172 419.831 386.894ZM438.103 364.089H441.08C445.375 364.089 447.523 364.747 447.523 366.065V367.554C447.171 367.554 446.675 367.721 446.034 368.054C444.951 367.396 443.959 367.066 443.056 367.066H438.604C438.604 368.384 438.437 369.042 438.103 369.042C438.437 369.62 438.604 370.283 438.604 371.032H445.046C445.515 371.032 446.011 371.528 446.535 372.521C446.039 373.838 445.542 374.497 445.046 374.497H439.091C437.295 374.497 435.973 373.838 435.125 372.521V365.578C435.459 364.585 436.452 364.089 438.103 364.089ZM442.068 376.486H447.523C448.272 376.486 448.768 377.312 449.012 378.963C447.92 379.622 446.927 379.951 446.034 379.951H439.592L433.636 380.452C432.978 379.378 432.648 378.553 432.648 377.975C433.668 376.983 436.808 376.486 442.068 376.486ZM443.056 381.941H444.044C447.022 381.941 448.511 383.921 448.511 387.882C448.123 389.867 444.983 390.86 439.091 390.86V391.347C438.766 391.934 438.604 392.597 438.604 393.337H446.034C446.512 393.337 447.008 393.833 447.523 394.825V396.801H442.068C439.993 396.801 437.679 396.305 435.125 395.313V393.337C435.125 389.7 437.273 387.882 441.568 387.882C443.887 387.548 445.046 387.052 445.046 386.393C445.046 385.735 444.712 385.405 444.044 385.405H443.557L438.604 385.906L437.602 384.417V383.416C437.602 382.432 439.42 381.941 443.056 381.941ZM468.799 362.559H469.286C469.764 362.559 470.261 363.056 470.775 364.048V367.527C470.775 369.827 471.109 372.972 471.776 376.96L470.288 377.948C468.627 377.948 467.797 374.474 467.797 367.527V363.561C467.906 362.893 468.239 362.559 468.799 362.559ZM457.376 363.561C461.012 364.553 462.83 366.209 462.83 368.528V370.504C462.83 373.734 460.182 376.216 454.886 377.948C452.242 377.948 450.92 375.963 450.92 371.993C450.92 367.301 452.409 364.653 455.386 364.048C455.964 363.723 456.627 363.561 457.376 363.561ZM453.897 372.494V373.482C454.006 374.149 454.335 374.483 454.886 374.483C458.531 373.725 460.353 371.903 460.353 369.015V368.528C460.02 367.527 459.027 367.026 457.376 367.026H456.388C455.233 367.026 454.403 368.848 453.897 372.494ZM485.473 368.555C486.222 369.214 489.529 369.706 495.394 370.03C496.387 371.239 496.883 372.399 496.883 373.509C495.809 379.491 494.487 383.127 492.917 384.417H491.428V382.929L494.406 374.01C494.072 373.369 493.905 372.873 493.905 372.521H488.952C486.416 372.521 484.927 371.858 484.485 370.531V369.543C484.585 368.884 484.914 368.555 485.473 368.555ZM506.79 368.555H507.778C508.771 368.555 509.601 373.843 510.268 384.417L509.267 384.905H508.78C507.453 384.905 506.79 380.28 506.79 371.032V368.555ZM516.643 372.006H522.598L525.075 372.507V373.996C525.075 374.655 524.746 374.984 524.087 374.984L521.109 374.483C517.139 374.736 515.154 375.07 515.154 375.485C515.154 377.614 515.484 380.095 516.142 382.929H517.144C521.971 382.261 524.615 381.927 525.075 381.927L525.576 382.929V384.905C524.98 384.905 521.836 385.401 516.142 386.393C513.499 385.076 512.177 381.273 512.177 374.984C512.177 372.999 513.666 372.006 516.643 372.006ZM529.041 372.507H530.529C531.387 372.507 532.05 374.822 532.519 379.45H533.006L535.497 378.95L536.485 380.438V380.939C536.485 381.39 535.325 382.216 533.006 383.416C533.006 384.742 532.677 385.405 532.018 385.405H531.531C530.042 385.405 529.212 381.106 529.041 372.507ZM543.834 372.02C546.351 372.02 547.84 373.671 548.3 376.974V378.963C548.3 381.607 546.315 382.929 542.345 382.929V385.906L544.822 386.393H546.811V388.87C546.811 389.538 546.315 389.872 545.323 389.872C542.056 389.872 539.909 388.879 538.88 386.894V386.393C538.88 381.765 540.698 379.45 544.335 379.45H544.822V376.486C544.822 376.252 544.325 375.755 543.333 374.998L542.345 375.485H539.367C538.709 375.485 538.379 375.155 538.379 374.497V373.008C540.725 372.349 542.543 372.02 543.834 372.02ZM559.696 374.497H561.185C562.502 378.945 563.161 383.24 563.161 387.382L561.672 388.383H561.185C560.607 388.383 559.615 384.084 558.207 375.485L559.696 374.497ZM550.777 377.474C552.076 377.474 554.386 377.971 557.707 378.963V380.939C557.364 380.939 556.872 381.106 556.231 381.44C551.927 381.196 549.775 380.7 549.775 379.951V378.462C549.884 377.804 550.217 377.474 550.777 377.474ZM551.264 382.929H558.708V384.905C558.708 385.897 556.89 386.393 553.254 386.393H550.777C550.109 386.393 549.775 386.064 549.775 385.405V384.417C549.775 383.939 550.272 383.443 551.264 382.929Z" fill="#191919"/>
</g>
<defs>
<clipPath id="clip0_1832_837">
<rect width="621" height="559" fill="white"/>
</clipPath>
</defs>
</svg>
