<svg width="732" height="652" viewBox="0 0 732 652" fill="none" xmlns="http://www.w3.org/2000/svg">
<g clip-path="url(#clip0_693_12133)">
<path d="M76.1113 300.819C76.1113 134.681 210.793 0 376.931 0H430.292C596.43 0 731.111 134.681 731.111 300.819V652H76.1113V300.819Z" fill="#246BEB"/>
<path d="M304.899 309.713C296.569 310.211 289.308 302.128 288.683 291.659C288.057 281.19 294.304 272.3 302.634 271.802C310.965 271.304 318.225 279.388 318.85 289.857C319.476 300.326 313.23 309.216 304.899 309.713Z" fill="#060C1B"/>
<path d="M235.153 309.713C226.822 310.211 219.562 302.128 218.937 291.659C218.311 281.19 224.557 272.3 232.888 271.802C241.218 271.304 248.479 279.388 249.104 289.857C249.73 300.326 243.483 309.216 235.153 309.713Z" fill="#060C1B"/>
<path d="M0 417.807C0 389.913 23.2209 367.629 51.0911 368.777L439.117 384.758C463.238 385.752 483.867 403.626 485.326 427.723C485.337 427.901 485.347 428.079 485.358 428.256C486.412 446.401 506.964 468.945 506.964 468.945L254.512 458.444L51.0948 466.837C23.2232 467.987 0 445.702 0 417.807Z" fill="#FFDC27"/>
<path d="M268.365 505.647C270.183 506.893 271.213 508.643 260.796 505.673C250.378 502.703 242.112 506.534 239.281 508.82" stroke="#0143BC" stroke-width="8.64357" stroke-linecap="round" stroke-linejoin="round"/>
<path d="M208.5 246.38C215.167 238.547 233.2 227.58 252 246.38" stroke="black" stroke-width="6" stroke-linecap="round"/>
<path d="M295 245.027C303.467 239.186 323.724 233.26 337.018 256.285" stroke="black" stroke-width="6" stroke-linecap="round"/>
</g>
<defs>
<clipPath id="clip0_693_12133">
<rect width="732" height="652" fill="white"/>
</clipPath>
</defs>
</svg>
