<svg width="229" height="188" viewBox="0 0 229 188" fill="none" xmlns="http://www.w3.org/2000/svg">
<path d="M204.626 102.922C204.626 46.4504 158.847 0.670898 102.375 0.670898C45.903 0.670898 0.123596 46.4503 0.123596 102.922V287.158H204.626V102.922Z" fill="#246BEB"/>
<ellipse cx="133.604" cy="91.4191" rx="4.71978" ry="5.93134" transform="rotate(3.41896 133.604 91.4191)" fill="#060C1B"/>
<ellipse cx="155.389" cy="91.4191" rx="4.71978" ry="5.93134" transform="rotate(3.41896 155.389 91.4191)" fill="#060C1B"/>
<path d="M228.485 131.103C228.485 122.39 221.232 115.43 212.527 115.788L91.4954 120.773C83.8638 121.087 77.3275 126.741 76.8845 134.366C76.5553 140.034 70.1358 147.076 70.1358 147.076L148.989 143.795L212.526 146.417C221.232 146.776 228.485 139.816 228.485 131.103Z" fill="#FFDC27"/>
<path d="M228.485 131.103C228.485 122.39 221.232 115.43 212.527 115.788L91.4954 120.773C83.8638 121.087 77.3275 126.741 76.8845 134.366C76.5553 140.034 70.1358 147.076 70.1358 147.076L148.989 143.795L212.526 146.417C221.232 146.776 228.485 139.816 228.485 131.103Z" fill="url(#paint0_linear_693_9812)" fill-opacity="0.2"/>
<defs>
<linearGradient id="paint0_linear_693_9812" x1="228.485" y1="131.103" x2="70.1358" y2="131.103" gradientUnits="userSpaceOnUse">
<stop stop-opacity="0"/>
<stop offset="1" stop-color="#F78500"/>
</linearGradient>
</defs>
</svg>
