<svg width="553" height="344" viewBox="0 0 553 344" fill="none" xmlns="http://www.w3.org/2000/svg">
<g clip-path="url(#clip0_1719_1862)">
<mask id="mask0_1719_1862" style="mask-type:luminance" maskUnits="userSpaceOnUse" x="0" y="0" width="553" height="344">
<path d="M553 0H0V344H553V0Z" fill="white"/>
</mask>
<g mask="url(#mask0_1719_1862)">
<path d="M494.978 220.131V405.351H176V220.131C176 132.048 247.406 60.6426 335.489 60.6426C423.572 60.6426 494.978 132.048 494.978 220.131Z" fill="#FDFDFD" stroke="#191919" stroke-width="6"/>
<path d="M339.099 223.575C336.439 223.748 334.078 220.147 333.823 215.532C333.569 210.918 335.519 207.037 338.178 206.865C340.837 206.693 343.199 210.294 343.454 214.908C343.708 219.523 341.758 223.403 339.099 223.575Z" fill="#191919"/>
<path d="M304.452 222.745C301.788 222.917 299.432 219.502 299.191 215.117C298.949 210.732 300.913 207.037 303.577 206.864C306.242 206.692 308.597 210.107 308.839 214.492C309.081 218.877 307.117 222.572 304.452 222.745Z" fill="#191919"/>
<path d="M352.325 195.84C352.865 196.87 352.944 197.959 348.943 194.074C344.942 190.19 340.423 190.102 338.663 190.543" stroke="#191919" stroke-width="5" stroke-linecap="round" stroke-linejoin="round"/>
<path d="M303.039 186.938C304.096 187.305 304.859 188.049 299.461 188.089C294.063 188.129 290.755 191.34 289.775 192.941" stroke="#191919" stroke-width="5" stroke-linecap="round" stroke-linejoin="round"/>
<path d="M531.553 356.159C532.215 380.061 527.441 392.463 521.214 398.997C515.028 405.489 506.788 406.852 498.68 407.077C490.576 407.301 482.986 406.377 477.101 400.319C471.098 394.138 466.243 381.976 465.578 357.987C464.905 333.699 464.074 303.372 467.687 279.01C469.496 266.811 472.38 256.415 476.75 249.086C481.027 241.915 486.542 237.928 493.847 237.678C502.021 238.255 508.346 242.488 513.374 249.595C518.498 256.835 522.176 266.947 524.802 278.777C530.053 302.433 530.88 331.865 531.553 356.159Z" fill="#FDFDFD" stroke="#191919" stroke-width="6"/>
<path d="M204.131 223.996C205.131 226.434 206.119 228.574 206.927 230.234C204.702 230.26 201.639 230.295 197.938 230.336C189.926 230.426 178.924 230.545 166.963 230.665C143.037 230.904 115.291 231.143 99.9629 231.143C77.6669 231.143 51.9689 230.174 32.2186 229.229C15.6268 228.436 2.82294 214.509 3.17099 197.852C3.53413 180.472 18.063 166.759 35.4346 167.4L166.626 172.237C184.099 172.882 198.426 186.498 199.045 203.809C199.291 210.719 201.794 218.292 204.131 223.996Z" fill="#FFDC27" stroke="#191919" stroke-width="5"/>
<path d="M44.7901 192.574L45.1413 192.557C45.4859 192.541 45.8602 192.882 46.264 193.581L46.3801 196.088C46.4569 197.746 46.8024 200.001 47.4168 202.854L46.3767 203.616C45.18 203.671 44.4658 201.195 44.2339 196.187L44.1016 193.329C44.1574 192.844 44.3869 192.592 44.7901 192.574ZM36.5901 193.677C39.2441 194.271 40.6098 195.403 40.6872 197.075L40.7532 198.499C40.8609 200.827 39.035 202.704 35.2753 204.13C33.3698 204.218 32.3508 202.831 32.2183 199.97C32.0617 196.588 33.0464 194.629 35.1724 194.094C35.5778 193.841 36.0503 193.702 36.5901 193.677ZM34.3811 200.231L34.4141 200.943C34.5144 201.421 34.7629 201.651 35.1596 201.632C37.7617 200.964 39.0146 199.59 38.9183 197.509L38.902 197.157C38.628 196.447 37.8959 196.119 36.7057 196.174L35.9936 196.207C35.1612 196.245 34.6237 197.587 34.3811 200.231ZM60.2863 197.243C64.0973 197.066 66.0745 198.526 66.2178 201.622C66.3277 203.995 64.3682 205.523 60.3395 206.205C58.1563 205.504 57.0224 204.24 56.9378 202.413L56.9211 202.052C56.8148 199.756 57.9365 198.153 60.2863 197.243ZM58.723 202.33C59.1686 203.509 59.9117 204.074 60.9522 204.026C62.2074 203.968 63.2472 203.199 64.0716 201.721L64.022 200.648C64.0063 200.31 63.6321 199.969 62.8992 199.624L61.8261 199.674C61.0153 200.461 60.0903 201.104 59.051 201.601L58.723 202.33ZM69.0031 199.704L70.0762 199.654C70.685 202.526 71.4125 205.36 72.2589 208.156C72.0461 208.628 71.9456 208.991 71.9574 209.245C70.5201 209.312 69.4703 207.33 68.808 203.3L68.3077 200.097L69.0031 199.704ZM66.1981 208.798L66.5823 209.494L66.599 209.855C66.6432 210.811 63.8038 211.421 58.0808 211.686C57.7361 211.702 57.3619 211.361 56.9581 210.663L56.9084 209.59C61.5862 209.132 64.6828 208.868 66.1981 208.798ZM78.076 195.705L79.51 195.639C79.5293 196.055 79.7942 196.639 80.3048 197.391C85.5482 196.621 88.2674 196.019 88.4625 195.586L88.8234 195.57C89.6623 195.531 90.4065 198.722 91.0557 205.145L89.638 205.562C89.1654 205.349 88.8023 205.249 88.5486 205.261L88.499 204.188C88.4508 203.147 88.1692 202.202 87.6541 201.353L85.8856 201.796L84.8125 201.846C82.6664 201.945 81.5602 201.279 81.4939 199.849L81.4772 199.488L80.4042 199.537L80.5866 203.479L81.0302 205.247L80.325 205.641L79.252 205.691C78.5319 205.483 78.1444 204.784 78.0893 203.594L77.8242 197.868L73.5486 198.428L73.1542 197.722L73.105 196.659C74.8777 196.095 76.5347 195.777 78.076 195.705ZM83.2462 199.054L83.2624 199.405L87.9156 199.19L87.8827 198.478L87.5217 198.494L83.2462 199.054ZM84.0041 207.612C84.7956 207.817 85.2958 208.272 85.5045 208.98C85.0636 209.873 84.8671 210.837 84.9149 211.871C85.4027 211.849 87.4066 211.28 90.9265 210.166C91.899 210.479 92.3936 210.815 92.4102 211.172L92.4264 211.524C92.4596 212.239 89.9888 213.07 85.0143 214.017C84.0648 214.061 83.3274 213.62 82.8022 212.693L82.7191 210.898C82.6348 209.077 83.0631 207.981 84.0041 207.612ZM106.665 197.256C109.129 197.142 110.842 198.017 111.801 199.883L113.964 200.144L115.027 200.095L114.928 197.949C114.903 197.409 115.485 197.024 116.673 196.793C117.094 197.581 117.679 199.943 118.429 203.877C118.243 205.079 117.676 205.701 116.726 205.745C115.975 205.017 115.568 203.961 115.504 202.576L111.221 202.774C111.344 205.421 109.87 207.161 106.8 207.994C103.194 207.392 101.343 206.047 101.246 203.959C102.131 201.109 103.705 199.006 105.969 197.65L106.665 197.256ZM104.104 203.827L104.121 204.178C104.484 205.119 105.579 205.548 107.406 205.463C108.58 205.05 109.12 203.829 109.026 201.8L108.943 200.015C105.62 200.462 104.007 201.733 104.104 203.827ZM138.052 195.06L139.125 195.01C139.469 194.994 139.844 195.339 140.248 196.043C140.701 200.617 140.959 203.593 141.023 204.972L140.318 205.367L139.967 205.383C139.251 205.416 138.707 204.004 138.333 201.147C137.488 201.186 136.817 202.175 136.32 204.115C135.869 204.377 135.517 204.513 135.264 204.525L134.492 203.485C134.467 202.946 134.565 202.462 134.787 202.035L133.998 200.634L134.26 198.471L133.816 196.693L134.866 195.931L135.217 195.915C136.188 196.189 136.715 197.24 136.8 199.067L137.522 199.034C137.997 199.012 138.223 198.764 138.201 198.289C138.193 198.107 138.039 197.397 137.741 196.159C137.96 195.68 138.063 195.314 138.052 195.06ZM124.51 197.124C126.567 197.511 127.892 197.691 128.484 197.663C129.787 197.362 130.734 197.198 131.326 197.17C131.843 197.922 132.111 198.509 132.131 198.932L131.091 199.693L130.73 199.71C130.489 199.721 130.363 199.607 130.352 199.366C129.947 199.626 128.885 199.916 127.166 200.237L127.199 200.949L127.643 202.727L131.574 202.545L132.018 204.314C130.967 204.845 129.427 205.157 127.398 205.251L125.931 204.596C124.854 205.128 123.672 205.424 122.384 205.483C120.953 205.549 120.188 204.506 120.088 202.354L119.611 199.863C119.564 198.829 121.196 197.916 124.51 197.124ZM122.152 200.469L122.268 202.976L122.629 202.959L125.119 202.482L124.987 199.614L122.831 199.714C122.36 199.814 122.133 200.066 122.152 200.469ZM147.025 188.916C148.411 189.151 149.747 189.568 151.033 190.167L151 189.455L152.073 189.405C152.551 189.455 152.799 189.681 152.818 190.085C152.983 193.661 152.113 195.494 150.208 195.582C150.222 195.894 149.403 196.291 147.751 196.771C145.214 196.889 143.608 195.77 142.932 193.416L142.849 191.621C144.053 189.891 145.445 188.989 147.025 188.916ZM144.684 192.612L144.717 193.334C144.733 193.672 145.11 194.013 145.85 194.357L148.708 194.224C149.079 194.207 149.535 193.707 150.076 192.724C149.791 191.779 149.053 191.334 147.863 191.389L146.79 191.439C145.36 191.655 144.658 192.046 144.684 192.612ZM148.195 198.55L148.546 198.533C149.216 198.502 150.036 200.736 151.007 205.233C152.444 205.317 153.176 205.641 153.203 206.207L153.235 206.919C153.258 207.4 153.032 207.652 152.557 207.674C148.628 207.133 146.107 206.887 144.995 206.939L143.922 206.989C142.944 206.545 142.438 205.972 142.405 205.27C142.372 204.554 142.834 204.175 143.79 204.13L143.313 201.64L143.28 200.928L143.558 199.116L144.631 199.067C145.346 199.033 145.765 200.331 145.886 202.958L145.953 204.392L148.115 204.644L148.443 203.915C147.879 202.142 147.561 200.482 147.489 198.934L148.195 198.55ZM166.966 189.087C169.841 189.241 171.338 190.602 171.457 193.171C171.528 194.706 170.186 196.681 167.43 199.096L166.357 199.146L165.923 197.377C166.235 197.362 167.37 196.114 169.328 193.631L169.278 192.558C169.251 191.967 168.756 191.631 167.794 191.552C167.144 191.582 165.386 192.26 162.521 193.585L162.127 192.889C162.051 191.231 163.664 189.964 166.966 189.087ZM167.228 202.332L169.013 202.249C169.98 202.589 170.494 203.399 170.553 204.68L170.602 205.753C170.618 206.092 169.936 206.84 168.556 207.999L166.771 208.082C165.553 207.538 164.908 206.493 164.836 204.945C165.065 203.266 165.862 202.395 167.228 202.332ZM166.999 205.207L167.016 205.568L168.089 205.518C168.564 205.496 168.79 205.244 168.768 204.763L168.039 204.445L167.678 204.461C167.207 204.555 166.98 204.803 166.999 205.207Z" fill="black"/>
<path d="M298.426 253.466C277.929 246.64 270.638 247.442 265.999 253.466C243.58 282.577 288.018 297.132 332.856 296.63C377.694 296.128 384.615 256.129 377.694 246.941C370.888 237.906 357.01 245.1 347.268 250.454C339.528 254.302 318.924 260.292 298.426 253.466Z" fill="#FFB5B5" stroke="black" stroke-width="6" stroke-linecap="round"/>
<path d="M436.532 151.45C435.942 150.273 434.885 149.363 434 148.427C434.763 148.606 437.173 149.634 437.875 150.012C440.163 151.243 445.39 156.601 448.837 161.57C449.783 162.926 451.197 164.777 451.583 166.475C451.807 167.49 451.959 167.711 452.102 169.523C452.275 171.657 451.207 174.096 450.058 174.532C448.471 175.129 446.844 175.315 444.8 173.993C442.756 172.671 441.363 171.354 440.142 165.579C439.654 163.469 439.268 160.942 438.79 158.837C438.2 156.195 437.742 153.911 436.532 151.45Z" fill="#5FB2FF"/>
</g>
</g>
<defs>
<clipPath id="clip0_1719_1862">
<rect width="553" height="344" fill="white"/>
</clipPath>
</defs>
</svg>
