<svg width="293" height="257" viewBox="0 0 293 257" fill="none" xmlns="http://www.w3.org/2000/svg">
<g clip-path="url(#clip0_2361_1287)">
<path d="M289.931 139.561L276.648 327.06L23.1338 309.102L36.4155 121.602C41.3778 51.5954 102.148 -1.13632 172.154 3.82303C242.16 8.78179 294.889 69.5542 289.931 139.561Z" fill="#FDFDFD" stroke="#191919" stroke-width="5.29281"/>
<path d="M112.058 127.181C109.928 127.167 108.248 124.189 108.307 120.528C108.36 116.867 110.13 113.911 112.26 113.925C114.39 113.939 116.064 116.918 116.011 120.578C115.957 124.239 114.182 127.195 112.058 127.181Z" fill="#191919"/>
<path d="M84.5103 124.57C82.3803 124.556 80.6941 121.725 80.7473 118.246C80.8006 114.767 82.5696 111.959 84.7055 111.972C86.8355 111.987 88.5218 114.818 88.4685 118.297C88.4153 121.775 86.6403 124.584 84.5103 124.57Z" fill="#191919"/>
<path d="M172.681 188.126C171.101 187.906 169.155 187.636 166.906 187.327C160.569 186.454 151.86 185.273 142.388 184.037C123.46 181.569 101.391 178.872 89.0488 177.997C69.9379 176.644 44.9578 176.227 26.2582 176.125C14.5639 176.062 6.18409 164.711 9.66132 153.591C12.109 145.763 19.7569 140.764 27.9089 141.664L152.038 155.359C161.327 156.383 168.516 163.934 168.308 173.017C168.202 177.45 169.971 182.327 171.604 185.902C171.971 186.698 172.332 187.445 172.681 188.126Z" fill="#FFDC27"/>
<path d="M172.681 188.126C171.101 187.906 169.155 187.636 166.906 187.327C160.569 186.454 151.86 185.273 142.388 184.037C123.46 181.569 101.391 178.872 89.0488 177.997C69.9379 176.644 44.9578 176.227 26.2582 176.125C14.5639 176.062 6.18409 164.711 9.66132 153.591C12.109 145.763 19.7569 140.764 27.9089 141.664L152.038 155.359C161.327 156.383 168.516 163.934 168.308 173.017C168.202 177.45 169.971 182.327 171.604 185.902C171.971 186.698 172.332 187.445 172.681 188.126Z" fill="url(#paint0_linear_2361_1287)" fill-opacity="0.2"/>
<path d="M172.681 188.126C171.101 187.906 169.155 187.636 166.906 187.327C160.569 186.454 151.86 185.273 142.388 184.037C123.46 181.569 101.391 178.872 89.0488 177.997C69.9379 176.644 44.9578 176.227 26.2582 176.125C14.5639 176.062 6.18409 164.711 9.66132 153.591C12.109 145.763 19.7569 140.764 27.9089 141.664L152.038 155.359C161.327 156.383 168.516 163.934 168.308 173.017C168.202 177.45 169.971 182.327 171.604 185.902C171.971 186.698 172.332 187.445 172.681 188.126Z" stroke="#191919" stroke-width="4.53669"/>
<path d="M58.6961 277.895C55.0455 296.743 49.0342 304.786 42.9104 307.826C36.7671 310.874 29.8287 309.244 23.1925 306.753C16.5546 304.261 10.5528 301.031 6.86374 294.383C3.13742 287.667 1.33875 276.673 5.01063 257.741C8.74109 238.508 13.3975 214.55 20.5945 196.713C24.1966 187.784 28.3406 180.642 33.1302 176.375C37.8014 172.214 42.9696 170.859 49.0046 173.087C55.5839 176.242 59.9504 181.648 62.7431 188.79C65.6008 196.078 66.796 205.14 66.8375 215.225C66.9321 235.402 62.4295 258.657 58.6961 277.895Z" fill="#FDFDFD" stroke="#191919" stroke-width="5.29281"/>
<path d="M111.792 267.819C114.833 285.676 112.597 295.688 108.745 301.519C104.923 307.309 99.0595 309.676 93.0718 311.186C87.09 312.695 81.4751 313.225 76.5702 309.724C71.5588 306.143 66.6716 297.904 63.6127 279.971C60.5183 261.775 56.6665 239.101 56.7494 220.187C56.7908 210.715 57.8203 202.463 60.2639 196.287C62.6365 190.268 66.2279 186.462 71.4819 185.094C77.4932 184.197 82.546 186.286 86.9835 190.743C91.5157 195.298 95.3142 202.253 98.521 210.71C104.941 227.62 108.698 249.618 111.792 267.819Z" fill="#FDFDFD" stroke="#191919" stroke-width="5.29281"/>
</g>
<defs>
<linearGradient id="paint0_linear_2361_1287" x1="1.06262" y1="156.571" x2="178.45" y2="169.137" gradientUnits="userSpaceOnUse">
<stop stop-opacity="0"/>
<stop offset="1" stop-color="#F78500"/>
</linearGradient>
<clipPath id="clip0_2361_1287">
<rect width="293" height="256" fill="white" transform="translate(0 0.5)"/>
</clipPath>
</defs>
</svg>
