<svg width="580" height="541" viewBox="0 0 580 541" fill="none" xmlns="http://www.w3.org/2000/svg">
<path d="M109.017 306.517C109.017 194.212 200.058 103.17 312.364 103.17H348.249C460.555 103.17 551.596 194.212 551.596 306.517V723.18H109.017V306.517Z" fill="#F9F9F9"/>
<ellipse cx="10.2144" cy="12.8365" rx="10.2144" ry="12.8365" transform="matrix(-0.99822 0.0596366 0.0596366 0.99822 272.151 286.142)" fill="#060C1B"/>
<ellipse cx="10.2144" cy="12.8365" rx="10.2144" ry="12.8365" transform="matrix(-0.99822 0.0596366 0.0596366 0.99822 225.005 286.142)" fill="#060C1B"/>
<path d="M57.3818 385.446C57.3818 366.591 73.0787 351.527 91.9183 352.303L354.216 363.106C370.521 363.777 384.466 375.86 385.452 392.149C385.459 392.27 385.466 392.39 385.473 392.509C386.186 404.775 400.079 420.014 400.079 420.014L229.427 412.916L91.9208 418.589C73.0802 419.367 57.3818 404.303 57.3818 385.446Z" fill="#FFDC27"/>
<path d="M57.3818 385.446C57.3818 366.591 73.0787 351.527 91.9183 352.303L354.216 363.106C370.521 363.777 384.466 375.86 385.452 392.149C385.459 392.27 385.466 392.39 385.473 392.509C386.186 404.775 400.079 420.014 400.079 420.014L229.427 412.916L91.9208 418.589C73.0802 419.367 57.3818 404.303 57.3818 385.446Z" fill="url(#paint0_linear_693_9650)" fill-opacity="0.2"/>
<path d="M417.083 252.495C416.141 251.142 414.649 250.191 413.364 249.181C414.352 249.282 417.565 250.164 418.514 250.516C421.614 251.668 429.139 257.425 434.367 262.985C435.794 264.502 437.904 266.551 438.688 268.577C439.156 269.787 439.386 270.036 439.891 272.238C440.487 274.832 439.578 277.996 438.207 278.713C436.325 279.696 434.313 280.18 431.507 278.879C428.7 277.577 426.707 276.181 424.146 269.28C423.159 266.765 422.214 263.723 421.244 261.212C420.027 258.061 419.054 255.326 417.083 252.495Z" fill="#F9F9F9"/>
<path d="M430.65 248.077C429.866 247.652 428.935 247.577 428.084 247.416C428.563 247.2 430.371 246.993 430.897 246.914C432.617 246.655 437.455 247.3 441.296 248.681C442.344 249.058 443.844 249.518 444.73 250.324C445.259 250.805 445.429 250.868 446.234 251.838C447.181 252.979 447.06 254.513 446.884 255.275C446.753 255.84 445.79 257.244 444.166 257.348C442.542 257.452 441.22 257.374 438.251 254.6C437.145 253.603 435.921 252.331 434.823 251.331C433.446 250.078 432.289 248.967 430.65 248.077Z" fill="#F9F9F9"/>
<path d="M269.826 272.16C268.776 270.354 268.605 268.436 276.32 275.216C284.035 281.995 292.673 282.076 296.027 281.268" stroke="#060C1B" stroke-width="8.19528" stroke-linecap="round" stroke-linejoin="round"/>
<path d="M182.248 275.851C180.74 274.405 180.046 272.609 189.332 276.996C198.619 281.383 206.944 279.076 209.945 277.374" stroke="#060C1B" stroke-width="8.19528" stroke-linecap="round" stroke-linejoin="round"/>
<path d="M126.817 261.759C126.182 262.367 144.418 265.088 147.27 265.449C150.408 265.847 154.66 265.368 155.586 269.434C157.962 279.859 155.529 292.205 154.195 302.73C151.389 324.885 120.886 315.05 109.635 307.224C103.71 303.102 96.7935 297.779 95.7954 289.712C94.431 278.685 95.0557 267.573 99.4474 257.314C102.42 250.37 105.893 243.712 108.518 236.597C109.575 233.732 112.505 227.926 111.726 224.665C109.983 217.373 98.9278 214.185 93.1985 212.911C81.6676 210.349 66.4769 211.41 56.4241 218.881C44.3598 227.846 37.8058 241.19 41.7504 256.601C46.7656 276.196 68.9814 282.924 85.7005 281.47C103.495 279.922 124.298 270.072 134.03 253.022C135.178 251.012 135.926 248.46 137.109 246.571C138.059 245.055 141.228 259.464 141.419 260.31C145.839 279.903 150.833 301.141 147.736 321.579C147.177 325.273 143.357 325.718 140.373 326.144C124.881 328.354 104.975 324.237 98.5298 307.405C91.6494 289.438 93.3996 266.886 98.2144 248.301C99.9553 241.581 102.257 235.121 105.091 228.833C106.025 226.761 106.004 222.845 108.124 222.743C113.847 222.467 116.998 230.455 120.697 235.085C125.462 241.052 130.088 247.156 134.485 253.446C136.996 257.037 151.851 276.445 151.155 285.67C150.401 295.658 127.394 289.361 123.42 288.57C111.515 286.2 99.1884 279.438 90.0993 270.85C81.0118 262.263 82.2718 244.938 83.6628 232.837C83.8968 230.801 84.1296 226.147 85.1613 230.828C88.6914 246.844 87.5078 264.658 87.6764 281.049C87.7796 291.088 87.0821 301.313 87.4606 311.317C87.6942 317.491 88.0033 306.17 88.0042 306.133C88.5257 286.057 87.0385 265.889 85.6808 245.919C84.6024 230.058 85.1439 213.114 83.0561 197.456C81.9134 188.886 79.8722 214.555 78.7797 223.179C76.7948 238.846 75.4311 254.497 73.7855 270.188C73.1719 276.039 74.2318 284.468 68.5467 286.993C65.7384 288.24 41.9612 296.638 44.4389 292.063C53.9638 274.474 66.8399 259.122 73.8343 239.899C76.2406 233.285 82.9335 232.733 88.2303 229.812C101.442 222.526 124.281 213.638 138.44 222.674C145.358 227.089 143.601 238.646 142.857 245.833C141.019 263.593 133.574 277.868 116.805 283.212C81.6504 294.415 45.4852 271.603 15.8068 254.292C15.0927 253.875 7.58213 250.479 7.70884 249.479C7.98455 247.303 17.5159 243.422 19.0627 242.427C26.2316 237.819 33.6334 233.43 40.2427 227.886C42.0817 226.344 46.457 219.661 46.7427 225.228C47.6616 243.132 48.2287 261.045 45.2088 278.845C44.9757 280.218 42.321 287.144 43.698 285.861C50.7698 279.271 56.8945 271.348 63.5125 264.244C67.8339 259.606 72.5137 255.186 77.2799 251.085C81.5633 247.399 82.4049 250.456 83.2883 255.878C86.1783 273.615 80.763 328.032 83.0367 310.084" stroke="#222222" stroke-width="3.38424" stroke-linecap="round"/>
<path d="M416.099 82.4585C416.7 83.4287 392.9 80.9463 389.199 80.4774C385.127 79.9615 379.938 77.9845 377.458 82.7949C371.098 95.1282 370.161 111.431 368.43 125.091C364.788 153.844 406.306 151.355 422.979 145.16C431.76 141.897 442.175 137.445 446.04 127.63C451.324 114.212 454.135 100.045 451.935 85.7301C450.447 76.0408 448.237 66.5499 447.24 56.7569C446.839 52.8149 445.035 44.5697 447.07 40.723C451.621 32.1226 466.546 31.6933 474.159 31.9474C489.48 32.4586 508.229 38.7084 518.445 51.3506C530.706 66.5225 534.625 85.4142 524.68 103.507C512.035 126.51 481.937 127.777 461.395 120.539C439.532 112.835 416.574 93.7221 409.861 69.1436C409.069 66.246 408.955 62.7974 408.079 60.0397C407.376 57.8276 398.73 74.9108 398.216 75.9124C386.32 99.1057 373.17 124.183 370.448 150.871C369.956 155.694 374.612 157.489 378.225 158.99C396.98 166.782 423.33 168.05 436.878 148.982C451.34 128.627 456.438 99.7174 456.402 74.8019C456.389 65.793 455.587 56.9282 454.06 48.1086C453.557 45.203 454.851 40.2873 452.218 39.4728C445.116 37.2749 438.57 46.2937 432.423 50.9164C424.503 56.8731 416.713 63.0478 409.151 69.5294C404.834 73.2298 379.883 92.8151 377.773 104.634C375.488 117.43 406.441 116.962 411.691 117.254C427.421 118.129 445.101 113.62 459.304 105.767C473.504 97.9165 477.527 75.7348 479.695 60.0758C480.06 57.4416 481.273 51.5172 478.462 57.0659C468.842 76.0525 464.564 98.8241 459.048 119.369C455.669 131.953 453.237 145.03 449.523 157.48C447.232 165.164 450.507 150.836 450.518 150.789C456.36 125.389 464.756 100.523 472.925 75.8646C479.413 56.2797 484.217 34.808 491.908 15.8055C496.118 5.40446 490.376 38.3252 488.958 49.5174C486.382 69.8513 483.031 89.9616 480.021 110.215C478.898 117.767 474.839 128.018 481.166 133.031C484.292 135.508 511.458 153.757 509.824 147.205C503.546 122.016 492.331 98.5557 489.762 72.1317C488.878 63.0414 480.645 60.1814 474.934 54.7957C460.688 41.3626 434.859 22.8012 414.14 29.5755C404.016 32.8854 402.485 47.9792 401.094 57.2524C397.656 80.1676 402.394 100.518 421.739 112.661C462.296 138.118 515.131 121.153 558.033 109C559.065 108.708 569.604 106.871 569.768 105.572C570.126 102.748 559.403 94.7857 557.781 93.0354C550.262 84.9237 542.38 77.0117 535.868 67.9055C534.056 65.3718 530.719 55.5571 528.559 62.4612C521.609 84.6659 515.099 106.996 513.135 130.343C512.983 132.145 514.078 141.708 512.763 139.65C506.008 129.079 500.874 117.139 494.855 106.07C490.925 98.8422 486.474 91.7727 481.811 85.0759C477.621 79.0574 475.574 82.6261 472.709 89.1545C463.337 110.511 452.531 180.656 455.482 157.363" stroke="#222222" stroke-width="4.39207" stroke-linecap="round"/>
<defs>
<linearGradient id="paint0_linear_693_9650" x1="57.3818" y1="385.447" x2="400.079" y2="385.447" gradientUnits="userSpaceOnUse">
<stop stop-opacity="0"/>
<stop offset="1" stop-color="#F78500"/>
</linearGradient>
</defs>
</svg>
