<svg width="397" height="334" viewBox="0 0 397 334" fill="none" xmlns="http://www.w3.org/2000/svg">
<g clip-path="url(#clip0_2361_1296)">
<path d="M-30.8452 222.605L-30.8446 222.665L-30.8458 222.723L-34 366.847H268.806V154.811C268.806 71.7968 201.509 4.5 118.494 4.5C34.6227 4.5 -33.0237 73.1393 -31.8014 157.001L-30.8452 222.605Z" fill="#005AFF" stroke="#191919" stroke-width="6.45278"/>
<path d="M178.833 150.664C178.499 152.318 177.709 153.675 176.782 154.545C175.851 155.417 174.892 155.716 174.093 155.592C173.294 155.468 172.511 154.899 171.978 153.8C171.447 152.704 171.237 151.192 171.571 149.537C171.905 147.884 172.695 146.526 173.623 145.657C174.553 144.785 175.511 144.486 176.311 144.609C177.11 144.734 177.893 145.303 178.426 146.402C178.957 147.498 179.167 149.01 178.833 150.664Z" fill="#191919" stroke="#191919" stroke-width="3.12019"/>
<path d="M213.409 153.141C213.267 154.647 212.675 155.926 211.912 156.783C211.147 157.639 210.299 157.996 209.546 157.958C208.793 157.921 208.02 157.484 207.425 156.56C206.831 155.635 206.487 154.309 206.63 152.804C206.773 151.298 207.365 150.019 208.128 149.162C208.892 148.306 209.741 147.949 210.494 147.987C211.247 148.024 212.02 148.461 212.615 149.386C213.209 150.31 213.553 151.635 213.409 153.141Z" fill="#191919" stroke="#191919" stroke-width="3.12019"/>
<path d="M161.745 131.818C165.831 127.667 178.77 123.932 187.557 135.541" stroke="#191919" stroke-width="3.47456" stroke-linecap="round"/>
<path d="M200.958 132.811C204.02 129.52 213.043 126.687 218.684 136.316" stroke="#191919" stroke-width="3.47456" stroke-linecap="round"/>
<path d="M354.035 301.999L371.78 367.592C347.747 370.95 314.753 381.736 309.676 371.239C303.034 357.51 298.364 311.422 294.985 292.917C290.225 278.161 282.116 259.291 285.284 239.836C286.503 232.357 292.07 212.944 321.312 218.965C340.658 222.949 344.281 248.307 344.346 253.755C345.821 258.058 360.739 253.661 353.99 274.484C349.551 288.18 352.751 295.419 354.035 301.999Z" fill="#005AFF" stroke="#191919" stroke-width="5.46002"/>
<path d="M49.085 268.333C58.6626 264.317 80.2207 260.592 89.8321 277.82" stroke="black" stroke-width="5.46002" stroke-linecap="round"/>
<path d="M95.3154 286.684C97.9595 294.985 103.183 317.79 102.926 342.607" stroke="black" stroke-width="5.46002" stroke-linecap="round"/>
<path d="M91.0938 233.621L262.633 236.528C277.019 236.771 288.889 224.715 289.145 209.601C289.401 194.485 277.946 182.034 263.56 181.79L129.692 179.522C112.36 179.229 97.5941 193.726 98.1824 211.689C98.412 218.685 95.9664 225.023 93.5556 229.527C92.7058 231.116 91.8492 232.497 91.0938 233.621Z" fill="#FFDC27" stroke="#191919" stroke-width="5.325"/>
<path d="M289.302 162.968H378.299C387.405 162.968 394.787 155.585 394.787 146.48C394.787 137.373 387.405 129.992 378.299 129.992H312.413C301.332 129.992 292.151 138.89 292.625 149.774C292.815 154.169 291.532 158.178 290.248 161.037C289.929 161.749 289.606 162.396 289.302 162.968Z" fill="white" stroke="#191919" stroke-width="3.55"/>
<path d="M311.595 140.143H311.831C312.107 140.143 312.51 141.105 313.038 143.03C314.001 143.13 314.482 143.37 314.482 143.751C314.32 144.031 314.239 144.352 314.239 144.715H311.595C309.829 144.715 308.945 144.474 308.945 143.993V143.272L309.188 142.793L310.867 143.03H311.595V142.793C311.272 141.748 311.11 141.024 311.11 140.622C311.162 140.303 311.324 140.143 311.595 140.143ZM317.125 142.308H318.09L318.332 143.993H320.497L320.733 145.194V145.437L319.054 145.68C319.054 145.518 318.973 145.437 318.811 145.437C318.649 145.703 318.569 146.104 318.569 146.638H317.847C317.414 146.638 317.095 145.516 316.889 143.272C317.046 142.992 317.125 142.67 317.125 142.308ZM311.831 144.958C313.598 144.958 314.482 145.92 314.482 147.845C314.009 148.968 313.288 149.53 312.317 149.53C310.712 149.259 309.909 148.456 309.909 147.123V146.401L310.146 145.194H310.631C310.788 145.194 310.867 145.275 310.867 145.437L311.831 144.958ZM311.11 146.638V147.123C311.433 147.766 311.914 148.087 312.553 148.087C313.288 147.772 313.69 147.451 313.76 147.123L313.038 146.638H311.11ZM315.439 148.323H315.682L315.925 149.53V150.973L318.569 150.252L318.811 150.731V151.453C318.811 151.824 317.687 152.224 315.439 152.653C315.129 152.495 314.889 152.416 314.718 152.416V149.045C314.718 148.817 314.958 148.577 315.439 148.323ZM330.318 143.757H330.554C330.956 143.757 331.277 144.639 331.518 146.401C332.379 146.401 332.939 146.723 333.197 147.365C333.197 147.628 332.716 147.949 331.754 148.33C331.754 148.968 331.516 149.288 331.039 149.288H330.796C330.341 149.288 330.02 147.525 329.832 144L330.318 143.757ZM326.71 144H327.91C328.229 144.048 328.389 144.208 328.389 144.479V144.722C328.07 148.571 327.669 150.495 327.188 150.495H326.946C326.565 150.014 324.962 149.611 322.137 149.288C321.818 148.767 321.658 148.367 321.658 148.087L321.901 144.722H323.102V147.845C324.453 148.006 325.575 148.247 326.467 148.566L327.188 145.68H326.946C326.495 145.68 325.374 146.001 323.58 146.644V145.2C324.494 144.401 325.537 144 326.71 144ZM343.975 143.528H344.212C344.854 143.528 345.335 145.288 345.655 148.808L344.933 149.294H344.697C344.251 149.294 343.77 147.532 343.254 144.007L343.975 143.528ZM340.61 144.007C340.772 144.287 340.853 144.606 340.853 144.964C340.498 145.218 338.815 145.618 335.802 146.165C335.802 146.567 335.963 147.61 336.287 149.294C338.684 148.813 340.044 148.572 340.367 148.572L340.853 149.294V149.773C340.853 150.153 339.25 150.473 336.044 150.731H335.802C334.962 150.731 334.402 148.889 334.122 145.207C336.374 144.407 338.537 144.007 340.61 144.007ZM349.459 138.942C349.861 138.942 350.264 139.743 350.666 141.343H351.867C352.186 141.396 352.346 141.558 352.346 141.829V142.793C350.461 142.95 349.099 143.03 348.259 143.03H347.295C346.975 143.03 346.816 142.87 346.816 142.55V141.829C346.864 141.505 347.023 141.343 347.295 141.343H349.223V141.107C348.899 140.578 348.738 140.097 348.738 139.664C348.738 139.432 348.978 139.191 349.459 138.942ZM354.753 140.865H355.718L355.96 142.065H356.682L358.361 142.308V143.272C358.361 143.591 358.202 143.751 357.882 143.751H356.196C356.196 144.713 355.956 145.194 355.475 145.194C354.994 145.194 354.675 143.992 354.517 141.586C354.675 141.276 354.753 141.035 354.753 140.865ZM347.052 143.993H348.016V144.958C348.016 145.115 347.935 145.194 347.773 145.194C347.988 146.156 348.228 146.638 348.495 146.638H348.98C349.811 146.638 350.292 146.397 350.424 145.916C350.424 145.627 349.702 145.387 348.259 145.194V144.715C348.417 144.405 348.495 144.164 348.495 143.993H349.702C350.573 143.993 351.213 144.394 351.624 145.194V145.916C351.624 147.219 350.581 148.021 348.495 148.323H348.016C347.373 148.004 346.892 147.523 346.573 146.88V146.158C346.573 145.756 346.733 145.035 347.052 143.993ZM355.96 146.638C356.118 146.922 356.196 147.243 356.196 147.601V149.045C355.785 149.85 355.144 150.252 354.274 150.252H352.346C352.026 150.3 351.867 150.46 351.867 150.731C353.634 150.892 354.517 151.133 354.517 151.453V152.174C354.517 152.493 354.355 152.653 354.031 152.653H353.789C351.384 152.653 350.181 152.253 350.181 151.453C350.181 149.528 351.786 148.566 354.996 148.566V148.087H354.753C354.272 148.087 353.632 148.247 352.831 148.566C352.52 148.404 352.28 148.323 352.11 148.323V147.359C352.11 146.878 353.393 146.638 355.96 146.638ZM363.373 143.764H363.609C364.733 143.764 365.295 144.326 365.295 145.45V146.165C365.295 147.809 363.852 148.931 360.965 149.53L360.729 150.731V151.216C360.778 151.535 360.937 151.695 361.208 151.695L364.331 151.216L364.81 151.931V152.416C364.81 152.897 363.45 153.138 360.729 153.138C359.767 152.806 359.286 152.165 359.286 151.216V149.773C359.286 148.522 360.487 147.722 362.888 147.372C363.369 146.755 363.609 146.034 363.609 145.207C361.93 145.526 360.649 145.686 359.765 145.686L359.529 145.207V144.486C359.529 144.005 360.81 143.764 363.373 143.764ZM366.732 145.45H367.217C367.584 145.45 367.985 146.17 368.418 147.608H369.139C369.428 147.608 369.668 146.889 369.861 145.45H370.576C371.092 145.45 371.413 147.21 371.54 150.731L370.818 151.216C370.141 151.216 369.74 150.495 369.618 149.052H368.654C368.334 149.052 368.096 149.533 367.939 150.495H367.217C366.815 150.495 366.574 150.173 366.496 149.53C366.496 149.36 366.574 149.119 366.732 148.808C366.413 147.37 366.253 146.329 366.253 145.686L366.732 145.45ZM375.824 141.356C377.748 141.549 378.71 142.509 378.71 144.237C378.71 145.268 377.748 146.552 375.824 148.087H375.102L374.866 146.887C375.076 146.887 375.876 146.084 377.267 144.479V143.757C377.267 143.36 376.946 143.119 376.302 143.036C375.865 143.036 374.665 143.436 372.701 144.237L372.458 143.757C372.458 142.642 373.58 141.842 375.824 141.356ZM375.588 150.252H376.788C377.427 150.51 377.746 151.07 377.746 151.931V152.653C377.746 152.88 377.265 153.361 376.302 154.096H375.102C374.302 153.694 373.901 152.972 373.901 151.931C374.107 150.812 374.669 150.252 375.588 150.252ZM375.345 152.174V152.416H376.066C376.386 152.416 376.546 152.255 376.546 151.931L376.066 151.695H375.824C375.504 151.743 375.345 151.903 375.345 152.174Z" fill="#191919"/>
</g>
<defs>
<clipPath id="clip0_2361_1296">
<rect width="397" height="333" fill="white" transform="translate(0 0.5)"/>
</clipPath>
</defs>
</svg>
