<svg width="224" height="220" viewBox="0 0 224 220" fill="none" xmlns="http://www.w3.org/2000/svg">
<g clip-path="url(#clip0_1501_1733)">
<path d="M0 16.8571C0 7.5472 7.5472 0 16.8571 0H207.143C216.453 0 224 7.5472 224 16.8571V220H16.8571C7.5472 220 0 212.453 0 203.143V16.8571Z" fill="#F7FAFF"/>
<path d="M222.122 248.643C222.485 242.329 218.947 229.631 215.953 218.655C213.655 210.232 212.773 206.999 211.23 201.343C209.231 194.017 207.054 187.518 204.064 180.591C201.566 174.801 198.674 168.43 195.655 162.963C192.843 157.871 190.164 152.973 186.933 148.2C183.954 143.799 180.645 140.355 177.286 136.46C173.127 131.638 166.619 128.88 161.429 127.567C154.212 125.74 147.87 125.552 141.048 127.347C138.033 128.14 134.737 128.649 131.975 130.21C129.234 131.759 126.781 134.707 124.855 137.429C117.414 147.944 113.754 160.152 110.471 174.065C108.24 183.526 108.406 192.386 108.723 206.747C108.883 213.975 110.518 219.841 112.094 225.618C117.327 238.382 120.423 240.029 126.293 248.344C131.806 254.013 135.504 256.562 141.909 259.476C147.393 261.971 152.601 263.087 158.151 262.684C174.161 261.524 182.652 244.025 186.043 226.526C187.488 219.072 188.118 210.031 185.961 202.125C184.525 196.861 181.852 182.269 177.606 179.081C172.229 175.043 168.065 176.686 159.578 178.154C149.628 180.772 147.181 182.282 141.577 183.836C133.958 185.949 126.358 190.293 124.286 199.727C123.776 202.049 123.921 203.819 124.588 206.264C125.276 208.785 128.034 209.779 130.178 210.463C138.711 209.163 139.698 207.958 154.624 204.03C162.317 202.006 165.833 201.08 178.568 195.637C181.198 195.502 191.031 185.943 195.551 189.479" stroke="#E8F0FF" stroke-width="6.74286" stroke-linecap="round"/>
<path d="M150.408 168.213L151.41 171.884" stroke="#E8F0FF" stroke-width="4.49524" stroke-linecap="round"/>
<path d="M137.406 171.636C138.061 174.035 137.987 173.765 138.631 176.124" stroke="#E8F0FF" stroke-width="4.49524" stroke-linecap="round"/>
</g>
<defs>
<clipPath id="clip0_1501_1733">
<path d="M0 16.8571C0 7.5472 7.5472 0 16.8571 0H207.143C216.453 0 224 7.5472 224 16.8571V220H16.8571C7.5472 220 0 212.453 0 203.143V16.8571Z" fill="white"/>
</clipPath>
</defs>
</svg>
