<svg width="30" height="29" viewBox="0 0 30 29" fill="none" xmlns="http://www.w3.org/2000/svg">
<g id="&#225;&#132;&#137;&#225;&#133;&#161;&#225;&#132;&#140;&#225;&#133;&#181;&#225;&#134;&#171; &#225;&#132;&#135;&#225;&#133;&#167;&#225;&#134;&#171;&#225;&#132;&#128;&#225;&#133;&#167;&#225;&#134;&#188; &#225;&#132;&#135;&#225;&#133;&#165;&#225;&#132;&#144;&#225;&#133;&#179;&#225;&#134;&#171; 1" clip-path="url(#clip0_1427_2)">
<path id="Vector" d="M29.9538 14.4827C29.9538 6.48415 23.4696 0 15.471 0C7.47243 0 0.988281 6.48415 0.988281 14.4827C0.988281 22.4814 7.47243 28.9655 15.471 28.9655C23.4696 28.9655 29.9538 22.4814 29.9538 14.4827Z" fill="#C7C7C7"/>
<path id="Vector_2" d="M8.4707 18.9741V21.0338C8.4707 21.1529 8.51801 21.2671 8.60222 21.3514C8.68642 21.4356 8.80063 21.4829 8.91972 21.4829H10.9834C11.1022 21.4829 11.2162 21.4357 11.3004 21.3518L19.7849 12.8651L17.0908 10.1703L8.60271 18.657C8.51845 18.741 8.47097 18.8551 8.4707 18.9741ZM18.2026 9.05736L20.8967 11.7521L22.2078 10.4407C22.3761 10.2722 22.4707 10.0438 22.4707 9.8056C22.4707 9.56742 22.3761 9.33899 22.2078 9.17054L20.7844 7.74591C20.616 7.57751 20.3876 7.48291 20.1495 7.48291C19.9114 7.48291 19.683 7.57751 19.5146 7.74591L18.2026 9.05736Z" fill="#E8E8E8"/>
</g>
<defs>
<clipPath id="clip0_1427_2">
<rect width="30" height="29" fill="white"/>
</clipPath>
</defs>
</svg>
