<svg width="804" height="254" viewBox="0 0 804 254" fill="none" xmlns="http://www.w3.org/2000/svg">
<g clip-path="url(#clip0_2286_6158)">
<g filter="url(#filter0_d_2286_6158)">
<path d="M24 28C24 21.3726 29.3726 16 36 16H775.774C782.401 16 787.774 21.3726 787.774 28V217.468C787.774 224.096 782.401 229.468 775.774 229.468H36C29.3726 229.468 24 224.096 24 217.468V28Z" fill="white"/>
<path d="M56.3492 55.3891H54.6214V51.7131H46.2531V50.3241H56.3492V55.3891ZM58.5175 45.8181H56.3492V49.5618H54.6214V40.2449H56.3492V44.3613H58.5175V45.8181ZM53.7235 47.1055L53.876 48.4099C51.0132 48.7995 47.6252 48.935 44.3728 48.9689L44.1187 47.529C44.9995 47.529 46.1176 47.529 47.2017 47.5121V44.6831H48.9296V47.4782H48.9804C50.505 47.4274 52.6563 47.241 53.7235 47.1055ZM52.7072 41.1766C52.7072 43.2771 52.6055 45.0558 52.2837 46.2416L50.6236 45.9875C50.8268 45.0897 50.9624 43.7684 50.9793 42.5995H45.152V41.1766H52.7072ZM64.0438 53.4918C61.6045 53.4918 59.6903 51.8995 59.6903 47.9864V47.1733C59.6903 43.0738 61.74 41.6339 64.0777 41.6339C66.3985 41.6339 68.3465 43.0908 68.3465 47.1055V47.9694C68.3465 51.9503 66.4324 53.4918 64.0438 53.4918ZM64.0438 52.1027C65.687 52.1027 66.534 50.9678 66.534 48.1388V47.0886C66.534 44.2935 65.687 43.023 64.0608 43.023C62.4176 43.023 61.5537 44.2427 61.5537 46.9869V48.0372C61.5537 50.7984 62.4007 52.1027 64.0438 52.1027ZM74.8628 53.4918C72.4235 53.4918 70.5093 51.8995 70.5093 47.9864V47.1733C70.5093 43.0738 72.559 41.6339 74.8967 41.6339C77.2175 41.6339 79.1655 43.0908 79.1655 47.1055V47.9694C79.1655 51.9503 77.2513 53.4918 74.8628 53.4918ZM74.8628 52.1027C76.506 52.1027 77.353 50.9678 77.353 48.1388V47.0886C77.353 44.2935 76.506 43.023 74.8798 43.023C73.2366 43.023 72.3727 44.2427 72.3727 46.9869V48.0372C72.3727 50.7984 73.2197 52.1027 74.8628 52.1027ZM84.7958 55.0503L88.8274 40.6853H90.3181L86.2865 55.0503H84.7958ZM107.907 48.7656H103.266V52.035H109.245V53.424H95.6089V52.035H101.538V48.7656H96.8794V47.3596H99.2171L98.8275 43.7684L100.555 43.599L100.86 47.3596H103.994L104.553 43.6328L106.264 43.8869L105.637 47.3596H107.907V48.7656ZM107.924 42.8536H96.8624V41.4646H107.924V42.8536ZM124.224 45.8181H121.988V49.7312H120.243V40.2449H121.988V44.3613H124.224V45.8181ZM118.888 43.9886H110.147V42.6165H118.888V43.9886ZM118.075 47.0039C118.075 48.4607 116.533 49.4771 114.535 49.4771C112.519 49.4771 110.96 48.4607 110.96 46.9869C110.96 45.5301 112.502 44.5137 114.535 44.5137C116.533 44.5137 118.075 45.5301 118.075 47.0039ZM116.398 46.9869C116.398 46.2416 115.5 45.8011 114.535 45.8011C113.552 45.8011 112.637 46.2416 112.637 46.9869C112.637 47.7323 113.569 48.1897 114.535 48.1897C115.5 48.1897 116.398 47.7323 116.398 46.9869ZM112.332 41.7525V40.3804H116.754V41.7525H112.332ZM122.14 52.6956C122.14 54.3388 120.311 55.3891 117.059 55.3891C113.823 55.3891 111.994 54.3388 111.994 52.6956C111.994 51.0864 113.823 50.0191 117.059 50.0191C120.311 50.0191 122.14 51.0864 122.14 52.6956ZM117.059 51.3574C114.958 51.3574 113.772 51.9164 113.772 52.7126C113.772 53.5257 114.958 54.0678 117.059 54.0678C119.176 54.0678 120.362 53.5257 120.362 52.7126C120.362 51.8995 119.176 51.3574 117.059 51.3574ZM137.356 55.3382H135.629V40.2449H137.356V55.3382ZM134.121 50.5443L133.088 51.8486C131.8 51.0186 130.191 49.1552 129.632 47.4951C129.124 49.2907 127.616 51.188 125.956 52.1874L124.889 50.917C127.226 49.3924 128.717 46.9022 128.717 44.0225V41.5493H130.513V43.9208C130.513 46.8175 131.919 49.1552 134.121 50.5443Z" fill="black"/>
<path d="M44.7876 73.4665V72.8694L46.8204 70.7604C48.0273 69.5026 48.8404 68.5751 48.8404 67.3555C48.8404 66.2247 48.2941 65.6657 47.0872 65.6657C46.363 65.6657 45.6769 66.0215 45.1815 66.3645L44.8892 65.5641C45.4228 65.2211 46.2868 64.7891 47.2523 64.7891C48.9675 64.7891 49.8949 65.742 49.8949 67.2665C49.8949 68.7403 49.0056 69.7567 47.5318 71.2559L46.1978 72.6026H50.0855V73.4665H44.7876ZM54.7269 73.619C52.9736 73.619 51.6015 72.4247 51.6015 69.5407V68.8292C51.6015 65.8182 53.0625 64.8018 54.7396 64.8018C56.4039 64.8018 57.776 65.8182 57.776 68.7784V69.5534C57.776 72.4374 56.4547 73.619 54.7269 73.619ZM54.7269 72.7804C56.0355 72.7804 56.7469 71.8911 56.7469 69.7059V68.7657C56.7469 66.6186 56.0482 65.6403 54.7396 65.6403C53.4056 65.6403 52.6814 66.5678 52.6814 68.7022V69.6423C52.6814 71.764 53.3929 72.7804 54.7269 72.7804ZM59.3039 73.4665V72.8694L61.3367 70.7604C62.5436 69.5026 63.3567 68.5751 63.3567 67.3555C63.3567 66.2247 62.8104 65.6657 61.6035 65.6657C60.8793 65.6657 60.1932 66.0215 59.6977 66.3645L59.4055 65.5641C59.9391 65.2211 60.8031 64.7891 61.7686 64.7891C63.4838 64.7891 64.4112 65.742 64.4112 67.2665C64.4112 68.7403 63.5219 69.7567 62.0481 71.2559L60.7141 72.6026H64.6018V73.4665H59.3039ZM69.4878 73.6698V71.6751H65.4604V70.9128L69.6276 64.8272H70.4153V70.8493H71.8382V71.6751H70.4153V73.6698H69.4878ZM66.5403 70.8493H69.4878V66.428L66.5403 70.8493ZM72.6728 73.7841V72.6534H73.7781V73.7841H72.6728ZM79.0199 73.619C77.2666 73.619 75.8945 72.4247 75.8945 69.5407V68.8292C75.8945 65.8182 77.3556 64.8018 79.0326 64.8018C80.697 64.8018 82.0691 65.8182 82.0691 68.7784V69.5534C82.0691 72.4374 80.7478 73.619 79.0199 73.619ZM79.0199 72.7804C80.3285 72.7804 81.04 71.8911 81.04 69.7059V68.7657C81.04 66.6186 80.3412 65.6403 79.0326 65.6403C77.6986 65.6403 76.9744 66.5678 76.9744 68.7022V69.6423C76.9744 71.764 77.6859 72.7804 79.0199 72.7804ZM84.0085 73.5173L87.3626 65.8309H83.0303V64.9797H88.468V65.6276L85.1266 73.5173H84.0085ZM89.3603 73.7841V72.6534H90.4656V73.7841H89.3603ZM95.7074 73.619C93.9542 73.619 92.582 72.4247 92.582 69.5407V68.8292C92.582 65.8182 94.0431 64.8018 95.7201 64.8018C97.3845 64.8018 98.7566 65.8182 98.7566 68.7784V69.5534C98.7566 72.4374 97.4353 73.619 95.7074 73.619ZM95.7074 72.7804C97.016 72.7804 97.7275 71.8911 97.7275 69.7059V68.7657C97.7275 66.6186 97.0287 65.6403 95.7201 65.6403C94.3861 65.6403 93.6619 66.5678 93.6619 68.7022V69.6423C93.6619 71.764 94.3734 72.7804 95.7074 72.7804ZM101.845 73.5173V65.9579L100.27 66.3264V65.742L102.277 64.8018H102.811V73.5173H101.845Z" fill="#959595"/>
<path d="M734.622 65.0219C734.622 70.1273 727.208 74.2597 726.893 74.4304C726.81 74.4761 726.717 74.5 726.622 74.5C726.528 74.5 726.435 74.4761 726.351 74.4304C726.036 74.2597 718.622 70.1273 718.622 65.0219C718.623 63.823 719.09 62.6737 719.921 61.8259C720.751 60.9782 721.877 60.5014 723.051 60.5C724.526 60.5 725.817 61.1477 726.622 62.2424C727.427 61.1477 728.718 60.5 730.193 60.5C731.368 60.5014 732.493 60.9782 733.324 61.8259C734.154 62.6737 734.621 63.823 734.622 65.0219Z" fill="#FE4040"/>
<path d="M743.156 71.412V70.558L745.172 68.458C746.488 67.072 747.496 65.952 747.496 64.692C747.496 63.488 746.866 62.97 745.606 62.97C744.892 62.97 744.108 63.32 743.576 63.67L743.282 62.564C743.898 62.186 744.864 61.78 745.942 61.78C747.958 61.78 749.022 62.816 749.022 64.524C749.022 66.19 747.748 67.534 746.404 68.948L745.116 70.236H749.148V71.412H743.156ZM753.169 71.552C752.035 71.552 751.041 71.244 750.509 70.88L750.775 69.802C751.279 70.124 752.217 70.376 752.931 70.376C754.345 70.376 755.115 69.774 755.115 68.668C755.115 67.562 754.303 67.072 753.001 67.058L752.077 67.044V65.938L752.903 65.924C754.065 65.91 754.807 65.35 754.807 64.398C754.807 63.348 754.135 62.97 753.043 62.97C752.315 62.97 751.601 63.264 751.027 63.544L750.845 62.438C751.433 62.074 752.511 61.78 753.407 61.78C755.143 61.78 756.291 62.634 756.291 64.146C756.291 65.294 755.605 66.008 754.541 66.372C755.745 66.61 756.627 67.282 756.627 68.724C756.627 70.432 755.297 71.552 753.169 71.552ZM759.624 71.468V63.39L757.944 63.754V62.9L760.31 61.836H761.08V71.468H759.624Z" fill="#707070"/>
<g filter="url(#filter1_d_2286_6158)">
<path d="M44 102.705C44 95.6881 49.6882 90 56.7048 90H633.717C640.733 90 646.421 95.6882 646.421 102.705V159.877C646.421 166.893 640.733 172.581 633.717 172.581H56.7048C49.6881 172.581 44 166.893 44 159.877V102.705Z" fill="#F5F5F5"/>
<path d="M80.3069 115.515V123.729H79.3019V119.436H77.0314V118.617H79.3019V115.515H80.3069ZM71.138 121.496C72.7882 120.913 73.9544 119.424 73.9544 117.823V117.252H71.4482V116.434H77.4408V117.252H74.9718V117.811C74.9718 119.262 76.0761 120.677 77.689 121.247L77.1803 122.042C75.9272 121.582 74.9594 120.652 74.488 119.486C74.0041 120.776 72.9743 121.806 71.6467 122.302L71.138 121.496ZM73.1604 126.471V123.009H74.1654V125.64H80.617V126.471H73.1604ZM92.6395 121.049V121.855H82.5153V121.049H87.0811V119.746H83.7933V116.024H91.374V116.831H84.7858V118.927H91.4608V119.746H88.0613V121.049H92.6395ZM83.7188 124.697C83.7188 123.406 85.1704 122.674 87.565 122.674C89.9472 122.674 91.3988 123.406 91.3988 124.697C91.3988 125.987 89.9472 126.707 87.565 126.707C85.1704 126.707 83.7188 125.987 83.7188 124.697ZM84.7362 124.697C84.7362 125.478 85.8032 125.925 87.565 125.925C89.3268 125.925 90.3814 125.478 90.3814 124.697C90.3814 123.915 89.3268 123.468 87.565 123.468C85.8032 123.468 84.7362 123.915 84.7362 124.697ZM99.8232 116.223C99.8232 119.126 98.2227 121.223 94.637 122.302L94.24 121.496C96.1383 120.937 97.379 120.106 98.0738 119.051L94.3269 119.337L94.1656 118.506L98.4708 118.307C98.6321 117.91 98.719 117.488 98.7562 117.054H94.7239V116.223H99.8232ZM95.8157 123.679V122.86H103.099V126.719H102.094V123.679H95.8157ZM102.094 122.252V115.515H103.099V122.252H102.094ZM115.494 124.449V125.292H105.332V124.449H109.898V122.029H106.536V116.309H107.541V118.319H113.285V116.309H114.278V122.029H110.891V124.449H115.494ZM107.541 121.21H113.285V119.138H107.541V121.21ZM125.729 120.888V121.719H118.037V116.545H125.618V117.376H119.042V120.888H125.729ZM116.747 125.193V124.362H126.908V125.193H116.747ZM133.992 116.372C135.506 116.372 136.623 117.699 136.772 119.796H139.228V115.503H140.233V126.731H139.228V120.602H136.772C136.672 122.798 135.543 124.188 133.992 124.188C132.367 124.188 131.213 122.662 131.213 120.28C131.213 117.898 132.367 116.372 133.992 116.372ZM132.169 120.28C132.169 122.104 132.913 123.295 133.992 123.295C135.084 123.295 135.829 122.104 135.829 120.28C135.829 118.456 135.084 117.277 133.992 117.277C132.913 117.277 132.169 118.456 132.169 120.28ZM151.586 115.85V116.644H149.886V118.791H151.536V119.573H143.397V118.791H145.06V116.644H143.36V115.85H151.586ZM142.417 121.334V120.515H152.553V121.334H142.417ZM143.645 123.071V122.327H151.251V124.771H144.663V125.826H151.586V126.595H143.67V124.051H150.258V123.071H143.645ZM146.065 118.791H148.881V116.644H146.065V118.791ZM163.36 115.503V126.719H162.392V115.503H163.36ZM153.98 120.342C153.98 117.947 154.911 116.446 156.362 116.446C157.715 116.446 158.621 117.749 158.732 119.87H160.171V115.751H161.127V126.161H160.171V120.702H158.732C158.645 122.898 157.74 124.25 156.362 124.25C154.911 124.25 153.98 122.749 153.98 120.342ZM154.898 120.342C154.898 122.166 155.469 123.307 156.362 123.307C157.256 123.307 157.826 122.166 157.826 120.342C157.826 118.53 157.256 117.389 156.362 117.389C155.469 117.389 154.898 118.53 154.898 120.342ZM169.167 118.493C169.167 120.528 170.444 122.575 172.057 123.344L171.462 124.151C170.209 123.506 169.167 122.178 168.67 120.59C168.174 122.252 167.132 123.679 165.879 124.349L165.246 123.543C166.871 122.736 168.149 120.578 168.149 118.493V116.483H169.167V118.493ZM170.854 120.143V119.324H173.472V115.503H174.477V126.731H173.472V120.143H170.854ZM189.005 115.503V126.719H188.038V120.913H186.437V126.148H185.494V115.764H186.437V120.081H188.038V115.503H189.005ZM180.06 123.816V116.868H181.065V122.935C182.144 122.922 183.335 122.848 184.675 122.575L184.787 123.456C183.261 123.741 181.971 123.816 180.767 123.816H180.06ZM197.43 116.037C199.092 116.037 200.283 116.967 200.283 118.344C200.283 119.709 199.092 120.652 197.43 120.652C195.767 120.652 194.576 119.709 194.576 118.344C194.576 116.967 195.767 116.037 197.43 116.037ZM193.745 121.595C195.829 121.595 198.671 121.57 201.14 121.198L201.214 121.955C200.159 122.141 199.055 122.265 197.988 122.339V126.372H196.983V122.389C195.867 122.439 194.8 122.451 193.869 122.451L193.745 121.595ZM195.544 118.344C195.544 119.213 196.326 119.808 197.43 119.808C198.534 119.808 199.316 119.213 199.316 118.344C199.316 117.476 198.534 116.868 197.43 116.868C196.326 116.868 195.544 117.476 195.544 118.344ZM201.946 126.731V115.515H202.939V126.731H201.946ZM214.353 115.503V126.719H213.336V115.503H214.353ZM205.395 123.779C207.045 123.009 208.298 121.111 208.298 119.138V118.27H205.693V117.463H208.286V115.714H209.303V117.463H211.859V118.27H209.291V119.138C209.291 121.024 210.581 122.848 212.244 123.58L211.686 124.362C210.408 123.779 209.328 122.563 208.82 121.074C208.311 122.649 207.244 123.94 205.954 124.56L205.395 123.779ZM225.197 115.503V120.069H226.996V120.9H225.197V126.719H224.192V115.503H225.197ZM216.661 123.816C219.527 122.364 221.078 120.205 221.301 117.55H217.182V116.719H222.318C222.318 119.895 220.842 122.774 217.219 124.585L216.661 123.816ZM240.061 115.515V122.24H239.056V120.739H236.115V119.92H239.056V118.406H236.239C235.52 120.205 233.795 121.508 231.4 122.228L231.003 121.421C233.683 120.64 235.346 119.126 235.532 117.178H231.574V116.359H236.624C236.624 116.793 236.574 117.203 236.487 117.587H239.056V115.515H240.061ZM232.716 124.511C232.716 123.171 234.155 122.364 236.425 122.364C238.683 122.364 240.123 123.171 240.123 124.511C240.123 125.863 238.683 126.669 236.425 126.669C234.155 126.669 232.716 125.863 232.716 124.511ZM233.708 124.511C233.708 125.367 234.763 125.863 236.425 125.863C238.075 125.863 239.13 125.367 239.13 124.511C239.13 123.667 238.075 123.158 236.425 123.158C234.763 123.158 233.708 123.667 233.708 124.511ZM246.016 117.612C246.016 119.151 247.157 120.59 248.783 121.161L248.286 121.955C247.021 121.496 246.041 120.565 245.557 119.386C245.085 120.714 244.08 121.731 242.753 122.24L242.219 121.446C243.919 120.826 245.023 119.324 245.023 117.575V116.185H246.016V117.612ZM244.006 126.471V122.997H245.023V125.64H251.45V126.471H244.006ZM249.949 123.791V115.503H250.954V118.952H252.617V119.796H250.954V123.791H249.949ZM258.733 116.235C261.066 116.235 262.803 117.463 262.803 119.312C262.803 121.185 261.066 122.401 258.733 122.401C256.413 122.401 254.664 121.185 254.664 119.312C254.664 117.463 256.413 116.235 258.733 116.235ZM253.671 125.23V124.386H263.833V125.23H253.671ZM255.631 119.312C255.631 120.664 256.959 121.582 258.733 121.582C260.52 121.582 261.835 120.664 261.835 119.312C261.835 117.96 260.52 117.054 258.733 117.054C256.959 117.054 255.631 117.96 255.631 119.312ZM275.247 124.498V125.329H265.086V124.498H269.651V122.389H266.364V118.927H273.001V117.166H266.339V116.347H273.994V119.734H267.356V121.558H274.254V122.389H270.644V124.498H275.247ZM283.113 117.463C283.113 118.903 284.205 120.218 285.843 120.751L285.371 121.545C284.081 121.123 283.101 120.23 282.617 119.113C282.145 120.354 281.116 121.31 279.776 121.781L279.279 120.975C280.967 120.416 282.108 119.039 282.108 117.463V117.079H279.59V116.247H285.582V117.079H283.113V117.463ZM280.992 126.57V122.19H281.984V123.555H287.046V122.19H288.039V126.57H280.992ZM281.984 125.751H287.046V124.349H281.984V125.751ZM287.034 121.657V115.515H288.039V118.109H289.701V118.952H288.039V121.657H287.034ZM299.937 115.478V121.669H298.932V115.478H299.937ZM290.93 117.302V116.52H293.833V115.379H294.838V116.52H297.741V117.302H290.93ZM291.6 119.672C291.6 118.543 292.667 117.836 294.329 117.836C295.992 117.836 297.059 118.543 297.059 119.672C297.059 120.813 295.992 121.508 294.329 121.508C292.667 121.508 291.6 120.813 291.6 119.672ZM292.555 119.672C292.555 120.342 293.262 120.764 294.329 120.764C295.396 120.764 296.091 120.342 296.091 119.672C296.091 119.002 295.396 118.58 294.329 118.58C293.262 118.58 292.555 119.002 292.555 119.672ZM292.691 122.997V122.24H299.937V124.734H293.709V125.826H300.322V126.595H292.729V123.989H298.945V122.997H292.691ZM312.381 115.751V120.081H313.721V115.503H314.664V126.719H313.721V120.913H312.381V126.161H311.438V115.751H312.381ZM305.347 123.803V116.917H307.754V117.749H306.277V122.947C306.699 122.935 307.232 122.885 307.828 122.736L307.915 123.58C306.997 123.791 306.265 123.803 305.793 123.803H305.347ZM308.237 123.803V116.917H310.706V117.749H309.156V122.947C309.677 122.935 310.285 122.873 310.93 122.699L311.041 123.543C310.111 123.791 309.342 123.803 308.697 123.803H308.237ZM316.24 128.096L316.885 124.486H318.039L317.009 128.096H316.24ZM327.729 117.439V118.257H322.158V117.439H324.454V115.838H325.446V117.439H327.729ZM322.543 121.57C322.543 120.069 323.548 119.014 324.937 119.014C326.339 119.014 327.357 120.069 327.357 121.57C327.357 123.071 326.339 124.126 324.937 124.126C323.548 124.126 322.543 123.071 322.543 121.57ZM323.436 121.57C323.436 122.563 324.069 123.27 324.937 123.27C325.818 123.27 326.451 122.563 326.451 121.57C326.451 120.578 325.818 119.87 324.937 119.87C324.069 119.87 323.436 120.578 323.436 121.57ZM328.287 126.173V115.764H329.23V120.23H330.694V115.503H331.65V126.719H330.694V121.061H329.23V126.173H328.287ZM342.295 115.503V118.431H343.945V119.275H342.295V122.178H341.277V115.503H342.295ZM334.094 121.285V116.372H339.032V117.19H335.086V120.453C337.332 120.453 338.61 120.391 340.086 120.081L340.21 120.9C338.647 121.21 337.32 121.285 334.962 121.285H334.094ZM335.037 124.56C335.037 123.22 336.439 122.414 338.709 122.414C340.992 122.414 342.394 123.22 342.394 124.56C342.394 125.913 340.992 126.707 338.709 126.707C336.439 126.707 335.037 125.913 335.037 124.56ZM336.017 124.56C336.017 125.391 337.047 125.888 338.709 125.888C340.384 125.888 341.414 125.391 341.414 124.56C341.414 123.717 340.384 123.233 338.709 123.233C337.047 123.233 336.017 123.717 336.017 124.56ZM356.451 115.503V120.069H358.25V120.9H356.451V126.719H355.446V115.503H356.451ZM347.915 123.816C350.781 122.364 352.332 120.205 352.556 117.55H348.436V116.719H353.573C353.573 119.895 352.096 122.774 348.474 124.585L347.915 123.816ZM368.052 115.503V120.131H369.739V120.975H368.052V126.719H367.059V115.503H368.052ZM359.218 123.617C360.881 121.893 361.551 119.808 361.675 117.563H359.566V116.719H362.618C362.618 119.411 362.035 122.029 360.025 124.188L359.218 123.617ZM362.407 124.386C364.131 122.389 364.64 119.92 364.727 117.563H362.977V116.719H365.682C365.682 119.411 365.285 122.501 363.226 124.932L362.407 124.386ZM380.831 121.21V122.029H376.34V124.312H375.323V122.029H370.67V121.21H380.831ZM371.811 118.046C371.811 116.657 373.362 115.788 375.732 115.788C378.114 115.788 379.665 116.657 379.665 118.046C379.665 119.436 378.114 120.292 375.732 120.292C373.362 120.292 371.811 119.436 371.811 118.046ZM371.96 126.471V123.195H372.978V125.64H379.702V126.471H371.96ZM372.878 118.046C372.878 118.927 374.02 119.473 375.732 119.473C377.457 119.473 378.598 118.927 378.598 118.046C378.598 117.166 377.457 116.62 375.732 116.62C374.02 116.62 372.878 117.166 372.878 118.046ZM394.144 115.515V122.24H393.139V120.739H390.199V119.92H393.139V118.406H390.323C389.603 120.205 387.878 121.508 385.484 122.228L385.087 121.421C387.767 120.64 389.429 119.126 389.615 117.178H385.658V116.359H390.707C390.707 116.793 390.658 117.203 390.571 117.587H393.139V115.515H394.144ZM386.799 124.511C386.799 123.171 388.238 122.364 390.509 122.364C392.767 122.364 394.206 123.171 394.206 124.511C394.206 125.863 392.767 126.669 390.509 126.669C388.238 126.669 386.799 125.863 386.799 124.511ZM387.792 124.511C387.792 125.367 388.846 125.863 390.509 125.863C392.159 125.863 393.214 125.367 393.214 124.511C393.214 123.667 392.159 123.158 390.509 123.158C388.846 123.158 387.792 123.667 387.792 124.511ZM400.149 117.674C400.149 118.89 401.303 119.957 402.928 120.354L402.494 121.136C401.191 120.801 400.174 120.056 399.665 119.076C399.181 120.156 398.114 120.975 396.762 121.359L396.315 120.578C397.965 120.131 399.157 119.002 399.157 117.674V117.488H396.65V116.669H399.157V115.466H400.161V116.669H402.643V117.488H400.149V117.674ZM397.928 122.774V121.98H405.037V124.61H398.946V125.801H405.447V126.595H397.965V123.865H404.045V122.774H397.928ZM404.032 121.421V115.515H405.037V118.009H406.688V118.841H405.037V121.421H404.032ZM411.675 118.493C411.675 120.528 412.953 122.575 414.566 123.344L413.971 124.151C412.717 123.506 411.675 122.178 411.179 120.59C410.683 122.252 409.641 123.679 408.387 124.349L407.755 123.543C409.38 122.736 410.658 120.578 410.658 118.493V116.483H411.675V118.493ZM413.363 120.143V119.324H415.981V115.503H416.985V126.731H415.981V120.143H413.363ZM429.331 124.498V125.329H419.169V124.498H423.735V122.389H420.447V118.927H427.085V117.166H420.422V116.347H428.077V119.734H421.44V121.558H428.338V122.389H424.727V124.498H429.331ZM442.643 115.515V123.803H441.638V120.776H438.785C438.276 121.434 437.445 121.831 436.489 121.831C434.839 121.831 433.599 120.677 433.599 119.039C433.599 117.389 434.839 116.235 436.489 116.235C437.432 116.235 438.251 116.62 438.772 117.265H441.638V115.515H442.643ZM434.566 119.039C434.566 120.156 435.385 120.95 436.489 120.95C437.581 120.95 438.413 120.156 438.413 119.039C438.413 117.922 437.581 117.116 436.489 117.116C435.385 117.116 434.566 117.922 434.566 119.039ZM435.497 126.471V122.947H436.502V125.64H442.953V126.471H435.497ZM439.219 118.096C439.318 118.381 439.368 118.704 439.368 119.039C439.368 119.362 439.318 119.672 439.231 119.957H441.638V118.096H439.219ZM450.348 116.173V119.275H446.316V120.9C448.289 120.9 449.715 120.826 451.44 120.528L451.539 121.359C449.765 121.669 448.276 121.731 446.217 121.731H445.336V118.493H449.368V117.004H445.311V116.173H450.348ZM446.266 123.741V122.922H453.537V126.719H452.532V123.741H446.266ZM452.532 122.327V115.515H453.537V118.381H455.199V119.238H453.537V122.327H452.532ZM465.423 115.503V126.731H464.418V115.503H465.423ZM456.676 120.28C456.676 117.898 457.854 116.372 459.517 116.372C461.167 116.372 462.358 117.898 462.358 120.28C462.358 122.662 461.167 124.188 459.517 124.188C457.854 124.188 456.676 122.662 456.676 120.28ZM457.643 120.28C457.643 122.104 458.413 123.295 459.517 123.295C460.621 123.295 461.39 122.104 461.39 120.28C461.39 118.456 460.621 117.277 459.517 117.277C458.413 117.277 457.643 118.456 457.643 120.28ZM474.281 118.952C474.281 120.726 475.559 122.724 477.172 123.493L476.601 124.287C475.348 123.667 474.294 122.352 473.797 120.85C473.289 122.476 472.185 123.915 470.919 124.56L470.336 123.766C471.924 122.984 473.289 120.85 473.289 118.952V117.501H470.733V116.657H476.763V117.501H474.281V118.952ZM478.115 126.719V115.515H479.12V120.044H480.969V120.888H479.12V126.719H478.115ZM492.061 121.049V121.855H481.937V121.049H486.502V119.746H483.214V116.024H490.795V116.831H484.207V118.927H490.882V119.746H487.482V121.049H492.061ZM483.14 124.697C483.14 123.406 484.592 122.674 486.986 122.674C489.368 122.674 490.82 123.406 490.82 124.697C490.82 125.987 489.368 126.707 486.986 126.707C484.592 126.707 483.14 125.987 483.14 124.697ZM484.157 124.697C484.157 125.478 485.224 125.925 486.986 125.925C488.748 125.925 489.803 125.478 489.803 124.697C489.803 123.915 488.748 123.468 486.986 123.468C485.224 123.468 484.157 123.915 484.157 124.697ZM498.401 116.235C500.733 116.235 502.47 117.463 502.47 119.312C502.47 121.185 500.733 122.401 498.401 122.401C496.081 122.401 494.331 121.185 494.331 119.312C494.331 117.463 496.081 116.235 498.401 116.235ZM493.339 125.23V124.386H503.5V125.23H493.339ZM495.299 119.312C495.299 120.664 496.626 121.582 498.401 121.582C500.187 121.582 501.502 120.664 501.502 119.312C501.502 117.96 500.187 117.054 498.401 117.054C496.626 117.054 495.299 117.96 495.299 119.312ZM514.915 124.498V125.329H504.753V124.498H509.319V122.389H506.031V118.927H512.669V117.166H506.006V116.347H513.661V119.734H507.024V121.558H513.922V122.389H510.312V124.498H514.915ZM528.178 115.503V126.731H527.173V115.503H528.178ZM519.431 120.28C519.431 117.898 520.609 116.372 522.272 116.372C523.922 116.372 525.113 117.898 525.113 120.28C525.113 122.662 523.922 124.188 522.272 124.188C520.609 124.188 519.431 122.662 519.431 120.28ZM520.398 120.28C520.398 122.104 521.168 123.295 522.272 123.295C523.376 123.295 524.145 122.104 524.145 120.28C524.145 118.456 523.376 117.277 522.272 117.277C521.168 117.277 520.398 118.456 520.398 120.28ZM539.344 115.962V118.878H532.681V120.317H539.605V121.148H531.664V118.096H538.339V116.769H531.639V115.962H539.344ZM530.423 123.146V122.315H540.585V123.146H535.982V126.731H534.977V123.146H530.423ZM544.828 116.372C546.342 116.372 547.458 117.699 547.607 119.796H550.064V115.503H551.069V126.731H550.064V120.602H547.607C547.508 122.798 546.379 124.188 544.828 124.188C543.203 124.188 542.049 122.662 542.049 120.28C542.049 117.898 543.203 116.372 544.828 116.372ZM543.004 120.28C543.004 122.104 543.749 123.295 544.828 123.295C545.92 123.295 546.664 122.104 546.664 120.28C546.664 118.456 545.92 117.277 544.828 117.277C543.749 117.277 543.004 118.456 543.004 120.28ZM562.471 115.515V126.719H561.478V121.905H559.208V121.061H561.478V119.511H559.208V118.654H561.478V115.515H562.471ZM553.178 123.779C554.766 122.984 556.106 120.813 556.106 118.816V117.488H553.587V116.657H559.63V117.488H557.123V118.816C557.123 120.578 558.439 122.687 560.014 123.506L559.431 124.287C558.215 123.642 557.148 122.252 556.64 120.714C556.143 122.401 555.064 123.865 553.848 124.548L553.178 123.779ZM574.593 124.746C573.96 125.441 572.831 125.875 571.665 125.875C569.208 125.875 567.645 124.051 567.645 121.198C567.645 118.344 569.208 116.508 571.665 116.508C572.831 116.508 573.96 116.955 574.593 117.637L574.196 118.543C573.526 117.873 572.607 117.488 571.665 117.488C569.853 117.488 568.836 118.841 568.836 121.198C568.836 123.555 569.853 124.908 571.665 124.908C572.607 124.908 573.526 124.523 574.196 123.853L574.593 124.746ZM582.707 124.746C582.074 125.441 580.945 125.875 579.779 125.875C577.322 125.875 575.759 124.051 575.759 121.198C575.759 118.344 577.322 116.508 579.779 116.508C580.945 116.508 582.074 116.955 582.707 117.637L582.31 118.543C581.64 117.873 580.722 117.488 579.779 117.488C577.967 117.488 576.95 118.841 576.95 121.198C576.95 123.555 577.967 124.908 579.779 124.908C580.722 124.908 581.64 124.523 582.31 123.853L582.707 124.746ZM583.228 116.632H590.573V117.6H587.459V125.764H586.342V117.6H583.228V116.632ZM591.007 116.632H592.173L595.176 124.349L598.166 116.632H599.332L595.66 125.764H594.667L591.007 116.632ZM610.213 120.726V121.496H600.052V120.726H610.213ZM601.255 123.133V122.414H608.935V124.796H602.285V125.851H609.295V126.583H601.293V124.101H607.955V123.133H601.255ZM601.342 116.57V115.838H608.898V118.171H602.36V119.151H609.109V119.883H601.367V117.476H607.918V116.57H601.342ZM81.2126 142.458V143.265H71.0884V142.458H75.6418V141.342H72.4284V136.838H79.9719V137.632H73.4334V138.674H79.6741V139.443H73.4334V140.548H80.0215V141.342H76.6468V142.458H81.2126ZM72.3043 145.908C72.3043 144.729 73.7063 144.109 76.1505 144.109C78.5947 144.109 79.9843 144.729 79.9843 145.908C79.9843 147.074 78.5947 147.694 76.1505 147.694C73.7063 147.694 72.3043 147.074 72.3043 145.908ZM73.3217 145.908C73.3217 146.59 74.3391 146.937 76.1505 146.937C77.9619 146.937 78.9793 146.59 78.9793 145.908C78.9793 145.238 77.9619 144.878 76.1505 144.878C74.3391 144.878 73.3217 145.238 73.3217 145.908ZM88.0613 138.439V139.257H82.4905V138.439H84.7858V136.838H85.7784V138.439H88.0613ZM82.8751 142.57C82.8751 141.069 83.8801 140.014 85.2697 140.014C86.6717 140.014 87.6891 141.069 87.6891 142.57C87.6891 144.071 86.6717 145.126 85.2697 145.126C83.8801 145.126 82.8751 144.071 82.8751 142.57ZM83.7684 142.57C83.7684 143.563 84.4012 144.27 85.2697 144.27C86.1506 144.27 86.7834 143.563 86.7834 142.57C86.7834 141.578 86.1506 140.87 85.2697 140.87C84.4012 140.87 83.7684 141.578 83.7684 142.57ZM88.6196 147.173V136.764H89.5626V141.23H91.0266V136.503H91.9819V147.719H91.0266V142.061H89.5626V147.173H88.6196ZM93.7313 149.096L94.3765 145.486H95.5304L94.5006 149.096H93.7313ZM109.104 136.515V142.793H108.149V136.515H109.104ZM99.5999 138.401V137.607H101.895V136.491H102.888V137.607H105.171V138.401H99.5999ZM100.072 140.709C100.072 139.58 101.027 138.848 102.379 138.848C103.756 138.848 104.712 139.58 104.712 140.709C104.712 141.826 103.756 142.558 102.379 142.558C101.027 142.558 100.072 141.826 100.072 140.709ZM100.965 140.709C100.965 141.379 101.536 141.838 102.379 141.838C103.248 141.838 103.818 141.379 103.818 140.709C103.818 140.027 103.248 139.58 102.379 139.58C101.536 139.58 100.965 140.027 100.965 140.709ZM101.722 144.034V143.29H109.104V145.759H102.739V146.826H109.526V147.595H101.747V145.039H108.124V144.034H101.722ZM104.898 140.275V139.456H106.139V136.702H107.082V142.707H106.139V140.275H104.898ZM120.531 136.515V144.084H119.575V136.515H120.531ZM111.585 142.396V137.496H115.903V139.443H117.429V136.751H118.384V143.017H117.429V140.275H115.903V142.396H111.585ZM112.503 146.888C114.464 146.59 116.3 145.374 116.3 143.898V143.525H117.305V143.898C117.305 145.374 119.154 146.59 121.102 146.888L120.729 147.682C119.054 147.384 117.479 146.528 116.796 145.287C116.114 146.528 114.551 147.384 112.876 147.682L112.503 146.888ZM112.528 141.627H114.96V138.277H112.528V141.627ZM129.141 138.947C129.141 140.337 130.246 141.615 131.883 142.111L131.399 142.905C130.121 142.496 129.141 141.64 128.657 140.548C128.174 141.751 127.169 142.682 125.853 143.116L125.357 142.322C127.02 141.801 128.149 140.461 128.149 138.947V138.711H125.643V137.893H128.149V136.466H129.154V137.893H131.635V138.711H129.141V138.947ZM126.759 144.766V143.935H134.03V147.731H133.025V144.766H126.759ZM133.025 143.339V136.515H134.03V139.506H135.692V140.349H134.03V143.339H133.025ZM146.883 142.061V142.868H136.747V142.061H139.253V140.473C138.372 140.126 137.876 139.555 137.876 138.798C137.876 137.483 139.377 136.714 141.809 136.714C144.241 136.714 145.754 137.483 145.754 138.798C145.754 139.555 145.258 140.126 144.377 140.473V142.061H146.883ZM137.963 145.709C137.963 144.444 139.402 143.736 141.809 143.736C144.204 143.736 145.643 144.444 145.643 145.709C145.643 146.987 144.204 147.707 141.809 147.707C139.402 147.707 137.963 146.987 137.963 145.709ZM138.906 138.798C138.906 139.617 140.022 140.089 141.809 140.089C143.608 140.089 144.712 139.617 144.712 138.798C144.712 137.979 143.608 137.508 141.809 137.508C140.022 137.508 138.906 137.979 138.906 138.798ZM138.98 145.709C138.98 146.491 140.047 146.925 141.809 146.925C143.571 146.925 144.625 146.491 144.625 145.709C144.625 144.952 143.571 144.506 141.809 144.506C140.047 144.506 138.98 144.952 138.98 145.709ZM140.258 142.061H143.372V140.746C142.913 140.833 142.38 140.87 141.809 140.87C141.238 140.87 140.717 140.833 140.258 140.746V142.061ZM153.993 137.372C155.01 137.372 155.854 137.967 156.338 139.009H159.228V136.503H160.233V147.731H159.228V143.401H156.4C155.928 144.53 155.06 145.188 153.993 145.188C152.367 145.188 151.214 143.662 151.214 141.28C151.214 138.898 152.367 137.372 153.993 137.372ZM152.156 141.28C152.156 143.104 152.913 144.295 153.993 144.295C155.085 144.295 155.829 143.104 155.829 141.28C155.829 139.456 155.085 138.277 153.993 138.277C152.913 138.277 152.156 139.456 152.156 141.28ZM156.623 139.853C156.735 140.287 156.784 140.759 156.784 141.28C156.784 141.739 156.735 142.173 156.66 142.57H159.228V139.853H156.623ZM172.578 143.153V143.972H167.963V147.719H166.97V143.972H162.417V143.153H172.578ZM163.695 141.801V136.962H164.7V138.513H170.283V136.962H171.276V141.801H163.695ZM164.7 140.994H170.283V139.332H164.7V140.994ZM183.993 141.726V142.496H173.832V141.726H183.993ZM175.035 144.133V143.414H182.715V145.796H176.065V146.851H183.075V147.583H175.072V145.101H181.735V144.133H175.035ZM175.122 137.57V136.838H182.678V139.171H176.139V140.151H182.889V140.883H175.147V138.476H181.698V137.57H175.122ZM196.785 136.503V139.841H198.447V140.684H196.785V144.63H195.78V136.503H196.785ZM188.608 142.645V137.471H193.559V138.302H189.613V141.801C191.834 141.801 193.1 141.739 194.576 141.429L194.7 142.247C193.149 142.57 191.822 142.645 189.477 142.645H188.608ZM189.812 147.471V143.811H190.817V146.64H197.293V147.471H189.812ZM209.663 142.136V142.967H199.502V142.136H204.068V140.424H205.06V142.136H209.663ZM200.11 140.213C202.095 139.94 204.055 138.699 204.055 137.198V136.689H205.073V137.198C205.073 138.687 207.033 139.94 209.006 140.213L208.633 141.019C206.934 140.721 205.271 139.841 204.576 138.55C203.869 139.841 202.207 140.734 200.494 141.019L200.11 140.213ZM200.631 144.878V144.071H208.385V147.719H207.38V144.878H200.631ZM219.614 136.478V139.183H221.276V140.027H219.614V142.669H218.609V136.478H219.614ZM210.954 138.314V137.533H213.758V136.391H214.763V137.533H217.567V138.314H210.954ZM211.574 140.659C211.574 139.53 212.629 138.823 214.254 138.823C215.879 138.823 216.934 139.53 216.934 140.659C216.934 141.801 215.879 142.496 214.254 142.496C212.629 142.496 211.574 141.801 211.574 140.659ZM212.504 144.009V143.24H219.614V145.734H213.522V146.826H220.023V147.595H212.542V145.002H218.621V144.009H212.504ZM212.529 140.659C212.529 141.329 213.212 141.751 214.254 141.751C215.296 141.751 215.978 141.329 215.978 140.659C215.978 139.989 215.296 139.568 214.254 139.568C213.212 139.568 212.529 139.989 212.529 140.659ZM230.768 137.545C230.768 139.109 232.802 140.486 234.8 140.783L234.391 141.602C232.654 141.305 230.966 140.337 230.259 138.972C229.539 140.349 227.852 141.305 226.103 141.602L225.693 140.783C227.728 140.486 229.725 139.146 229.725 137.545V136.912H230.768V137.545ZM225.172 143.662V142.831H235.309V143.662H230.718V147.719H229.725V143.662H225.172ZM243.2 144.022C243.2 145.014 243.733 146.069 244.775 146.677C245.842 146.019 246.388 144.89 246.388 144.022V143.414H247.368V144.022C247.368 145.176 248.2 146.342 249.626 146.826L249.118 147.57C248.026 147.173 247.244 146.391 246.86 145.461C246.512 146.367 245.842 147.223 244.8 147.669C243.733 147.248 243.038 146.429 242.703 145.498C242.306 146.391 241.537 147.161 240.482 147.57L239.986 146.826C241.388 146.305 242.244 145.101 242.244 144.022V143.414H243.2V144.022ZM239.688 139.791C239.688 138.24 240.917 137.173 242.604 137.173C244.304 137.173 245.52 138.24 245.52 139.791C245.52 141.329 244.304 142.396 242.604 142.396C240.917 142.396 239.688 141.329 239.688 139.791ZM240.669 139.791C240.669 140.833 241.487 141.553 242.604 141.553C243.733 141.553 244.552 140.833 244.552 139.791C244.552 138.736 243.733 138.017 242.604 138.017C241.487 138.017 240.669 138.736 240.669 139.791ZM247.604 142.93V136.515H248.609V142.93H247.604ZM259.825 141.751V142.582H256.401V145.473H261.004V146.305H250.842V145.473H255.408V142.582H252.133V137.409H259.713V138.24H253.138V141.751H259.825ZM272.418 142.682V143.513H262.257V142.682H266.835V141.491H263.572V138.761H270.123V137.595H263.547V136.801H271.103V139.506H264.565V140.697H271.351V141.491H267.828V142.682H272.418ZM263.386 145.2V144.369H271.178V147.62H270.173V145.2H263.386ZM285.135 136.515V141.131H286.972V141.975H285.135V147.719H284.131V136.515H285.135ZM276.451 139.133V138.302H279.292V136.652H280.297V138.302H283.064V139.133H276.451ZM277.083 142.645C277.083 141.131 278.237 140.064 279.813 140.064C281.389 140.064 282.53 141.131 282.53 142.645C282.53 144.158 281.389 145.213 279.813 145.213C278.237 145.213 277.083 144.158 277.083 142.645ZM278.039 142.645C278.039 143.662 278.795 144.382 279.813 144.382C280.83 144.382 281.575 143.662 281.575 142.645C281.575 141.627 280.83 140.908 279.813 140.908C278.795 140.908 278.039 141.627 278.039 142.645ZM293.56 137.483V138.488H296.141V136.515H297.146V144.704H296.141V141.726H293.56V142.731H288.448V137.483H293.56ZM289.428 141.913H292.567V138.302H289.428V141.913ZM289.949 147.471V143.972H290.954V146.64H297.418V147.471H289.949ZM293.56 140.895H296.141V139.319H293.56V140.895ZM307.741 139.841V141.168H312.344V141.987H302.183V141.168H306.749V139.841H307.741ZM302.729 139.766C304.652 139.605 306.476 138.798 306.587 137.657H303.113V136.863H311.401V137.657H307.915C308.039 138.786 309.85 139.605 311.786 139.766L311.451 140.535C309.577 140.349 307.853 139.617 307.257 138.451C306.649 139.617 304.925 140.349 303.051 140.535L302.729 139.766ZM303.126 144.27V143.476H306.749V142.434H307.754V143.476H311.376V144.27H303.126ZM303.883 146.305C303.883 145.337 305.086 144.828 307.245 144.828C309.404 144.828 310.607 145.337 310.607 146.305C310.607 147.285 309.404 147.781 307.245 147.781C305.086 147.781 303.883 147.285 303.883 146.305ZM304.912 146.305C304.912 146.826 305.756 147.086 307.245 147.086C308.746 147.086 309.59 146.826 309.59 146.305C309.59 145.796 308.746 145.523 307.245 145.523C305.756 145.523 304.912 145.796 304.912 146.305ZM318.659 136.702C321.128 136.702 322.605 137.396 322.605 138.649C322.605 139.903 321.128 140.597 318.659 140.597C316.19 140.597 314.726 139.903 314.726 138.649C314.726 137.396 316.19 136.702 318.659 136.702ZM313.597 142.161V141.354H323.734V142.161H313.597ZM314.826 143.91V143.128H322.431V145.647H315.843V146.801H322.766V147.595H314.85V144.915H321.439V143.91H314.826ZM315.756 138.649C315.756 139.406 316.823 139.828 318.659 139.828C320.496 139.828 321.563 139.406 321.563 138.649C321.563 137.893 320.496 137.471 318.659 137.471C316.823 137.471 315.756 137.893 315.756 138.649ZM337.072 136.515V144.109H336.067V140.511H333.635V139.679H336.067V136.515H337.072ZM328.052 142.582C330.707 141.751 332.32 140.213 332.518 138.228H328.585V137.396H333.598C333.598 140.287 331.687 142.347 328.473 143.389L328.052 142.582ZM329.218 146.888C331.191 146.54 332.965 145.287 332.965 143.649V143.141H333.957V143.649C333.957 145.275 335.719 146.503 337.692 146.863L337.27 147.669C335.62 147.334 334.119 146.466 333.461 145.163C332.791 146.478 331.277 147.359 329.615 147.694L329.218 146.888ZM350.806 136.503V139.121H352.469V139.965H350.806V142.496H349.801V136.503H350.806ZM342.158 141.9C344.962 141.28 346.538 139.878 346.687 138.116H342.617V137.297H347.816C347.816 140.113 345.843 141.962 342.555 142.719L342.158 141.9ZM343.759 147.57V143.017H350.868V143.774H344.764V144.89H350.732V145.635H344.764V146.801H351.116V147.57H343.759ZM356.513 137.372C358.151 137.372 359.317 138.898 359.317 141.28C359.317 143.662 358.151 145.188 356.513 145.188C354.863 145.188 353.697 143.662 353.697 141.28C353.697 138.898 354.863 137.372 356.513 137.372ZM354.652 141.28C354.652 143.104 355.409 144.295 356.513 144.295C357.605 144.295 358.35 143.104 358.35 141.28C358.35 139.456 357.605 138.277 356.513 138.277C355.409 138.277 354.652 139.456 354.652 141.28ZM361.129 147.719V136.515H362.134V140.994H363.982V141.838H362.134V147.719H361.129ZM375.099 145.449V146.28H364.938V145.449H367.444V142.421C366.501 141.925 365.93 141.118 365.93 140.113C365.93 138.352 367.63 137.223 370 137.223C372.382 137.223 374.069 138.352 374.069 140.113C374.069 141.106 373.511 141.9 372.593 142.409V145.449H375.099ZM366.898 140.113C366.898 141.354 368.201 142.185 370 142.185C371.811 142.185 373.102 141.354 373.102 140.113C373.102 138.848 371.811 138.029 370 138.029C368.201 138.029 366.898 138.848 366.898 140.113ZM368.437 145.449H371.588V142.793C371.104 142.917 370.571 142.98 370 142.98C369.442 142.98 368.908 142.917 368.437 142.793V145.449ZM376.501 146.764V145.411H377.854V146.764H376.501Z" fill="#393939"/>
</g>
<g filter="url(#filter2_d_2286_6158)">
<path d="M762.48 90H658.068C655.144 90 652.774 92.3701 652.774 95.2937V167.706C652.774 170.63 655.144 173 658.068 173H762.48C765.404 173 767.774 170.63 767.774 167.706V95.2937C767.774 92.3701 765.404 90 762.48 90Z" fill="#8FD000"/>
<path d="M691.313 125.301H674.267V123.353H681.509V119.711H675.834V117.742H678.608L678.078 113.401L680.556 113.083L680.937 117.742H684.706L685.384 113.126L687.776 113.528L686.993 117.742H689.661V119.711H683.986V123.353H691.313V125.301ZM689.703 112.194H675.792V110.225H689.703V112.194ZM709.634 125.217H692.588V123.247H709.634V125.217ZM709.274 117.488L708.024 119.415C705.441 118.822 702.18 116.853 701.1 114.375C700.126 116.916 696.759 118.928 694.155 119.499L692.99 117.488C696.082 117.043 699.83 114.544 699.83 111.199V109.95H702.413V111.199C702.413 114.523 706.394 117.001 709.274 117.488ZM725.372 116.302H715.546V118.356H726.007V120.304H713.09V110.288H725.816V112.236H715.546V114.354H725.372V116.302ZM727.955 123.353V125.301H710.909V123.353H727.955ZM744.815 121.151H742.359V108.806H744.815V121.151ZM729.738 114.693C729.738 112.025 731.75 109.907 734.842 109.907C737.933 109.907 739.966 112.025 739.966 114.693C739.966 117.382 737.933 119.309 734.842 119.309C731.75 119.309 729.738 117.382 729.738 114.693ZM732.216 114.672C732.216 116.175 733.169 117.255 734.842 117.255C736.43 117.255 737.446 116.175 737.446 114.672C737.446 113.105 736.43 111.961 734.842 111.961C733.169 111.961 732.216 113.168 732.216 114.672ZM745.768 125.915L744.603 127.863C742.105 127.44 739.373 125.619 738.462 123.861C737.658 125.64 734.969 127.419 732.322 127.863L731.157 125.873C734.439 125.492 737.234 123.48 737.234 120.876V120.219H739.775V120.876C739.775 123.48 742.592 125.407 745.768 125.915ZM704.066 151.386C700.381 151.386 698.349 149.628 698.349 146.05V136.606H700.996V145.88C700.996 148.527 702.075 149.417 704.172 149.417C706.226 149.417 707.221 148.549 707.221 145.88V136.606H709.55V145.965C709.55 149.671 707.771 151.386 704.066 151.386ZM712.889 151.132V136.606H717.971C721.38 136.606 723.095 138.194 723.095 141.074C723.095 144.102 721.168 145.69 718.14 145.69H715.493V151.132H712.889ZM715.493 143.742H717.653C719.622 143.742 720.363 142.916 720.363 141.222C720.363 139.316 719.622 138.618 717.695 138.618H715.493V143.742Z" fill="white"/>
</g>
<path d="M87.4082 183H49.2937C46.3701 183 44 185.37 44 188.294V204.175C44 207.098 46.3701 209.468 49.2937 209.468H87.4082C90.3318 209.468 92.7019 207.098 92.7019 204.175V188.294C92.7019 185.37 90.3318 183 87.4082 183Z" fill="#005AFF" fill-opacity="0.06"/>
<path d="M62.4564 191.985C62.4564 193.244 63.3242 194.419 64.7423 194.906L64.2344 195.71C63.1549 195.329 62.3612 194.567 61.9484 193.604C61.5357 194.652 60.7208 195.477 59.5884 195.879L59.0698 195.054C60.562 194.546 61.4298 193.286 61.4298 191.9V190.937H62.4564V191.985ZM60.3186 197.573V196.737H66.6261V200.091H65.5996V197.573H60.3186ZM65.5996 196.281V190.45H66.6261V192.937H68.0019V193.794H66.6261V196.281H65.5996ZM77.061 190.45V200.081H76.0768V190.45H77.061ZM68.711 197.435C70.0762 196.599 70.7535 194.853 70.7535 193.128V192.366H69.0073V191.53H73.3781V192.366H71.7483V193.128C71.7483 194.779 72.3939 196.43 73.738 197.213L73.1241 197.964C72.214 197.414 71.5896 196.451 71.2615 195.297C70.9229 196.546 70.2773 197.604 69.3354 198.197L68.711 197.435ZM72.6585 194.705V193.858H74.1401V190.651H75.1032V199.605H74.1401V194.705H72.6585Z" fill="#005AFF"/>
</g>
</g>
<defs>
<filter id="filter0_d_2286_6158" x="0" y="0" width="803.774" height="253.468" filterUnits="userSpaceOnUse" color-interpolation-filters="sRGB">
<feFlood flood-opacity="0" result="BackgroundImageFix"/>
<feColorMatrix in="SourceAlpha" type="matrix" values="0 0 0 0 0 0 0 0 0 0 0 0 0 0 0 0 0 0 127 0" result="hardAlpha"/>
<feOffset dx="-4" dy="4"/>
<feGaussianBlur stdDeviation="10"/>
<feComposite in2="hardAlpha" operator="out"/>
<feColorMatrix type="matrix" values="0 0 0 0 0.408333 0 0 0 0 0.408333 0 0 0 0 0.408333 0 0 0 0.15 0"/>
<feBlend mode="normal" in2="BackgroundImageFix" result="effect1_dropShadow_2286_6158"/>
<feBlend mode="normal" in="SourceGraphic" in2="effect1_dropShadow_2286_6158" result="shape"/>
</filter>
<filter id="filter1_d_2286_6158" x="42.2" y="88.2" width="614.021" height="94.1811" filterUnits="userSpaceOnUse" color-interpolation-filters="sRGB">
<feFlood flood-opacity="0" result="BackgroundImageFix"/>
<feColorMatrix in="SourceAlpha" type="matrix" values="0 0 0 0 0 0 0 0 0 0 0 0 0 0 0 0 0 0 127 0" result="hardAlpha"/>
<feOffset dx="4" dy="4"/>
<feGaussianBlur stdDeviation="2.9"/>
<feComposite in2="hardAlpha" operator="out"/>
<feColorMatrix type="matrix" values="0 0 0 0 0 0 0 0 0 0 0 0 0 0 0 0 0 0 0.1 0"/>
<feBlend mode="normal" in2="BackgroundImageFix" result="effect1_dropShadow_2286_6158"/>
<feBlend mode="normal" in="SourceGraphic" in2="effect1_dropShadow_2286_6158" result="shape"/>
</filter>
<filter id="filter2_d_2286_6158" x="650.974" y="88.2" width="126.6" height="94.6" filterUnits="userSpaceOnUse" color-interpolation-filters="sRGB">
<feFlood flood-opacity="0" result="BackgroundImageFix"/>
<feColorMatrix in="SourceAlpha" type="matrix" values="0 0 0 0 0 0 0 0 0 0 0 0 0 0 0 0 0 0 127 0" result="hardAlpha"/>
<feOffset dx="4" dy="4"/>
<feGaussianBlur stdDeviation="2.9"/>
<feComposite in2="hardAlpha" operator="out"/>
<feColorMatrix type="matrix" values="0 0 0 0 0 0 0 0 0 0 0 0 0 0 0 0 0 0 0.1 0"/>
<feBlend mode="normal" in2="BackgroundImageFix" result="effect1_dropShadow_2286_6158"/>
<feBlend mode="normal" in="SourceGraphic" in2="effect1_dropShadow_2286_6158" result="shape"/>
</filter>
<clipPath id="clip0_2286_6158">
<rect width="804" height="254" fill="white"/>
</clipPath>
</defs>
</svg>
