<svg width="17" height="15" viewBox="0 0 17 15" fill="none" xmlns="http://www.w3.org/2000/svg">
<path d="M12.2109 0.376465C10.6783 0.376465 9.33645 1.03553 8.5 2.14955C7.66355 1.03553 6.32168 0.376465 4.78906 0.376465C3.56907 0.37784 2.39945 0.863088 1.53679 1.72575C0.674123 2.58841 0.188875 3.75804 0.1875 4.97803C0.1875 10.1733 7.89066 14.3786 8.21871 14.5522C8.30517 14.5988 8.40182 14.6231 8.5 14.6231C8.59818 14.6231 8.69483 14.5988 8.78129 14.5522C9.10934 14.3786 16.8125 10.1733 16.8125 4.97803C16.8111 3.75804 16.3259 2.58841 15.4632 1.72575C14.6006 0.863088 13.4309 0.37784 12.2109 0.376465ZM8.5 13.3499C7.14477 12.5602 1.375 8.96283 1.375 4.97803C1.37618 4.07292 1.73625 3.20523 2.37626 2.56522C3.01626 1.92522 3.88396 1.56514 4.78906 1.56396C6.23262 1.56396 7.44461 2.33287 7.95078 3.56787C7.99551 3.67677 8.07161 3.76991 8.1694 3.83547C8.2672 3.90102 8.38227 3.93602 8.5 3.93602C8.61773 3.93602 8.7328 3.90102 8.8306 3.83547C8.92839 3.76991 9.00449 3.67677 9.04922 3.56787C9.55539 2.33064 10.7674 1.56396 12.2109 1.56396C13.116 1.56514 13.9837 1.92522 14.6237 2.56522C15.2637 3.20523 15.6238 4.07292 15.625 4.97803C15.625 8.95689 9.85375 12.5595 8.5 13.3499Z" fill="#707070"/>
</svg>
