<svg width="209" height="134" viewBox="0 0 209 134" fill="none" xmlns="http://www.w3.org/2000/svg">
<g clip-path="url(#clip0_1730_1962)">
<rect width="209" height="134" rx="4" fill="#F6F6F6"/>
<path d="M70.2666 101.992V153.719H147.373V101.992C147.373 81.4791 130.112 64.8503 108.82 64.8503C87.5277 64.8503 70.2666 81.4791 70.2666 101.992Z" fill="white" stroke="black" stroke-width="1.30689"/>
<path d="M100.715 99.1842C100.628 99.6452 100.435 100.026 100.212 100.271C99.9855 100.52 99.7675 100.594 99.6029 100.567C99.4383 100.54 99.2606 100.4 99.1393 100.093C99.0198 99.7911 98.9777 99.3713 99.0647 98.9105C99.1517 98.45 99.345 98.0692 99.5681 97.8238C99.7942 97.5751 100.012 97.501 100.177 97.5279C100.341 97.5555 100.519 97.6952 100.64 98.0017C100.76 98.3039 100.802 98.7234 100.715 99.1842Z" fill="#191919" stroke="#191919" stroke-width="1.21505"/>
<path d="M114.256 99.0973C114.219 99.5542 114.069 99.9446 113.875 100.208C113.68 100.471 113.463 100.583 113.27 100.571C113.077 100.56 112.88 100.425 112.729 100.141C112.579 99.858 112.494 99.4541 112.531 98.9972C112.568 98.5403 112.718 98.1499 112.913 97.8869C113.108 97.6233 113.325 97.5123 113.518 97.5235C113.711 97.5347 113.908 97.6698 114.058 97.9534C114.208 98.2365 114.293 98.6404 114.256 99.0973Z" fill="#191919" stroke="#191919" stroke-width="1.21505"/>
<path d="M105.778 107.349C110.553 107.303 108.159 107.149 113.884 106.795C123.554 105.41 118.263 116.074 116.017 117.874C111.459 121.977 104.455 120.655 101.085 119.121C95.8996 116.264 95.4744 111.899 95.5387 109.565C95.6339 106.103 101.003 107.394 105.778 107.349Z" fill="#F59D91" stroke="#060C1B" stroke-width="1.30689" stroke-linecap="round" stroke-linejoin="round"/>
<path d="M68.2265 122.638L50.2078 134.516C53.9535 140.62 57.8626 150.288 60.8921 149.241C64.8549 147.872 74.9187 139.313 79.2356 136.215C83.0579 134.209 86.4502 132.996 89.7538 128.227C91.0237 126.394 93.128 122.273 86.5513 116.953C82.2005 113.433 75.9625 115.635 74.8623 116.756C73.7318 117.322 68.7859 109.137 66.6902 113.224C67.8607 118.271 69.7766 121.554 68.2265 122.638Z" fill="white" stroke="black" stroke-width="1.30689"/>
<path d="M87.8285 53.0802L82.6185 61.8011C82.3403 60.9345 81.9356 59.824 81.4957 58.6664C80.9386 57.2006 80.3067 55.612 79.7999 54.3378C79.4964 53.5744 79.2376 52.9241 79.067 52.4808L79.0289 52.3822L78.9603 52.2999C78.5574 51.8174 77.988 51.5542 77.3925 51.4079C76.7995 51.2621 76.1238 51.2186 75.4342 51.2158C74.7952 51.2131 74.1069 51.2461 73.4207 51.279C73.3633 51.2818 73.3061 51.2845 73.2486 51.2872C72.4976 51.3229 71.7468 51.3553 71.0179 51.3447C69.5376 51.3234 68.2781 51.1229 67.3936 50.5249C66.5621 49.9626 65.9361 48.9578 65.9361 47.012C65.9361 45.6408 65.9284 44.3807 65.9216 43.2212C65.906 40.6257 65.8935 38.5346 65.9756 36.8319C66.0959 34.3485 66.417 32.8651 67.0953 31.9287C67.7357 31.0446 68.7854 30.5357 70.7511 30.2695C72.7308 30.0016 75.4706 30 79.3301 30H140.316C142.879 30 144.834 30.1453 146.331 30.4921C147.818 30.8362 148.813 31.3691 149.506 32.1194C150.205 32.8754 150.66 33.9189 150.934 35.3958C151.21 36.8774 151.294 38.739 151.294 41.0864C151.294 44.4565 151.054 47.2717 150.201 49.2313C149.781 50.1966 149.226 50.92 148.508 51.4055C147.794 51.8882 146.866 52.1727 145.628 52.1727H145.624H145.621L88.4095 52.7535L88.0213 52.7576L87.8285 53.0802Z" fill="#FFDC27" stroke="black" stroke-width="1.30689"/>
<path d="M96.4043 90.9883C97.5772 90.002 100.526 88.6214 102.939 90.9883" stroke="black" stroke-width="1.30689" stroke-linecap="round"/>
<path d="M109.909 90.9883C111.082 90.002 114.031 88.6214 116.444 90.9883" stroke="black" stroke-width="1.30689" stroke-linecap="round"/>
<path d="M143.878 123.893L160.844 135.457C157.192 141.208 153.331 150.347 150.465 149.307C146.715 147.947 137.267 139.658 133.206 136.647C129.6 134.683 126.39 133.479 123.318 128.894C122.137 127.132 120.195 123.181 126.529 118.217C130.72 114.932 136.622 117.118 137.652 118.201C138.719 118.755 143.544 111.042 145.477 114.961C144.29 119.745 142.419 122.84 143.878 123.893Z" fill="white" stroke="black" stroke-width="1.30689"/>
<path d="M77.6655 36.4719H77.834C78.0305 36.4719 78.3175 37.1583 78.695 38.531C79.3814 38.6027 79.7245 38.7743 79.7245 39.0457C79.6091 39.2454 79.5514 39.4747 79.5514 39.7336H77.6655C76.4051 39.7336 75.7749 39.5621 75.7749 39.2189V38.7041L75.9481 38.3625L77.1461 38.531H77.6655V38.3625C77.4346 37.6169 77.3192 37.1006 77.3192 36.8136C77.3566 36.5858 77.4721 36.4719 77.6655 36.4719ZM81.6104 38.0162H82.2983L82.4715 39.2189H84.0158L84.1842 40.0753V40.2484L82.9862 40.4216C82.9862 40.3061 82.9285 40.2484 82.8131 40.2484C82.6977 40.4387 82.6399 40.7242 82.6399 41.1048H82.1252C81.8163 41.1048 81.5886 40.3046 81.442 38.7041C81.5543 38.5045 81.6104 38.2752 81.6104 38.0162ZM77.834 39.9068C79.0943 39.9068 79.7245 40.5931 79.7245 41.9658C79.3876 42.7676 78.8728 43.1685 78.1803 43.1685C77.0353 42.9751 76.4628 42.4026 76.4628 41.4511V40.9363L76.6313 40.0753H76.9776C77.0899 40.0753 77.1461 40.133 77.1461 40.2484L77.834 39.9068ZM77.3192 41.1048V41.4511C77.5501 41.9097 77.8932 42.139 78.3487 42.139C78.8728 41.9144 79.1599 41.6851 79.2098 41.4511L78.695 41.1048H77.3192ZM80.4078 42.3074H80.5809L80.7541 43.1685V44.198L82.6399 43.6833L82.8131 44.0249V44.5396C82.8131 44.8048 82.0113 45.0903 80.4078 45.396C80.1863 45.2837 80.0147 45.2275 79.893 45.2275V42.8222C79.893 42.66 80.0646 42.4884 80.4078 42.3074ZM91.0212 39.0504H91.1896C91.4767 39.0504 91.706 39.6791 91.8775 40.9363C92.4921 40.9363 92.8915 41.1656 93.0755 41.6242C93.0755 41.8114 92.7324 42.0407 92.046 42.3121C92.046 42.7676 91.876 42.9954 91.5359 42.9954H91.3628C91.0383 42.9954 90.809 41.7381 90.6749 39.2236L91.0212 39.0504ZM88.4474 39.2236H89.3037C89.5315 39.2579 89.6454 39.3718 89.6454 39.5652V39.7383C89.4176 42.4837 89.1322 43.8564 88.789 43.8564H88.6158C88.3444 43.5132 87.201 43.2262 85.1857 42.9954C84.9579 42.6241 84.8441 42.3386 84.8441 42.139L85.0172 39.7383H85.8736V41.9658C86.8376 42.0813 87.6378 42.2529 88.2742 42.4806L88.789 40.4216H88.6158C88.2945 40.4216 87.4943 40.6509 86.2152 41.1095V40.0799C86.8672 39.509 87.6113 39.2236 88.4474 39.2236ZM100.764 38.8866H100.933C101.391 38.8866 101.734 40.1423 101.962 42.6537L101.447 43H101.279C100.961 43 100.618 41.7428 100.249 39.2282L100.764 38.8866ZM98.3635 39.2282C98.479 39.4279 98.5367 39.6557 98.5367 39.9115C98.284 40.0924 97.0829 40.3779 94.9333 40.7678C94.9333 41.0549 95.0488 41.7989 95.2796 43C96.9893 42.6569 97.9595 42.4853 98.1904 42.4853L98.5367 43V43.3416C98.5367 43.6131 97.3933 43.8408 95.1065 44.0249H94.9333C94.3344 44.0249 93.935 42.7115 93.7354 40.0846C95.342 39.5137 96.8848 39.2282 98.3635 39.2282ZM109.44 40.0799C110.239 40.0799 110.638 40.7663 110.638 42.139L113.212 41.6242C113.212 40.9379 113.326 40.5947 113.554 40.5947C113.884 40.6103 114.171 40.9535 114.415 41.6242C114.642 41.6585 114.756 41.7724 114.756 41.9658V42.4806H114.415V42.8269L114.583 44.5396L114.242 44.7128H113.9C113.735 44.7128 113.563 44.5412 113.385 44.198V42.6537C112.805 42.6537 111.889 42.8253 110.638 43.1685V44.5396L110.811 45.7423L110.297 46.0839H110.123C109.889 46.034 109.662 45.7485 109.44 45.2275L109.609 44.8812C109.496 44.6816 109.44 44.4538 109.44 44.198C109.44 44.0826 109.496 44.0249 109.609 44.0249L109.44 43.6833C109.44 43.5678 109.496 43.5101 109.609 43.5101L109.44 42.3121V41.1095H108.925C108.467 41.1095 107.723 41.2233 106.693 41.4511L106.352 40.9363C106.352 40.4808 107.381 40.1954 109.44 40.0799ZM117.297 36.8276H118.327C119.812 36.8276 120.554 37.0553 120.554 37.5108V38.0256C120.433 38.0256 120.261 38.0833 120.04 38.1987C119.665 37.971 119.322 37.8571 119.01 37.8571H117.47C117.47 38.3126 117.413 38.5403 117.297 38.5403C117.413 38.74 117.47 38.9693 117.47 39.2282H119.698C119.86 39.2282 120.032 39.3998 120.213 39.743C120.041 40.1985 119.87 40.4262 119.698 40.4262H117.639C117.018 40.4262 116.561 40.1985 116.268 39.743V37.3424C116.383 36.9992 116.726 36.8276 117.297 36.8276ZM118.668 41.1141H120.554C120.813 41.1141 120.985 41.3996 121.069 41.9705C120.692 42.1983 120.348 42.3121 120.04 42.3121H117.812L115.753 42.4853C115.525 42.114 115.411 41.8286 115.411 41.6289C115.764 41.2857 116.85 41.1141 118.668 41.1141ZM119.01 43H119.352C120.381 43 120.896 43.6848 120.896 45.0544C120.762 45.7407 119.676 46.0839 117.639 46.0839V46.2524C117.527 46.4552 117.47 46.6845 117.47 46.9403H120.04C120.205 46.9403 120.377 47.1119 120.554 47.455V48.1383H118.668C117.951 48.1383 117.151 47.9667 116.268 47.6235V46.9403C116.268 45.683 117.01 45.0544 118.495 45.0544C119.297 44.939 119.698 44.7674 119.698 44.5396C119.698 44.3119 119.583 44.198 119.352 44.198H119.183L117.47 44.3712L117.124 43.8564V43.5101C117.124 43.1701 117.753 43 119.01 43ZM124.471 39.9115C125.654 39.9115 126.454 40.3685 126.872 41.2826L127.901 41.4558H128.411V40.4262C128.411 40.1673 128.698 39.9957 129.273 39.9115C129.457 40.2983 129.684 41.4417 129.956 43.3416C129.84 43.9126 129.555 44.198 129.099 44.198C128.756 43.833 128.585 43.3182 128.585 42.6537H126.53C126.53 43.9235 125.786 44.7237 124.298 45.0544C122.585 44.6863 121.729 44.0015 121.729 43C122.216 41.6554 123.016 40.6836 124.13 40.0846L124.471 39.9115ZM123.1 43V43.1685C123.253 43.6271 123.768 43.8564 124.644 43.8564C125.215 43.6848 125.501 43.1123 125.501 42.139V41.2826C123.9 41.423 123.1 41.9955 123.1 43ZM130.953 37.1598H133.699C133.93 37.1942 134.046 37.308 134.046 37.5015V38.531C135.203 38.531 136.175 38.8742 136.961 39.5605V40.4216L136.105 40.59C136.105 40.1345 135.303 39.7914 133.699 39.5605C133.157 40.59 132.813 41.1048 132.67 41.1048H132.155C132.155 40.9831 132.097 40.8115 131.982 40.59L133.016 38.1894H132.67L131.64 38.3625C130.954 38.2003 130.611 37.8556 130.611 37.3283L130.953 37.1598ZM138.679 39.5605H139.535C139.881 41.3793 140.054 42.7536 140.054 43.6833L139.366 43.8517L138.679 42.139C137.764 42.0235 137.307 41.8504 137.307 41.6195V40.9363H138.679V39.5605ZM132.155 42.4806C132.826 42.8238 133.398 42.9954 133.873 42.9954C134.846 42.8799 135.648 42.8222 136.278 42.8222L136.446 43.1685V43.5101C136.446 43.7691 135.818 43.9984 134.561 44.198V45.7423C134.561 45.97 134.445 46.0839 134.214 46.0839H133.873C133.645 46.0839 133.531 45.97 133.531 45.7423V44.0249C132.271 44.0249 131.64 43.624 131.64 42.8222C131.64 42.5945 131.812 42.4806 132.155 42.4806ZM141.397 38.882H142.081C142.081 39.0005 142.138 39.1705 142.254 39.392C142.138 40.6431 142.081 41.7303 142.081 42.6537V43.1685C142.081 43.3962 141.967 43.5101 141.739 43.5101H141.397L141.224 42.6537V40.5947L141.397 38.882ZM142.081 44.8812H142.427C142.882 45.0684 143.11 45.4693 143.11 46.0839V46.2571C143.11 46.9559 142.595 47.4129 141.566 47.6282C140.995 47.4129 140.71 46.9559 140.71 46.2571V45.396C140.781 45.0528 141.238 44.8812 142.081 44.8812ZM141.566 46.0839L141.739 46.4255C141.961 46.3132 142.132 46.2571 142.254 46.2571V45.9108H142.081C141.859 46.0262 141.688 46.0839 141.566 46.0839Z" fill="black"/>
</g>
<defs>
<clipPath id="clip0_1730_1962">
<rect width="209" height="134" rx="4" fill="white"/>
</clipPath>
</defs>
</svg>
