<svg width="424" height="301" viewBox="0 0 424 301" fill="none" xmlns="http://www.w3.org/2000/svg">
<g clip-path="url(#clip0_1732_1994)">
<rect width="424" height="300" transform="translate(0 0.353516)" fill="#F6F6F6"/>
<mask id="mask0_1732_1994" style="mask-type:luminance" maskUnits="userSpaceOnUse" x="0" y="0" width="424" height="301">
<path d="M424 0.353516H0V300.354H424V0.353516Z" fill="white"/>
</mask>
<g mask="url(#mask0_1732_1994)">
<path d="M424 0.353516H0V300.354H424V0.353516Z" fill="#F6F6F6"/>
<path d="M135 228.613V347.354H312V228.613C312 181.525 272.377 143.354 223.5 143.354C174.623 143.354 135 181.525 135 228.613Z" fill="#005AFF" stroke="black" stroke-width="3"/>
<path d="M216.517 240.909C227.477 240.805 221.983 240.451 235.125 239.637C257.323 236.458 245.176 260.937 240.021 265.071C229.559 274.488 213.479 271.454 205.744 267.932C193.841 261.373 192.865 251.354 193.013 245.996C193.231 238.049 205.555 241.013 216.517 240.909Z" fill="white" stroke="#060C1B" stroke-width="3" stroke-linecap="round" stroke-linejoin="round"/>
<path d="M110.875 286.007L121.689 334.354C137.84 331.287 161.772 330.773 161.994 323.419C162.284 313.799 152.114 285.229 148.981 273.44C147.79 263.603 147.949 255.335 140.406 244.36C137.506 240.141 130.377 232.269 113.602 242.049C102.505 248.52 102.148 263.7 103.658 266.975C103.951 269.862 82.3564 273.809 89.4205 281.636C101.206 283.235 109.813 281.798 110.875 286.007Z" fill="#005AFF" stroke="black" stroke-width="3"/>
<path d="M175.314 116.334L163.354 136.354C162.716 134.364 161.787 131.815 160.777 129.158C159.498 125.793 158.047 122.146 156.884 119.221C156.188 117.469 155.593 115.976 155.202 114.959L155.114 114.732L154.957 114.543C154.032 113.436 152.725 112.832 151.358 112.496C149.997 112.161 148.446 112.061 146.863 112.055C145.396 112.049 143.816 112.124 142.241 112.2C142.109 112.206 141.978 112.212 141.846 112.219C140.122 112.301 138.398 112.375 136.725 112.351C133.327 112.302 130.436 111.842 128.405 110.469C126.496 109.178 125.06 106.872 125.06 102.405C125.06 99.2573 125.042 96.3648 125.026 93.7031C124.99 87.7449 124.962 82.9449 125.15 79.0362C125.426 73.3357 126.164 69.9304 127.72 67.7809C129.191 65.7514 131.6 64.5832 136.113 63.9722C140.657 63.3571 146.946 63.3535 155.806 63.3535H295.8C301.684 63.3535 306.17 63.687 309.608 64.4831C313.022 65.273 315.304 66.4963 316.896 68.2186C318.5 69.9541 319.544 72.3494 320.175 75.7397C320.807 79.1406 321 83.414 321 88.8024C321 96.5386 320.449 103.001 318.491 107.499C317.526 109.715 316.252 111.376 314.605 112.49C312.966 113.598 310.835 114.251 307.994 114.251H307.985H307.977L176.648 115.585L175.757 115.594L175.314 116.334Z" fill="#FFDC27" stroke="black" stroke-width="3"/>
<path d="M162.662 78.3535H163.007C163.346 78.3535 163.698 78.6867 164.061 79.353V81.6884C164.061 83.2338 164.298 85.3447 164.771 88.0225L163.716 88.6858C162.541 88.6858 161.953 86.3535 161.953 81.6884V79.0261C162.03 78.5779 162.266 78.3535 162.662 78.3535ZM154.572 79.0261C157.148 79.6924 158.435 80.8038 158.435 82.3609V83.6881C158.435 85.8565 156.56 87.523 152.809 88.6858C150.936 88.6858 150 87.353 150 84.6876C150 81.5369 151.054 79.7592 153.163 79.353C153.572 79.1348 154.042 79.0261 154.572 79.0261ZM152.109 85.0239V85.6872C152.185 86.1353 152.419 86.3597 152.809 86.3597C155.39 85.851 156.681 84.627 156.681 82.6879V82.3609C156.445 81.6884 155.741 81.3521 154.572 81.3521H153.873C153.055 81.3521 152.466 82.576 152.109 85.0239ZM177.643 83.3605C181.388 83.3605 183.26 84.8026 183.26 87.6862C183.26 89.8979 181.27 91.2337 177.289 91.6943C175.18 90.9488 174.126 89.7249 174.126 88.0225V87.6862C174.126 85.5481 175.298 84.106 177.643 83.3605ZM175.88 88.0225C176.263 89.1376 176.966 89.6946 177.988 89.6946C179.222 89.6946 180.276 89.0251 181.152 87.6862V86.6867C181.152 86.3714 180.8 86.0383 180.098 85.6872H179.043C178.212 86.3838 177.276 86.9414 176.235 87.3592L175.88 88.0225ZM186.078 86.0234H187.132C187.599 88.7191 188.184 91.3852 188.887 94.0203C188.657 94.4506 188.541 94.7837 188.541 95.0199C187.129 95.0199 186.19 93.1327 185.723 89.3583L185.379 86.3597L186.078 86.0234ZM182.915 94.3566L183.26 95.0199V95.3561C183.26 96.2469 180.449 96.692 174.826 96.692C174.487 96.692 174.135 96.3588 173.771 95.6924V94.6929C178.378 94.4685 181.426 94.3566 182.915 94.3566ZM195.155 82.6972H196.565C196.565 83.0848 196.797 83.6393 197.264 84.3606C202.44 83.8698 205.134 83.4272 205.344 83.0335H205.699C206.523 83.0335 207.108 86.0327 207.453 92.0299L206.044 92.3575C205.59 92.1393 205.239 92.0299 204.99 92.0299V91.0304C204.99 90.0611 204.756 89.1704 204.29 88.3588L202.536 88.695H201.481C199.373 88.695 198.319 88.0287 198.319 86.696V86.3597H197.264V90.0308L197.619 91.6943L196.91 92.0299H195.855C195.158 91.8061 194.81 91.1398 194.81 90.0308V84.6963L190.593 85.0325L190.238 84.3606V83.3697C192.002 82.9216 193.641 82.6972 195.155 82.6972ZM200.072 86.0327V86.3597H204.645V85.6964H204.29L200.072 86.0327ZM200.427 94.0203C201.194 94.2447 201.664 94.6898 201.836 95.3561C201.363 96.1678 201.127 97.0554 201.127 98.0191C201.606 98.0191 203.596 97.5765 207.098 96.692C208.038 97.0251 208.507 97.3583 208.507 97.6915V98.0191C208.507 98.6855 206.047 99.3518 201.127 100.018C200.194 100.018 199.491 99.5762 199.018 98.6916V97.0196C199.018 95.3228 199.488 94.3232 200.427 94.0203ZM217.853 78.3714L220.307 78.6991L221.716 78.3714C222.169 78.5896 222.521 78.6991 222.77 78.6991C223.179 78.4809 223.645 78.3714 224.169 78.3714C224.642 78.8808 224.878 79.6559 224.878 80.6981H226.278C229.562 80.6981 231.205 81.1432 231.205 82.0339V82.3702C231.205 82.6855 230.853 83.0186 230.15 83.3697H229.796C229.591 83.3697 228.655 83.1454 226.988 82.6972C223.94 82.6972 222.415 83.4761 222.415 85.0325L221.361 86.0327H220.661C220.195 86.0327 219.962 85.8083 219.962 85.3602C219.962 84.9905 220.665 83.4365 222.07 80.6981H217.498V79.0353L217.853 78.3714ZM225.224 83.3697H225.933C226.457 83.3697 226.924 84.5906 227.332 87.0322H229.096C229.562 87.099 229.796 87.3197 229.796 87.6955V89.0313C228.805 89.2495 226.112 89.4708 221.716 89.6946L221.361 89.0313V87.6955C223.936 87.4711 225.224 87.1379 225.224 86.696C224.757 85.8837 224.524 84.9967 224.524 84.033C224.601 83.591 224.834 83.3697 225.224 83.3697ZM228.741 90.3578L229.441 91.358C229.071 92.6907 226.847 93.3571 222.77 93.3571C222.77 93.5815 222.652 93.6933 222.415 93.6933C221.961 93.4689 221.61 93.3571 221.361 93.3571V92.0299C221.361 91.4062 223.821 90.8486 228.741 90.3578ZM229.096 93.6933H230.15C230.15 93.9295 230.265 94.2626 230.495 94.6929C230.495 95.4563 229.441 95.8982 227.332 96.0194C229.211 97.4856 230.15 98.3764 230.15 98.6916C230.15 101.133 228.508 102.354 225.224 102.354H223.824C223.121 102.184 222.536 101.405 222.07 100.018C222.536 98.1341 222.77 97.0251 222.77 96.692C221.83 96.692 221.361 96.3588 221.361 95.6924V95.3561C221.776 94.2478 224.355 93.6933 229.096 93.6933ZM224.524 98.6916V100.018C224.991 100.018 225.224 100.13 225.224 100.354C226.668 99.9118 227.607 99.6912 228.042 99.6912V99.3549C228.022 99.052 227.435 98.6063 226.278 98.0191H225.224C224.757 98.0914 224.524 98.3158 224.524 98.6916ZM238.873 82.0247C240.049 82.3337 240.636 83.1126 240.636 84.3606C240.636 84.7544 240.285 85.7539 239.582 87.3592C240.208 87.6139 241.026 88.6134 242.036 90.3578V91.358L240.636 91.6943C239.869 90.4159 239.049 89.5252 238.173 89.022C236.531 90.3368 235.71 91.3364 235.71 92.0213H234.301L233.955 90.3578C235.828 88.6376 237.467 86.6385 238.873 84.3606V84.0244C238.406 84.0244 238.173 83.9119 238.173 83.6881L233.601 84.6876C233.147 84.4694 232.796 84.3606 232.546 84.3606V83.0242C232.546 82.3578 234.656 82.0247 238.873 82.0247ZM245.553 82.6879H246.608C247.547 82.6879 248.135 85.5784 248.371 91.358L247.662 91.6943H246.962C246.496 91.6943 246.263 91.4699 246.263 91.0217V90.3578C246.263 89.0375 246.026 86.4808 245.553 82.6879ZM261.235 80.7074C265.682 80.7074 267.906 81.9276 267.906 84.3693C267.906 88.1072 265.682 90.2157 261.235 90.6941C259.209 90.6941 257.922 89.4733 257.372 87.0322V86.0414C257.372 83.4544 258.66 81.6766 261.235 80.7074ZM270.714 81.7069H271.059C271.763 81.9307 272.114 82.5971 272.114 83.706V85.0418H272.823V87.0322C272.484 87.0322 272.015 87.4773 271.414 88.368H271.059C270.363 88.1437 270.015 87.4773 270.015 86.369V82.3795C270.085 81.9307 270.318 81.7069 270.714 81.7069ZM261.935 84.0423L261.235 83.706H260.18C259.714 85.1481 259.48 86.1477 259.48 86.7046V87.3685C259.48 87.7134 259.947 88.1591 260.88 88.7043H261.235C264.276 88.3044 265.797 87.0835 265.797 85.0418V84.7055L265.442 83.0427H263.688C262.519 83.0427 261.935 83.3759 261.935 84.0423ZM273.168 85.3688H273.523C273.989 85.4418 274.222 85.6661 274.222 86.0414V86.369H273.168V85.3688ZM267.906 89.3676H271.414C271.753 89.3676 272.104 89.7008 272.469 90.3671C272.232 91.0335 271.529 91.3667 270.359 91.3667H267.206L266.852 90.0308L267.906 89.3676ZM273.523 91.6943V92.6938C273.523 93.4207 272.002 93.8658 268.96 94.0296H267.551C267.085 94.0296 266.852 93.8052 266.852 93.3571V92.0299H267.551C268.778 92.0299 270.768 91.918 273.523 91.6943ZM261.589 92.0299C262.037 92.2481 262.385 92.3575 262.634 92.3575V95.6924H265.442C266.849 95.6924 267.551 96.2469 267.551 97.3552L266.497 98.0191H264.398C261.822 97.6797 260.535 97.1253 260.535 96.3557V92.3575C260.784 92.3575 261.136 92.2481 261.589 92.0299ZM271.059 95.0199C271.763 95.468 272.698 95.6924 273.868 95.6924V96.692C273.868 98.2429 273.05 99.0186 271.414 99.0186H270.714C269.072 99.0186 268.251 98.2429 268.251 96.692C268.52 95.5774 269.455 95.0199 271.059 95.0199ZM288.906 84.3693C289.916 84.3693 290.734 85.702 291.361 88.368C293.469 88.368 294.523 88.5893 294.523 89.0313C294.121 90.1403 293.067 90.6941 291.361 90.6941V91.6943L291.016 93.3571H290.306C289.667 93.3571 288.967 90.4734 288.207 84.7055L288.906 84.3693ZM278.018 84.7055C282.938 84.7055 285.399 85.9264 285.399 88.368C285.399 92.3606 283.874 94.3566 280.826 94.3566C277.318 93.6476 275.564 91.9848 275.564 89.3676V88.0318C275.564 86.9228 276.382 85.8145 278.018 84.7055ZM280.127 87.3685C280.127 88.0349 279.893 88.368 279.427 88.368L278.018 87.7048L277.673 88.368V89.3676C277.673 91.1429 278.609 92.0299 280.482 92.0299H281.536C282.347 92.0299 282.932 90.8097 283.29 88.368V87.7048L281.536 87.3685H280.127ZM300.782 80.3711C303.594 80.6376 305 81.9672 305 84.3606C305 85.7904 303.594 87.5682 300.782 89.6946H299.728L299.383 88.0318C299.69 88.0318 300.859 86.9197 302.891 84.6963V83.6967C302.891 83.1454 302.421 82.8122 301.483 82.6972C300.843 82.6972 299.089 83.2517 296.22 84.3606L295.866 83.6967C295.866 82.152 297.504 81.0437 300.782 80.3711ZM300.437 92.6938H302.191C303.124 93.0511 303.591 93.8262 303.591 95.0199V96.0194C303.591 96.3347 302.888 97.001 301.483 98.0191H299.728C298.559 97.4615 297.974 96.462 297.974 95.0199C298.274 93.469 299.096 92.6938 300.437 92.6938ZM300.083 95.3561V95.6924H301.137C301.604 95.6924 301.837 95.468 301.837 95.0199L301.137 94.6929H300.782C300.316 94.7596 300.083 94.9809 300.083 95.3561Z" fill="black"/>
<path d="M195 203.354C197.692 201.089 204.461 197.92 210 203.354" stroke="black" stroke-width="3" stroke-linecap="round"/>
<path d="M226 203.354C228.692 201.089 235.461 197.92 241 203.354" stroke="black" stroke-width="3" stroke-linecap="round"/>
</g>
<path d="M194.902 222.125C194.428 219.093 196.773 216.354 199.842 216.354H210.509C213.455 216.354 215.762 218.887 215.487 221.82L214.925 227.82C214.684 230.39 212.527 232.354 209.947 232.354H200.779C198.316 232.354 196.22 230.559 195.839 228.125L194.902 222.125Z" fill="black"/>
<path d="M244.098 222.125C244.572 219.093 242.227 216.354 239.158 216.354H228.491C225.545 216.354 223.238 218.887 223.513 221.82L224.075 227.82C224.316 230.39 226.473 232.354 229.053 232.354H238.221C240.684 232.354 242.78 230.559 243.161 228.125L244.098 222.125Z" fill="black"/>
<line x1="212" y1="223.354" x2="228" y2="223.354" stroke="black" stroke-width="4"/>
</g>
<defs>
<clipPath id="clip0_1732_1994">
<rect width="424" height="300" fill="white" transform="translate(0 0.353516)"/>
</clipPath>
</defs>
</svg>
