<svg width="113" height="113" viewBox="0 0 113 113" fill="none" xmlns="http://www.w3.org/2000/svg">
<g clip-path="url(#clip0_2174_80)">
<path d="M56.5 113C87.7041 113 113 87.7041 113 56.5C113 25.2959 87.7041 0 56.5 0C25.2959 0 0 25.2959 0 56.5C0 87.7041 25.2959 113 56.5 113Z" fill="#F5F5F5"/>
<path fill-rule="evenodd" clip-rule="evenodd" d="M27 56.5C27 57.6385 27.924 58.5625 29.0625 58.5625H59.2382L53.8455 63.1825C53.6397 63.3587 53.4705 63.5738 53.3478 63.8153C53.2251 64.0569 53.1511 64.3203 53.1302 64.5905C53.1092 64.8607 53.1417 65.1323 53.2258 65.39C53.3098 65.6476 53.4438 65.8861 53.62 66.092C53.7962 66.2978 54.0113 66.4669 54.2529 66.5897C54.4945 66.7124 54.7579 66.7864 55.028 66.8073C55.2982 66.8282 55.5699 66.7958 55.8275 66.7117C56.0851 66.6277 56.3237 66.4937 56.5295 66.3175L66.1545 58.0675C66.3809 57.8738 66.5627 57.6335 66.6873 57.3629C66.812 57.0923 66.8765 56.7979 66.8765 56.5C66.8765 56.202 66.812 55.9077 66.6873 55.6371C66.5627 55.3665 66.3809 55.1261 66.1545 54.9325L56.5295 46.6825C56.1138 46.3265 55.5737 46.1503 55.028 46.1926C54.4824 46.2349 53.9759 46.4922 53.62 46.908C53.2641 47.3237 53.0879 47.8638 53.1302 48.4094C53.1725 48.9551 53.4298 49.4615 53.8455 49.8175L59.2355 54.4375H29.0652C28.5182 54.4375 27.9936 54.6548 27.6068 55.0416C27.22 55.4284 27.0028 55.953 27.0028 56.5" fill="#2F88FF"/>
<path d="M48.3125 50.3125H49.352C48.8977 49.0276 48.8803 47.6286 49.3026 46.3328C49.7249 45.037 50.5632 43.9168 51.6873 43.1463C52.8115 42.3757 54.1586 41.9979 55.5195 42.0715C56.8804 42.145 58.1789 42.6658 59.2135 43.553L68.8385 51.803C69.5159 52.3839 70.0596 53.1044 70.4324 53.9151C70.8052 54.7259 70.9982 55.6077 70.9982 56.5C70.9982 57.3923 70.8052 58.2741 70.4324 59.0849C70.0596 59.8956 69.5159 60.6161 68.8385 61.197L59.2135 69.447C58.1789 70.3342 56.8804 70.855 55.5195 70.9285C54.1586 71.0021 52.8115 70.6243 51.6873 69.8537C50.5632 69.0832 49.7249 67.963 49.3026 66.6672C48.8803 65.3714 48.8977 63.9724 49.352 62.6875H48.3125V67.5C48.3125 75.277 48.3125 79.1683 50.7297 81.5828C53.1442 84 57.0355 84 64.8125 84H67.5625C75.3395 84 79.2308 84 81.6453 81.5828C84.0625 79.1683 84.0625 75.277 84.0625 67.5V45.5C84.0625 37.723 84.0625 33.8317 81.6453 31.4172C79.2308 29 75.3395 29 67.5625 29H64.8125C57.0355 29 53.1442 29 50.7297 31.4172C48.3125 33.8317 48.3125 37.723 48.3125 45.5V50.3125Z" fill="#2F88FF"/>
</g>
<defs>
<clipPath id="clip0_2174_80">
<rect width="113" height="113" fill="white"/>
</clipPath>
</defs>
</svg>
