<svg width="515" height="360" viewBox="0 0 515 360" fill="none" xmlns="http://www.w3.org/2000/svg">
<g clip-path="url(#clip0_1732_2212)">
<mask id="mask0_1732_2212" style="mask-type:luminance" maskUnits="userSpaceOnUse" x="0" y="0" width="515" height="360">
<path d="M515 0.646484H0V359.646H515V0.646484Z" fill="white"/>
</mask>
<g mask="url(#mask0_1732_2212)">
<mask id="mask1_1732_2212" style="mask-type:luminance" maskUnits="userSpaceOnUse" x="0" y="0" width="515" height="360">
<path d="M515 0.646484H0V359.646H515V0.646484Z" fill="white"/>
</mask>
<g mask="url(#mask1_1732_2212)">
<path d="M515 0.646484H0V359.646H515V0.646484Z" fill="#F6F6F6"/>
<path d="M151 278.075V407.293H331V278.075C331 226.833 290.705 185.293 241 185.293C191.295 185.293 151 226.833 151 278.075Z" fill="white" stroke="black" stroke-width="2.83196"/>
<path d="M221.894 270.652C221.694 271.861 221.251 272.86 220.739 273.503C220.22 274.156 219.719 274.35 219.341 274.279C218.964 274.207 218.556 273.84 218.277 273.037C218.003 272.244 217.906 271.143 218.106 269.934C218.306 268.726 218.75 267.726 219.262 267.083C219.781 266.43 220.281 266.236 220.659 266.307C221.037 266.379 221.444 266.746 221.722 267.55C221.997 268.342 222.094 269.443 221.894 270.652Z" fill="#191919" stroke="#191919" stroke-width="2.63295"/>
<path d="M252.98 270.424C252.895 271.622 252.551 272.647 252.105 273.337C251.656 274.028 251.158 274.321 250.715 274.291C250.273 274.262 249.82 273.907 249.474 273.163C249.13 272.42 248.935 271.36 249.02 270.162C249.106 268.963 249.449 267.939 249.896 267.248C250.343 266.557 250.842 266.265 251.285 266.295C251.727 266.324 252.18 266.679 252.525 267.423C252.87 268.166 253.065 269.225 252.98 270.424Z" fill="#191919" stroke="#191919" stroke-width="2.63295"/>
<path d="M232.944 290.995C244.104 290.88 238.51 290.494 251.891 289.604C274.493 286.126 262.125 312.901 256.876 317.421C246.224 327.721 229.852 324.403 221.976 320.55C209.856 313.377 208.863 302.418 209.013 296.558C209.236 287.866 221.784 291.109 232.944 290.995Z" fill="#F59D91" stroke="#060C1B" stroke-width="2.83196" stroke-linecap="round" stroke-linejoin="round"/>
<path d="M146.291 329.382L104 358.726C112.791 373.803 121.966 397.685 129.076 395.099C138.378 391.718 161.998 370.575 172.13 362.922C181.101 357.967 189.064 354.969 196.817 343.189C199.797 338.661 204.737 328.483 189.301 315.34C179.089 306.645 164.448 312.084 161.866 314.854C159.213 316.251 147.604 296.032 142.685 306.129C145.432 318.596 149.929 326.706 146.291 329.382Z" fill="white" stroke="black" stroke-width="2.83196"/>
<path d="M262.341 156.355L250.137 178.293C249.485 176.112 248.538 173.319 247.507 170.408C246.202 166.72 244.722 162.723 243.535 159.518C242.824 157.598 242.218 155.961 241.818 154.846L241.729 154.598L241.568 154.391C240.624 153.177 239.291 152.516 237.896 152.147C236.507 151.781 234.924 151.671 233.309 151.664C231.812 151.657 230.2 151.741 228.592 151.824C228.458 151.83 228.324 151.837 228.189 151.844C226.43 151.934 224.672 152.015 222.964 151.988C219.497 151.935 216.547 151.43 214.475 149.926C212.527 148.511 211.061 145.984 211.061 141.089C211.061 137.64 211.043 134.469 211.027 131.552C210.99 125.023 210.961 119.763 211.153 115.479C211.435 109.232 212.187 105.5 213.776 103.145C215.276 100.921 217.735 99.6405 222.339 98.9709C226.976 98.297 233.394 98.293 242.434 98.293H385.286C391.289 98.293 395.868 98.6585 399.376 99.5309C402.859 100.397 405.188 101.737 406.812 103.625C408.449 105.526 409.514 108.151 410.158 111.867C410.803 115.594 411 120.277 411 126.183C411 134.661 410.438 141.743 408.439 146.672C407.455 149.101 406.155 150.92 404.474 152.142C402.802 153.356 400.627 154.071 397.728 154.071H397.72H397.711L263.702 155.533L262.792 155.543L262.341 156.355Z" fill="#FFDC27" stroke="black" stroke-width="2.83196"/>
<path d="M212 250.293C214.693 248.029 221.462 244.86 227 250.293" stroke="black" stroke-width="2.83196" stroke-linecap="round"/>
<path d="M243 250.293C245.693 248.029 252.462 244.86 258 250.293" stroke="black" stroke-width="2.83196" stroke-linecap="round"/>
</g>
<path d="M322.604 332.168L362 360.798C353.519 375.039 344.555 397.665 337.899 395.091C329.192 391.722 307.254 371.2 297.825 363.746C289.45 358.883 281.998 355.902 274.863 344.551C272.121 340.187 267.613 330.406 282.321 318.115C292.051 309.983 305.755 315.396 308.147 318.076C310.625 319.449 321.827 300.352 326.318 310.053C323.561 321.898 319.216 329.561 322.604 332.168Z" fill="white" stroke="black" stroke-width="2.83196"/>
<path d="M239.099 114.293H239.465C239.891 114.293 240.513 115.881 241.332 119.058C242.82 119.224 243.564 119.622 243.564 120.25C243.314 120.712 243.189 121.243 243.189 121.842H239.099C236.367 121.842 235 121.445 235 120.65V119.459L235.376 118.669L237.974 119.058H239.099V118.669C238.599 116.943 238.349 115.748 238.349 115.084C238.43 114.557 238.68 114.293 239.099 114.293ZM247.654 117.867H249.145L249.52 120.65H252.869L253.234 122.632V123.033L250.636 123.434C250.636 123.167 250.511 123.033 250.261 123.033C250.011 123.474 249.886 124.134 249.886 125.015H248.769C248.1 125.015 247.606 123.163 247.288 119.459C247.532 118.997 247.654 118.466 247.654 117.867ZM239.465 122.243C242.197 122.243 243.564 123.831 243.564 127.008C242.834 128.863 241.717 129.791 240.216 129.791C237.734 129.344 236.492 128.019 236.492 125.817V124.625L236.857 122.632H237.609C237.852 122.632 237.974 122.766 237.974 123.033L239.465 122.243ZM238.349 125.015V125.817C238.849 126.878 239.594 127.408 240.581 127.408C241.717 126.889 242.339 126.359 242.448 125.817L241.332 125.015H238.349ZM245.046 127.798H245.421L245.797 129.791V132.174L249.886 130.983L250.261 131.774V132.964C250.261 133.579 248.522 134.24 245.046 134.947C244.566 134.687 244.194 134.557 243.929 134.557V128.99C243.929 128.614 244.302 128.217 245.046 127.798ZM268.058 120.261H268.423C269.046 120.261 269.543 121.715 269.915 124.625C271.248 124.625 272.113 125.156 272.513 126.218C272.513 126.65 271.768 127.181 270.28 127.809C270.28 128.863 269.912 129.391 269.175 129.391H268.798C268.095 129.391 267.598 126.481 267.307 120.661L268.058 120.261ZM262.478 120.661H264.335C264.828 120.741 265.075 121.004 265.075 121.452V121.853C264.581 128.206 263.962 131.384 263.218 131.384H262.843C262.254 130.589 259.775 129.925 255.405 129.391C254.911 128.532 254.665 127.871 254.665 127.408L255.04 121.853H256.897V127.008C258.987 127.275 260.723 127.672 262.102 128.2L263.218 123.434H262.843C262.146 123.434 260.411 123.965 257.638 125.026V122.643C259.051 121.322 260.664 120.661 262.478 120.661ZM289.184 119.881H289.549C290.543 119.881 291.287 122.788 291.781 128.6L290.665 129.401H290.299C289.61 129.401 288.865 126.492 288.067 120.672L289.184 119.881ZM283.979 120.672C284.229 121.134 284.354 121.661 284.354 122.253C283.805 122.672 281.202 123.333 276.541 124.235C276.541 124.9 276.791 126.621 277.291 129.401C280.999 128.607 283.102 128.211 283.602 128.211L284.354 129.401V130.192C284.354 130.821 281.874 131.347 276.916 131.774H276.541C275.242 131.774 274.376 128.734 273.943 122.654C277.427 121.333 280.772 120.672 283.979 120.672ZM307.995 122.643C309.727 122.643 310.593 124.232 310.593 127.408L316.173 126.218C316.173 124.629 316.42 123.835 316.914 123.835C317.631 123.871 318.253 124.665 318.781 126.218C319.275 126.297 319.522 126.56 319.522 127.008V128.2H318.781V129.001L319.147 132.964L318.405 133.366H317.665C317.307 133.366 316.934 132.969 316.549 132.174V128.6C315.29 128.6 313.305 128.998 310.593 129.791V132.964L310.968 135.748L309.852 136.539H309.477C308.97 136.424 308.475 135.763 307.995 134.557L308.36 133.756C308.117 133.293 307.995 132.766 307.995 132.174C307.995 131.907 308.117 131.774 308.36 131.774L307.995 130.983C307.995 130.716 308.117 130.582 308.36 130.582L307.995 127.809V125.026H306.879C305.885 125.026 304.272 125.289 302.039 125.817L301.298 124.625C301.298 123.571 303.53 122.91 307.995 122.643ZM325.031 115.116H327.264C330.484 115.116 332.094 115.643 332.094 116.697V117.889C331.829 117.889 331.457 118.022 330.977 118.289C330.165 117.762 329.422 117.499 328.746 117.499H325.406C325.406 118.553 325.281 119.08 325.031 119.08C325.281 119.542 325.406 120.073 325.406 120.672H330.236C330.589 120.672 330.961 121.069 331.353 121.863C330.981 122.918 330.609 123.445 330.236 123.445H325.772C324.426 123.445 323.435 122.918 322.799 121.863V116.308C323.049 115.513 323.794 115.116 325.031 115.116ZM328.004 125.037H332.094C332.655 125.037 333.027 125.697 333.209 127.019C332.391 127.546 331.647 127.809 330.977 127.809H326.148L321.683 128.211C321.189 127.351 320.942 126.691 320.942 126.228C321.706 125.434 324.061 125.037 328.004 125.037ZM328.746 129.401H329.486C331.718 129.401 332.834 130.986 332.834 134.156C332.543 135.744 330.189 136.539 325.772 136.539V136.929C325.529 137.398 325.406 137.929 325.406 138.52H330.977C331.336 138.52 331.708 138.918 332.094 139.712V141.293H328.004C326.448 141.293 324.713 140.897 322.799 140.102V138.52C322.799 135.611 324.409 134.156 327.629 134.156C329.367 133.889 330.236 133.492 330.236 132.964C330.236 132.438 329.986 132.174 329.486 132.174H329.121L325.406 132.575L324.656 131.384V130.582C324.656 129.795 326.019 129.401 328.746 129.401ZM340.586 122.253C343.15 122.253 344.885 123.311 345.792 125.427L348.023 125.828H349.13V123.445C349.13 122.845 349.752 122.448 350.997 122.253C351.395 123.149 351.889 125.795 352.478 130.192C352.228 131.514 351.608 132.174 350.621 132.174C349.877 131.329 349.505 130.138 349.505 128.6H345.05C345.05 131.539 343.437 133.391 340.21 134.156C336.497 133.304 334.64 131.719 334.64 129.401C335.696 126.289 337.431 124.04 339.845 122.654L340.586 122.253ZM337.613 129.401V129.791C337.945 130.853 339.061 131.384 340.962 131.384C342.2 130.986 342.818 129.661 342.818 127.408V125.427C339.348 125.752 337.613 127.076 337.613 129.401ZM354.639 115.885H360.596C361.096 115.964 361.346 116.228 361.346 116.676V119.058C363.856 119.058 365.963 119.853 367.667 121.441V123.434L365.811 123.824C365.811 122.77 364.072 121.975 360.596 121.441C359.418 123.824 358.675 125.015 358.363 125.015H357.247C357.247 124.734 357.122 124.336 356.871 123.824L359.114 118.268H358.363L356.131 118.669C354.642 118.293 353.899 117.495 353.899 116.275L354.639 115.885ZM371.391 121.441H373.248C373.999 125.65 374.374 128.831 374.374 130.983L372.883 131.373L371.391 127.408C369.409 127.141 368.418 126.741 368.418 126.207V124.625H371.391V121.441ZM357.247 128.2C358.702 128.993 359.942 129.391 360.971 129.391C363.081 129.124 364.819 128.99 366.186 128.99L366.551 129.791V130.582C366.551 131.182 365.188 131.712 362.462 132.174V135.748C362.462 136.275 362.212 136.539 361.711 136.539H360.971C360.477 136.539 360.229 136.275 360.229 135.748V131.774C357.497 131.774 356.131 130.845 356.131 128.99C356.131 128.463 356.503 128.2 357.247 128.2ZM377.287 119.871H378.768C378.768 120.145 378.893 120.539 379.143 121.051C378.893 123.947 378.768 126.463 378.768 128.6V129.791C378.768 130.319 378.521 130.582 378.027 130.582H377.287L376.911 128.6V123.835L377.287 119.871ZM378.768 133.756H379.519C380.507 134.188 381 135.116 381 136.539V136.94C381 138.557 379.884 139.615 377.652 140.113C376.414 139.615 375.795 138.557 375.795 136.94V134.947C375.95 134.152 376.942 133.756 378.768 133.756ZM377.652 136.539L378.027 137.329C378.508 137.07 378.88 136.94 379.143 136.94V136.139H378.768C378.287 136.406 377.915 136.539 377.652 136.539Z" fill="black"/>
<path d="M112.259 173.475L150.259 199.359" stroke="black" stroke-width="3" stroke-linecap="round"/>
<path d="M179 108.684L197.441 166.939" stroke="black" stroke-width="3" stroke-linecap="round"/>
<path d="M143 159.327L165 186.336" stroke="black" stroke-width="3" stroke-linecap="round"/>
</g>
</g>
<defs>
<clipPath id="clip0_1732_2212">
<rect width="515" height="359" fill="white" transform="translate(0 0.646484)"/>
</clipPath>
</defs>
</svg>
