<svg width="134" height="134" viewBox="0 0 134 134" fill="none" xmlns="http://www.w3.org/2000/svg">
<path d="M0 67C0 29.9969 29.9969 0 67 0C104.003 0 134 29.9969 134 67C134 104.003 104.003 134 67 134C29.9969 134 0 104.003 0 67Z" fill="#004DDA"/>
<path d="M53.9691 52.2854C57.0464 52.2854 60.1237 52.2854 63.201 52.2854C63.4843 52.2854 64.9905 52.48 65.0139 52.0344C65.0795 50.7886 64.3766 49.0355 64.1354 47.781C63.7721 45.8921 63.6459 44.0583 65.516 43.1232C66.984 42.3892 68.9592 42.4403 69.7833 44.0018C70.4371 45.2404 70.7874 46.625 70.7874 48.0181C70.7874 49.0533 70.4738 49.7752 71.6799 49.7752C73.6958 49.7752 75.3762 49.6225 76.9235 51.1698C78.1699 52.4163 79.0637 53.9716 79.6289 55.6045C80.3182 57.5959 80.1916 60.7037 78.6946 62.2007C76.5015 64.3938 71.8367 63.6847 69.0303 63.8324C66.6194 63.9593 64.1648 63.8324 61.7507 63.8324C59.364 63.8324 57.0802 64.3344 54.7221 64.3344" stroke="white" stroke-width="3" stroke-linecap="round"/>
<path d="M53.5039 82.4653V83.9008H48.6504V87.5512H46.8867V83.9008H42.0742V82.4653H53.5039ZM42.6621 80.4145C45.2734 80.1137 46.6543 78.8696 46.8457 77.7348H43.0996V76.3403H46.8867V74.9184H48.6504V76.3403H52.4512V77.7348H48.6914C48.8828 78.8422 50.291 80.1137 52.875 80.4145L52.2598 81.7954C50.1133 81.5493 48.582 80.6606 47.7754 79.5122C46.9551 80.6606 45.4238 81.5356 43.2773 81.7954L42.6621 80.4145ZM59.2598 77.8579C59.2598 79.3071 60.1895 80.7563 62.2129 81.3715L61.3789 82.7524C59.9707 82.3286 58.9863 81.4672 58.4121 80.3872C57.8652 81.5629 56.8809 82.5063 55.4316 82.9575L54.5703 81.5766C56.5938 80.934 57.5098 79.4028 57.5098 77.8579V77.7895H54.9941V76.395H57.5098V74.9868H59.2734V76.395H61.7754V77.7895H59.2598V77.8579ZM56.8809 87.3051V83.477H58.6582V85.8969H65.5078V87.3051H56.8809ZM61.3789 80.018V78.5825H63.4297V74.9047H65.207V84.2563H63.4297V80.018H61.3789ZM77.1152 74.9047V79.8403H78.9609V81.3032H77.1152V87.5375H75.3516V74.9047H77.1152ZM67.1621 78.1723V76.7778H69.9785V75.0961H71.7559V76.7778H74.5312V78.1723H67.1621ZM67.6816 81.9184C67.6816 80.1684 69.0352 78.9243 70.8672 78.9243C72.7129 78.9243 74.0664 80.1684 74.0664 81.9184C74.0664 83.6821 72.7129 84.9262 70.8672 84.9262C69.0352 84.9262 67.6816 83.6821 67.6816 81.9184ZM69.3633 81.9184C69.3633 82.9028 69.9922 83.4907 70.8672 83.4907C71.7422 83.4907 72.3848 82.9028 72.3848 81.9184C72.3848 80.9477 71.7422 80.3598 70.8672 80.3598C69.9922 80.3598 69.3633 80.9477 69.3633 81.9184ZM90.3223 74.8911V87.5239H88.5449V74.8911H90.3223ZM79.8496 83.9829C83.0762 82.4243 84.498 80.4145 84.7715 77.6118H80.5195V76.2036H86.5762C86.5762 80.059 85.2363 83.2172 80.7656 85.3774L79.8496 83.9829Z" fill="white"/>
</svg>
