<svg width="134" height="134" viewBox="0 0 134 134" fill="none" xmlns="http://www.w3.org/2000/svg">
<path d="M0 67C0 29.9969 29.9969 0 67 0C104.003 0 134 29.9969 134 67C134 104.003 104.003 134 67 134C29.9969 134 0 104.003 0 67Z" fill="#004EDC"/>
<path d="M55.8652 68.1883C55.4087 66.9082 55.4249 64.1027 55.4249 61.6811C55.4249 59.8228 55.4249 59.1094 55.4249 57.8617C55.4249 56.2454 55.5133 54.7895 55.7541 53.2017C55.9552 51.8746 56.2078 50.4063 56.5421 49.1175C56.8535 47.9169 57.1474 46.7635 57.5696 45.606C57.959 44.5387 58.4777 43.6506 58.9804 42.6669C59.6028 41.449 60.8627 40.5286 61.9203 39.9771C63.391 39.2101 64.7682 38.8278 66.3688 38.8278C67.076 38.8278 67.8279 38.7539 68.5257 38.9256C69.2183 39.096 69.9312 39.5699 70.5155 40.026C72.7722 41.7874 74.3025 44.102 75.852 46.7883C76.9054 48.6148 77.3983 50.4477 78.1865 53.4212C78.5832 54.9176 78.5756 56.2137 78.5756 57.4883C78.1924 60.3991 77.6129 60.9059 76.8247 62.9355C75.9564 64.4012 75.2991 65.1261 74.071 66.0729C73.0195 66.8837 71.9462 67.3955 70.7073 67.6133C67.1333 68.2416 64.2296 65.0996 62.4422 61.6811C61.6807 60.2249 61.0028 58.3981 61.0028 56.6537C61.0028 55.4924 60.7166 52.3439 61.4557 51.4575C62.3914 50.3351 63.4011 50.4477 65.3466 50.2901C67.6811 50.2901 68.3069 50.4683 69.6265 50.4847C71.4205 50.5069 73.3435 50.9894 74.3606 52.8192C74.6109 53.2695 74.6847 53.6417 74.6847 54.181C74.6847 54.7372 74.1404 55.0913 73.7119 55.3483C71.7665 55.5429 71.4783 55.3483 67.9765 55.3483C66.1716 55.3483 65.3466 55.3483 62.2339 54.9176C61.6501 55.0324 58.9266 53.5974 58.1484 54.5701" stroke="white" stroke-width="2.41006" stroke-linecap="round"/>
<path d="M66.9561 46.7881V47.665" stroke="white" stroke-width="1.26277" stroke-linecap="round"/>
<path d="M70.0059 46.7881C70.0059 47.3613 70.0059 47.2968 70.0059 47.8602" stroke="white" stroke-width="1.26277" stroke-linecap="round"/>
<path d="M41.5173 85.2012V86.4825H31.0151V85.2012H33.4019V83.7942C32.5477 83.4047 32.0703 82.8269 32.0703 82.0731C32.0703 80.6912 33.716 79.8495 36.2662 79.8495C38.8289 79.8495 40.4621 80.6912 40.4621 82.0731C40.4621 82.8269 39.9721 83.4173 39.1053 83.8067V85.2012H41.5173ZM32.2211 89.1835C32.2211 87.8393 33.7411 87.0855 36.2411 87.0855C38.7536 87.0855 40.2736 87.8393 40.2736 89.1835C40.2736 90.5402 38.7536 91.294 36.2411 91.294C33.7411 91.294 32.2211 90.5402 32.2211 89.1835ZM33.7537 82.0731C33.7537 82.7264 34.6582 83.0655 36.2662 83.0655C37.8742 83.0655 38.7913 82.7264 38.7913 82.0731C38.7913 81.4199 37.8742 81.0807 36.2662 81.0807C34.6582 81.0807 33.7537 81.4199 33.7537 82.0731ZM33.8542 89.1835C33.8542 89.7865 34.6708 90.0754 36.2411 90.0754C37.8239 90.0754 38.6279 89.7865 38.6279 89.1835C38.6279 88.593 37.8239 88.3041 36.2411 88.3041C34.6708 88.3041 33.8542 88.593 33.8542 89.1835ZM35.0099 85.2012H37.4973V84.2087C37.1204 84.259 36.7059 84.2841 36.2662 84.2841C35.8139 84.2841 35.3994 84.259 35.0099 84.2087V85.2012ZM52.2206 79.6737V85.5152H50.5874V79.6737H52.2206ZM42.7484 84.4474C45.6127 83.9324 46.7684 82.8143 46.9318 81.4073H43.364V80.1134H48.7282C48.7282 83.2791 46.9569 85.0127 43.3137 85.7539L42.7484 84.4474ZM44.4946 87.2363V85.9926H52.2206V89.1207H46.1403V89.9247H52.5221V91.1809H44.5072V87.9524H50.5874V87.2363H44.4946ZM63.7655 79.6611V91.3065H62.1324V79.6611H63.7655ZM54.4692 84.6233C54.4692 82.0857 55.7632 80.4777 57.5219 80.4777C59.2681 80.4777 60.5621 82.0857 60.5621 84.6233C60.5621 87.1735 59.2681 88.7689 57.5219 88.7689C55.7632 88.7689 54.4692 87.1735 54.4692 84.6233ZM56.0396 84.6233C56.0396 86.3569 56.63 87.2991 57.5219 87.2991C58.4013 87.2991 59.0043 86.3569 59.0043 84.6233C59.0043 82.8897 58.4013 81.96 57.5219 81.96C56.63 81.96 56.0396 82.8897 56.0396 84.6233ZM79.1294 88.6182V89.9372H68.6146V88.6182H73.0492V86.4574H69.7327V80.4149H71.3407V82.2239H76.3657V80.4149H77.9737V86.4574H74.6572V88.6182H79.1294ZM71.3407 85.1635H76.3657V83.5052H71.3407V85.1635ZM90.0965 79.6737V91.2814H88.5513V85.4775H87.4709V90.7287H85.9509V79.8747H87.4709V84.171H88.5513V79.6737H90.0965ZM80.6244 88.4423V80.9676H82.2449V87.0479C83.162 87.0227 84.1921 86.9348 85.2976 86.7212L85.4484 88.1157C83.9409 88.392 82.5967 88.4423 81.4284 88.4423H80.6244ZM101.39 79.6737V91.2814H99.7571V79.6737H101.39ZM91.7673 88.0277C94.7321 86.5956 96.0386 84.7489 96.2898 82.1736H92.3829V80.8797H97.9481C97.9481 84.4223 96.7169 87.3242 92.609 89.3091L91.7673 88.0277Z" fill="white"/>
</svg>
