<svg width="553" height="344" viewBox="0 0 553 344" fill="none" xmlns="http://www.w3.org/2000/svg">
<g clip-path="url(#clip0_2361_1309)">
<path d="M494.978 221.488V406.708H176V221.488C176 133.405 247.406 62 335.489 62C423.572 62 494.978 133.405 494.978 221.488Z" fill="#FDFDFD" stroke="#191919" stroke-width="6"/>
<path d="M339.099 223.575C336.439 223.748 334.078 220.147 333.823 215.532C333.569 210.918 335.519 207.037 338.178 206.865C340.837 206.693 343.199 210.294 343.454 214.908C343.708 219.523 341.758 223.403 339.099 223.575Z" fill="#191919"/>
<path d="M304.452 222.745C301.788 222.917 299.432 219.502 299.191 215.117C298.949 210.732 300.913 207.037 303.577 206.864C306.242 206.692 308.597 210.107 308.839 214.492C309.081 218.877 307.117 222.572 304.452 222.745Z" fill="#191919"/>
<path d="M352.325 195.84C352.865 196.87 352.944 197.959 348.943 194.074C344.942 190.19 340.423 190.102 338.663 190.543" stroke="#191919" stroke-width="5" stroke-linecap="round" stroke-linejoin="round"/>
<path d="M303.039 186.938C304.096 187.305 304.859 188.049 299.461 188.089C294.063 188.129 290.755 191.34 289.775 192.941" stroke="#191919" stroke-width="5" stroke-linecap="round" stroke-linejoin="round"/>
<path d="M531.553 356.159C532.215 380.061 527.441 392.463 521.214 398.997C515.028 405.489 506.788 406.852 498.68 407.077C490.576 407.301 482.986 406.377 477.101 400.319C471.098 394.138 466.243 381.976 465.578 357.987C464.905 333.699 464.074 303.372 467.687 279.01C469.496 266.811 472.38 256.415 476.75 249.086C481.027 241.915 486.542 237.928 493.847 237.678C502.021 238.255 508.346 242.488 513.374 249.595C518.498 256.835 522.176 266.947 524.802 278.777C530.053 302.433 530.88 331.865 531.553 356.159Z" fill="#FDFDFD" stroke="#191919" stroke-width="6"/>
<path d="M229.967 172.618C230.967 175.056 231.955 177.196 232.763 178.856C230.538 178.882 227.475 178.917 223.774 178.958C215.762 179.048 204.76 179.167 192.799 179.287C168.873 179.526 141.127 179.765 125.799 179.765C103.503 179.765 77.8048 178.796 58.0545 177.851C41.4627 177.058 28.6589 163.131 29.0069 146.474C29.3701 129.094 43.8989 115.381 61.2705 116.022L192.462 120.859C209.935 121.504 224.262 135.12 224.881 152.431C225.127 159.341 227.63 166.914 229.967 172.618Z" fill="#EFF8FF" stroke="#191919" stroke-width="5"/>
<path d="M407.51 288.171C408.509 290.33 409.486 292.22 410.282 293.685C408.276 293.798 405.515 293.952 402.179 294.138C394.957 294.54 385.04 295.089 374.258 295.678C352.691 296.854 327.678 298.183 313.855 298.798C293.748 299.693 270.534 299.851 252.685 299.792C237.69 299.743 225.584 287.697 225.23 272.661C224.859 256.973 237.411 244.023 253.103 243.904L371.609 242.999C387.393 242.88 400.86 254.584 402.113 270.17C402.612 276.392 405.173 283.121 407.51 288.171Z" fill="#FFDC27" stroke="#191919" stroke-width="4.5136"/>
<path d="M70.625 141.196L70.9762 141.179C71.3208 141.163 71.6951 141.504 72.0989 142.203L72.215 144.71C72.2918 146.368 72.6373 148.623 73.2517 151.476L72.2116 152.238C71.0149 152.293 70.3007 149.817 70.0688 144.809L69.9365 141.951C69.9923 141.466 70.2218 141.214 70.625 141.196ZM62.425 142.299C65.079 142.893 66.4447 144.025 66.5221 145.697L66.5881 147.121C66.6958 149.449 64.8699 151.326 61.1102 152.752C59.2047 152.84 58.1857 151.453 58.0532 148.592C57.8966 145.21 58.8813 143.251 61.0073 142.716C61.4127 142.463 61.8852 142.324 62.425 142.299ZM60.216 148.853L60.249 149.565C60.3493 150.043 60.5978 150.273 60.9945 150.254C63.5966 149.586 64.8495 148.212 64.7532 146.131L64.7369 145.779C64.4629 145.069 63.7308 144.741 62.5406 144.796L61.8285 144.829C60.9961 144.867 60.4586 146.209 60.216 148.853ZM86.1212 145.865C89.9322 145.688 91.9094 147.148 92.0527 150.244C92.1626 152.617 90.2031 154.145 86.1744 154.827C83.9912 154.126 82.8573 152.862 82.7727 151.035L82.756 150.674C82.6497 148.378 83.7714 146.775 86.1212 145.865ZM84.5579 150.952C85.0035 152.131 85.7466 152.696 86.7871 152.648C88.0423 152.59 89.0821 151.821 89.9065 150.343L89.8569 149.27C89.8412 148.932 89.467 148.591 88.7341 148.246L87.661 148.296C86.8502 149.083 85.9252 149.726 84.8859 150.223L84.5579 150.952ZM94.838 148.326L95.9111 148.276C96.5199 151.148 97.2474 153.982 98.0938 156.778C97.881 157.25 97.7805 157.613 97.7923 157.867C96.355 157.934 95.3052 155.952 94.6429 151.922L94.1426 148.719L94.838 148.326ZM92.033 157.42L92.4172 158.116L92.4339 158.477C92.4781 159.433 89.6387 160.043 83.9157 160.308C83.571 160.324 83.1968 159.983 82.793 159.285L82.7433 158.212C87.4211 157.754 90.5177 157.49 92.033 157.42ZM103.911 144.327L105.345 144.261C105.364 144.677 105.629 145.261 106.14 146.013C111.383 145.243 114.102 144.641 114.297 144.208L114.658 144.192C115.497 144.153 116.241 147.344 116.891 153.767L115.473 154.184C115 153.971 114.637 153.871 114.384 153.883L114.334 152.81C114.286 151.769 114.004 150.824 113.489 149.975L111.721 150.418L110.647 150.468C108.501 150.567 107.395 149.901 107.329 148.471L107.312 148.11L106.239 148.159L106.422 152.101L106.865 153.869L106.16 154.263L105.087 154.313C104.367 154.105 103.979 153.406 103.924 152.216L103.659 146.49L99.3835 147.05L98.9891 146.344L98.9399 145.281C100.713 144.717 102.37 144.399 103.911 144.327ZM109.081 147.676L109.097 148.027L113.751 147.812L113.718 147.1L113.357 147.116L109.081 147.676ZM109.839 156.234C110.631 156.439 111.131 156.894 111.339 157.602C110.899 158.495 110.702 159.459 110.75 160.493C111.238 160.471 113.242 159.902 116.761 158.788C117.734 159.101 118.229 159.437 118.245 159.794L118.261 160.146C118.295 160.861 115.824 161.692 110.849 162.639C109.9 162.683 109.162 162.242 108.637 161.315L108.554 159.52C108.47 157.699 108.898 156.603 109.839 156.234ZM132.5 145.878C134.964 145.764 136.677 146.639 137.636 148.505L139.799 148.766L140.862 148.717L140.763 146.571C140.738 146.031 141.32 145.646 142.508 145.415C142.929 146.203 143.514 148.565 144.264 152.499C144.078 153.701 143.511 154.323 142.561 154.367C141.81 153.639 141.403 152.583 141.339 151.198L137.056 151.396C137.179 154.043 135.705 155.783 132.635 156.616C129.029 156.014 127.178 154.669 127.081 152.581C127.966 149.731 129.54 147.628 131.804 146.272L132.5 145.878ZM129.939 152.449L129.956 152.8C130.319 153.741 131.414 154.17 133.241 154.085C134.415 153.672 134.955 152.451 134.861 150.422L134.778 148.637C131.455 149.084 129.842 150.355 129.939 152.449ZM163.887 143.682L164.96 143.632C165.304 143.616 165.679 143.961 166.083 144.665C166.536 149.239 166.794 152.215 166.858 153.594L166.153 153.989L165.802 154.005C165.086 154.038 164.542 152.626 164.168 149.769C163.323 149.808 162.652 150.797 162.155 152.737C161.704 152.999 161.352 153.135 161.099 153.147L160.327 152.107C160.302 151.568 160.4 151.084 160.622 150.657L159.833 149.256L160.095 147.093L159.651 145.315L160.701 144.553L161.052 144.537C162.023 144.811 162.55 145.862 162.635 147.689L163.357 147.656C163.832 147.634 164.058 147.386 164.036 146.911C164.028 146.729 163.874 146.019 163.576 144.781C163.795 144.302 163.898 143.936 163.887 143.682ZM150.345 145.746C152.402 146.133 153.727 146.313 154.319 146.285C155.622 145.984 156.569 145.82 157.161 145.792C157.678 146.544 157.946 147.131 157.966 147.554L156.926 148.315L156.565 148.332C156.324 148.343 156.198 148.229 156.187 147.988C155.782 148.248 154.72 148.538 153.001 148.859L153.034 149.571L153.478 151.349L157.409 151.167L157.853 152.936C156.802 153.467 155.262 153.779 153.233 153.873L151.766 153.218C150.689 153.75 149.507 154.046 148.219 154.105C146.788 154.171 146.023 153.128 145.923 150.976L145.446 148.485C145.399 147.451 147.031 146.538 150.345 145.746ZM147.987 149.091L148.103 151.598L148.464 151.581L150.954 151.104L150.822 148.236L148.666 148.336C148.195 148.436 147.968 148.688 147.987 149.091ZM172.86 137.538C174.246 137.773 175.582 138.19 176.868 138.789L176.835 138.077L177.908 138.027C178.386 138.077 178.634 138.303 178.653 138.707C178.818 142.283 177.948 144.116 176.043 144.204C176.057 144.516 175.238 144.913 173.586 145.393C171.049 145.511 169.443 144.392 168.767 142.038L168.684 140.243C169.888 138.513 171.28 137.611 172.86 137.538ZM170.519 141.234L170.552 141.956C170.568 142.294 170.945 142.635 171.685 142.979L174.543 142.846C174.914 142.829 175.37 142.329 175.911 141.346C175.626 140.401 174.888 139.956 173.698 140.011L172.625 140.061C171.195 140.277 170.493 140.668 170.519 141.234ZM174.03 147.172L174.381 147.155C175.051 147.124 175.871 149.358 176.842 153.855C178.279 153.939 179.011 154.263 179.038 154.829L179.07 155.541C179.093 156.022 178.867 156.274 178.392 156.296C174.463 155.755 171.942 155.509 170.83 155.561L169.757 155.611C168.779 155.167 168.273 154.594 168.24 153.892C168.207 153.176 168.669 152.797 169.625 152.752L169.148 150.262L169.115 149.55L169.393 147.738L170.466 147.689C171.181 147.655 171.6 148.953 171.721 151.58L171.788 153.014L173.95 153.266L174.278 152.537C173.714 150.764 173.396 149.104 173.324 147.556L174.03 147.172ZM192.801 137.709C195.676 137.863 197.173 139.224 197.292 141.793C197.363 143.328 196.021 145.303 193.265 147.718L192.192 147.768L191.758 145.999C192.07 145.984 193.205 144.736 195.163 142.253L195.113 141.18C195.086 140.589 194.591 140.253 193.629 140.174C192.979 140.204 191.221 140.882 188.356 142.207L187.962 141.511C187.886 139.853 189.499 138.586 192.801 137.709ZM193.063 150.954L194.848 150.871C195.815 151.211 196.329 152.021 196.388 153.302L196.437 154.375C196.453 154.714 195.771 155.462 194.391 156.621L192.606 156.704C191.388 156.16 190.743 155.115 190.671 153.567C190.9 151.888 191.697 151.017 193.063 150.954ZM192.834 153.829L192.851 154.19L193.924 154.14C194.399 154.118 194.625 153.866 194.603 153.385L193.874 153.067L193.513 153.083C193.042 153.177 192.815 153.425 192.834 153.829Z" fill="black"/>
<path d="M436.532 151.45C435.942 150.273 434.885 149.363 434 148.427C434.763 148.606 437.173 149.634 437.875 150.012C440.163 151.243 445.39 156.601 448.837 161.57C449.783 162.926 451.197 164.777 451.583 166.475C451.807 167.49 451.959 167.711 452.102 169.523C452.275 171.657 451.207 174.096 450.058 174.532C448.471 175.129 446.844 175.315 444.8 173.993C442.756 172.671 441.363 171.354 440.142 165.579C439.654 163.469 439.268 160.942 438.79 158.837C438.2 156.195 437.742 153.911 436.532 151.45Z" fill="#5FB2FF"/>
</g>
<defs>
<clipPath id="clip0_2361_1309">
<rect width="553" height="344" fill="white"/>
</clipPath>
</defs>
</svg>
