<svg width="553" height="344" viewBox="0 0 553 344" fill="none" xmlns="http://www.w3.org/2000/svg">
<g clip-path="url(#clip0_1565_3047)">
<path d="M494.978 221.488V406.708H176V221.488C176 133.405 247.406 62 335.489 62C423.572 62 494.978 133.405 494.978 221.488Z" fill="#FDFDFD" stroke="#191919" stroke-width="6"/>
<path d="M339.098 223.575C336.439 223.747 334.077 220.146 333.822 215.532C333.568 210.917 335.518 207.037 338.177 206.865C340.836 206.693 343.198 210.294 343.453 214.908C343.707 219.523 341.757 223.403 339.098 223.575Z" fill="#191919"/>
<path d="M304.451 222.745C301.787 222.918 299.431 219.503 299.19 215.117C298.948 210.732 300.912 207.037 303.576 206.864C306.241 206.692 308.596 210.107 308.838 214.492C309.08 218.878 307.116 222.573 304.451 222.745Z" fill="#191919"/>
<path d="M352.324 195.84C352.864 196.87 352.943 197.959 348.942 194.074C344.941 190.19 340.422 190.102 338.662 190.543" stroke="#191919" stroke-width="5" stroke-linecap="round" stroke-linejoin="round"/>
<path d="M303.039 186.938C304.096 187.305 304.859 188.049 299.461 188.089C294.063 188.129 290.755 191.34 289.775 192.941" stroke="#191919" stroke-width="5" stroke-linecap="round" stroke-linejoin="round"/>
<path d="M531.554 356.159C532.216 380.061 527.442 392.463 521.215 398.997C515.029 405.489 506.789 406.852 498.681 407.077C490.577 407.301 482.987 406.377 477.102 400.319C471.099 394.138 466.244 381.976 465.579 357.987C464.906 333.699 464.075 303.372 467.688 279.01C469.497 266.811 472.381 256.415 476.751 249.086C481.028 241.915 486.543 237.928 493.848 237.678C502.022 238.255 508.347 242.488 513.375 249.595C518.499 256.835 522.177 266.947 524.803 278.777C530.054 302.433 530.881 331.865 531.554 356.159Z" fill="#FDFDFD" stroke="#191919" stroke-width="6"/>
<path d="M204.131 223.996C205.131 226.434 206.119 228.574 206.927 230.234C204.702 230.26 201.639 230.295 197.938 230.336C189.926 230.426 178.924 230.545 166.963 230.665C143.037 230.904 115.291 231.143 99.9629 231.143C77.6669 231.143 51.9689 230.174 32.2186 229.229C15.6268 228.436 2.82294 214.509 3.17099 197.852C3.53413 180.472 18.063 166.759 35.4346 167.4L166.626 172.237C184.099 172.882 198.426 186.498 199.045 203.809C199.291 210.719 201.794 218.292 204.131 223.996Z" fill="#FFDC27" stroke="#191919" stroke-width="5"/>
<path d="M44.7891 192.574L45.1403 192.557C45.4849 192.541 45.8592 192.882 46.263 193.581L46.3791 196.088C46.4559 197.746 46.8014 200.001 47.4158 202.854L46.3757 203.616C45.179 203.671 44.4648 201.195 44.2329 196.187L44.1006 193.329C44.1564 192.844 44.3859 192.592 44.7891 192.574ZM36.5891 193.677C39.2431 194.271 40.6088 195.403 40.6862 197.075L40.7522 198.499C40.8599 200.827 39.034 202.704 35.2743 204.13C33.3688 204.218 32.3498 202.831 32.2173 199.97C32.0607 196.588 33.0454 194.629 35.1714 194.094C35.5768 193.841 36.0493 193.702 36.5891 193.677ZM34.3801 200.231L34.4131 200.943C34.5134 201.421 34.7619 201.651 35.1586 201.632C37.7607 200.964 39.0136 199.59 38.9173 197.509L38.901 197.157C38.627 196.447 37.8949 196.119 36.7047 196.174L35.9926 196.207C35.1602 196.245 34.6227 197.587 34.3801 200.231ZM60.2853 197.243C64.0963 197.066 66.0735 198.526 66.2168 201.622C66.3267 203.995 64.3672 205.523 60.3385 206.205C58.1553 205.504 57.0214 204.24 56.9368 202.413L56.9201 202.052C56.8138 199.756 57.9355 198.153 60.2853 197.243ZM58.722 202.33C59.1676 203.509 59.9107 204.074 60.9512 204.026C62.2064 203.968 63.2462 203.199 64.0706 201.721L64.021 200.648C64.0053 200.31 63.6311 199.969 62.8982 199.624L61.8251 199.674C61.0143 200.461 60.0893 201.104 59.05 201.601L58.722 202.33ZM69.0021 199.704L70.0752 199.654C70.684 202.526 71.4115 205.36 72.2579 208.156C72.0451 208.628 71.9446 208.991 71.9564 209.245C70.5191 209.312 69.4693 207.33 68.807 203.3L68.3067 200.097L69.0021 199.704ZM66.1971 208.798L66.5813 209.494L66.598 209.855C66.6422 210.811 63.8028 211.421 58.0798 211.686C57.7351 211.702 57.3609 211.361 56.9571 210.663L56.9074 209.59C61.5852 209.132 64.6818 208.868 66.1971 208.798ZM78.075 195.705L79.509 195.639C79.5283 196.055 79.7932 196.639 80.3038 197.391C85.5472 196.621 88.2664 196.019 88.4615 195.586L88.8224 195.57C89.6613 195.531 90.4055 198.722 91.0547 205.145L89.637 205.562C89.1644 205.349 88.8013 205.249 88.5476 205.261L88.498 204.188C88.4498 203.147 88.1682 202.202 87.6531 201.353L85.8846 201.796L84.8115 201.846C82.6654 201.945 81.5592 201.279 81.4929 199.849L81.4762 199.488L80.4032 199.537L80.5856 203.479L81.0292 205.247L80.324 205.641L79.251 205.691C78.5309 205.483 78.1434 204.784 78.0883 203.594L77.8232 197.868L73.5476 198.428L73.1532 197.722L73.104 196.659C74.8767 196.095 76.5337 195.777 78.075 195.705ZM83.2452 199.054L83.2614 199.405L87.9146 199.19L87.8817 198.478L87.5207 198.494L83.2452 199.054ZM84.0031 207.612C84.7946 207.817 85.2948 208.272 85.5035 208.98C85.0626 209.873 84.8661 210.837 84.9139 211.871C85.4017 211.849 87.4056 211.28 90.9255 210.166C91.898 210.479 92.3926 210.815 92.4092 211.172L92.4254 211.524C92.4586 212.239 89.9878 213.07 85.0133 214.017C84.0638 214.061 83.3264 213.62 82.8012 212.693L82.7181 210.898C82.6338 209.077 83.0621 207.981 84.0031 207.612ZM106.664 197.256C109.128 197.142 110.841 198.017 111.8 199.883L113.963 200.144L115.026 200.095L114.927 197.949C114.902 197.409 115.484 197.024 116.672 196.793C117.093 197.581 117.678 199.943 118.428 203.877C118.242 205.079 117.675 205.701 116.725 205.745C115.974 205.017 115.567 203.961 115.503 202.576L111.22 202.774C111.343 205.421 109.869 207.161 106.799 207.994C103.193 207.392 101.342 206.047 101.245 203.959C102.13 201.109 103.704 199.006 105.968 197.65L106.664 197.256ZM104.103 203.827L104.12 204.178C104.483 205.119 105.578 205.548 107.405 205.463C108.579 205.05 109.119 203.829 109.025 201.8L108.942 200.015C105.619 200.462 104.006 201.733 104.103 203.827ZM138.051 195.06L139.124 195.01C139.468 194.994 139.843 195.339 140.247 196.043C140.7 200.617 140.958 203.593 141.022 204.972L140.317 205.367L139.966 205.383C139.25 205.416 138.706 204.004 138.332 201.147C137.487 201.186 136.816 202.175 136.319 204.115C135.868 204.377 135.516 204.513 135.263 204.525L134.491 203.485C134.466 202.946 134.564 202.462 134.786 202.035L133.997 200.634L134.259 198.471L133.815 196.693L134.865 195.931L135.216 195.915C136.187 196.189 136.714 197.24 136.799 199.067L137.521 199.034C137.996 199.012 138.222 198.764 138.2 198.289C138.192 198.107 138.038 197.397 137.74 196.159C137.959 195.68 138.062 195.314 138.051 195.06ZM124.509 197.124C126.566 197.511 127.891 197.691 128.483 197.663C129.786 197.362 130.733 197.198 131.325 197.17C131.842 197.922 132.11 198.509 132.13 198.932L131.09 199.693L130.729 199.71C130.488 199.721 130.362 199.607 130.351 199.366C129.946 199.626 128.884 199.916 127.165 200.237L127.198 200.949L127.642 202.727L131.573 202.545L132.017 204.314C130.966 204.845 129.426 205.157 127.397 205.251L125.93 204.596C124.853 205.128 123.671 205.424 122.383 205.483C120.952 205.549 120.187 204.506 120.087 202.354L119.61 199.863C119.563 198.829 121.195 197.916 124.509 197.124ZM122.151 200.469L122.267 202.976L122.628 202.959L125.118 202.482L124.986 199.614L122.83 199.714C122.359 199.814 122.132 200.066 122.151 200.469ZM147.024 188.916C148.41 189.151 149.746 189.568 151.032 190.167L150.999 189.455L152.072 189.405C152.55 189.455 152.798 189.681 152.817 190.085C152.982 193.661 152.112 195.494 150.207 195.582C150.221 195.894 149.402 196.291 147.75 196.771C145.213 196.889 143.607 195.77 142.931 193.416L142.848 191.621C144.052 189.891 145.444 188.989 147.024 188.916ZM144.683 192.612L144.716 193.334C144.732 193.672 145.109 194.013 145.849 194.357L148.707 194.224C149.078 194.207 149.534 193.707 150.075 192.724C149.79 191.779 149.052 191.334 147.862 191.389L146.789 191.439C145.359 191.655 144.657 192.046 144.683 192.612ZM148.194 198.55L148.545 198.533C149.215 198.502 150.035 200.736 151.006 205.233C152.443 205.317 153.175 205.641 153.202 206.207L153.234 206.919C153.257 207.4 153.031 207.652 152.556 207.674C148.627 207.133 146.106 206.887 144.994 206.939L143.921 206.989C142.943 206.545 142.437 205.972 142.404 205.27C142.371 204.554 142.833 204.175 143.789 204.13L143.312 201.64L143.279 200.928L143.557 199.116L144.63 199.067C145.345 199.033 145.764 200.331 145.885 202.958L145.952 204.392L148.114 204.644L148.442 203.915C147.878 202.142 147.56 200.482 147.488 198.934L148.194 198.55ZM166.965 189.087C169.84 189.241 171.337 190.602 171.456 193.171C171.527 194.706 170.185 196.681 167.429 199.096L166.356 199.146L165.922 197.377C166.234 197.362 167.369 196.114 169.327 193.631L169.277 192.558C169.25 191.967 168.755 191.631 167.793 191.552C167.143 191.582 165.385 192.26 162.52 193.585L162.126 192.889C162.05 191.231 163.663 189.964 166.965 189.087ZM167.227 202.332L169.012 202.249C169.979 202.589 170.493 203.399 170.552 204.68L170.601 205.753C170.617 206.092 169.935 206.84 168.555 207.999L166.77 208.082C165.552 207.538 164.907 206.493 164.835 204.945C165.064 203.266 165.861 202.395 167.227 202.332ZM166.998 205.207L167.015 205.568L168.088 205.518C168.563 205.496 168.789 205.244 168.767 204.763L168.038 204.445L167.677 204.461C167.206 204.555 166.979 204.803 166.998 205.207Z" fill="black"/>
<path d="M298.426 253.466C277.929 246.64 270.638 247.442 265.999 253.466C243.58 282.577 288.018 297.132 332.856 296.63C377.694 296.128 384.615 256.129 377.694 246.941C370.888 237.906 357.01 245.1 347.268 250.454C339.528 254.302 318.924 260.292 298.426 253.466Z" fill="#FFB5B5" stroke="black" stroke-width="6" stroke-linecap="round"/>
<path d="M436.532 151.45C435.942 150.273 434.885 149.363 434 148.427C434.763 148.606 437.173 149.634 437.875 150.012C440.163 151.243 445.39 156.601 448.837 161.57C449.783 162.926 451.197 164.777 451.583 166.475C451.807 167.49 451.959 167.711 452.102 169.523C452.275 171.657 451.207 174.096 450.058 174.532C448.471 175.129 446.844 175.315 444.8 173.993C442.756 172.671 441.363 171.354 440.142 165.579C439.654 163.469 439.268 160.942 438.79 158.837C438.2 156.195 437.742 153.911 436.532 151.45Z" fill="#5FB2FF"/>
</g>
<defs>
<clipPath id="clip0_1565_3047">
<rect width="553" height="344" fill="white"/>
</clipPath>
</defs>
</svg>
