<svg width="516" height="359" viewBox="0 0 516 359" fill="none" xmlns="http://www.w3.org/2000/svg">
<rect x="0.5" width="515" height="359" rx="4" fill="#E8E8E8"/>
<path d="M279.164 159.333H237.831C234.981 159.333 232.664 161.651 232.664 164.5V195.5C232.664 198.349 234.981 200.667 237.831 200.667H279.164C282.013 200.667 284.331 198.349 284.331 195.5V164.5C284.331 161.651 282.013 159.333 279.164 159.333ZM244.289 167.083C245.317 167.083 246.302 167.492 247.029 168.218C247.756 168.945 248.164 169.931 248.164 170.958C248.164 171.986 247.756 172.972 247.029 173.698C246.302 174.425 245.317 174.833 244.289 174.833C243.261 174.833 242.276 174.425 241.549 173.698C240.822 172.972 240.414 171.986 240.414 170.958C240.414 169.931 240.822 168.945 241.549 168.218C242.276 167.492 243.261 167.083 244.289 167.083ZM258.497 192.917H240.414L250.747 180L254.622 185.167L262.372 174.833L276.581 192.917H258.497Z" fill="white"/>
</svg>
