<svg width="89" height="53" viewBox="0 0 89 53" fill="none" xmlns="http://www.w3.org/2000/svg">
<g id="Group 94 1" clip-path="url(#clip0_693_9692)">
<path id="Vector" d="M3.55372 40.2923C3.09715 39.0122 3.11335 36.2067 3.11335 33.7851C3.11337 31.9268 3.11335 31.2134 3.11335 29.9657C3.11335 28.3494 3.20182 26.8936 3.44253 25.3057C3.64372 23.9786 3.89624 22.5103 4.23059 21.2215C4.542 20.0209 4.83589 18.8675 5.2581 17.71C5.64744 16.6427 6.16621 15.7546 6.66889 14.7709C7.29126 13.553 8.55115 12.6326 9.60875 12.0811C11.0795 11.3141 12.4567 10.9318 14.0572 10.9318C14.7645 10.9318 15.5164 10.8579 16.2142 11.0296C16.9068 11.2 17.6197 11.6739 18.204 12.13C20.4606 13.8914 21.991 16.206 23.5405 18.8923C24.5939 20.7188 25.0867 22.5517 25.875 25.5252C26.2716 27.0216 26.2641 28.3177 26.2641 29.5923C25.8809 32.5031 25.3014 33.0099 24.5132 35.0395C23.6448 36.5052 22.9876 37.2301 21.7595 38.1769C20.708 38.9877 19.6347 39.4995 18.3957 39.7173C14.8218 40.3456 11.918 37.2036 10.1306 33.7851C9.36921 32.3289 8.69131 30.5021 8.69131 28.7577C8.69131 27.5964 8.40507 24.4479 9.14416 23.5615C10.0799 22.4391 11.0896 22.5517 13.035 22.3941C15.3696 22.3941 15.9954 22.5723 17.315 22.5887C19.1089 22.6109 21.032 23.0934 22.049 24.9232C22.2993 25.3735 22.3732 25.7457 22.3732 26.285C22.3732 26.8412 21.8289 27.1953 21.4004 27.4523C19.455 27.6469 19.1668 27.4523 15.665 27.4523C13.8601 27.4523 13.035 27.4523 9.92233 27.0216C9.3386 27.1365 6.61508 25.7014 5.83689 26.6741" stroke="#005AFF" stroke-width="2.41006" stroke-linecap="round"/>
<path id="Vector_2" d="M14.6445 18.892V19.7689" stroke="#005AFF" stroke-width="1.26277" stroke-linecap="round"/>
<path id="Vector_3" d="M17.6943 18.892C17.6943 19.4652 17.6943 19.4007 17.6943 19.9641" stroke="#005AFF" stroke-width="1.26277" stroke-linecap="round"/>
<path id="Vector_4" d="M30.4702 25.7995H31.6753C32.4481 25.7995 33.0746 26.426 33.0746 27.1989V40.9706C33.0746 41.7434 32.4481 42.3699 31.6753 42.3699H30.4702C29.6974 42.3699 29.0709 41.7434 29.0709 40.9706V27.1989C29.0709 26.426 29.6974 25.7995 30.4702 25.7995Z" fill="#005AFF" stroke="black" stroke-width="0.3"/>
<path id="Vector_5" d="M37.4223 33.1728C37.4223 34.1322 36.6445 34.91 35.6851 34.91H31.5576C30.5982 34.91 29.8204 34.1322 29.8204 33.1728C29.8204 32.2134 30.5982 31.4356 31.5576 31.4356H35.6851C36.6445 31.4356 37.4223 32.2134 37.4223 33.1728Z" fill="#005AFF" stroke="black" stroke-width="0.3"/>
<path id="Vector_6" d="M16.6427 45.494L16.7913 45.4731L16.6427 45.494L17.1233 48.9135L17.1441 49.0621L17.2927 49.0412L22.2536 48.344L22.4021 48.3231L22.3813 48.1746L21.9008 44.7552C21.6968 43.3032 20.3543 42.2915 18.9023 42.4957C17.4504 42.6997 16.4387 44.042 16.6427 45.494Z" fill="#005AFF" stroke="black" stroke-width="0.3"/>
<path id="Vector_7" d="M86.0739 25.9067L86.0739 25.9067L87.0068 25.9602C87.0068 25.9602 87.0068 25.9602 87.0068 25.9602C87.9544 26.0147 88.6786 26.8269 88.6241 27.7745L88.6241 27.7745L87.6337 45.0312C87.5793 45.9788 86.767 46.7028 85.8193 46.6485L84.884 46.5948C83.9378 46.5405 83.2148 45.7295 83.2691 44.7833L84.2596 27.524C84.2596 27.524 84.2596 27.524 84.2596 27.524C84.3141 26.5764 85.1263 25.8522 86.0739 25.9067Z" fill="#005AFF" stroke="black" stroke-width="0.3"/>
<path id="Vector_8" d="M58.3067 25.5151L57.5897 25.5526C56.4764 25.6109 55.621 26.5606 55.6793 27.674L56.5822 44.9353C56.6404 46.0487 57.5902 46.904 58.7036 46.8458L59.4205 46.8083C60.5338 46.75 61.3892 45.8003 61.3309 44.6869L60.428 27.4256C60.3698 26.3122 59.42 25.4569 58.3067 25.5151Z" fill="#005AFF" stroke="black" stroke-width="0.3"/>
<path id="Vector_9" d="M65.9603 34.599L65.9534 34.469C65.8834 33.129 64.7403 32.0995 63.4003 32.1696L60.0181 32.3465C58.6781 32.4166 57.6486 33.5597 57.7187 34.8997L57.7255 35.0298C57.7956 36.3698 58.9387 37.3992 60.2787 37.3291L63.6609 37.1522C65.0009 37.0821 66.0303 35.939 65.9603 34.599Z" fill="#005AFF" stroke="black" stroke-width="0.3"/>
<path id="Vector_10" d="M52.163 28.8985C51.1115 28.8985 50.2592 29.7508 50.2592 30.8023V41.3253C50.2592 42.3768 51.1115 43.2293 52.163 43.2293C53.2144 43.2293 54.0668 42.3768 54.0668 41.3253V30.8023C54.0668 29.7508 53.2143 28.8985 52.163 28.8985Z" fill="#005AFF" stroke="black" stroke-width="0.3"/>
<path id="Vector_11" d="M44.4462 28.8985C43.3947 28.8985 42.5424 29.7508 42.5424 30.8023V41.3253C42.5424 42.3768 43.3947 43.2291 44.4462 43.2291C45.4977 43.2291 46.3501 42.3768 46.3501 41.3253V30.8023C46.3501 29.7508 45.4977 28.8985 44.4462 28.8985Z" fill="#005AFF" stroke="black" stroke-width="0.3"/>
<path id="Vector_12" d="M54.0671 30.8023C54.0671 29.7508 53.2146 28.8985 52.1632 28.8985H44.4462C43.3947 28.8985 42.5424 29.7508 42.5424 30.8023C42.5424 31.8538 43.3947 32.7061 44.4462 32.7061H52.1632C53.2146 32.7061 54.0671 31.8538 54.0671 30.8023Z" fill="#005AFF" stroke="black" stroke-width="0.3"/>
<path id="Vector_13" d="M52.1632 43.2292C53.2146 43.2292 54.0671 42.3769 54.0671 41.3254C54.0671 40.2738 53.2146 39.4215 52.1632 39.4215H44.4462C43.3947 39.4215 42.5424 40.2739 42.5424 41.3254C42.5424 42.3769 43.3947 43.2292 44.4462 43.2292H52.1632Z" fill="#005AFF" stroke="black" stroke-width="0.3"/>
<path id="Vector_14" d="M71.4155 28.5983C70.3007 28.5983 69.3969 29.5021 69.3969 30.6169V40.8235C69.3969 41.9384 70.3007 42.8422 71.4155 42.8422H71.8097C72.9246 42.8422 73.8284 41.9384 73.8284 40.8235V30.6169C73.8284 29.5021 72.9246 28.5983 71.8097 28.5983H71.4155Z" fill="#005AFF" stroke="black" stroke-width="0.3"/>
<path id="Vector_15" d="M80.8864 30.6169C80.8864 29.5021 79.9826 28.5983 78.8678 28.5983H71.4155C70.3007 28.5983 69.3969 29.5021 69.3969 30.6169V30.6669C69.3969 31.7817 70.3007 32.6855 71.4155 32.6855H78.8678C79.9826 32.6855 80.8864 31.7817 80.8864 30.6669V30.6169Z" fill="#005AFF" stroke="black" stroke-width="0.3"/>
<path id="Vector_16" d="M78.8678 42.8423C79.9826 42.8423 80.8864 41.9385 80.8864 40.8236V40.6016C80.8864 39.4867 79.9826 38.5829 78.8678 38.5829H71.4155C70.3007 38.5829 69.3969 39.4867 69.3969 40.6016V40.8236C69.3969 41.9385 70.3007 42.8423 71.4155 42.8423H78.8678Z" fill="#005AFF" stroke="black" stroke-width="0.3"/>
<path id="Vector_17" d="M1.20508 6.21786C2.53512 6.21786 3.90262 5.99808 5.2154 6.24015C6.9897 6.56732 8.72978 7.09626 10.5291 7.29843C13.1198 7.58953 15.6991 7.87753 18.3158 7.92225C19.9865 7.95081 21.658 8.10053 23.3063 8.36784C24.3664 8.53974 25.4666 8.61394 26.5146 8.84686C27.2538 9.0111 28.0078 9.10196 28.7538 9.24789C29.012 9.29841 30.2323 9.53141 30.1797 9.42613" stroke="#005AFF" stroke-width="2.41006" stroke-linecap="round"/>
<path id="Vector_18" d="M15.9434 7.82199C16.1851 7.79176 16.0436 6.08286 16.0436 5.86138C16.0436 5.17873 16.2218 4.38133 16.3667 3.7114C16.4871 3.15456 17.0537 1.66742 16.7454 1.20496" stroke="#005AFF" stroke-width="2.41006" stroke-linecap="round"/>
<path id="Vector_19" d="M20.848 51.8463L20.848 51.8463L34.0605 49.9899C35.4006 49.8016 36.3343 48.5625 36.146 47.2224C35.9577 45.8824 34.7188 44.9486 33.3787 45.1369L17.068 47.4287L16.9195 47.4496L16.9403 47.5982L17.1451 49.0559L17.1451 49.0559C17.3971 50.8489 19.0549 52.0982 20.848 51.8463Z" fill="#005AFF" stroke="black" stroke-width="0.3"/>
</g>
<defs>
<clipPath id="clip0_693_9692">
<rect width="89" height="52.1605" fill="white"/>
</clipPath>
</defs>
</svg>
