<svg width="107" height="88" viewBox="0 0 107 88" fill="none" xmlns="http://www.w3.org/2000/svg">
<path d="M46.0772 22.3073C54.6585 20.8236 64.471 22.4156 70.4609 23.8562C79.2758 25.9763 86.6126 34.2664 90.1392 41.1765C94.1563 58.0253 80.2924 66.1496 70.6064 69.237C61.8682 72.0222 43.942 71.2746 34.6547 69.187C26.6998 67.3989 13.4166 63.7779 10.1995 59.5306C5.85757 53.7984 19.154 59.1329 22.199 51.4598C23.8393 47.3266 22.1232 41.2226 25.6064 35.437C28.8889 29.9847 35.8111 24.0823 46.0772 22.3073Z" fill="white" stroke="#060C1B" stroke-width="2.41326" stroke-linecap="round" stroke-linejoin="round"/>
<path d="M85.9275 19.777C89.1633 19.1714 92.8633 19.8212 95.122 20.4093C98.4458 21.2746 101.212 24.6583 102.542 27.4788C104.057 34.3559 98.8292 37.672 95.1769 38.9321C91.8819 40.0689 85.1224 39.7638 81.6204 38.9117C78.6209 38.1819 73.6121 36.7039 72.3991 34.9703C70.7618 32.6306 75.7755 34.808 76.9237 31.6761C77.5422 29.989 76.8951 27.4976 78.2086 25.1361C79.4463 22.9107 82.0565 20.5015 85.9275 19.777Z" fill="#005AFF" stroke="#060C1B" stroke-width="2.11979" stroke-linecap="round" stroke-linejoin="round"/>
<path d="M75.137 17.8457C74.3587 17.9344 73.7949 17.2287 73.2526 16.841C73.085 16.7213 72.8287 16.3247 72.8159 16.0626C72.801 15.7563 72.8693 15.4243 72.8698 15.1205C72.9816 14.4648 73.006 14.5443 73.1199 14.2204C73.4693 13.4896 73.6894 13.4238 73.8167 13.2967C74.7204 12.6189 74.7895 12.8153 75.4144 12.8208C76.1085 12.8757 76.1279 13.0796 76.4119 13.4837C76.8319 14.0813 76.7631 15.048 76.5035 15.9301C76.3437 16.4728 75.7693 17.7736 75.137 17.8457Z" fill="black" stroke="black" stroke-width="0.709874" stroke-linecap="round"/>
<path d="M56.7532 14.7195C56.1309 14.1025 56.123 12.9838 55.948 12.1618C55.8939 11.9079 55.9339 11.3333 56.0753 11.0933C56.2406 10.8127 56.4817 10.5842 56.6569 10.3197C57.1161 9.84758 57.0883 9.93867 57.3583 9.75782C58.0352 9.43215 58.2347 9.57125 58.4012 9.57397C59.4546 9.78921 59.3923 10.0222 59.8478 10.5845C60.3257 11.2519 60.2227 11.447 60.1986 12.0528C60.1631 12.9488 59.5564 13.7305 58.8584 14.2682C58.4289 14.599 57.2588 15.2209 56.7532 14.7195Z" fill="black" stroke="black" stroke-width="0.774109" stroke-linecap="round"/>
<path d="M38.0106 40.2401H38.3087C38.6565 40.2401 39.1644 41.4545 39.8323 43.8834C41.0467 44.0104 41.654 44.314 41.654 44.7943C41.4497 45.1475 41.3476 45.5533 41.3476 46.0115H38.0106C35.7805 46.0115 34.6654 45.7078 34.6654 45.1006V44.1898L34.9718 43.5853L37.0915 43.8834H38.0106V43.5853C37.6021 42.266 37.3979 41.3524 37.3979 40.8445C37.4641 40.4416 37.6684 40.2401 38.0106 40.2401ZM44.9909 42.9726H46.2081L46.5145 45.1006H49.247L49.5451 46.6159V46.9223L47.4253 47.2287C47.4253 47.0244 47.3232 46.9223 47.119 46.9223C46.9147 47.259 46.8126 47.7641 46.8126 48.4376H45.9018C45.3553 48.4376 44.9523 47.0217 44.6928 44.1898C44.8916 43.8365 44.9909 43.4308 44.9909 42.9726ZM38.3087 46.3178C40.5389 46.3178 41.654 47.5323 41.654 49.9612C41.0578 51.3799 40.147 52.0892 38.9215 52.0892C36.8956 51.747 35.8826 50.734 35.8826 49.0503V48.1395L36.1807 46.6159H36.7934C36.9922 46.6159 37.0915 46.718 37.0915 46.9223L38.3087 46.3178ZM37.3979 48.4376V49.0503C37.8064 49.8618 38.4136 50.2675 39.2196 50.2675C40.147 49.8701 40.6548 49.4643 40.7431 49.0503L39.8323 48.4376H37.3979ZM42.8629 50.5656H43.1693L43.4756 52.0892V53.9109L46.8126 53L47.119 53.6045V54.5153C47.119 54.9846 45.7003 55.4897 42.8629 56.0306C42.471 55.8319 42.1674 55.7325 41.9521 55.7325V51.4765C41.9521 51.1894 42.2557 50.8858 42.8629 50.5656ZM61.6426 44.8025H61.9407C62.4486 44.8025 62.8543 45.9149 63.1579 48.1395C64.2454 48.1395 64.952 48.5452 65.2777 49.3567C65.2777 49.6879 64.6705 50.0937 63.456 50.5739C63.456 51.3799 63.1552 51.7828 62.5535 51.7828H62.2471C61.673 51.7828 61.2673 49.5582 61.0299 45.1089L61.6426 44.8025ZM57.0885 45.1089H58.6038C59.0067 45.1696 59.2082 45.3711 59.2082 45.7134V46.0197C58.8053 50.8775 58.3002 53.3064 57.6929 53.3064H57.3866C56.9063 52.6992 54.8831 52.1913 51.3171 51.7828C50.9141 51.1259 50.7126 50.6208 50.7126 50.2675L51.019 46.0197H52.5343V49.9612C54.24 50.1654 55.656 50.469 56.7821 50.872L57.6929 47.2287H57.3866C56.818 47.2287 55.402 47.6344 53.1388 48.4459V46.6242C54.2925 45.614 55.6091 45.1089 57.0885 45.1089ZM78.8823 44.5127H79.1803C79.9918 44.5127 80.599 46.7346 81.002 51.1784L80.0912 51.7911H79.7931C79.23 51.7911 78.6228 49.5665 77.9714 45.1172L78.8823 44.5127ZM74.6345 45.1172C74.8387 45.4705 74.9408 45.8735 74.9408 46.3261C74.4937 46.6463 72.3684 47.1514 68.565 47.8414C68.565 48.3493 68.7692 49.6658 69.1777 51.7911C72.2028 51.1839 73.9196 50.8803 74.3281 50.8803L74.9408 51.7911V52.3956C74.9408 52.8758 72.9177 53.2788 68.8714 53.6045H68.565C67.5051 53.6045 66.7985 51.2805 66.4452 46.6325C69.2881 45.6223 72.0179 45.1172 74.6345 45.1172Z" fill="black"/>
</svg>
