<svg width="446" height="377" viewBox="0 0 446 377" fill="none" xmlns="http://www.w3.org/2000/svg">
<g clip-path="url(#clip0_2241_5266)">
<path d="M-76.1019 273.484L-76.1012 273.557L-76.1026 273.629L-80 451.713H294.154V189.715C294.154 87.1403 211.001 3.98669 108.425 3.98669C4.79192 3.98669 -78.7937 88.7991 -77.2833 192.422L-76.1019 273.484Z" fill="#005AFF" stroke="#191919" stroke-width="7.97322"/>
<path d="M155.974 181.289C155.561 183.333 154.585 185.01 153.439 186.084C152.289 187.162 151.105 187.531 150.117 187.378C149.129 187.225 148.162 186.522 147.504 185.164C146.848 183.81 146.588 181.941 147.001 179.897C147.413 177.854 148.389 176.177 149.536 175.102C150.686 174.025 151.869 173.655 152.858 173.808C153.845 173.962 154.813 174.665 155.471 176.023C156.127 177.377 156.387 179.246 155.974 181.289Z" fill="#191919" stroke="#191919" stroke-width="3.85539"/>
<path d="M198.698 184.35C198.521 186.21 197.791 187.791 196.847 188.849C195.903 189.908 194.854 190.349 193.924 190.302C192.993 190.256 192.039 189.716 191.303 188.574C190.569 187.432 190.144 185.793 190.321 183.934C190.497 182.073 191.229 180.492 192.172 179.434C193.116 178.375 194.165 177.934 195.095 177.981C196.025 178.027 196.981 178.567 197.715 179.709C198.45 180.851 198.875 182.489 198.698 184.35Z" fill="#191919" stroke="#191919" stroke-width="3.85539"/>
<path d="M133.568 265.463C138.181 239.784 146.057 231.613 150.524 226.141C166.508 209.33 189.089 222.771 195.386 236.986C201.067 249.811 198.844 275.284 194.586 288.915C186.016 316.347 154.256 321.693 143.214 318.541C126.838 313.865 128.954 291.143 133.568 265.463Z" fill="white" stroke="#191919" stroke-width="6" stroke-linecap="round" stroke-linejoin="round"/>
<path d="M134.86 158.002C139.908 152.874 155.897 148.258 166.753 162.602" stroke="#191919" stroke-width="4.29326" stroke-linecap="round"/>
<path d="M183.312 159.229C187.096 155.163 198.245 151.663 205.215 163.56" stroke="#191919" stroke-width="4.29326" stroke-linecap="round"/>
<path d="M265.833 371.585L287.76 452.634C258.064 456.783 217.296 470.109 211.022 457.14C202.816 440.176 197.045 383.228 192.87 360.363C186.989 342.13 176.969 318.814 180.883 294.775C182.389 285.533 189.267 261.546 225.4 268.986C249.305 273.908 253.782 305.241 253.862 311.973C255.685 317.29 274.117 311.856 265.778 337.586C260.292 354.51 264.248 363.455 265.833 371.585Z" fill="#005AFF" stroke="#191919" stroke-width="6.74655"/>
<path d="M288 106.529C294.191 105.77 306.758 110.017 307.502 133.073" stroke="#191919" stroke-width="5.24652" stroke-linecap="round"/>
<path d="M293.598 81.1945C306.806 88.196 329.257 111.398 313.399 148.185" stroke="#191919" stroke-width="5.24652" stroke-linecap="round"/>
<path d="M306.888 81.1945C320.096 88.1967 342.547 111.398 326.689 148.186" stroke="#191919" stroke-width="5.24652" stroke-linecap="round"/>
<path d="M-4.34546 329.985C7.4889 325.023 34.1266 320.42 46.0027 341.708" stroke="black" stroke-width="6.74655" stroke-linecap="round"/>
<path d="M52.7778 352.661C56.0448 362.917 62.4994 391.096 62.1811 421.761" stroke="black" stroke-width="6.74655" stroke-linecap="round"/>
<path d="M257.786 211.237H339.391C347.741 211.237 354.509 204.468 354.509 196.118C354.509 187.769 347.741 181 339.391 181H278.978C268.816 181 260.398 189.16 260.832 199.139C261.007 203.169 259.83 206.845 258.654 209.467C258.361 210.119 258.065 210.713 257.786 211.237Z" fill="white" stroke="#191919" stroke-width="5"/>
<path d="M278.227 190.308H278.444C278.697 190.308 279.066 191.19 279.551 192.955C280.433 193.047 280.874 193.268 280.874 193.616C280.726 193.873 280.651 194.168 280.651 194.501H278.227C276.607 194.501 275.797 194.28 275.797 193.839V193.177L276.02 192.738L277.559 192.955H278.227V192.738C277.931 191.78 277.782 191.116 277.782 190.748C277.83 190.455 277.979 190.308 278.227 190.308ZM283.298 192.293H284.182L284.404 193.839H286.39L286.606 194.94V195.163L285.066 195.385C285.066 195.236 284.992 195.163 284.844 195.163C284.695 195.407 284.621 195.774 284.621 196.263H283.96C283.562 196.263 283.27 195.235 283.081 193.177C283.226 192.921 283.298 192.626 283.298 192.293ZM278.444 194.723C280.064 194.723 280.874 195.605 280.874 197.37C280.441 198.4 279.779 198.916 278.889 198.916C277.417 198.667 276.681 197.931 276.681 196.708V196.046L276.898 194.94H277.343C277.487 194.94 277.559 195.014 277.559 195.163L278.444 194.723ZM277.782 196.263V196.708C278.079 197.298 278.52 197.593 279.106 197.593C279.779 197.304 280.148 197.009 280.212 196.708L279.551 196.263H277.782ZM281.752 197.809H281.975L282.197 198.916V200.239L284.621 199.578L284.844 200.017V200.678C284.844 201.019 283.813 201.386 281.752 201.779C281.467 201.634 281.247 201.562 281.09 201.562V198.471C281.09 198.262 281.311 198.042 281.752 197.809ZM295.394 193.622H295.611C295.98 193.622 296.274 194.431 296.495 196.046C297.285 196.046 297.798 196.341 298.035 196.931C298.035 197.172 297.594 197.466 296.712 197.815C296.712 198.4 296.493 198.693 296.056 198.693H295.833C295.416 198.693 295.121 197.077 294.949 193.845L295.394 193.622ZM292.086 193.845H293.187C293.479 193.889 293.626 194.036 293.626 194.284V194.507C293.333 198.036 292.966 199.8 292.525 199.8H292.303C291.954 199.359 290.484 198.99 287.893 198.693C287.6 198.216 287.455 197.849 287.455 197.593L287.677 194.507H288.778V197.37C290.017 197.518 291.045 197.739 291.864 198.031L292.525 195.385H292.303C291.89 195.385 290.861 195.68 289.217 196.269V194.946C290.055 194.212 291.011 193.845 292.086 193.845ZM307.917 193.412H308.134C308.724 193.412 309.165 195.026 309.458 198.254L308.796 198.699H308.579C308.17 198.699 307.729 197.083 307.256 193.851L307.917 193.412ZM304.832 193.851C304.98 194.108 305.055 194.4 305.055 194.729C304.73 194.962 303.186 195.329 300.423 195.83C300.423 196.199 300.571 197.155 300.868 198.699C303.066 198.258 304.313 198.037 304.609 198.037L305.055 198.699V199.138C305.055 199.487 303.585 199.78 300.645 200.017H300.423C299.653 200.017 299.139 198.328 298.883 194.952C300.948 194.218 302.931 193.851 304.832 193.851ZM312.946 189.207C313.315 189.207 313.684 189.941 314.053 191.409H315.154C315.447 191.457 315.593 191.605 315.593 191.854V192.738C313.865 192.882 312.616 192.955 311.845 192.955H310.962C310.669 192.955 310.522 192.809 310.522 192.516V191.854C310.567 191.557 310.713 191.409 310.962 191.409H312.73V191.192C312.433 190.707 312.285 190.266 312.285 189.869C312.285 189.656 312.505 189.436 312.946 189.207ZM317.801 190.97H318.685L318.907 192.071H319.569L321.109 192.293V193.177C321.109 193.47 320.962 193.616 320.669 193.616H319.124C319.124 194.499 318.903 194.94 318.462 194.94C318.021 194.94 317.728 193.837 317.584 191.631C317.728 191.347 317.801 191.126 317.801 190.97ZM310.739 193.839H311.623V194.723C311.623 194.867 311.549 194.94 311.4 194.94C311.597 195.822 311.818 196.263 312.062 196.263H312.507C313.269 196.263 313.71 196.043 313.83 195.601C313.83 195.337 313.169 195.116 311.845 194.94V194.501C311.99 194.216 312.062 193.996 312.062 193.839H313.169C313.967 193.839 314.554 194.206 314.931 194.94V195.601C314.931 196.797 313.975 197.532 312.062 197.809H311.623C311.034 197.516 310.593 197.075 310.3 196.486V195.824C310.3 195.455 310.446 194.794 310.739 193.839ZM318.907 196.263C319.052 196.524 319.124 196.818 319.124 197.147V198.471C318.747 199.209 318.159 199.578 317.361 199.578H315.593C315.3 199.622 315.154 199.768 315.154 200.017C316.774 200.165 317.584 200.385 317.584 200.678V201.34C317.584 201.633 317.435 201.779 317.139 201.779H316.916C314.711 201.779 313.608 201.412 313.608 200.678C313.608 198.914 315.08 198.031 318.023 198.031V197.593H317.801C317.359 197.593 316.772 197.739 316.038 198.031C315.753 197.883 315.533 197.809 315.377 197.809V196.925C315.377 196.484 316.553 196.263 318.907 196.263ZM325.704 193.628H325.921C326.951 193.628 327.467 194.144 327.467 195.174V195.83C327.467 197.338 326.143 198.366 323.496 198.916L323.28 200.017V200.461C323.325 200.754 323.47 200.901 323.719 200.901L326.582 200.461L327.022 201.117V201.562C327.022 202.003 325.775 202.224 323.28 202.224C322.398 201.919 321.957 201.332 321.957 200.461V199.138C321.957 197.991 323.058 197.258 325.259 196.937C325.7 196.371 325.921 195.709 325.921 194.952C324.381 195.244 323.206 195.391 322.396 195.391L322.179 194.952V194.29C322.179 193.849 323.354 193.628 325.704 193.628ZM328.784 195.174H329.229C329.566 195.174 329.933 195.834 330.33 197.153H330.991C331.256 197.153 331.476 196.494 331.653 195.174H332.309C332.782 195.174 333.077 196.788 333.193 200.017L332.531 200.461C331.91 200.461 331.543 199.8 331.43 198.477H330.547C330.254 198.477 330.035 198.918 329.891 199.8H329.229C328.86 199.8 328.64 199.505 328.567 198.916C328.567 198.759 328.64 198.539 328.784 198.254C328.492 196.935 328.345 195.98 328.345 195.391L328.784 195.174ZM337.121 191.421C338.885 191.598 339.767 192.478 339.767 194.062C339.767 195.008 338.885 196.185 337.121 197.593H336.459L336.243 196.492C336.435 196.492 337.169 195.756 338.444 194.284V193.622C338.444 193.258 338.149 193.037 337.56 192.961C337.159 192.961 336.058 193.328 334.257 194.062L334.035 193.622C334.035 192.6 335.064 191.866 337.121 191.421ZM336.904 199.578H338.005C338.591 199.814 338.884 200.327 338.884 201.117V201.779C338.884 201.987 338.442 202.429 337.56 203.102H336.459C335.725 202.733 335.358 202.072 335.358 201.117C335.547 200.091 336.062 199.578 336.904 199.578ZM336.682 201.34V201.562H337.343C337.636 201.562 337.783 201.414 337.783 201.117L337.343 200.901H337.121C336.828 200.945 336.682 201.091 336.682 201.34Z" fill="#191919"/>
<path d="M237 262.808H381.116C393.202 262.808 403 253.01 403 240.924C403 228.838 393.202 219.04 381.116 219.04H268.648C254.087 219.04 241.892 230.829 242.642 245.18C242.934 250.769 240.97 255.869 239.01 259.502C238.318 260.784 237.618 261.899 237 262.808Z" fill="#FFDC27" stroke="#191919" stroke-width="5"/>
<path d="M282.625 236.097H282.896C283.151 236.097 283.418 236.366 283.697 236.904V239.592H285.312C285.748 239.949 286.105 240.128 286.384 240.128V240.664C286.384 241.021 286.205 241.2 285.848 241.2H283.697L283.968 243.888V244.424H283.432C282.781 244.424 282.333 242.813 282.089 239.592C282.089 239.142 282.267 237.976 282.625 236.097ZM275.906 236.361H277.25C278.092 236.361 278.987 238.782 279.937 243.623H279.666C279.318 243.799 279.051 243.888 278.865 243.888C278.503 243.378 277.964 241.587 277.25 238.513L276.714 238.248C275.637 239.678 274.741 241.378 274.026 243.352H273.754C273.397 243.352 273.218 243.173 273.218 242.816V242.008C273.218 240.98 274.114 239.098 275.906 236.361ZM290.378 235.282H291.186C293.159 235.282 294.146 235.999 294.146 237.433C293.631 237.947 292.107 238.933 289.571 240.392C289.571 240.583 289.48 240.852 289.299 241.2L289.842 241.464H291.722L293.066 241.736V242.544C293.066 242.901 292.887 243.08 292.53 243.08H290.107C288.315 242.947 287.419 242.409 287.419 241.464C287.419 240.177 288.854 238.654 291.722 236.897H290.914L287.691 237.161L287.419 236.625V236.089C287.419 235.551 288.406 235.282 290.378 235.282ZM296.833 235.553H297.369C297.829 235.553 298.189 236.358 298.448 237.969C300.421 237.969 301.407 238.238 301.407 238.777V239.313L300.056 239.585H298.176C298.176 240.662 297.638 241.2 296.561 241.2C296.561 240.842 296.382 240.664 296.025 240.664L296.297 238.777V236.089C296.35 235.732 296.529 235.553 296.833 235.553ZM297.64 242.544C298.894 242.828 299.52 243.276 299.52 243.888C298.982 246.937 298.443 248.462 297.905 248.462H296.561C294.588 248.462 293.602 247.564 293.602 245.767C293.602 244.039 294.948 242.965 297.64 242.544ZM295.489 245.503V246.575H297.104L297.64 244.695V244.424C296.206 244.751 295.489 245.111 295.489 245.503ZM305.402 233.13H307.017C309.347 233.13 310.512 233.487 310.512 234.203V235.01C310.321 235.01 310.052 235.101 309.705 235.282C309.117 234.925 308.579 234.746 308.089 234.746H305.674C305.674 235.461 305.583 235.818 305.402 235.818C305.583 236.131 305.674 236.491 305.674 236.897H309.169C309.423 236.897 309.692 237.166 309.976 237.705C309.707 238.42 309.438 238.777 309.169 238.777H305.938C304.963 238.777 304.246 238.42 303.786 237.705V233.938C303.967 233.4 304.506 233.13 305.402 233.13ZM307.553 239.856H310.512C310.919 239.856 311.188 240.304 311.32 241.2C310.728 241.557 310.189 241.736 309.705 241.736H306.21L302.978 242.008C302.621 241.425 302.442 240.978 302.442 240.664C302.996 240.126 304.699 239.856 307.553 239.856ZM308.089 242.816H308.625C310.241 242.816 311.048 243.89 311.048 246.039C310.838 247.116 309.134 247.654 305.938 247.654V247.919C305.761 248.237 305.674 248.597 305.674 248.998H309.705C309.964 248.998 310.233 249.267 310.512 249.805V250.877H307.553C306.427 250.877 305.172 250.608 303.786 250.07V248.998C303.786 247.025 304.951 246.039 307.282 246.039C308.54 245.858 309.169 245.588 309.169 245.231C309.169 244.874 308.987 244.695 308.625 244.695H308.361L305.674 244.967L305.13 244.159V243.616C305.13 243.082 306.116 242.816 308.089 242.816ZM322.055 232.3H322.319C322.579 232.3 322.848 232.57 323.127 233.108V234.996C323.127 236.243 323.308 237.95 323.67 240.113L322.863 240.649C321.962 240.649 321.511 238.765 321.511 234.996V232.844C321.571 232.482 321.751 232.3 322.055 232.3ZM315.858 232.844C317.83 233.382 318.817 234.281 318.817 235.539V236.611C318.817 238.363 317.38 239.71 314.507 240.649C313.073 240.649 312.355 239.572 312.355 237.419C312.355 234.873 313.163 233.436 314.778 233.108C315.092 232.932 315.451 232.844 315.858 232.844ZM313.97 237.69V238.226C314.03 238.588 314.208 238.769 314.507 238.769C316.484 238.358 317.473 237.37 317.473 235.803V235.539C317.292 234.996 316.754 234.724 315.858 234.724H315.322C314.695 234.724 314.245 235.712 313.97 237.69ZM331.101 235.553C331.507 235.911 333.302 236.178 336.483 236.354C337.022 237.01 337.291 237.639 337.291 238.241C336.709 241.486 335.991 243.459 335.14 244.159H334.332V243.352L335.947 238.513C335.766 238.165 335.676 237.896 335.676 237.705H332.989C331.613 237.705 330.805 237.345 330.565 236.625V236.089C330.619 235.732 330.798 235.553 331.101 235.553ZM342.666 235.553H343.202C343.741 235.553 344.191 238.422 344.553 244.159L344.01 244.424H343.746C343.026 244.424 342.666 241.914 342.666 236.897V235.553ZM348.012 237.426H351.242L352.586 237.697V238.505C352.586 238.863 352.408 239.041 352.05 239.041L350.434 238.769C348.281 238.907 347.204 239.088 347.204 239.313C347.204 240.468 347.383 241.814 347.74 243.352H348.283C350.902 242.989 352.337 242.808 352.586 242.808L352.858 243.352V244.424C352.535 244.424 350.829 244.693 347.74 245.231C346.306 244.516 345.589 242.453 345.589 239.041C345.589 237.964 346.396 237.426 348.012 237.426ZM354.738 237.697H355.545C356.01 237.697 356.37 238.953 356.625 241.464H356.889L358.24 241.193L358.776 242V242.272C358.776 242.517 358.147 242.965 356.889 243.616C356.889 244.335 356.71 244.695 356.353 244.695H356.089C355.281 244.695 354.83 242.363 354.738 237.697ZM362.763 237.433C364.129 237.433 364.937 238.329 365.186 240.121V241.2C365.186 242.634 364.109 243.352 361.955 243.352V244.967L363.299 245.231H364.378V246.575C364.378 246.937 364.109 247.118 363.571 247.118C361.799 247.118 360.634 246.58 360.076 245.503V245.231C360.076 242.72 361.062 241.464 363.035 241.464H363.299V239.856C363.299 239.729 363.03 239.46 362.491 239.049L361.955 239.313H360.34C359.983 239.313 359.804 239.134 359.804 238.777V237.969C361.077 237.612 362.063 237.433 362.763 237.433ZM371.369 238.777H372.177C372.891 241.19 373.249 243.52 373.249 245.767L372.441 246.311H372.177C371.863 246.311 371.325 243.978 370.561 239.313L371.369 238.777ZM366.53 240.392C367.235 240.392 368.488 240.662 370.29 241.2V242.272C370.104 242.272 369.837 242.363 369.489 242.544C367.154 242.411 365.986 242.142 365.986 241.736V240.928C366.046 240.571 366.226 240.392 366.53 240.392ZM366.794 243.352H370.833V244.424C370.833 244.962 369.846 245.231 367.874 245.231H366.53C366.168 245.231 365.986 245.052 365.986 244.695V244.159C365.986 243.9 366.256 243.63 366.794 243.352Z" fill="#191919"/>
</g>
<defs>
<clipPath id="clip0_2241_5266">
<rect width="454" height="408.673" fill="white" transform="translate(-8)"/>
</clipPath>
</defs>
</svg>
