<svg width="31" height="38" viewBox="0 0 31 38" fill="none" xmlns="http://www.w3.org/2000/svg">
<g id="Group 73">
<g id="Group 74">
<path id="Vector 36" d="M2.51367 36.2605C1.98119 34.7676 2.00009 31.4958 2.00008 28.6716C2.0001 26.5042 2.00009 25.6721 2.00009 24.217C2.00009 22.3321 2.23294 20.5478 2.51367 18.6959C2.7483 17.1481 2.91314 15.5222 3.30307 14.0189C3.66626 12.6187 4.00902 11.2736 4.50143 9.92369C4.95551 8.67883 5.56051 7.6431 6.1468 6.4958C6.87263 5.0754 8.342 4.00201 9.57544 3.35879C11.2907 2.46432 12.8969 2.01844 14.7636 2.01844C15.5884 2.01844 16.4653 1.93227 17.2792 2.13251C18.0869 2.33124 18.9184 2.88392 19.5998 3.41583C22.2316 5.47013 24.0165 8.16953 25.8235 11.3025C27.0521 13.4327 27.6269 15.5703 28.5462 19.0381C29.0089 20.7834 29 22.2951 29 23.7815C28.5531 27.1765 27.8772 27.7674 26.958 30.1345C25.9453 31.8439 25.1787 32.6892 23.7465 33.7935C22.5201 34.7391 21.2684 35.3361 19.8233 35.5901C15.6553 36.3227 12.2687 32.6584 10.1841 28.6716C9.29607 26.9731 8.50547 24.8425 8.50547 22.8082C8.50547 21.4539 8.17162 17.7818 9.0336 16.7479C10.125 15.4389 11.3025 15.5703 13.5714 15.3866C16.2941 15.3866 17.024 15.5944 18.563 15.6134C20.6552 15.6393 22.898 16.2021 24.0842 18.3361C24.376 18.8612 24.4622 19.2953 24.4622 19.9244C24.4622 20.5731 23.8274 20.9861 23.3277 21.2857C21.0588 21.5126 20.3781 20.7834 16.2941 20.7834C14.1891 20.7834 13.5714 21.2857 9.94117 20.7834C9.26039 20.9173 6.08402 19.2437 5.17646 20.3782" stroke="black" stroke-width="3" stroke-linecap="round"/>
<path id="Vector 37" d="M15.4482 11.3027V12.3254" stroke="black" stroke-width="1.5" stroke-linecap="round"/>
<path id="Vector 38" d="M19.0049 11.8181C19.0049 12.4866 19.0049 11.8959 19.0049 12.553" stroke="black" stroke-width="1.5" stroke-linecap="round"/>
</g>
</g>
</svg>
