<svg width="31" height="28" viewBox="0 0 31 28" fill="none" xmlns="http://www.w3.org/2000/svg">
<path d="M1.42185 26.2319C0.984552 25.1325 1.00007 22.7229 1.00007 20.6429C1.00008 19.0467 1.00007 18.4339 1.00007 17.3622C1.00007 15.974 1.1913 14.6599 1.42185 13.2961C1.61454 12.1562 1.74991 10.9587 2.07013 9.8516C2.3684 8.8204 2.64989 7.82977 3.05428 6.83559C3.42719 5.91878 3.92404 5.156 4.40552 4.31104C5.00161 3.26495 6.20831 2.47443 7.22127 2.00072C8.6299 1.34196 9.94898 1.01358 11.482 1.01358C12.1594 1.01358 12.8795 0.950116 13.5479 1.09759C14.2113 1.24395 14.8941 1.65098 15.4537 2.04272C17.6151 3.55566 19.0809 5.54369 20.5649 7.85106C21.5739 9.41987 22.0459 10.9942 22.8009 13.5481C23.1808 14.8335 23.1735 15.9468 23.1735 17.0415C22.8065 19.5418 22.2515 19.977 21.4965 21.7203C20.6649 22.9792 20.0353 23.6018 18.8592 24.415C17.8519 25.1115 16.824 25.5511 15.6373 25.7382C12.2143 26.2778 9.43308 23.5791 7.72115 20.6429C6.99184 19.392 6.34257 17.8229 6.34257 16.3247C6.34257 15.3273 6.06839 12.6228 6.77629 11.8614C7.67255 10.8974 8.63961 10.9942 10.5029 10.8588C12.7389 10.8588 13.3383 11.0119 14.6022 11.0259C16.3204 11.045 18.1623 11.4594 19.1364 13.0311C19.3761 13.4178 19.4469 13.7375 19.4469 14.2008C19.4469 14.6786 18.9256 14.9827 18.5152 15.2034C16.6519 15.3705 16.0929 14.8335 12.7389 14.8335C11.0102 14.8335 10.5029 15.2034 7.52162 14.8335C6.96254 14.9321 4.35397 13.6995 3.60864 14.535" stroke="#191919" stroke-width="1.90041" stroke-linecap="round"/>
<path d="M11.1387 7.94507V8.70639" stroke="#191919" stroke-width="0.950207" stroke-linecap="round"/>
<path d="M13.7852 7.94507C13.7852 8.44271 13.7852 8.38663 13.7852 8.87576" stroke="#191919" stroke-width="0.950207" stroke-linecap="round"/>
<path d="M25.7051 10.6772L29.5513 9.55149" stroke="#191919" stroke-width="1.14025" stroke-linecap="round"/>
<path d="M25.7207 14.248L27.6044 15.253" stroke="#191919" stroke-width="1.14025" stroke-linecap="round"/>
<path d="M25.7051 12.4006H27.6055" stroke="#191919" stroke-width="1.14025" stroke-linecap="round"/>
</svg>
