<svg width="113" height="113" viewBox="0 0 113 113" fill="none" xmlns="http://www.w3.org/2000/svg">
<g clip-path="url(#clip0_2174_99)">
<path d="M56.5 113C87.7041 113 113 87.7041 113 56.5C113 25.2959 87.7041 0 56.5 0C25.2959 0 0 25.2959 0 56.5C0 87.7041 25.2959 113 56.5 113Z" fill="#F5F5F5"/>
<path d="M55.7407 87.191C55.7407 87.191 79.3286 68.3207 79.3286 47.8779C79.3286 34.8506 68.768 24.29 55.7407 24.29C42.7134 24.29 32.1528 34.8506 32.1528 47.8779C32.1528 68.3207 55.7407 87.191 55.7407 87.191Z" fill="#2F88FF" stroke="#F5F5F5" stroke-width="6.2901" stroke-linejoin="round"/>
<path d="M55.7408 57.313C60.9517 57.313 65.176 53.0887 65.176 47.8779C65.176 42.667 60.9517 38.4427 55.7408 38.4427C50.5299 38.4427 46.3057 42.667 46.3057 47.8779C46.3057 53.0887 50.5299 57.313 55.7408 57.313Z" fill="#43CCF8" stroke="white" stroke-width="6.2901" stroke-linejoin="round"/>
</g>
<defs>
<clipPath id="clip0_2174_99">
<rect width="113" height="113" fill="white"/>
</clipPath>
</defs>
</svg>
