<svg width="75" height="39" viewBox="0 0 75 39" fill="none" xmlns="http://www.w3.org/2000/svg">
<g filter="url(#filter0_d_1455_292)">
<rect y="0.353516" width="67" height="30" rx="15" fill="white"/>
<path d="M28.2519 9.89896L28.7482 9.95079C29.2468 10.0029 29.4188 11.8689 29.2643 15.5489L28.449 15.9721L27.9459 15.9196C27.615 15.885 27.472 15.7006 27.5169 15.3664C27.7235 15.0948 27.852 14.7716 27.9024 14.3967L27.3655 14.5949L23.8777 14.2306C23.803 14.7862 23.4757 15.3405 22.8957 15.8937C22.9013 16.2286 23.0446 16.4107 23.3256 16.4401L27.065 16.8306L28.2823 17.2119L28.1821 17.9572C28.1153 18.454 27.4995 18.6416 26.3346 18.5199L26.1343 20.0104C26.0559 20.5931 26.3111 21.2083 26.8996 21.856L26.7995 22.6012C26.7551 22.931 26.5653 23.0783 26.2298 23.0433L21.2462 22.5228C21.006 22.4977 20.7901 22.2233 20.5985 21.6995L20.6987 20.9542L21.7241 20.814L21.7915 20.3126C22.0922 19.341 22.2762 18.6045 22.3436 18.1031C21.845 18.0511 21.6625 17.5282 21.7961 16.5345L20.3003 16.3783C18.3649 16.1762 17.384 15.3181 17.3578 13.8039L17.3915 13.5532C18.1107 11.1093 19.3587 9.9801 21.1355 10.1657C22.8116 11.8521 23.7086 12.7015 23.8265 12.7138L24.3565 12.515L24.1782 11.9949L24.2447 11.5003C24.2957 11.1209 25.4101 10.9854 27.588 11.0937C27.6997 10.2627 27.921 9.8644 28.2519 9.89896ZM19.8692 12.0464C19.2662 12.7712 18.9389 13.3255 18.8872 13.7094C18.8205 14.2063 19.4421 14.6078 20.7523 14.9141C21.6497 15.0078 22.2858 14.6529 22.6604 13.8493C21.4659 12.7169 20.7848 12.142 20.6171 12.1245L19.8692 12.0464ZM24.091 18.2856C24.0472 18.6108 23.7681 19.4221 23.2536 20.7195L23.723 21.0227L24.4709 21.1008L24.8388 18.3637L24.091 18.2856ZM35.6878 10.4213L37.1835 10.5775C38.566 10.7219 39.2728 11.7209 39.304 13.5745C39.0217 15.6748 37.4316 16.8529 34.5337 17.1091C32.8702 16.9354 32.1611 15.9361 32.4064 14.1114C32.6328 12.4267 33.7266 11.1967 35.6878 10.4213ZM33.9021 14.2676L33.802 15.0128L35.0193 15.3942C36.234 15.521 37.2475 14.8712 38.0598 13.4446C38.1357 12.88 37.6088 12.4059 36.4791 12.0223C36.2661 12 35.7958 12.37 35.0683 13.1322C34.402 13.0626 34.0133 13.441 33.9021 14.2676ZM38.8543 18.8175L39.0385 19.3452L38.8381 20.8357C38.6704 20.8181 38.5978 20.7258 38.6202 20.5587C36.831 20.8757 34.9575 21.0166 32.9996 20.9816L32.6035 20.1845L32.7036 19.4393C32.7486 19.1051 34.5383 18.9553 38.0727 18.9901C38.0952 18.823 38.3557 18.7655 38.8543 18.8175ZM43.804 9.52393L45.5176 9.95709L48.9987 10.3206C49.4973 10.3727 49.6355 11.2253 49.4132 12.8784C49.3106 13.6417 47.823 14.0749 44.9502 14.1779L44.2804 15.3652C44.4481 15.3827 44.5211 15.4728 44.4992 15.6354C46.18 15.646 47.4352 15.6947 48.2646 15.7813L49.2641 15.8857C49.5883 15.9699 49.7316 16.152 49.6939 16.4321L49.6274 16.9266C49.5904 17.2022 48.9768 17.39 47.7867 17.4901L47.3685 18.7037L47.3348 18.9543L49.5784 19.1887C50.077 19.2407 50.282 19.5965 50.1934 20.2559C49.9825 20.5591 49.8653 20.7987 49.8416 20.9749L44.3617 20.4026C44.0308 20.368 43.8875 20.1859 43.9318 19.8562L44.032 19.1109C44.1262 18.7864 44.3138 18.6389 44.5948 18.6682L45.839 18.7981L45.8727 18.5475C45.7526 18.2097 45.7045 17.9528 45.7281 17.7767C45.8913 17.7937 45.9838 17.7209 46.0057 17.5583C43.7226 17.0359 42.6178 16.5015 42.6913 15.9549L42.7915 15.2097C43.0586 13.2224 44.5203 12.3674 47.1764 12.6448L47.7729 11.9514L47.5878 11.4305L45.8136 11.4994L43.8215 11.2914C43.5813 11.2663 43.3654 10.9918 43.1738 10.468L43.2075 10.2174L43.804 9.52393Z" fill="#575757"/>
</g>
<defs>
<filter id="filter0_d_1455_292" x="0" y="0.353516" width="75" height="38" filterUnits="userSpaceOnUse" color-interpolation-filters="sRGB">
<feFlood flood-opacity="0" result="BackgroundImageFix"/>
<feColorMatrix in="SourceAlpha" type="matrix" values="0 0 0 0 0 0 0 0 0 0 0 0 0 0 0 0 0 0 127 0" result="hardAlpha"/>
<feOffset dx="4" dy="4"/>
<feGaussianBlur stdDeviation="2"/>
<feComposite in2="hardAlpha" operator="out"/>
<feColorMatrix type="matrix" values="0 0 0 0 0 0 0 0 0 0 0 0 0 0 0 0 0 0 0.05 0"/>
<feBlend mode="normal" in2="BackgroundImageFix" result="effect1_dropShadow_1455_292"/>
<feBlend mode="normal" in="SourceGraphic" in2="effect1_dropShadow_1455_292" result="shape"/>
</filter>
</defs>
</svg>
