<svg width="73" height="38" viewBox="0 0 73 38" fill="none" xmlns="http://www.w3.org/2000/svg">
<g filter="url(#filter0_d_2174_21)">
<rect y="0.409851" width="65.1694" height="29.1803" rx="14.5902" fill="white"/>
<path d="M26.3651 8.42549L26.1733 14.91L24.726 14.91L24.7624 13.6791L21.9948 13.6791C21.4328 14.2247 20.6236 14.542 19.6969 14.542C17.9576 14.542 16.6965 13.3999 16.7441 11.7883C16.7914 10.1894 18.1201 9.04729 19.8594 9.04729C20.7861 9.04729 21.5639 9.36454 22.094 9.89751L24.8743 9.89751L24.9178 8.42549L26.3651 8.42549ZM18.1152 11.7883C18.0867 12.7527 18.7673 13.3491 19.7321 13.3491C20.697 13.3491 21.4256 12.7527 21.4541 11.7883C21.4822 10.8365 20.7889 10.2401 19.8241 10.2401C18.8593 10.2401 18.1434 10.8365 18.1152 11.7883ZM18.0535 19.8843L18.0873 18.7423L19.7377 18.7423L19.8026 16.5469L18.2792 16.5469L18.3129 15.4049L26.2475 15.4049L26.2137 16.5469L24.6903 16.5469L24.6254 18.7423L26.2884 18.7423L26.2547 19.8843L18.0535 19.8843ZM21.1468 18.7423L23.2035 18.7423L23.2684 16.5469L21.2118 16.5469L21.1468 18.7423ZM22.7454 11.0523C22.8021 11.2807 22.8327 11.5345 22.8252 11.7883C22.8177 12.0421 22.7721 12.2959 22.7019 12.5243L24.7966 12.5243L24.8401 11.0523L22.7454 11.0523ZM33.608 9.05998C36.0455 9.05998 37.8727 10.3797 37.8138 12.372C37.7549 14.3643 35.85 15.6713 33.4125 15.6713C30.975 15.6713 29.1474 14.3643 29.2064 12.372C29.2653 10.3797 31.1705 9.05998 33.608 9.05998ZM28.0695 18.6154L28.1048 17.4225L38.6546 17.4225L38.6194 18.6154L28.0695 18.6154ZM30.6028 12.372C30.5642 13.6791 31.7585 14.5039 33.447 14.5039C35.1355 14.5039 36.3786 13.6791 36.4173 12.372C36.4563 11.0523 35.262 10.2274 33.5735 10.2274C31.885 10.2274 30.6419 11.0523 30.6028 12.372ZM50.3306 17.5494L50.296 18.7169L39.7462 18.7169L39.7808 17.5494L44.313 17.5494L44.3697 15.6333L41.0816 15.6333L41.1942 11.8263L47.8465 11.8263L47.8897 10.367L41.2246 10.367L41.2588 9.21226L49.3457 9.21226L49.235 12.9557L42.5826 12.9557L42.5376 14.4785L49.4566 14.4785L49.4224 15.6333L45.8042 15.6333L45.7476 17.5494L50.3306 17.5494Z" fill="#393939"/>
</g>
<defs>
<filter id="filter0_d_2174_21" x="0" y="0.409851" width="72.9509" height="36.9618" filterUnits="userSpaceOnUse" color-interpolation-filters="sRGB">
<feFlood flood-opacity="0" result="BackgroundImageFix"/>
<feColorMatrix in="SourceAlpha" type="matrix" values="0 0 0 0 0 0 0 0 0 0 0 0 0 0 0 0 0 0 127 0" result="hardAlpha"/>
<feOffset dx="3.89071" dy="3.89071"/>
<feGaussianBlur stdDeviation="1.94536"/>
<feComposite in2="hardAlpha" operator="out"/>
<feColorMatrix type="matrix" values="0 0 0 0 0 0 0 0 0 0 0 0 0 0 0 0 0 0 0.05 0"/>
<feBlend mode="normal" in2="BackgroundImageFix" result="effect1_dropShadow_2174_21"/>
<feBlend mode="normal" in="SourceGraphic" in2="effect1_dropShadow_2174_21" result="shape"/>
</filter>
</defs>
</svg>
