<svg width="176" height="185" viewBox="0 0 176 185" fill="none" xmlns="http://www.w3.org/2000/svg">
<g clip-path="url(#clip0_2364_9052)">
<path d="M24.187 24.887C26.5758 24.887 28.302 27.084 28.302 30.5365C28.302 34.0238 26.5758 36.2208 24.187 36.2208C21.7633 36.2208 20.0371 34.0238 20.0371 30.5365C20.0371 27.084 21.7633 24.887 24.187 24.887ZM21.9377 30.5365C21.9377 33.0124 22.8444 34.4423 24.187 34.4423C25.5122 34.4423 26.4189 33.0124 26.4189 30.5365C26.4189 28.0953 25.5122 26.6655 24.187 26.6655C22.8444 26.6655 21.9377 28.0953 21.9377 30.5365ZM30.3596 39.7256V23.7362H32.3474V29.9087H34.771V31.5303H32.3474V39.7256H30.3596ZM41.9898 26.4912C41.9898 28.479 43.3498 30.4319 45.8432 31.2514L44.8493 32.7858C43.036 32.2104 41.7282 30.9898 41.0133 29.4554C40.3159 31.1119 38.9732 32.4371 37.0726 33.0648L36.0613 31.5303C38.642 30.676 39.9671 28.601 39.9671 26.4912V26.3168H36.6018V24.7475H45.3201V26.3168H41.9898V26.4912ZM38.3455 35.7326V34.1459H49.1737V39.7256H47.1859V35.7326H38.3455ZM47.1859 33.3961V23.7188H49.1737V33.3961H47.1859ZM69.7138 23.7188V39.7256H67.8307V23.7188H69.7138ZM55.8867 34.9653C59.1823 32.995 60.6992 30.4842 60.9782 27.2584H56.7063V25.6716H62.9311C62.9311 27.2061 62.7393 28.6707 62.3209 30.0134H64.4829V24.1024H66.3316V38.9758H64.4829V31.6001H61.6757C60.7515 33.431 59.2694 35.0351 57.0201 36.3603L55.8867 34.9653ZM78.0662 27.5548C78.0662 30.5016 79.5654 33.4484 82.1639 34.5818L80.9957 36.1685C79.1649 35.3141 77.8391 33.6053 77.0899 31.5129C76.375 33.7622 74.997 35.6105 73.0795 36.5172L71.8934 34.8956C74.5264 33.7099 76.0785 30.6411 76.0785 27.5548V25.0265H78.0662V27.5548ZM83.2799 39.7604V23.7188H85.2503V39.7604H83.2799ZM100.821 24.3814V25.445C100.821 26.4912 100.821 27.8164 100.507 29.4903H102.6V31.0595H88.1096V29.4903H98.5191C98.8329 28.0256 98.8852 26.9096 98.8852 25.9506H89.9054V24.3814H100.821ZM89.7485 33.8843V32.3499H100.821V36.6741H91.7361V38.0517H101.222V39.586H89.7836V35.192H98.8507V33.8843H89.7485ZM117.333 23.7188V39.7604H115.363V23.7188H117.333ZM104.64 30.5365C104.64 27.084 106.4 24.887 108.79 24.887C111.196 24.887 112.939 27.084 112.939 30.5365C112.939 34.0238 111.196 36.2208 108.79 36.2208C106.4 36.2208 104.64 34.0238 104.64 30.5365ZM106.54 30.5365C106.54 33.0124 107.464 34.4423 108.79 34.4423C110.132 34.4423 111.039 33.0124 111.039 30.5365C111.039 28.0953 110.132 26.6655 108.79 26.6655C107.464 26.6655 106.54 28.0953 106.54 30.5365ZM127.83 33.0996V34.8433H129.888V33.0996H131.719V38.1737C133.584 37.3716 134.438 35.7849 134.438 34.233V32.995H136.392V34.233C136.392 35.9069 137.228 37.5286 139.164 38.2086L138.187 39.6732C136.793 39.1501 135.886 38.1911 135.38 36.988C134.857 38.1562 133.968 39.1327 132.625 39.6732L131.719 38.3132V39.5512H125.999V33.0996H127.83ZM124.43 28.1128C124.43 25.9158 126.209 24.3639 128.597 24.3639C130.69 24.3639 132.311 25.5322 132.695 27.2933H135.52V23.7362H137.508V32.2104H135.52V28.88H132.712C132.346 30.6585 130.707 31.8442 128.597 31.8442C126.209 31.8442 124.43 30.3098 124.43 28.1128ZM126.313 28.1128C126.313 29.3856 127.272 30.2226 128.597 30.2226C129.94 30.2226 130.899 29.3856 130.899 28.1128C130.899 26.8225 129.94 26.0029 128.597 26.0029C127.272 26.0029 126.313 26.8225 126.313 28.1128ZM127.83 38.0342H129.888V36.2906H127.83V38.0342ZM144.587 24.887C146.732 24.887 148.353 26.7004 148.632 29.6123H151.614V23.7188H153.584V39.7604H151.614V31.1991H148.649C148.44 34.3028 146.801 36.2208 144.587 36.2208C142.216 36.2208 140.524 34.0238 140.524 30.5365C140.524 27.084 142.216 24.887 144.587 24.887ZM142.39 30.5365C142.39 33.0124 143.279 34.4423 144.587 34.4423C145.894 34.4423 146.784 33.0124 146.784 30.5365C146.784 28.0953 145.894 26.6655 144.587 26.6655C143.279 26.6655 142.39 28.0953 142.39 30.5365ZM170.794 36.1859V37.8076H156.304V36.1859H159.617V32.1058C158.362 31.3734 157.612 30.2401 157.612 28.8277C157.612 26.2645 160.105 24.608 163.523 24.608C166.94 24.608 169.434 26.2645 169.434 28.8277C169.434 30.2401 168.684 31.356 167.446 32.1058V36.1859H170.794ZM159.547 28.8277C159.547 30.4842 161.169 31.5129 163.523 31.5129C165.877 31.5129 167.498 30.4842 167.498 28.8277C167.498 27.1712 165.877 26.1424 163.523 26.1424C161.169 26.1424 159.547 27.1712 159.547 28.8277ZM161.587 36.1859H165.476V32.8555C164.865 32.9776 164.22 33.0473 163.523 33.0473C162.843 33.0473 162.18 32.9776 161.587 32.8555V36.1859ZM172.52 38.2609V35.8198H174.944V38.2609H172.52Z" fill="#DBDBDB"/>
<mask id="mask0_2364_9052" style="mask-type:luminance" maskUnits="userSpaceOnUse" x="0" y="38" width="166" height="147">
<path d="M165.159 38.8984H0V184.514H165.159V38.8984Z" fill="white"/>
</mask>
<g mask="url(#mask0_2364_9052)">
<path d="M41.8056 118.07C44.1129 85.5003 72.3861 60.9676 104.956 63.2748C137.526 65.5817 162.059 93.8558 159.752 126.425L153.572 213.657L35.6265 205.302L41.8056 118.07Z" stroke="#EBEBEB" stroke-width="2.46241"/>
<path d="M76.9964 120.666C76.0067 120.659 75.2256 119.273 75.2511 117.57C75.2772 115.867 76.1005 114.492 77.0902 114.498C78.0798 114.505 78.8616 115.891 78.8355 117.593C78.8094 119.297 77.9861 120.672 76.9964 120.666Z" fill="#EBEBEB"/>
<path d="M64.1814 119.451C63.19 119.444 62.4062 118.127 62.4308 116.509C62.4555 114.89 63.2794 113.583 64.2707 113.59C65.2623 113.596 66.0466 114.914 66.0218 116.532C65.9969 118.151 65.173 119.457 64.1814 119.451Z" fill="#EBEBEB"/>
<path d="M105.202 149.02C104.466 148.917 103.559 148.791 102.515 148.648C99.5663 148.242 95.5145 147.692 91.1062 147.117C82.3017 145.969 72.0332 144.714 66.2908 144.307C57.4025 143.677 45.7786 143.483 37.0796 143.436C31.639 143.407 27.7404 138.126 29.3582 132.953C30.497 129.311 34.055 126.985 37.8476 127.403L95.598 133.775C99.919 134.252 103.264 137.765 103.165 141.99C103.118 144.052 103.941 146.322 104.701 147.985C104.87 148.355 105.04 148.703 105.202 149.02Z" fill="#EEEEEE"/>
<path d="M77.7661 108.83C77.5894 108.439 77.585 108.037 78.9802 109.557C80.3761 111.077 82.0494 111.212 82.7113 111.09" stroke="#EBEBEB" stroke-width="1.75886" stroke-linecap="round" stroke-linejoin="round"/>
<path d="M61.3058 107.155C60.9799 106.898 60.8029 106.545 62.7003 107.194C64.5978 107.842 66.148 107.131 66.6862 106.694" stroke="#EBEBEB" stroke-width="1.75886" stroke-linecap="round" stroke-linejoin="round"/>
<path d="M62.9134 197.255C61.2125 206.024 58.4172 209.767 55.5679 211.18C52.7098 212.599 49.4818 211.84 46.3944 210.682C43.3062 209.522 40.5139 208.019 38.7976 204.927C37.064 201.802 36.2271 196.687 37.9355 187.879C39.6711 178.931 41.8374 167.785 45.1857 159.487C46.8615 155.333 48.7895 152.01 51.0178 150.025C53.191 148.089 55.5952 147.458 58.4037 148.495C61.4641 149.963 63.4942 152.477 64.7954 155.8C66.1232 159.191 66.6798 163.407 66.7008 168.099C66.7429 177.487 64.6495 188.305 62.9134 197.255Z" stroke="#EBEBEB" stroke-width="2.46241"/>
<path d="M93.6105 192.567C95.0248 200.875 93.9835 205.533 92.1929 208.246C90.4144 210.94 87.6858 212.041 84.9004 212.743C82.1169 213.445 79.5034 213.692 77.2231 212.063C74.8902 210.397 72.6163 206.564 71.1956 198.221C69.7543 189.756 67.962 179.207 68.0006 170.407C68.0199 166 68.5005 162.162 69.6351 159.288C70.7409 156.487 72.4104 154.717 74.8552 154.08C77.652 153.663 80.003 154.636 82.0672 156.709C84.1772 158.828 85.943 162.064 87.4358 165.998C90.4221 173.866 92.1687 184.1 93.6105 192.567Z" stroke="#EBEBEB" stroke-width="2.46241"/>
</g>
</g>
<defs>
<clipPath id="clip0_2364_9052">
<rect width="176" height="184.928" fill="white"/>
</clipPath>
</defs>
</svg>
