<svg width="1440" height="536" viewBox="0 0 1440 536" fill="none" xmlns="http://www.w3.org/2000/svg">
<g clip-path="url(#clip0_2197_177)">
<path d="M1414 0H-27V536H1414V0Z" fill="white"/>
<mask id="mask0_2197_177" style="mask-type:luminance" maskUnits="userSpaceOnUse" x="-26" y="0" width="1504" height="474">
<path d="M1478 0H-26V474H1478V0Z" fill="white"/>
</mask>
<g mask="url(#mask0_2197_177)">
<path d="M804.633 141.056L822.777 110.624H828.393V140H833.769V144.848H828.393V152.672H822.777V144.848H804.633V141.056ZM822.777 140V119.504L810.633 140H822.777ZM850.529 153.152C848.673 153.152 846.977 152.912 845.441 152.432C843.905 151.984 842.577 151.248 841.457 150.224C840.369 149.232 839.521 147.92 838.913 146.288C838.305 144.656 838.001 142.656 838.001 140.288V123.008C838.001 120.672 838.305 118.688 838.913 117.056C839.521 115.392 840.369 114.064 841.457 113.072C842.577 112.048 843.905 111.312 845.441 110.864C846.977 110.384 848.673 110.144 850.529 110.144C852.385 110.144 854.081 110.384 855.617 110.864C857.153 111.312 858.465 112.048 859.553 113.072C860.641 114.064 861.489 115.392 862.097 117.056C862.705 118.688 863.009 120.672 863.009 123.008V140.288C863.009 142.656 862.705 144.656 862.097 146.288C861.489 147.92 860.641 149.232 859.553 150.224C858.465 151.248 857.153 151.984 855.617 152.432C854.081 152.912 852.385 153.152 850.529 153.152ZM850.529 148.304C852.929 148.304 854.609 147.632 855.569 146.288C856.561 144.944 857.057 142.912 857.057 140.192V123.104C857.057 120.384 856.561 118.352 855.569 117.008C854.609 115.664 852.929 114.992 850.529 114.992C848.129 114.992 846.433 115.664 845.441 117.008C844.449 118.352 843.953 120.384 843.953 123.104V140.192C843.953 142.912 844.449 144.944 845.441 146.288C846.433 147.632 848.129 148.304 850.529 148.304ZM868.008 141.056L886.152 110.624H891.768V140H897.144V144.848H891.768V152.672H886.152V144.848H868.008V141.056ZM886.152 140V119.504L874.008 140H886.152ZM944.326 147.776V152.672H916.438V110.624H943.51V115.52H922.39V128.432H942.742V133.328H922.39V147.776H944.326ZM955.124 126.08C955.892 124.736 956.82 123.808 957.908 123.296C959.028 122.784 960.1 122.528 961.124 122.528C962.596 122.528 963.748 122.672 964.58 122.96C965.412 123.216 966.148 123.504 966.788 123.824L965.3 128.384C964.692 128.096 964.084 127.872 963.476 127.712C962.9 127.52 962.228 127.424 961.46 127.424C960.596 127.424 959.844 127.6 959.204 127.952C958.564 128.272 958.004 128.72 957.524 129.296C957.076 129.84 956.692 130.48 956.372 131.216C956.084 131.952 955.86 132.72 955.7 133.52V152.672H949.94V123.056H954.308L955.124 126.08ZM976.731 126.08C977.501 124.736 978.431 123.808 979.521 123.296C980.641 122.784 981.711 122.528 982.731 122.528C984.201 122.528 985.361 122.672 986.191 122.96C987.021 123.216 987.761 123.504 988.401 123.824L986.911 128.384C986.301 128.096 985.691 127.872 985.081 127.712C984.511 127.52 983.841 127.424 983.071 127.424C982.201 127.424 981.451 127.6 980.811 127.952C980.171 128.272 979.611 128.72 979.131 129.296C978.681 129.84 978.301 130.48 977.981 131.216C977.691 131.952 977.471 132.72 977.311 133.52V152.672H971.55V123.056H975.921L976.731 126.08ZM1016.05 143.168C1016.05 144.992 1015.72 146.544 1015.05 147.824C1014.41 149.104 1013.56 150.128 1012.5 150.896C1011.45 151.696 1010.23 152.272 1008.85 152.624C1007.48 152.976 1006.07 153.152 1004.63 153.152C1003.19 153.152 1001.78 152.976 1000.41 152.624C999.031 152.272 997.801 151.696 996.711 150.896C995.651 150.128 994.791 149.104 994.121 147.824C993.481 146.544 993.161 144.992 993.161 143.168V132.56C993.161 130.736 993.481 129.184 994.121 127.904C994.791 126.624 995.651 125.6 996.711 124.832C997.801 124.032 999.031 123.456 1000.41 123.104C1001.78 122.752 1003.19 122.576 1004.63 122.576C1006.07 122.576 1007.48 122.752 1008.85 123.104C1010.23 123.456 1011.45 124.032 1012.5 124.832C1013.56 125.6 1014.41 126.624 1015.05 127.904C1015.72 129.184 1016.05 130.736 1016.05 132.56V143.168ZM998.921 142.88C998.921 144.064 999.081 145.04 999.401 145.808C999.721 146.544 1000.15 147.12 1000.69 147.536C1001.24 147.984 1001.85 148.288 1002.52 148.448C1003.19 148.608 1003.89 148.688 1004.63 148.688C1005.33 148.688 1006.02 148.608 1006.69 148.448C1007.4 148.288 1008.01 147.984 1008.52 147.536C1009.06 147.12 1009.49 146.544 1009.81 145.808C1010.13 145.04 1010.29 144.064 1010.29 142.88V132.848C1010.29 131.664 1010.13 130.704 1009.81 129.968C1009.49 129.2 1009.06 128.608 1008.52 128.192C1008.01 127.744 1007.4 127.44 1006.69 127.28C1006.02 127.12 1005.33 127.04 1004.63 127.04C1003.89 127.04 1003.19 127.12 1002.52 127.28C1001.85 127.44 1001.24 127.744 1000.69 128.192C1000.15 128.608 999.721 129.2 999.401 129.968C999.081 130.704 998.921 131.664 998.921 132.848V142.88ZM1027.73 126.08C1028.5 124.736 1029.43 123.808 1030.52 123.296C1031.64 122.784 1032.71 122.528 1033.73 122.528C1035.2 122.528 1036.36 122.672 1037.19 122.96C1038.02 123.216 1038.76 123.504 1039.4 123.824L1037.91 128.384C1037.3 128.096 1036.69 127.872 1036.08 127.712C1035.51 127.52 1034.84 127.424 1034.07 127.424C1033.2 127.424 1032.45 127.6 1031.81 127.952C1031.17 128.272 1030.61 128.72 1030.13 129.296C1029.68 129.84 1029.3 130.48 1028.98 131.216C1028.69 131.952 1028.47 132.72 1028.31 133.52V152.672H1022.55V123.056H1026.92L1027.73 126.08Z" fill="#191919"/>
<path d="M811.536 196.526L810.942 203.984C811.822 203.94 812.614 203.852 813.164 203.764L813.384 205.524C810.26 205.964 807.07 206.14 803.66 206.162L803.352 204.292C803.99 204.292 804.738 204.292 805.508 204.27L805.002 196.57L807.136 196.328L807.488 204.204L808.852 204.138H808.918L809.336 196.372L811.536 196.526ZM816.552 209.792H814.396V200.64H812.196V198.77H814.396V191.554H816.552V209.792ZM820.182 210.738H818.026V191.136H820.182V210.738ZM812.812 195.25H803.792V193.446H812.812V195.25ZM838.821 210.738H836.577V191.136H838.821V210.738ZM823.267 199.518C823.267 195.382 825.137 192.654 828.283 192.654C831.429 192.654 833.255 195.382 833.255 199.54C833.255 203.654 831.429 206.382 828.283 206.382C825.137 206.382 823.267 203.654 823.267 199.518ZM831.121 199.518C831.121 196.372 829.955 194.502 828.283 194.502C826.633 194.502 825.489 196.372 825.489 199.518C825.489 202.664 826.633 204.556 828.283 204.556C829.955 204.556 831.121 202.664 831.121 199.518ZM853.984 204.358L852.664 206.008C850.838 204.996 848.462 202.488 847.824 200.464C847.318 202.576 845.338 205.172 843.006 206.404L841.576 204.754C844.7 202.994 846.658 199.892 846.658 195.932V194.964H842.566V193.182H852.972V194.964H848.99V195.91C848.99 199.87 851.102 202.796 853.984 204.358ZM857.878 210.738H855.634V191.136H857.878V210.738ZM878.893 200.662H875.989V210.738H873.723V191.136H875.989V198.792H878.893V200.662ZM870.841 193.204C870.687 199.276 867.717 203.962 862.063 207.064L860.655 205.348C865.165 203.28 868.047 199.166 868.421 195.052H861.799V193.204H870.841ZM902.542 198.022L901.552 199.826C898.604 199.43 895.502 197.846 894.446 195.998C893.544 197.912 890.596 199.452 887.362 199.826L886.394 198.066C889.672 197.846 892.884 196.284 893.258 193.886H887.23V192.06H901.662V193.886H895.678C896.118 196.284 899.726 197.868 902.542 198.022ZM903.29 203.39H885.58V201.564H893.28V198.748H895.524V201.564H903.29V203.39ZM901.288 210.188H887.846V204.556H890.112V208.384H901.288V210.188ZM921.137 210.738H918.981V200.816H917.045V209.814H914.911V191.532H917.045V198.924H918.981V191.136H921.137V210.738ZM914.317 204.512L912.997 206.14C911.677 205.304 909.961 203.214 909.433 201.344C908.993 203.28 907.299 205.524 905.605 206.58L904.197 205.062C906.793 203.346 908.355 200.508 908.355 196.614V195.25H904.901V193.446H913.767V195.25H910.555V196.548C910.555 200.442 912.117 203.236 914.317 204.512ZM933.902 202.664C933.902 205.018 932.032 206.844 929.238 206.844C926.422 206.844 924.53 205.084 924.53 202.664C924.53 200.332 926.422 198.484 929.238 198.484C932.032 198.484 933.902 200.266 933.902 202.664ZM931.68 202.664C931.68 201.278 930.646 200.332 929.238 200.332C927.808 200.332 926.796 201.278 926.796 202.664C926.796 204.028 927.808 204.996 929.238 204.996C930.756 204.996 931.68 204.028 931.68 202.664ZM934.892 197.538H923.496V195.712H934.892V197.538ZM926.268 194.128V192.28H932.208V194.128H926.268ZM938.874 191.136V199.188H941.91V201.08H938.874V210.738H936.608V191.136H938.874ZM954.939 204.358L953.619 206.008C951.793 204.996 949.417 202.488 948.779 200.464C948.273 202.576 946.293 205.172 943.961 206.404L942.531 204.754C945.655 202.994 947.613 199.892 947.613 195.932V194.964H943.521V193.182H953.927V194.964H949.945V195.91C949.945 199.87 952.057 202.796 954.939 204.358ZM958.833 210.738H956.589V191.136H958.833V210.738ZM977.73 196.68C977.73 199.298 975.57 201.168 972.714 201.168C969.854 201.168 967.698 199.386 967.698 196.68C967.698 194.04 969.854 192.016 972.714 192.016C975.57 192.016 977.73 193.974 977.73 196.68ZM975.49 196.68C975.49 195.162 974.43 193.93 972.714 193.93C971.02 193.93 969.964 195.14 969.964 196.658C969.964 198.132 971.042 199.254 972.714 199.254C974.43 199.254 975.49 198.132 975.49 196.68ZM975.4 209.726C973.946 210.1 971.834 210.408 969.414 210.386V203.016H971.57V208.582C972.714 208.56 974.06 208.296 975.09 208.01L975.4 209.726ZM981.82 203.104H977.33V201.432H981.82V203.104ZM984.48 205.392H974.72V203.764H984.48V205.392ZM983.14 208.428C983.14 210.034 981.49 210.936 979.51 210.936C977.55 210.936 975.9 210.034 975.9 208.428C975.9 206.778 977.55 205.876 979.51 205.876C981.49 205.876 983.14 206.778 983.14 208.428ZM981.1 208.428C981.1 207.768 980.39 207.46 979.51 207.46C978.7 207.46 977.97 207.79 977.97 208.428C977.97 209.066 978.7 209.374 979.51 209.374C980.39 209.374 981.1 209.088 981.1 208.428ZM985.58 197.164H982.72V200.706H980.46V191.136H982.72V195.316H985.58V197.164ZM1002.68 210.738H1000.44V200.772H996.44V198.88H1000.44V191.136H1002.68V210.738ZM996.44 193.204C996.3 199.276 993.33 204.05 987.7 207.13L986.29 205.414C990.76 203.346 993.64 199.166 994.02 195.052H987.39V193.204H996.44ZM1023.81 200.574H1020.77V210.738H1018.53V191.136H1020.77V198.704H1023.81V200.574ZM1017.08 204.842C1014.72 205.414 1010.85 205.7 1008.39 205.722L1006.36 205.744V193.138H1008.58V203.83C1011.14 203.83 1014.55 203.588 1016.77 202.994L1017.08 204.842ZM1025.27 210.892L1025.6 205.986H1028.06L1027.09 210.892H1025.27ZM1051.11 191.136V198.792H1054.06V200.684H1051.11V210.738H1048.84V191.136H1051.11ZM1047.61 204.248L1046.27 205.942C1044.6 204.864 1042.31 202.356 1041.6 200.2C1040.92 202.532 1038.96 204.996 1036.81 206.294L1035.42 204.644C1038.48 202.664 1040.42 199.43 1040.42 195.69V192.83H1042.73V195.558C1042.73 199.32 1044.73 202.444 1047.61 204.248ZM1070.58 195.096C1070.58 196.372 1069.77 197.406 1068.27 198.066V200.596H1072.63V202.4H1054.92V200.596H1059.21V198.022C1057.76 197.362 1056.99 196.35 1056.99 195.096C1056.99 192.918 1059.45 191.4 1063.76 191.4C1068.12 191.4 1070.58 192.918 1070.58 195.096ZM1070.58 207.13C1070.58 209.396 1068.08 210.716 1063.79 210.716C1059.5 210.716 1056.99 209.396 1056.99 207.13C1056.99 204.908 1059.5 203.566 1063.76 203.566C1068.08 203.566 1070.58 204.908 1070.58 207.13ZM1068.25 195.096C1068.25 193.886 1066.58 193.116 1063.76 193.116C1060.97 193.116 1059.3 193.886 1059.3 195.096C1059.3 196.328 1060.97 197.076 1063.76 197.076C1066.51 197.076 1068.25 196.328 1068.25 195.096ZM1068.25 207.152C1068.25 206.008 1066.49 205.348 1063.76 205.348C1061.04 205.348 1059.3 206.008 1059.3 207.152C1059.3 208.318 1061.04 208.912 1063.76 208.912C1066.51 208.912 1068.25 208.318 1068.25 207.152ZM1063.79 198.814C1062.95 198.814 1062.16 198.792 1061.45 198.66V200.596H1066.03V198.682C1065.35 198.792 1064.6 198.814 1063.79 198.814ZM1085.17 195.602H1073.8V193.864H1085.17V195.602ZM1084.1 199.232C1084.1 201.146 1082.14 202.246 1079.5 202.246C1076.9 202.246 1074.9 201.146 1074.9 199.232C1074.9 197.406 1076.86 196.262 1079.5 196.262C1082.12 196.262 1084.1 197.406 1084.1 199.232ZM1081.92 199.232C1081.92 198.396 1080.77 197.89 1079.5 197.89C1078.22 197.89 1077.06 198.396 1077.06 199.232C1077.06 200.156 1078.24 200.618 1079.5 200.618C1080.77 200.618 1081.92 200.156 1081.92 199.232ZM1076.64 192.852V191.114H1082.38V192.852H1076.64ZM1092.06 197.604H1089.18V202.202H1086.91V191.136H1089.18V195.712H1092.06V197.604ZM1089.84 210.672H1076.57V206.162H1086.91V204.952H1076.48V203.214H1089.18V207.768H1078.82V208.956H1089.84V210.672ZM1108.71 210.76H1106.47V203.632H1098.77V201.85H1116.48V203.632H1108.71V210.76ZM1115.73 198.088L1114.7 199.914C1111.79 199.43 1108.63 197.516 1107.64 195.338C1106.78 197.516 1103.59 199.408 1100.62 199.936L1099.63 198.088C1103.1 197.692 1106.47 195.382 1106.47 192.566V191.576H1108.85V192.566C1108.85 195.382 1112.56 197.78 1115.73 198.088ZM1137.47 197.428H1134.54V195.536H1137.47V191.136H1139.71V201.74H1137.47V197.428ZM1132.6 210.474H1125.7V202.862H1127.83V205.04H1130.47V202.84H1132.6V210.474ZM1130.47 208.78V206.712H1127.83V208.78H1130.47ZM1141.43 209.22L1140.15 210.782C1138.94 210.254 1137.42 208.626 1137.18 207.548C1136.92 208.736 1135.57 210.188 1134.25 210.87L1132.89 209.352C1135.07 208.45 1136.08 206.448 1136.08 204.116V202.73H1138.26V204.116C1138.26 206.228 1139.25 208.274 1141.43 209.22ZM1128.73 191.906C1131.59 191.906 1133.77 193.864 1133.77 196.526C1133.77 199.144 1131.59 200.992 1128.73 200.992C1126 200.992 1123.74 199.21 1123.74 196.526C1123.74 193.908 1125.89 191.906 1128.73 191.906ZM1128.73 193.82C1127.21 193.82 1125.96 195.03 1125.96 196.504C1125.96 197.956 1127.15 199.1 1128.73 199.1C1130.43 199.1 1131.53 197.868 1131.53 196.504C1131.53 195.03 1130.45 193.82 1128.73 193.82ZM1160.33 202.73H1142.62V200.904H1160.33V202.73ZM1158.15 198.506H1145.02V191.774H1147.28V196.702H1158.15V198.506ZM1158.28 210.21H1144.91V204.446H1147.17V208.406H1158.28V210.21ZM1175.31 196.526L1174.72 203.984C1175.6 203.94 1176.39 203.852 1176.94 203.764L1177.16 205.524C1174.03 205.964 1170.84 206.14 1167.43 206.162L1167.13 204.292C1167.76 204.292 1168.51 204.292 1169.28 204.27L1168.78 196.57L1170.91 196.328L1171.26 204.204L1172.63 204.138H1172.69L1173.11 196.372L1175.31 196.526ZM1180.33 209.792H1178.17V200.64H1175.97V198.77H1178.17V191.554H1180.33V209.792ZM1183.96 210.738H1181.8V191.136H1183.96V210.738ZM1176.59 195.25H1167.57V193.446H1176.59V195.25ZM1202.59 210.738H1200.35V191.136H1202.59V210.738ZM1187.04 199.518C1187.04 195.382 1188.91 192.654 1192.06 192.654C1195.2 192.654 1197.03 195.382 1197.03 199.54C1197.03 203.654 1195.2 206.382 1192.06 206.382C1188.91 206.382 1187.04 203.654 1187.04 199.518ZM1194.89 199.518C1194.89 196.372 1193.73 194.502 1192.06 194.502C1190.41 194.502 1189.26 196.372 1189.26 199.518C1189.26 202.664 1190.41 204.556 1192.06 204.556C1193.73 204.556 1194.89 202.664 1194.89 199.518ZM1217.76 204.358L1216.44 206.008C1214.61 204.996 1212.24 202.488 1211.6 200.464C1211.09 202.576 1209.11 205.172 1206.78 206.404L1205.35 204.754C1208.47 202.994 1210.43 199.892 1210.43 195.932V194.964H1206.34V193.182H1216.75V194.964H1212.76V195.91C1212.76 199.87 1214.88 202.796 1217.76 204.358ZM1221.65 210.738H1219.41V191.136H1221.65V210.738ZM1240.69 210.496H1227.88V202.686H1230.15V204.732H1238.44V202.642H1240.69V210.496ZM1238.44 208.67V206.536H1230.15V208.67H1238.44ZM1240.66 201.608H1238.42V191.136H1240.66V201.608ZM1235.12 196.658C1235.12 199.408 1232.96 201.102 1230.1 201.102C1227.27 201.102 1225.09 199.408 1225.09 196.658C1225.09 193.974 1227.27 192.016 1230.1 192.016C1232.96 192.016 1235.12 193.908 1235.12 196.658ZM1232.88 196.614C1232.88 194.898 1231.69 193.886 1230.1 193.886C1228.54 193.886 1227.35 194.942 1227.35 196.614C1227.35 198.264 1228.56 199.232 1230.1 199.232C1231.64 199.232 1232.88 198.264 1232.88 196.614ZM1259.63 210.738H1257.39V191.136H1259.63V210.738ZM1255.59 203.214L1255.85 205.062C1253.45 205.656 1249.23 206.008 1246.76 206.03H1244.72V193.16H1246.94V204.05C1249.56 204.138 1253.43 203.698 1255.59 203.214ZM1280.76 200.53H1277.81V210.738H1275.57V191.136H1277.81V198.638H1280.76V200.53ZM1273.74 203.434L1274.03 205.282C1271.89 205.722 1268.75 205.942 1265.47 205.942H1263.4V192.962H1272.31V194.81H1265.62V204.05C1268.04 204.094 1271.23 203.962 1273.74 203.434ZM1282.52 208.318V205.942H1284.94V208.318H1282.52ZM819.808 243.496H807.004V235.686H809.27V237.732H817.564V235.642H819.808V243.496ZM817.564 241.67V239.536H809.27V241.67H817.564ZM819.786 234.608H817.542V224.136H819.786V234.608ZM814.242 229.658C814.242 232.408 812.086 234.102 809.226 234.102C806.388 234.102 804.21 232.408 804.21 229.658C804.21 226.974 806.388 225.016 809.226 225.016C812.086 225.016 814.242 226.908 814.242 229.658ZM811.998 229.614C811.998 227.898 810.81 226.886 809.226 226.886C807.664 226.886 806.476 227.942 806.476 229.614C806.476 231.264 807.686 232.232 809.226 232.232C810.766 232.232 811.998 231.264 811.998 229.614ZM832.815 232.936L833.101 234.696C830.769 235.158 828.789 235.202 825.995 235.202H823.443V229.13H829.779V226.996H823.421V225.236H832.023V230.868H825.687V233.398C827.865 233.398 830.439 233.398 832.815 232.936ZM833.431 228.69V226.864H836.577V224.136H838.821V235.972H836.577V232.826H833.431V231H836.577V228.69H833.431ZM825.533 237.05H838.843V243.782H836.599V238.854H825.533V237.05ZM851.982 235.664C851.982 238.018 850.112 239.844 847.318 239.844C844.502 239.844 842.61 238.084 842.61 235.664C842.61 233.332 844.502 231.484 847.318 231.484C850.112 231.484 851.982 233.266 851.982 235.664ZM849.76 235.664C849.76 234.278 848.726 233.332 847.318 233.332C845.888 233.332 844.876 234.278 844.876 235.664C844.876 237.028 845.888 237.996 847.318 237.996C848.836 237.996 849.76 237.028 849.76 235.664ZM852.972 230.538H841.576V228.712H852.972V230.538ZM844.348 227.128V225.28H850.288V227.128H844.348ZM856.954 224.136V232.188H859.99V234.08H856.954V243.738H854.688V224.136H856.954ZM876.891 238.348H874.647V224.136H876.891V238.348ZM877.331 243.188H863.999V236.984H866.243V241.384H877.331V243.188ZM872.623 233.53L871.303 235.334C869.653 234.652 867.629 232.826 866.793 230.934C866.177 232.98 864.065 235.07 862.129 235.862L860.765 234.058C863.537 232.98 865.605 230.384 865.605 227.348V225.236H867.915V227.26C867.915 230.362 870.313 232.782 872.623 233.53ZM901.64 226.754H895.678C896.074 229.174 899.528 230.956 902.454 231.264L901.442 233.046C898.692 232.65 895.436 230.802 894.446 228.998C893.5 230.912 890.332 232.694 887.45 233.134L886.372 231.352C889.386 231.044 892.862 229.196 893.258 226.754H887.208V224.928H901.64V226.754ZM895.524 243.716H893.28V236.742H885.58V234.938H903.29V236.742H895.524V243.716ZM921.753 233.024L920.587 234.762C917.661 234.014 914.471 231.792 913.459 229.372C912.557 231.814 909.301 234.058 906.331 234.762L905.231 232.936C908.443 232.43 912.315 229.79 912.315 226.424V225.258H914.669V226.424C914.669 229.746 918.805 232.474 921.753 233.024ZM922.325 241.274H904.615V239.448H912.315V234.63H914.559V239.448H922.325V241.274ZM941.778 233.662H938.874V243.738H936.608V224.136H938.874V231.792H941.778V233.662ZM933.726 226.204C933.572 232.276 930.602 236.962 924.948 240.064L923.54 238.348C928.05 236.28 930.932 232.166 931.306 228.052H924.684V226.204H933.726ZM964.767 239.888C964.767 242.198 962.325 243.738 958.079 243.738C953.855 243.738 951.435 242.198 951.435 239.888C951.435 237.534 953.855 235.994 958.079 235.994C962.325 235.994 964.767 237.534 964.767 239.888ZM949.147 227.26V225.39H959.465V227.26H955.549V227.326C955.549 230.252 957.727 232.408 960.015 233.112L958.761 234.894C957.155 234.256 955.219 232.716 954.383 230.89C953.811 232.804 951.699 234.718 949.741 235.466L948.377 233.706C951.127 232.694 953.217 230.34 953.217 227.436V227.26H949.147ZM959.157 230.758V228.888H962.347V224.136H964.613V235.928H962.347V230.758H959.157ZM958.079 237.842C955.373 237.842 953.767 238.59 953.767 239.888C953.767 241.164 955.373 241.912 958.079 241.912C960.851 241.912 962.457 241.164 962.457 239.888C962.457 238.59 960.851 237.842 958.079 237.842ZM979.47 235.004L979.67 236.698C975.95 237.204 971.548 237.38 967.324 237.424L966.994 235.576C968.446 235.576 970.404 235.576 972.142 235.532V234.476C970.118 234.212 968.688 233.266 968.688 231.836C968.688 230.12 970.646 229.086 973.242 229.086C975.86 229.086 977.82 230.12 977.82 231.836C977.82 233.266 976.39 234.212 974.39 234.476V235.422C976.19 235.334 978.32 235.18 979.47 235.004ZM982.88 224.136V230.164H985.69V232.056H982.88V237.226H980.63V224.136H982.88ZM969.766 238.238H982.88V243.804H980.63V240.064H969.766V238.238ZM978.79 228.602H967.742V226.886H978.79V228.602ZM970.558 226.028V224.312H976.04V226.028H970.558ZM975.62 231.836C975.62 231.11 974.69 230.736 973.242 230.736C971.812 230.736 970.866 231.11 970.866 231.836C970.866 232.54 971.834 232.936 973.242 232.936C974.69 232.936 975.62 232.518 975.62 231.836ZM997.73 229.372H986.38V227.59H997.73V229.372ZM996.7 233.53C996.7 235.598 994.72 236.94 992.1 236.94C989.46 236.94 987.46 235.598 987.46 233.53C987.46 231.506 989.44 230.12 992.1 230.12C994.72 230.12 996.7 231.506 996.7 233.53ZM994.54 233.53C994.54 232.496 993.42 231.836 992.1 231.836C990.72 231.836 989.62 232.496 989.62 233.53C989.62 234.586 990.72 235.202 992.1 235.202C993.42 235.202 994.54 234.586 994.54 233.53ZM989.22 226.38V224.576H994.96V226.38H989.22ZM1001.76 224.136V230.274H1004.66V232.144H1001.76V238.634H999.49V224.136H1001.76ZM1002.33 243.21H989.22V237.952H991.49V241.406H1002.33V243.21ZM1017.82 237.358L1016.5 239.008C1014.68 237.996 1012.3 235.488 1011.66 233.464C1011.16 235.576 1009.18 238.172 1006.85 239.404L1005.42 237.754C1008.54 235.994 1010.5 232.892 1010.5 228.932V227.964H1006.41V226.182H1016.81V227.964H1012.83V228.91C1012.83 232.87 1014.94 235.796 1017.82 237.358ZM1021.72 243.738H1019.47V224.136H1021.72V243.738ZM1048.53 233.53H1045.59V243.738H1043.34V224.136H1045.59V231.638H1048.53V233.53ZM1041.52 236.434L1041.8 238.282C1039.67 238.722 1036.52 238.942 1033.24 238.942H1031.18V225.962H1040.09V227.81H1033.4V237.05C1035.82 237.094 1039.01 236.962 1041.52 236.434ZM1065.57 243.738H1063.32V224.136H1065.57V243.738ZM1061.37 237.512L1060.02 239.206C1058.35 238.128 1056.26 235.708 1055.54 233.552C1054.88 235.884 1052.92 238.348 1050.76 239.646L1049.38 237.996C1052.41 236.016 1054.35 232.782 1054.35 229.042V225.83H1056.68V228.91C1056.68 232.672 1058.51 235.708 1061.37 237.512ZM1085.43 229.372H1074.08V227.59H1085.43V229.372ZM1084.4 233.53C1084.4 235.598 1082.42 236.94 1079.8 236.94C1077.16 236.94 1075.16 235.598 1075.16 233.53C1075.16 231.506 1077.14 230.12 1079.8 230.12C1082.42 230.12 1084.4 231.506 1084.4 233.53ZM1082.24 233.53C1082.24 232.496 1081.12 231.836 1079.8 231.836C1078.41 231.836 1077.31 232.496 1077.31 233.53C1077.31 234.586 1078.41 235.202 1079.8 235.202C1081.12 235.202 1082.24 234.586 1082.24 233.53ZM1076.92 226.38V224.576H1082.66V226.38H1076.92ZM1089.46 224.136V230.274H1092.36V232.144H1089.46V238.634H1087.19V224.136H1089.46ZM1090.03 243.21H1076.92V237.952H1079.18V241.406H1090.03V243.21ZM1112.93 231.374H1109.87V229.482H1112.93V224.136H1115.17V238.37H1112.93V231.374ZM1115.64 243.166H1102.39V237.05H1104.66V241.362H1115.64V243.166ZM1108.86 235.136H1099.75V225.368H1102.02V228.558H1106.59V225.346H1108.86V235.136ZM1106.59 233.354V230.34H1102.02V233.354H1106.59ZM1135.83 235.004L1136.03 236.698C1132.31 237.204 1127.91 237.38 1123.69 237.424L1123.36 235.576C1124.81 235.576 1126.77 235.576 1128.51 235.532V234.476C1126.48 234.212 1125.05 233.266 1125.05 231.836C1125.05 230.12 1127.01 229.086 1129.61 229.086C1132.22 229.086 1134.18 230.12 1134.18 231.836C1134.18 233.266 1132.75 234.212 1130.75 234.476V235.422C1132.55 235.334 1134.69 235.18 1135.83 235.004ZM1139.24 224.136V230.164H1142.06V232.056H1139.24V237.226H1137V224.136H1139.24ZM1126.13 238.238H1139.24V243.804H1137V240.064H1126.13V238.238ZM1135.15 228.602H1124.11V226.886H1135.15V228.602ZM1126.92 226.028V224.312H1132.4V226.028H1126.92ZM1131.98 231.836C1131.98 231.11 1131.06 230.736 1129.61 230.736C1128.18 230.736 1127.23 231.11 1127.23 231.836C1127.23 232.54 1128.2 232.936 1129.61 232.936C1131.06 232.936 1131.98 232.518 1131.98 231.836ZM1159.02 238.348H1156.78V224.136H1159.02V238.348ZM1159.49 243.166H1146.07V237.006H1148.31V241.362H1159.49V243.166ZM1153.52 230.384C1153.52 233.178 1151.5 235.18 1148.51 235.18C1145.52 235.18 1143.45 233.178 1143.45 230.406C1143.45 227.612 1145.49 225.588 1148.51 225.588C1151.5 225.588 1153.52 227.59 1153.52 230.384ZM1151.28 230.384C1151.28 228.668 1150.22 227.458 1148.51 227.458C1146.84 227.458 1145.71 228.712 1145.71 230.384C1145.71 231.99 1146.84 233.266 1148.51 233.266C1150.22 233.266 1151.28 231.99 1151.28 230.384ZM1178.46 243.738H1176.3V233.992H1174.36V242.814H1172.23V224.532H1174.36V232.122H1176.3V224.136H1178.46V243.738ZM1170.95 235.488C1170.95 237.776 1169.24 239.294 1166.73 239.294C1164.22 239.294 1162.51 237.644 1162.51 235.488C1162.51 233.134 1164.22 231.638 1166.73 231.638C1169.24 231.638 1170.95 233.178 1170.95 235.488ZM1161.76 230.67V228.8H1171.5V230.67H1161.76ZM1168.89 235.488C1168.89 234.256 1167.98 233.442 1166.73 233.442C1165.48 233.442 1164.57 234.256 1164.57 235.488C1164.57 236.676 1165.48 237.49 1166.73 237.49C1167.98 237.49 1168.89 236.632 1168.89 235.488ZM1164.07 227.48V225.588H1169.37V227.48H1164.07ZM1197.03 226.754H1191.07C1191.46 229.174 1194.92 230.956 1197.84 231.264L1196.83 233.046C1194.08 232.65 1190.82 230.802 1189.83 228.998C1188.89 230.912 1185.72 232.694 1182.84 233.134L1181.76 231.352C1184.77 231.044 1188.25 229.196 1188.65 226.754H1182.6V224.928H1197.03V226.754ZM1190.91 243.716H1188.67V236.742H1180.97V234.938H1198.68V236.742H1190.91V243.716ZM1216.53 243.738H1214.37V224.136H1216.53V243.738ZM1212.65 242.814H1210.54V232.848H1207.73V230.978H1210.54V224.532H1212.65V242.814ZM1209.93 237.314L1208.63 238.876C1207.24 237.996 1205.48 235.928 1204.91 233.882C1204.43 236.016 1202.86 238.194 1200.97 239.382L1199.61 237.842C1201.98 236.28 1203.81 233.178 1203.81 229.152V226.072H1205.99V229.13C1205.99 232.87 1207.64 235.906 1209.93 237.314ZM1235.01 230.494C1235.01 233.464 1232.19 235.532 1227.88 235.532C1223.64 235.532 1220.8 233.464 1220.8 230.494C1220.8 227.546 1223.64 225.456 1227.88 225.456C1232.19 225.456 1235.01 227.546 1235.01 230.494ZM1232.7 230.494C1232.7 228.602 1230.81 227.326 1227.88 227.326C1225 227.326 1223.09 228.602 1223.09 230.494C1223.09 232.386 1225 233.662 1227.88 233.662C1230.79 233.662 1232.7 232.386 1232.7 230.494ZM1236.75 241.252H1219.04V239.448H1223.13V236.038L1225.42 236.016V239.448H1230.3V236.016L1232.57 236.038V239.448H1236.75V241.252ZM1239.48 236.72L1239.2 225.5H1241.73L1241.44 236.72H1239.48ZM1239.26 241.318V238.942H1241.68V241.318H1239.26Z" fill="#393939"/>
<path d="M435.596 3C387.827 3.0001 318.984 32.5043 311.758 123.426V205.681M442.309 396.242C442.309 417.789 436.119 449.377 426.485 459.011C416.851 468.646 412.113 470.117 407.095 469.649C389.968 469.917 352.824 468.164 341.263 459.011C329.702 449.859 328.864 414.454 325.808 393.179C321.659 350.993 313.428 265.879 313.697 262.917" stroke="#393939" stroke-width="6" stroke-linecap="round"/>
<path d="M435.395 3C524.51 3 573.283 62.8114 573.283 123.426C574.407 146.692 575.98 195.042 573.283 202.314M581.713 257.53V299.648C583.92 334.973 561.842 427.099 556.825 448.575C552.81 465.755 541.293 467.975 530.856 468.628C517.985 469.432 502.859 473.005 479.681 465.434C458.743 458.596 468.234 397.252 458.47 397.252L442.309 395.905" stroke="#393939" stroke-width="6" stroke-linecap="round"/>
<path d="M415.684 129.347C415.341 131.045 414.58 132.448 413.701 133.352C412.81 134.268 411.951 134.542 411.302 134.442C410.654 134.341 409.954 133.826 409.476 132.697C409.005 131.583 408.839 130.037 409.182 128.339C409.525 126.641 410.286 125.238 411.165 124.334C412.056 123.418 412.915 123.144 413.564 123.244C414.213 123.345 414.912 123.861 415.39 124.989C415.861 126.103 416.027 127.649 415.684 129.347Z" fill="#191919"/>
<path d="M474.773 130.22C474.621 131.815 474.011 133.178 473.217 134.096C472.422 135.017 471.536 135.405 470.75 135.366C469.964 135.326 469.159 134.854 468.546 133.864C467.934 132.876 467.587 131.465 467.739 129.87C467.89 128.275 468.501 126.912 469.294 125.993C470.089 125.072 470.975 124.685 471.761 124.724C472.547 124.763 473.352 125.234 473.965 126.225C474.577 127.214 474.924 128.624 474.773 130.22Z" fill="#191919"/>
<path d="M391.525 202.672C391.525 202.672 411.882 200.766 444.704 200.556C465.706 200.422 498.439 202.684 498.439 202.684C510.074 202.308 519.177 191.705 518.767 179.002C518.356 166.298 508.588 156.305 496.953 156.681L390.023 160.136C376.042 160.587 365.79 169.947 366.999 185C367.732 194.124 371.929 198.198 377.5 200.556C381.641 202.309 386.96 202.756 391.525 202.672Z" fill="#FFDC27" stroke="#393939" stroke-width="6"/>
<path d="M313.628 261.681C270.102 252.591 220.209 189.484 225.66 173.134C232.059 153.944 246.385 162.401 254.085 165.238C258.32 166.798 260.802 166.441 264.839 170.974C266.753 173.123 272.177 185.601 281.551 192.565C291.946 200.288 299.731 203.436 311.515 205.456" stroke="#393939" stroke-width="6" stroke-linecap="round"/>
<path d="M581.711 255.857C621.981 239.195 658.569 169.349 650.348 154.594C640.699 137.273 628.437 148.022 621.537 152.152C617.742 154.424 615.286 154.532 612.221 159.631C610.768 162.049 607.811 175.052 600.049 183.462C591.439 192.789 584.513 197.235 573.531 201.321" stroke="#393939" stroke-width="6" stroke-linecap="round"/>
<path d="M203 145.191L219.977 143.647" stroke="#FFD600" stroke-width="6" stroke-linecap="round"/>
<path d="M209.172 107.926L224.472 115.441" stroke="#FFD600" stroke-width="6" stroke-linecap="round"/>
<path d="M248.478 85.0001L247.742 102.031" stroke="#FFD600" stroke-width="6" stroke-linecap="round"/>
<path d="M285.473 106.607L271.699 116.65" stroke="#FFD600" stroke-width="6" stroke-linecap="round"/>
<path d="M293.538 146.441L277.078 142.008" stroke="#FFD600" stroke-width="6" stroke-linecap="round"/>
<path d="M247.317 130C244.501 153.114 259.145 157.736 227.043 214.75C219.506 228.135 216.908 240.945 235.491 259.436C244.942 268.841 262.522 282.242 235.491 324.155C208.459 366.067 230.424 382.709 240.559 396.577C254.077 418.15 292.935 469 198.324 469C103.712 469 11.353 469 -23 469" stroke="#393939" stroke-width="6" stroke-linecap="round"/>
<path d="M681.122 145.915L664.223 144.379" stroke="#FFD600" stroke-width="6" stroke-linecap="round"/>
<path d="M674.98 108.82L659.75 116.302" stroke="#FFD600" stroke-width="6" stroke-linecap="round"/>
<path d="M635.855 86L636.587 102.953" stroke="#FFD600" stroke-width="6" stroke-linecap="round"/>
<path d="M599.027 107.507L612.738 117.505" stroke="#FFD600" stroke-width="6" stroke-linecap="round"/>
<path d="M591 147.159L607.385 142.747" stroke="#FFD600" stroke-width="6" stroke-linecap="round"/>
<path d="M637.533 130.488C640.093 153.532 626.777 158.141 655.968 214.982C662.821 228.327 665.184 241.099 648.287 259.534C639.692 268.91 623.707 282.271 648.287 324.057C672.866 365.843 652.894 382.435 643.677 396.261C631.386 417.769 596.052 468.466 682.083 468.466C768.113 468.466 1443.09 468.466 1474.33 468.466" stroke="#393939" stroke-width="6" stroke-linecap="round"/>
<path d="M258.215 177.739L250.756 177.798C246.726 178.146 240.597 180.119 248.32 185.227L252.987 188.904" stroke="#393939" stroke-width="5" stroke-linecap="round"/>
<path d="M624.624 174.629L630.747 170.17C633.871 167.454 637.782 161.923 628.432 161.53L622.438 160.72" stroke="#393939" stroke-width="5" stroke-linecap="round"/>
</g>
</g>
<defs>
<clipPath id="clip0_2197_177">
<rect width="1440" height="536" fill="white"/>
</clipPath>
</defs>
</svg>
