<svg width="134" height="134" viewBox="0 0 134 134" fill="none" xmlns="http://www.w3.org/2000/svg">
<path d="M0 67C0 29.9969 29.9969 0 67 0C104.003 0 134 29.9969 134 67C134 104.003 104.003 134 67 134C29.9969 134 0 104.003 0 67Z" fill="#E1ECFF"/>
<path d="M55.865 68.1881C55.4085 66.908 55.4247 64.1026 55.4247 61.681C55.4247 59.8226 55.4247 59.1093 55.4247 57.8615C55.4247 56.2453 55.5131 54.7894 55.7538 53.2015C55.955 51.8744 56.2076 50.4062 56.5419 49.1173C56.8533 47.9168 57.1472 46.7634 57.5694 45.6059C57.9588 44.5385 58.4775 43.6505 58.9802 42.6667C59.6026 41.4488 60.8625 40.5285 61.9201 39.977C63.3908 39.21 64.768 38.8277 66.3685 38.8277C67.0758 38.8277 67.8277 38.7538 68.5255 38.9255C69.2181 39.0959 69.931 39.5698 70.5153 40.0259C72.772 41.7873 74.3023 44.1019 75.8518 46.7882C76.9052 48.6147 77.3981 50.4475 78.1863 53.421C78.5829 54.9175 78.5754 56.2136 78.5754 57.4882C78.1922 60.399 77.6127 60.9058 76.8245 62.9354C75.9562 64.4011 75.2989 65.126 74.0708 66.0728C73.0193 66.8836 71.946 67.3954 70.707 67.6132C67.1331 68.2415 64.2293 65.0995 62.442 61.681C61.6805 60.2248 61.0026 58.398 61.0026 56.6536C61.0026 55.4923 60.7164 52.3437 61.4555 51.4573C62.3912 50.3349 63.4009 50.4475 65.3464 50.29C67.6809 50.29 68.3067 50.4682 69.6263 50.4845C71.4203 50.5067 73.3433 50.9893 74.3604 52.819C74.6107 53.2694 74.6845 53.6415 74.6845 54.1809C74.6845 54.7371 74.1402 55.0912 73.7117 55.3482C71.7663 55.5427 71.4781 55.3482 67.9763 55.3482C66.1714 55.3482 65.3464 55.3482 62.2336 54.9175C61.6499 55.0323 58.9264 53.5973 58.1482 54.5699" stroke="#005AFF" stroke-width="2.41006" stroke-linecap="round"/>
<path d="M66.9558 46.7878V47.6647" stroke="#005AFF" stroke-width="1.26277" stroke-linecap="round"/>
<path d="M70.0056 46.7878C70.0056 47.3611 70.0056 47.2965 70.0056 47.86" stroke="#005AFF" stroke-width="1.26277" stroke-linecap="round"/>
<path d="M53.5039 86.319V87.7545H48.6504V91.4049H46.8867V87.7545H42.0742V86.319H53.5039ZM42.6621 84.2682C45.2734 83.9674 46.6543 82.7233 46.8457 81.5885H43.0996V80.194H46.8867V78.7721H48.6504V80.194H52.4512V81.5885H48.6914C48.8828 82.6959 50.291 83.9674 52.875 84.2682L52.2598 85.6491C50.1133 85.403 48.582 84.5143 47.7754 83.3659C46.9551 84.5143 45.4238 85.3893 43.2773 85.6491L42.6621 84.2682ZM59.2598 81.7116C59.2598 83.1608 60.1895 84.61 62.2129 85.2252L61.3789 86.6061C59.9707 86.1823 58.9863 85.3209 58.4121 84.2409C57.8652 85.4166 56.8809 86.36 55.4316 86.8112L54.5703 85.4303C56.5938 84.7877 57.5098 83.2565 57.5098 81.7116V81.6432H54.9941V80.2487H57.5098V78.8405H59.2734V80.2487H61.7754V81.6432H59.2598V81.7116ZM56.8809 91.1588V87.3307H58.6582V89.7506H65.5078V91.1588H56.8809ZM61.3789 83.8717V82.4362H63.4297V78.7584H65.207V88.11H63.4297V83.8717H61.3789ZM70.9902 79.2643C72.8223 79.2643 74.1484 80.3034 74.1484 81.8209C74.1484 83.0788 73.2461 84.0084 71.8926 84.2819V85.2389C72.877 85.1842 73.875 85.1022 74.791 84.9655L74.9141 86.2233C72.3438 86.7018 69.4863 86.7428 67.3809 86.7428L67.1758 85.3346C68.0508 85.3346 69.0625 85.3346 70.1289 85.3073V84.2955C68.7617 84.0221 67.8457 83.0924 67.8457 81.8209C67.8457 80.3034 69.1582 79.2643 70.9902 79.2643ZM68.8438 91.1588V87.5768H70.6074V89.7506H77.6621V91.1588H68.8438ZM69.4863 81.8209C69.4863 82.6002 70.1016 83.0514 70.9902 83.0514C71.8789 83.0514 72.4941 82.6002 72.4941 81.8209C72.4941 81.0416 71.8789 80.5905 70.9902 80.5905C70.1016 80.5905 69.4863 81.0416 69.4863 81.8209ZM75.4609 88.3971V78.7584H77.2246V82.737H78.8379V84.1862H77.2246V88.3971H75.4609ZM91.252 88.5475V89.983H79.8086V88.5475H82.7207V86.5788H81.1348V82.3541H88.2031V80.9733H81.1074V79.5651H89.9531V83.735H82.8848V85.1705H90.2402V86.5788H88.4492V88.5475H91.252ZM84.457 88.5475H86.7266V86.5788H84.457V88.5475Z" fill="#005AFF"/>
</svg>
