<svg width="134" height="134" viewBox="0 0 134 134" fill="none" xmlns="http://www.w3.org/2000/svg">
<path d="M0 67C0 29.9969 29.9969 0 67 0C104.003 0 134 29.9969 134 67C134 104.003 104.003 134 67 134C29.9969 134 0 104.003 0 67Z" fill="#E1ECFF"/>
<path d="M55.8652 68.188C55.4087 66.9079 55.4249 64.1025 55.4249 61.6809C55.4249 59.8225 55.4249 59.1092 55.4249 57.8614C55.4249 56.2452 55.5133 54.7893 55.7541 53.2014C55.9552 51.8743 56.2078 50.4061 56.5421 49.1172C56.8535 47.9167 57.1474 46.7633 57.5696 45.6058C57.959 44.5384 58.4777 43.6504 58.9804 42.6666C59.6028 41.4487 60.8627 40.5284 61.9203 39.9768C63.391 39.2099 64.7682 38.8276 66.3688 38.8276C67.076 38.8276 67.8279 38.7537 68.5257 38.9254C69.2183 39.0958 69.9312 39.5697 70.5155 40.0258C72.7722 41.7872 74.3025 44.1017 75.852 46.7881C76.9054 48.6146 77.3983 50.4474 78.1865 53.4209C78.5832 54.9174 78.5756 56.2135 78.5756 57.4881C78.1924 60.3989 77.6129 60.9057 76.8247 62.9353C75.9564 64.401 75.2991 65.1259 74.071 66.0727C73.0195 66.8835 71.9462 67.3953 70.7073 67.613C67.1333 68.2414 64.2296 65.0994 62.4422 61.6809C61.6807 60.2247 61.0028 58.3978 61.0028 56.6535C61.0028 55.4922 60.7166 52.3436 61.4557 51.4572C62.3914 50.3348 63.4011 50.4474 65.3466 50.2899C67.6811 50.2899 68.3069 50.4681 69.6265 50.4844C71.4205 50.5066 73.3435 50.9892 74.3606 52.8189C74.6109 53.2692 74.6847 53.6414 74.6847 54.1808C74.6847 54.737 74.1404 55.0911 73.7119 55.3481C71.7665 55.5426 71.4783 55.3481 67.9765 55.3481C66.1716 55.3481 65.3466 55.3481 62.2339 54.9174C61.6501 55.0322 58.9266 53.5972 58.1484 54.5698" stroke="#005AFF" stroke-width="2.41006" stroke-linecap="round"/>
<path d="M66.9561 46.7876V47.6645" stroke="#005AFF" stroke-width="1.26277" stroke-linecap="round"/>
<path d="M70.0059 46.7876C70.0059 47.3608 70.0059 47.2963 70.0059 47.8597" stroke="#005AFF" stroke-width="1.26277" stroke-linecap="round"/>
<path d="M53.5123 80.6782V81.7837C53.5123 83.2409 53.5123 84.8741 53.0475 87.3363L51.4269 87.1604C51.8541 84.9494 51.8792 83.3289 51.8792 81.9721H45.108V80.6782H53.5123ZM44.0276 89.8739V88.5549H47.7713V84.56H49.3918V88.5549H54.5299V89.8739H44.0276ZM61.4769 80.7661V88.4544H55.9369V80.7661H61.4769ZM57.5323 87.173H59.8815V82.0475H57.5323V87.173ZM63.0347 91.2935V79.6857H64.6678V84.0701H66.3638V85.4142H64.6678V91.2935H63.0347ZM76.9539 79.6732V91.2809H75.3208V88.7182H72.9842V87.4871H75.3208V79.6732H76.9539ZM67.1049 85.5901C69.2531 85.5901 72.1048 85.5776 74.5922 85.2384L74.6676 86.4192C73.65 86.5951 72.6073 86.7082 71.5897 86.7836V90.9417H69.9692V86.8589C69.0144 86.8966 68.1099 86.8966 67.2934 86.8966L67.1049 85.5901ZM67.8964 82.5374C67.8964 81.1304 69.1401 80.1631 70.8611 80.1631C72.5696 80.1631 73.8007 81.1304 73.8007 82.5374C73.8007 83.9444 72.5696 84.9117 70.8611 84.9117C69.1401 84.9117 67.8964 83.9444 67.8964 82.5374ZM69.4164 82.5374C69.4164 83.2661 70.0069 83.6806 70.8611 83.6806C71.6902 83.6806 72.2807 83.2661 72.2807 82.5374C72.2807 81.8214 71.6902 81.3817 70.8611 81.3817C70.0069 81.3817 69.4164 81.8214 69.4164 82.5374ZM89.2149 88.6177V89.9367H78.7001V88.6177H81.0242V85.7409C80.1448 85.2007 79.6172 84.3841 79.6172 83.3666C79.6172 81.4696 81.4513 80.2511 83.9387 80.2511C86.4386 80.2511 88.2728 81.4696 88.2728 83.3666C88.2728 84.3841 87.7451 85.2007 86.8658 85.7409V88.6177H89.2149ZM81.2126 83.3666C81.2126 84.5223 82.3056 85.2132 83.9387 85.2132C85.5844 85.2132 86.6773 84.5223 86.6773 83.3666C86.6773 82.1982 85.5844 81.5199 83.9387 81.5199C82.3056 81.5199 81.2126 82.1982 81.2126 83.3666ZM82.6448 88.6177H85.2452V86.3439C84.8432 86.4318 84.4035 86.4695 83.9387 86.4695C83.4864 86.4695 83.0468 86.4318 82.6448 86.3564V88.6177Z" fill="#005AFF"/>
</svg>
