<svg width="27" height="27" viewBox="0 0 27 27" fill="none" xmlns="http://www.w3.org/2000/svg">
<path d="M3 6.625C3 5.17715 4.17715 4 5.625 4H21.375C22.8229 4 24 5.17715 24 6.625V19.75C24 21.1979 22.8229 22.375 21.375 22.375H5.625C4.17715 22.375 3 21.1979 3 19.75V6.625ZM16.2809 10.9932C16.0963 10.7225 15.7928 10.5625 15.4688 10.5625C15.1447 10.5625 14.8371 10.7225 14.6566 10.9932L11.0883 16.2268L10.0014 14.8691C9.8127 14.6354 9.52969 14.5 9.23438 14.5C8.93906 14.5 8.65195 14.6354 8.46738 14.8691L5.84238 18.1504C5.60449 18.4457 5.55938 18.8518 5.72344 19.1922C5.8875 19.5326 6.23203 19.75 6.60938 19.75H20.3906C20.7557 19.75 21.092 19.549 21.2602 19.225C21.4283 18.901 21.4078 18.5113 21.2027 18.2119L16.2809 10.9932ZM7.59375 10.5625C8.11589 10.5625 8.61665 10.3551 8.98587 9.98587C9.35508 9.61665 9.5625 9.11589 9.5625 8.59375C9.5625 8.07161 9.35508 7.57085 8.98587 7.20163C8.61665 6.83242 8.11589 6.625 7.59375 6.625C7.07161 6.625 6.57085 6.83242 6.20163 7.20163C5.83242 7.57085 5.625 8.07161 5.625 8.59375C5.625 9.11589 5.83242 9.61665 6.20163 9.98587C6.57085 10.3551 7.07161 10.5625 7.59375 10.5625Z" fill="#959595"/>
</svg>
