<svg width="33" height="59" viewBox="0 0 33 59" fill="none" xmlns="http://www.w3.org/2000/svg">
<path id="Vector 41" d="M6.8668 58.4066C6.05037 58.2662 5.50237 57.4905 5.64281 56.6741C5.78325 55.8576 6.55895 55.3096 7.37539 55.4501L6.8668 58.4066ZM11.6416 56.4865L12.3219 57.8233L11.6416 56.4865ZM17.2465 49.266L18.5853 49.9424L18.5496 50.0131L18.5066 50.0796L17.2465 49.266ZM13.3623 24.8418L13.0485 26.3086L13.3623 24.8418ZM2.35622 31.1329L1.21238 32.1032L1.01527 31.8709L0.924431 31.5801L2.35622 31.1329ZM10.0991 35.12V36.62H9.92958L9.76429 36.5822L10.0991 35.12ZM21.5359 9.5161L22.8228 8.74547L21.5359 9.5161ZM18.19 4.31293L16.8673 5.02051L18.19 4.31293ZM16.7082 2.70468L15.5985 3.71392L16.7082 2.70468ZM15.6643 3.88101H17.1643V4.18069L17.0491 4.45736L15.6643 3.88101ZM14.2684 12.7223L15.7684 12.7226C15.7682 13.551 15.0965 14.2224 14.2681 14.2223C13.4397 14.2221 12.7683 13.5504 12.7684 12.722L14.2684 12.7223ZM16.2446 2.70458L14.922 1.99701L14.9974 1.85618L15.1007 1.73437L16.2446 2.70458ZM31.6652 3.39422C32.4077 3.76161 32.7118 4.66136 32.3444 5.40387C31.977 6.14637 31.0773 6.45047 30.3348 6.08307L31.6652 3.39422ZM7.37539 55.4501C7.88073 55.537 8.72272 55.5057 9.58244 55.3948C9.9913 55.3421 10.3633 55.2768 10.6467 55.2154C10.9997 55.139 11.0552 55.1018 10.9612 55.1496L12.3219 57.8233C12.0174 57.9783 11.5862 58.0815 11.2817 58.1474C10.9075 58.2285 10.4512 58.3076 9.96615 58.3702C9.03811 58.4899 7.83036 58.5724 6.8668 58.4066L7.37539 55.4501ZM10.9612 55.1496C11.874 54.6851 12.7376 53.716 13.61 52.3974C14.034 51.7564 14.4308 51.0799 14.8243 50.4001C15.2085 49.7365 15.6018 49.0479 15.9863 48.4524L18.5066 50.0796C18.1719 50.5981 17.8237 51.2069 17.4206 51.9032C17.0269 52.5833 16.5906 53.3293 16.112 54.0526C15.1792 55.4627 13.9597 56.9898 12.3219 57.8233L10.9612 55.1496ZM15.9076 48.5895C18.7468 42.9703 19.6057 37.3885 19.6057 31.1329H22.6057C22.6057 37.6867 21.7022 43.7734 18.5853 49.9424L15.9076 48.5895ZM19.6057 31.1329C19.6057 29.9691 18.9137 28.9652 17.5833 28.0856C16.2531 27.2061 14.5161 26.6226 13.0485 26.3086L13.6762 23.375C15.346 23.7323 17.4807 24.4213 19.2378 25.5831C20.9947 26.7447 22.6057 28.5506 22.6057 31.1329H19.6057ZM13.0485 26.3086C11.9312 26.0695 10.4124 25.7223 8.81606 25.7591C7.24268 25.7953 5.75648 26.2031 4.60254 27.345L2.49234 25.2126C4.37542 23.3491 6.71371 22.8067 8.74702 22.7599C10.7574 22.7136 12.6275 23.1506 13.6762 23.375L13.0485 26.3086ZM4.60254 27.345C3.81792 28.1215 3.59766 28.6017 3.53 28.9444C3.45719 29.3131 3.5057 29.7818 3.78801 30.6857L0.924431 31.5801C0.611134 30.577 0.361834 29.5027 0.586828 28.3632C0.816978 27.1977 1.49013 26.2044 2.49234 25.2126L4.60254 27.345ZM3.50006 30.1625C5.52629 32.5509 7.80666 33.0562 10.434 33.6579L9.76429 36.5822C7.17461 35.9891 3.95103 35.3315 1.21238 32.1032L3.50006 30.1625ZM10.0991 33.62C11.7684 33.62 12.9386 33.5549 13.971 33.2503C14.9539 32.9602 15.9001 32.4238 17.0154 31.3202L19.1256 33.4526C17.7193 34.8442 16.3549 35.6747 14.8202 36.1276C13.3348 36.5659 11.7802 36.62 10.0991 36.62V33.62ZM17.0154 31.3202C19.8955 28.47 21.3264 24.5255 21.3264 20.4427H24.3264C24.3264 25.211 22.6523 29.9625 19.1256 33.4526L17.0154 31.3202ZM21.3264 20.4427C21.3264 18.5455 21.4693 16.8196 21.38 14.9249C21.2941 13.1036 20.9904 11.5249 20.249 10.2867L22.8228 8.74547C23.9405 10.6119 24.282 12.7773 24.3766 14.7835C24.4678 16.7163 24.3264 18.9015 24.3264 20.4427H21.3264ZM20.249 10.2867C19.765 9.47853 19.1896 8.65121 18.5802 7.75535C17.987 6.88333 17.365 5.95077 16.8673 5.02051L19.5126 3.60536C19.9264 4.37893 20.465 5.19228 21.0607 6.06805C21.6402 6.91999 22.282 7.84233 22.8228 8.74547L20.249 10.2867ZM16.8673 5.02051C16.819 4.93018 16.7082 4.78934 16.4573 4.54767C16.2761 4.37307 15.8694 4.01182 15.5985 3.71392L17.8179 1.69545C18.0074 1.90378 18.1767 2.03835 18.5387 2.38715C18.8312 2.6689 19.231 3.07906 19.5126 3.60536L16.8673 5.02051ZM15.5985 3.71392C15.5097 3.61624 15.8672 4.07136 16.5495 3.91284C16.8506 3.8429 17.0394 3.68124 17.1281 3.58566C17.213 3.49423 17.2446 3.42412 17.2449 3.42359C17.248 3.41687 17.2402 3.43274 17.2274 3.47742C17.2153 3.51973 17.2031 3.57254 17.1925 3.63225C17.182 3.6914 17.1745 3.74886 17.1698 3.79806C17.1674 3.8223 17.166 3.84252 17.1652 3.85802C17.1643 3.87405 17.1643 3.88162 17.1643 3.88101H14.1643C14.1643 3.51665 14.2408 2.75967 14.532 2.14275C14.6529 1.88682 15.0254 1.18704 15.8706 0.990675C16.8231 0.769384 17.5097 1.35651 17.8179 1.69545L15.5985 3.71392ZM17.0491 4.45736C16.4278 5.95044 16.1252 6.73322 15.9616 7.38546C15.8107 7.98702 15.769 8.5149 15.769 9.5161H12.769C12.769 8.42861 12.8117 7.61249 13.0518 6.65544C13.2792 5.74907 13.6743 4.75864 14.2794 3.30465L17.0491 4.45736ZM15.769 9.51637L15.7684 12.7226L12.7684 12.722L12.769 9.51582L15.769 9.51637ZM14.2684 12.7223C12.7684 12.722 12.7684 12.722 12.7684 12.7219C12.7684 12.7219 12.7684 12.7219 12.7684 12.7218C12.7684 12.7218 12.7684 12.7216 12.7684 12.7214C12.7684 12.7211 12.7684 12.7206 12.7684 12.7199C12.7684 12.7185 12.7684 12.7164 12.7684 12.7137C12.7684 12.7082 12.7684 12.7001 12.7684 12.6895C12.7684 12.6683 12.7684 12.6372 12.7684 12.5974C12.7684 12.5179 12.7685 12.404 12.7685 12.2663C12.7686 11.9909 12.7686 11.6204 12.7687 11.2398C12.7688 10.4784 12.769 9.67707 12.769 9.5161H15.769C15.769 9.67745 15.7688 10.4792 15.7687 11.2404C15.7686 11.621 15.7686 11.9915 15.7685 12.2669C15.7685 12.4046 15.7684 12.5185 15.7684 12.598C15.7684 12.6378 15.7684 12.6689 15.7684 12.6901C15.7684 12.7007 15.7684 12.7088 15.7684 12.7143C15.7684 12.717 15.7684 12.7191 15.7684 12.7205C15.7684 12.7212 15.7684 12.7217 15.7684 12.7221C15.7684 12.7222 15.7684 12.7224 15.7684 12.7225C15.7684 12.7225 15.7684 12.7225 15.7684 12.7225C15.7684 12.7226 15.7684 12.7226 14.2684 12.7223ZM12.769 9.5161C12.769 8.33836 13.1027 6.86305 13.5023 5.55681C13.9087 4.22828 14.4365 2.9046 14.922 1.99701L17.5673 3.41216C17.1991 4.10036 16.739 5.23157 16.3711 6.43441C15.9963 7.65954 15.769 8.7921 15.769 9.5161H12.769ZM15.1007 1.73437C16.0751 0.585413 17.4822 0.48304 18.4879 0.501773C19.0181 0.511648 19.5935 0.562803 20.1157 0.60424C20.6601 0.647435 21.1899 0.684367 21.7271 0.684367V3.68437C21.0622 3.68437 20.4309 3.63867 19.8784 3.59484C19.3039 3.54925 18.8468 3.50898 18.4321 3.50125C17.548 3.48479 17.416 3.64252 17.3886 3.6748L15.1007 1.73437ZM21.7271 0.684367C25.478 0.684367 28.7275 1.94063 31.6652 3.39422L30.3348 6.08307C27.5501 4.70521 24.7943 3.68437 21.7271 3.68437V0.684367Z" fill="black"/>
</svg>
