<svg width="289" height="285" viewBox="0 0 289 285" fill="none" xmlns="http://www.w3.org/2000/svg">
<g filter="url(#filter0_d_2174_104)">
<path d="M24 34.7158C24 24.3794 32.3794 16 42.7159 16H253.983C264.319 16 272.699 24.3794 272.699 34.7159V260.258H42.7159C32.3794 260.258 24 251.878 24 241.542V34.7158Z" fill="#F7FAFF"/>
<path d="M55.2696 47.6806C55.2696 50.8032 53.1879 52.95 49.6489 53.8738L49.0894 52.7028C51.8608 52.0133 53.4611 50.5821 53.6953 48.8386H49.753V47.6806H55.2696ZM51.0411 58.7529V54.1861H58.8736V58.7529H51.0411ZM52.4853 57.5819H57.4164V55.344H52.4853V57.5819ZM57.3904 53.6396V46.965H58.8736V53.6396H57.3904ZM65.4962 57.9332C62.8029 57.9332 61.1115 56.0336 61.1115 53.0151C61.1115 49.9966 62.8029 48.084 65.4962 48.084C68.1764 48.084 69.8808 49.9966 69.8808 53.0151C69.8808 56.0336 68.1764 57.9332 65.4962 57.9332ZM62.881 53.0151C62.881 55.24 63.8308 56.515 65.4962 56.515C67.1486 56.515 68.1114 55.24 68.1114 53.0151C68.1114 50.7902 67.1486 49.5152 65.4962 49.5152C63.8308 49.5152 62.881 50.7902 62.881 53.0151ZM75.6967 57.9332C73.0035 57.9332 71.312 56.0336 71.312 53.0151C71.312 49.9966 73.0035 48.084 75.6967 48.084C78.377 48.084 80.0814 49.9966 80.0814 53.0151C80.0814 56.0336 78.377 57.9332 75.6967 57.9332ZM73.0815 53.0151C73.0815 55.24 74.0313 56.515 75.6967 56.515C77.3491 56.515 78.3119 55.24 78.3119 53.0151C78.3119 50.7902 77.3491 49.5152 75.6967 49.5152C74.0313 49.5152 73.0815 50.7902 73.0815 53.0151ZM84.7913 58.6488L83.5683 58.2975L86.9121 47.3814L88.1221 47.7327L84.7913 58.6488ZM102.304 56.3068V57.5039H91.4919V56.3068H96.1238V53.9389H92.4157V52.7809H94.0811V49.1899H92.3637V48.0059H101.367V49.1899H99.6498V52.7809H101.328V53.9389H97.594V56.3068H102.304ZM95.5513 52.7809H98.1795V49.1899H95.5513V52.7809ZM112.791 46.965V50.1137H114.443V51.3237H112.791V54.5764H111.32V46.965H112.791ZM103.462 49.333V48.175H106.246V46.874H107.716V48.175H110.501V49.333H103.462ZM104.073 51.9352C104.073 50.6601 105.257 49.8144 106.988 49.8144C108.705 49.8144 109.889 50.6601 109.889 51.9352C109.889 53.2233 108.705 54.056 106.988 54.056C105.257 54.056 104.073 53.2233 104.073 51.9352ZM104.997 56.7883C104.997 55.4742 106.532 54.6935 108.965 54.6935C111.412 54.6935 112.921 55.4742 112.921 56.7883C112.921 58.1154 111.412 58.896 108.965 58.896C106.532 58.896 104.997 58.1154 104.997 56.7883ZM105.492 51.9352C105.492 52.5987 106.09 52.9761 106.988 52.9761C107.873 52.9761 108.471 52.5987 108.471 51.9352C108.471 51.2716 107.873 50.8943 106.988 50.8943C106.09 50.8943 105.492 51.2716 105.492 51.9352ZM106.467 56.7883C106.467 57.4388 107.365 57.7771 108.965 57.7771C110.566 57.7771 111.477 57.4388 111.477 56.7883C111.477 56.1507 110.566 55.8124 108.965 55.8124C107.365 55.8124 106.467 56.1507 106.467 56.7883ZM119.908 49.8144C119.908 52.0133 121.027 54.2121 122.965 55.0578L122.093 56.2418C120.727 55.6043 119.738 54.3292 119.179 52.7679C118.646 54.4463 117.618 55.8254 116.187 56.502L115.302 55.292C117.266 54.4073 118.424 52.1173 118.424 49.8144V47.9278H119.908V49.8144ZM123.798 58.922V46.952H125.268V58.922H123.798Z" fill="#393939"/>
<path d="M58.7435 76.9648V85.578H57.6896V81.0762H55.3086V80.2175H57.6896V76.9648H58.7435ZM49.1285 83.236C50.8589 82.6245 52.0819 81.0632 52.0819 79.3848V78.7863H49.4537V77.9276H55.738V78.7863H53.1488V79.3718C53.1488 80.8941 54.3068 82.3773 55.9982 82.9758L55.4648 83.8085C54.1507 83.3271 53.1358 82.3513 52.6414 81.1283C52.134 82.4814 51.0541 83.5613 49.6619 84.0818L49.1285 83.236ZM51.2492 88.4534V84.8234H52.3031V87.5817H59.0688V88.4534H51.2492ZM71.6763 82.7677V83.6134H61.0595V82.7677H65.8475V81.4015H62.3996V77.4982H70.3492V78.344H63.4405V80.5428H70.4403V81.4015H66.8753V82.7677H71.6763ZM62.3215 86.5929C62.3215 85.2397 63.8438 84.4721 66.3549 84.4721C68.853 84.4721 70.3753 85.2397 70.3753 86.5929C70.3753 87.946 68.853 88.7006 66.3549 88.7006C63.8438 88.7006 62.3215 87.946 62.3215 86.5929ZM63.3884 86.5929C63.3884 87.4125 64.5073 87.8809 66.3549 87.8809C68.2024 87.8809 69.3083 87.4125 69.3083 86.5929C69.3083 85.7732 68.2024 85.3048 66.3549 85.3048C64.5073 85.3048 63.3884 85.7732 63.3884 86.5929ZM79.2097 77.7064C79.2097 80.751 77.5312 82.9498 73.7711 84.0818L73.3547 83.236C75.3454 82.6506 76.6465 81.7788 77.3751 80.6729L73.4458 80.9722L73.2767 80.1004L77.7915 79.8922C77.9606 79.4759 78.0517 79.0335 78.0907 78.5781H73.8622V77.7064H79.2097ZM75.0071 85.526V84.6672H82.6445V88.7136H81.5906V85.526H75.0071ZM81.5906 84.0297V76.9648H82.6445V84.0297H81.5906ZM95.6424 86.3326V87.2174H84.9865V86.3326H89.7745V83.7955H86.2485V77.7975H87.3024V79.9053H93.3265V77.7975H94.3673V83.7955H90.8154V86.3326H95.6424ZM87.3024 82.9368H93.3265V80.764H87.3024V82.9368ZM106.376 82.5985V83.4702H98.3096V78.0447H106.259V78.9164H99.3635V82.5985H106.376ZM96.9565 87.1133V86.2416H107.612V87.1133H96.9565ZM115.042 77.8625C116.629 77.8625 117.8 79.2547 117.956 81.4536H120.532V76.9518H121.586V88.7266H120.532V82.2993H117.956C117.852 84.6022 116.668 86.0594 115.042 86.0594C113.337 86.0594 112.127 84.4591 112.127 81.961C112.127 79.4629 113.337 77.8625 115.042 77.8625ZM113.129 81.961C113.129 83.8736 113.91 85.1226 115.042 85.1226C116.187 85.1226 116.967 83.8736 116.967 81.961C116.967 80.0484 116.187 78.8123 115.042 78.8123C113.91 78.8123 113.129 80.0484 113.129 81.961ZM133.491 77.3161V78.1488H131.708V80.3997H133.439V81.2194H124.904V80.3997H126.647V78.1488H124.865V77.3161H133.491ZM123.876 83.0669V82.2082H134.506V83.0669H123.876ZM125.164 84.8884V84.1078H133.14V86.6709H126.231V87.7768H133.491V88.5835H125.19V85.9163H132.099V84.8884H125.164ZM127.701 80.3997H130.655V78.1488H127.701V80.3997ZM145.838 76.9518V88.7136H144.823V76.9518H145.838ZM136.002 82.026C136.002 79.5149 136.978 77.9406 138.5 77.9406C139.918 77.9406 140.868 79.3068 140.985 81.5316H142.495V77.212H143.496V88.1281H142.495V82.4033H140.985C140.894 84.7063 139.944 86.1245 138.5 86.1245C136.978 86.1245 136.002 84.5501 136.002 82.026ZM136.965 82.026C136.965 83.9386 137.563 85.1356 138.5 85.1356C139.437 85.1356 140.035 83.9386 140.035 82.026C140.035 80.1264 139.437 78.9294 138.5 78.9294C137.563 78.9294 136.965 80.1264 136.965 82.026ZM151.927 80.0874C151.927 82.2212 153.268 84.368 154.959 85.1747L154.334 86.0204C153.02 85.3438 151.927 83.9516 151.407 82.2863C150.887 84.0297 149.794 85.526 148.48 86.2286L147.816 85.3828C149.52 84.5371 150.861 82.2732 150.861 80.0874V77.9796H151.927V80.0874ZM153.697 81.8179V80.9591H156.442V76.9518H157.496V88.7266H156.442V81.8179H153.697ZM172.732 76.9518V88.7136H171.717V82.6245H170.039V88.1151H169.05V77.225H170.039V81.7528H171.717V76.9518H172.732ZM163.351 85.6691V78.383H164.405V84.7453C165.537 84.7323 166.786 84.6542 168.191 84.368L168.308 85.2918C166.708 85.591 165.355 85.6691 164.093 85.6691H163.351ZM181.566 77.5113C183.31 77.5113 184.559 78.4871 184.559 79.9313C184.559 81.3625 183.31 82.3513 181.566 82.3513C179.823 82.3513 178.574 81.3625 178.574 79.9313C178.574 78.4871 179.823 77.5113 181.566 77.5113ZM177.702 83.3401C179.888 83.3401 182.867 83.3141 185.456 82.9238L185.535 83.7174C184.429 83.9126 183.271 84.0427 182.152 84.1208V88.3493H181.098V84.1728C179.927 84.2249 178.808 84.2379 177.832 84.2379L177.702 83.3401ZM179.589 79.9313C179.589 80.842 180.408 81.4666 181.566 81.4666C182.724 81.4666 183.544 80.842 183.544 79.9313C183.544 79.0205 182.724 78.383 181.566 78.383C180.408 78.383 179.589 79.0205 179.589 79.9313ZM186.302 88.7266V76.9648H187.343V88.7266H186.302ZM199.313 76.9518V88.7136H198.246V76.9518H199.313ZM189.919 85.63C191.65 84.8234 192.964 82.8327 192.964 80.764V79.8532H190.231V79.0075H192.951V77.173H194.018V79.0075H196.698V79.8532H194.005V80.764C194.005 82.7416 195.358 84.6542 197.101 85.4219L196.516 86.2416C195.176 85.63 194.044 84.355 193.51 82.7937C192.977 84.4461 191.858 85.7992 190.505 86.4497L189.919 85.63ZM210.685 76.9518V81.7398H212.571V82.6115H210.685V88.7136H209.631V76.9518H210.685ZM201.733 85.6691C204.739 84.1468 206.365 81.8829 206.599 79.0986H202.28V78.2269H207.666C207.666 81.5576 206.118 84.5762 202.319 86.4758L201.733 85.6691ZM226.272 76.9648V84.0167H225.218V82.4424H222.134V81.5837H225.218V79.9963H222.264C221.51 81.8829 219.701 83.2491 217.19 84.0037L216.774 83.158C219.584 82.3383 221.328 80.751 221.523 78.7083H217.372V77.8495H222.668C222.668 78.3049 222.616 78.7343 222.525 79.1376H225.218V76.9648H226.272ZM218.569 86.3977C218.569 84.9925 220.078 84.1468 222.459 84.1468C224.827 84.1468 226.337 84.9925 226.337 86.3977C226.337 87.8159 224.827 88.6616 222.459 88.6616C220.078 88.6616 218.569 87.8159 218.569 86.3977ZM219.61 86.3977C219.61 87.2954 220.716 87.8159 222.459 87.8159C224.19 87.8159 225.296 87.2954 225.296 86.3977C225.296 85.513 224.19 84.9795 222.459 84.9795C220.716 84.9795 219.61 85.513 219.61 86.3977ZM53.0187 101.164C53.0187 102.777 54.2157 104.286 55.9202 104.885L55.3997 105.717C54.0726 105.236 53.0447 104.26 52.5373 103.024C52.0429 104.416 50.989 105.483 49.5969 106.017L49.0374 105.184C50.8199 104.533 51.9779 102.959 51.9779 101.125V99.6674H53.0187V101.164ZM50.911 110.453V106.81H51.9779V109.582H58.7175V110.453H50.911ZM57.1432 107.643V98.9518H58.1971V102.569H59.9405V103.454H58.1971V107.643H57.1432ZM66.3549 99.7194C68.8008 99.7194 70.6225 101.008 70.6225 102.946C70.6225 104.911 68.8008 106.186 66.3549 106.186C63.9219 106.186 62.0873 104.911 62.0873 102.946C62.0873 101.008 63.9219 99.7194 66.3549 99.7194ZM61.0464 109.152V108.268H71.7024V109.152H61.0464ZM63.1022 102.946C63.1022 104.364 64.4943 105.327 66.3549 105.327C68.2285 105.327 69.6076 104.364 69.6076 102.946C69.6076 101.528 68.2285 100.578 66.3549 100.578C64.4943 100.578 63.1022 101.528 63.1022 102.946ZM83.6724 108.385V109.256H73.0165V108.385H77.8045V106.173H74.3566V102.543H81.3174V100.695H74.3306V99.8365H82.3583V103.388H75.3975V105.301H82.6315V106.173H78.8453V108.385H83.6724ZM91.9213 101.008C91.9213 102.517 93.0663 103.896 94.7837 104.455L94.2893 105.288C92.9361 104.846 91.9083 103.909 91.4009 102.738C90.9064 104.039 89.8265 105.041 88.4214 105.535L87.9009 104.69C89.6704 104.104 90.8674 102.66 90.8674 101.008V100.604H88.2262V99.7324H94.5105V100.604H91.9213V101.008ZM89.6964 110.557V105.965H90.7373V107.396H96.0457V105.965H97.0866V110.557H89.6964ZM90.7373 109.699H96.0457V108.229H90.7373V109.699ZM96.0327 105.405V98.9648H97.0866V101.684H98.8301V102.569H97.0866V105.405H96.0327ZM109.564 98.9258V105.418H108.51V98.9258H109.564ZM100.118 100.838V100.019H103.163V98.8217H104.216V100.019H107.261V100.838H100.118ZM100.821 103.323C100.821 102.139 101.94 101.398 103.683 101.398C105.426 101.398 106.545 102.139 106.545 103.323C106.545 104.52 105.426 105.249 103.683 105.249C101.94 105.249 100.821 104.52 100.821 103.323ZM101.822 103.323C101.822 104.026 102.564 104.468 103.683 104.468C104.802 104.468 105.531 104.026 105.531 103.323C105.531 102.621 104.802 102.178 103.683 102.178C102.564 102.178 101.822 102.621 101.822 103.323ZM101.966 106.81V106.017H109.564V108.632H103.032V109.777H109.967V110.584H102.005V107.851H108.523V106.81H101.966ZM122.614 99.212V103.753H124.019V98.9518H125.008V110.714H124.019V104.625H122.614V110.128H121.625V99.212H122.614ZM115.237 107.656V100.435H117.761V101.307H116.213V106.758C116.655 106.745 117.214 106.693 117.839 106.537L117.93 107.422C116.967 107.643 116.2 107.656 115.705 107.656H115.237ZM118.268 107.656V100.435H120.857V101.307H119.231V106.758C119.778 106.745 120.415 106.68 121.092 106.498L121.209 107.383C120.233 107.643 119.426 107.656 118.75 107.656H118.268ZM126.66 112.158L127.337 108.372H128.547L127.467 112.158H126.66ZM138.708 100.981V101.84H132.866V100.981H135.273V99.3031H136.314V100.981H138.708ZM133.27 105.314C133.27 103.74 134.324 102.634 135.781 102.634C137.251 102.634 138.318 103.74 138.318 105.314C138.318 106.888 137.251 107.994 135.781 107.994C134.324 107.994 133.27 106.888 133.27 105.314ZM134.207 105.314C134.207 106.355 134.87 107.097 135.781 107.097C136.705 107.097 137.368 106.355 137.368 105.314C137.368 104.273 136.705 103.532 135.781 103.532C134.87 103.532 134.207 104.273 134.207 105.314ZM139.294 110.141V99.225H140.283V103.909H141.818V98.9518H142.82V110.714H141.818V104.781H140.283V110.141H139.294ZM153.983 98.9518V102.022H155.714V102.907H153.983V105.952H152.916V98.9518H153.983ZM145.383 105.015V99.8625H150.561V100.721H146.424V104.143C148.779 104.143 150.119 104.078 151.667 103.753L151.797 104.612C150.158 104.937 148.766 105.015 146.294 105.015H145.383ZM146.372 108.45C146.372 107.045 147.842 106.199 150.223 106.199C152.617 106.199 154.087 107.045 154.087 108.45C154.087 109.868 152.617 110.701 150.223 110.701C147.842 110.701 146.372 109.868 146.372 108.45ZM147.4 108.45C147.4 109.321 148.48 109.842 150.223 109.842C151.979 109.842 153.059 109.321 153.059 108.45C153.059 107.565 151.979 107.058 150.223 107.058C148.48 107.058 147.4 107.565 147.4 108.45ZM168.829 98.9518V103.74H170.715V104.612H168.829V110.714H167.775V98.9518H168.829ZM159.877 107.669C162.883 106.147 164.509 103.883 164.743 101.099H160.424V100.227H165.81C165.81 103.558 164.262 106.576 160.463 108.476L159.877 107.669ZM180.994 98.9518V103.805H182.763V104.69H180.994V110.714H179.953V98.9518H180.994ZM171.73 107.461C173.473 105.652 174.176 103.467 174.306 101.112H172.094V100.227H175.295C175.295 103.05 174.683 105.796 172.576 108.059L171.73 107.461ZM175.074 108.268C176.882 106.173 177.416 103.584 177.507 101.112H175.672V100.227H178.509C178.509 103.05 178.092 106.29 175.933 108.84L175.074 108.268ZM194.395 104.937V105.796H189.685V108.19H188.618V105.796H183.739V104.937H194.395ZM184.936 101.619C184.936 100.162 186.562 99.251 189.048 99.251C191.546 99.251 193.172 100.162 193.172 101.619C193.172 103.076 191.546 103.974 189.048 103.974C186.562 103.974 184.936 103.076 184.936 101.619ZM185.092 110.453V107.019H186.159V109.582H193.211V110.453H185.092ZM186.055 101.619C186.055 102.543 187.252 103.115 189.048 103.115C190.856 103.115 192.053 102.543 192.053 101.619C192.053 100.695 190.856 100.123 189.048 100.123C187.252 100.123 186.055 100.695 186.055 101.619ZM208.356 98.9648V106.017H207.302V104.442H204.218V103.584H207.302V101.996H204.348C203.594 103.883 201.785 105.249 199.274 106.004L198.858 105.158C201.668 104.338 203.412 102.751 203.607 100.708H199.456V99.8495H204.752C204.752 100.305 204.7 100.734 204.609 101.138H207.302V98.9648H208.356ZM200.653 108.398C200.653 106.993 202.162 106.147 204.543 106.147C206.911 106.147 208.421 106.993 208.421 108.398C208.421 109.816 206.911 110.662 204.543 110.662C202.162 110.662 200.653 109.816 200.653 108.398ZM201.694 108.398C201.694 109.295 202.8 109.816 204.543 109.816C206.274 109.816 207.38 109.295 207.38 108.398C207.38 107.513 206.274 106.98 204.543 106.98C202.8 106.98 201.694 107.513 201.694 108.398ZM214.653 101.229C214.653 102.504 215.863 103.623 217.567 104.039L217.112 104.859C215.746 104.507 214.679 103.727 214.146 102.699C213.638 103.831 212.519 104.69 211.101 105.093L210.633 104.273C212.363 103.805 213.612 102.621 213.612 101.229V101.034H210.984V100.175H213.612V98.9128H214.666V100.175H217.268V101.034H214.653V101.229ZM212.324 106.576V105.743H219.779V108.502H213.391V109.751H220.209V110.584H212.363V107.721H218.738V106.576H212.324ZM218.725 105.158V98.9648H219.779V101.58H221.51V102.452H219.779V105.158H218.725ZM226.74 102.087C226.74 104.221 228.08 106.368 229.772 107.175L229.147 108.02C227.833 107.344 226.74 105.952 226.22 104.286C225.699 106.03 224.606 107.526 223.292 108.229L222.629 107.383C224.333 106.537 225.673 104.273 225.673 102.087V99.9796H226.74V102.087ZM228.51 103.818V102.959H231.255V98.9518H232.309V110.727H231.255V103.818H228.51ZM59.7323 130.385V131.256H49.0764V130.385H53.8644V128.173H50.4165V124.543H57.3774V122.695H50.3905V121.837H58.4182V125.388H51.4574V127.301H58.6915V128.173H54.9053V130.385H59.7323ZM73.693 120.965V129.656H72.6392V126.481H69.6466C69.1132 127.171 68.2415 127.587 67.2396 127.587C65.5092 127.587 64.2081 126.377 64.2081 124.66C64.2081 122.929 65.5092 121.719 67.2396 121.719C68.2285 121.719 69.0872 122.123 69.6336 122.799H72.6392V120.965H73.693ZM65.2229 124.66C65.2229 125.831 66.0817 126.664 67.2396 126.664C68.3846 126.664 69.2563 125.831 69.2563 124.66C69.2563 123.489 68.3846 122.643 67.2396 122.643C66.0817 122.643 65.2229 123.489 65.2229 124.66ZM66.1988 132.453V128.758H67.2526V131.582H74.0183V132.453H66.1988ZM70.102 123.671C70.2061 123.97 70.2582 124.309 70.2582 124.66C70.2582 124.998 70.2061 125.323 70.115 125.623H72.6392V123.671H70.102ZM81.7728 121.654V124.907H77.5443V126.612C79.613 126.612 81.1092 126.533 82.9178 126.221L83.0218 127.093C81.1613 127.418 79.6 127.483 77.4402 127.483H76.5163V124.087H80.7449V122.526H76.4904V121.654H81.7728ZM77.4922 129.591V128.732H85.1166V132.714H84.0627V129.591H77.4922ZM84.0627 128.108V120.965H85.1166V123.97H86.8601V124.868H85.1166V128.108H84.0627ZM97.581 120.952V132.727H96.5271V120.952H97.581ZM88.4084 125.961C88.4084 123.463 89.6444 121.863 91.3878 121.863C93.1183 121.863 94.3673 123.463 94.3673 125.961C94.3673 128.459 93.1183 130.059 91.3878 130.059C89.6444 130.059 88.4084 128.459 88.4084 125.961ZM89.4232 125.961C89.4232 127.874 90.2299 129.123 91.3878 129.123C92.5458 129.123 93.3525 127.874 93.3525 125.961C93.3525 124.048 92.5458 122.812 91.3878 122.812C90.2299 122.812 89.4232 124.048 89.4232 125.961ZM106.871 124.569C106.871 126.429 108.211 128.524 109.902 129.331L109.304 130.163C107.99 129.513 106.884 128.134 106.363 126.559C105.83 128.264 104.672 129.773 103.345 130.45L102.733 129.617C104.399 128.797 105.83 126.559 105.83 124.569V123.047H103.15V122.162H109.473V123.047H106.871V124.569ZM110.891 132.714V120.965H111.945V125.714H113.884V126.599H111.945V132.714H110.891ZM125.515 126.768V127.613H114.898V126.768H119.686V125.402H116.239V121.498H124.188V122.344H117.279V124.543H124.279V125.402H120.714V126.768H125.515ZM116.16 130.593C116.16 129.24 117.683 128.472 120.194 128.472C122.692 128.472 124.214 129.24 124.214 130.593C124.214 131.946 122.692 132.701 120.194 132.701C117.683 132.701 116.16 131.946 116.16 130.593ZM117.227 130.593C117.227 131.413 118.346 131.881 120.194 131.881C122.041 131.881 123.147 131.413 123.147 130.593C123.147 129.773 122.041 129.305 120.194 129.305C118.346 129.305 117.227 129.773 117.227 130.593ZM132.164 121.719C134.61 121.719 136.431 123.008 136.431 124.946C136.431 126.911 134.61 128.186 132.164 128.186C129.731 128.186 127.896 126.911 127.896 124.946C127.896 123.008 129.731 121.719 132.164 121.719ZM126.855 131.152V130.268H137.511V131.152H126.855ZM128.911 124.946C128.911 126.364 130.303 127.327 132.164 127.327C134.037 127.327 135.417 126.364 135.417 124.946C135.417 123.528 134.037 122.578 132.164 122.578C130.303 122.578 128.911 123.528 128.911 124.946ZM149.481 130.385V131.256H138.825V130.385H143.613V128.173H140.166V124.543H147.126V122.695H140.14V121.837H148.167V125.388H141.206V127.301H148.441V128.173H144.654V130.385H149.481ZM163.39 120.952V132.727H162.336V120.952H163.39ZM154.217 125.961C154.217 123.463 155.453 121.863 157.197 121.863C158.927 121.863 160.176 123.463 160.176 125.961C160.176 128.459 158.927 130.059 157.197 130.059C155.453 130.059 154.217 128.459 154.217 125.961ZM155.232 125.961C155.232 127.874 156.039 129.123 157.197 129.123C158.355 129.123 159.161 127.874 159.161 125.961C159.161 124.048 158.355 122.812 157.197 122.812C156.039 122.812 155.232 124.048 155.232 125.961ZM175.1 121.433V124.491H168.113V126H175.373V126.872H167.046V123.671H174.046V122.279H167.02V121.433H175.1ZM165.745 128.966V128.095H176.401V128.966H171.574V132.727H170.52V128.966H165.745ZM180.851 121.863C182.438 121.863 183.609 123.255 183.765 125.454H186.341V120.952H187.395V132.727H186.341V126.299H183.765C183.661 128.602 182.477 130.059 180.851 130.059C179.146 130.059 177.936 128.459 177.936 125.961C177.936 123.463 179.146 121.863 180.851 121.863ZM178.938 125.961C178.938 127.874 179.719 129.123 180.851 129.123C181.996 129.123 182.776 127.874 182.776 125.961C182.776 124.048 181.996 122.812 180.851 122.812C179.719 122.812 178.938 124.048 178.938 125.961ZM199.352 120.965V132.714H198.311V127.665H195.93V126.781H198.311V125.154H195.93V124.257H198.311V120.965H199.352ZM189.607 129.63C191.272 128.797 192.678 126.52 192.678 124.426V123.034H190.036V122.162H196.373V123.034H193.744V124.426C193.744 126.273 195.124 128.485 196.776 129.344L196.164 130.163C194.889 129.487 193.77 128.03 193.237 126.416C192.717 128.186 191.585 129.721 190.31 130.437L189.607 129.63ZM212.064 130.645C211.4 131.374 210.216 131.829 208.993 131.829C206.417 131.829 204.778 129.916 204.778 126.924C204.778 123.931 206.417 122.006 208.993 122.006C210.216 122.006 211.4 122.474 212.064 123.19L211.647 124.139C210.945 123.437 209.982 123.034 208.993 123.034C207.094 123.034 206.027 124.452 206.027 126.924C206.027 129.396 207.094 130.814 208.993 130.814C209.982 130.814 210.945 130.411 211.647 129.708L212.064 130.645ZM220.573 130.645C219.909 131.374 218.725 131.829 217.502 131.829C214.926 131.829 213.287 129.916 213.287 126.924C213.287 123.931 214.926 122.006 217.502 122.006C218.725 122.006 219.909 122.474 220.573 123.19L220.157 124.139C219.454 123.437 218.491 123.034 217.502 123.034C215.603 123.034 214.536 124.452 214.536 126.924C214.536 129.396 215.603 130.814 217.502 130.814C218.491 130.814 219.454 130.411 220.157 129.708L220.573 130.645ZM221.119 122.136H228.822V123.151H225.556V131.712H224.385V123.151H221.119V122.136ZM229.277 122.136H230.5L233.649 130.229L236.784 122.136H238.007L234.156 131.712H233.115L229.277 122.136ZM59.7323 148.429V149.236H49.0764V148.429H59.7323ZM50.3385 150.953V150.199H58.3922V152.697H51.4184V153.803H58.7695V154.571H50.3775V151.968H57.3644V150.953H50.3385ZM50.4296 144.071V143.303H58.3532V145.749H51.4965V146.777H58.5744V147.545H50.4556V145.021H57.3253V144.071H50.4296ZM74.6428 149.197V150.043H64.0259V149.197H68.8008V148.026H65.4311V143.303H73.3417V144.136H66.485V145.229H73.0295V146.035H66.485V147.193H73.3938V148.026H69.8548V149.197H74.6428ZM65.301 152.814C65.301 151.578 66.7712 150.927 69.3344 150.927C71.8975 150.927 73.3547 151.578 73.3547 152.814C73.3547 154.037 71.8975 154.688 69.3344 154.688C66.7712 154.688 65.301 154.037 65.301 152.814ZM66.3679 152.814C66.3679 153.53 67.4347 153.894 69.3344 153.894C71.234 153.894 72.3008 153.53 72.3008 152.814C72.3008 152.111 71.234 151.734 69.3344 151.734C67.4347 151.734 66.3679 152.111 66.3679 152.814ZM81.8248 144.981V145.84H75.9829V144.981H78.39V143.303H79.4308V144.981H81.8248ZM76.3863 149.314C76.3863 147.74 77.4402 146.634 78.8974 146.634C80.3676 146.634 81.4345 147.74 81.4345 149.314C81.4345 150.888 80.3676 151.994 78.8974 151.994C77.4402 151.994 76.3863 150.888 76.3863 149.314ZM77.3231 149.314C77.3231 150.355 77.9866 151.097 78.8974 151.097C79.8212 151.097 80.4846 150.355 80.4846 149.314C80.4846 148.273 79.8212 147.532 78.8974 147.532C77.9866 147.532 77.3231 148.273 77.3231 149.314ZM82.4103 154.141V143.225H83.3992V147.909H84.9344V142.952H85.9363V154.714H84.9344V148.781H83.3992V154.141H82.4103ZM87.7708 156.158L88.4474 152.372H89.6574L88.5775 156.158H87.7708ZM103.891 142.965V149.548H102.889V142.965H103.891ZM93.9249 144.942V144.11H96.332V142.939H97.3729V144.11H99.7669V144.942H93.9249ZM94.4193 147.362C94.4193 146.178 95.4212 145.411 96.8394 145.411C98.2836 145.411 99.2855 146.178 99.2855 147.362C99.2855 148.533 98.2836 149.301 96.8394 149.301C95.4212 149.301 94.4193 148.533 94.4193 147.362ZM95.3562 147.362C95.3562 148.065 95.9547 148.546 96.8394 148.546C97.7502 148.546 98.3487 148.065 98.3487 147.362C98.3487 146.647 97.7502 146.178 96.8394 146.178C95.9547 146.178 95.3562 146.647 95.3562 147.362ZM96.1497 150.849V150.069H103.891V152.658H97.2167V153.777H104.334V154.584H96.1758V151.903H102.863V150.849H96.1497ZM99.4806 146.907V146.048H100.782V143.16H101.77V149.457H100.782V146.907H99.4806ZM115.874 142.965V150.901H114.872V142.965H115.874ZM106.493 149.132V143.993H111.021V146.035H112.622V143.212H113.623V149.783H112.622V146.907H111.021V149.132H106.493ZM107.456 153.842C109.512 153.53 111.438 152.255 111.438 150.706V150.316H112.491V150.706C112.491 152.255 114.43 153.53 116.473 153.842L116.082 154.675C114.326 154.362 112.674 153.465 111.958 152.163C111.242 153.465 109.603 154.362 107.847 154.675L107.456 153.842ZM107.482 148.325H110.032V144.812H107.482V148.325ZM124.904 145.515C124.904 146.972 126.062 148.312 127.779 148.833L127.272 149.665C125.932 149.236 124.904 148.338 124.396 147.193C123.889 148.455 122.835 149.431 121.456 149.887L120.935 149.054C122.679 148.507 123.863 147.102 123.863 145.515V145.268H121.235V144.409H123.863V142.913H124.917V144.409H127.519V145.268H124.904V145.515ZM122.406 151.617V150.745H130.03V154.727H128.976V151.617H122.406ZM128.976 150.121V142.965H130.03V146.1H131.774V146.985H130.03V150.121H128.976ZM143.509 148.781V149.626H132.879V148.781H135.508V147.115C134.584 146.751 134.063 146.152 134.063 145.359C134.063 143.98 135.638 143.173 138.188 143.173C140.738 143.173 142.325 143.98 142.325 145.359C142.325 146.152 141.805 146.751 140.881 147.115V148.781H143.509ZM134.155 152.606C134.155 151.279 135.664 150.537 138.188 150.537C140.699 150.537 142.208 151.279 142.208 152.606C142.208 153.946 140.699 154.701 138.188 154.701C135.664 154.701 134.155 153.946 134.155 152.606ZM135.143 145.359C135.143 146.218 136.314 146.712 138.188 146.712C140.075 146.712 141.232 146.218 141.232 145.359C141.232 144.5 140.075 144.006 138.188 144.006C136.314 144.006 135.143 144.5 135.143 145.359ZM135.221 152.606C135.221 153.426 136.34 153.881 138.188 153.881C140.035 153.881 141.141 153.426 141.141 152.606C141.141 151.812 140.035 151.344 138.188 151.344C136.34 151.344 135.221 151.812 135.221 152.606ZM136.562 148.781H139.827V147.402C139.346 147.493 138.786 147.532 138.188 147.532C137.589 147.532 137.043 147.493 136.562 147.402V148.781ZM150.965 143.863C152.032 143.863 152.916 144.487 153.424 145.58H156.455V142.952H157.509V154.727H156.455V150.186H153.489C152.994 151.37 152.084 152.059 150.965 152.059C149.26 152.059 148.05 150.459 148.05 147.961C148.05 145.463 149.26 143.863 150.965 143.863ZM149.039 147.961C149.039 149.874 149.833 151.123 150.965 151.123C152.11 151.123 152.89 149.874 152.89 147.961C152.89 146.048 152.11 144.812 150.965 144.812C149.833 144.812 149.039 146.048 149.039 147.961ZM153.723 146.465C153.84 146.92 153.892 147.415 153.892 147.961C153.892 148.442 153.84 148.898 153.762 149.314H156.455V146.465H153.723ZM170.455 149.926V150.784H165.615V154.714H164.574V150.784H159.799V149.926H170.455ZM161.139 148.507V143.433H162.193V145.06H168.048V143.433H169.089V148.507H161.139ZM162.193 147.662H168.048V145.918H162.193V147.662ZM182.425 148.429V149.236H171.769V148.429H182.425ZM173.031 150.953V150.199H181.085V152.697H174.111V153.803H181.462V154.571H173.07V151.968H180.057V150.953H173.031ZM173.122 144.071V143.303H181.046V145.749H174.189V146.777H181.267V147.545H173.148V145.021H180.018V144.071H173.122ZM195.839 142.952V146.452H197.583V147.336H195.839V151.474H194.785V142.952H195.839ZM187.265 149.392V143.967H192.456V144.838H188.319V148.507C190.648 148.507 191.975 148.442 193.523 148.117L193.653 148.976C192.027 149.314 190.635 149.392 188.176 149.392H187.265ZM188.527 154.453V150.615H189.581V153.582H196.373V154.453H188.527ZM209.344 148.859V149.73H198.689V148.859H203.477V147.063H204.517V148.859H209.344ZM199.326 146.842C201.408 146.556 203.464 145.255 203.464 143.68V143.147H204.53V143.68C204.53 145.242 206.586 146.556 208.655 146.842L208.265 147.688C206.482 147.375 204.739 146.452 204.01 145.099C203.268 146.452 201.525 147.388 199.729 147.688L199.326 146.842ZM199.873 151.734V150.888H208.004V154.714H206.95V151.734H199.873ZM219.779 142.926V145.762H221.523V146.647H219.779V149.418H218.725V142.926H219.779ZM210.698 144.851V144.032H213.638V142.835H214.692V144.032H217.632V144.851H210.698ZM211.348 147.31C211.348 146.126 212.454 145.385 214.159 145.385C215.863 145.385 216.969 146.126 216.969 147.31C216.969 148.507 215.863 149.236 214.159 149.236C212.454 149.236 211.348 148.507 211.348 147.31ZM212.324 150.823V150.017H219.779V152.632H213.391V153.777H220.209V154.584H212.363V151.864H218.738V150.823H212.324ZM212.35 147.31C212.35 148.013 213.066 148.455 214.159 148.455C215.251 148.455 215.967 148.013 215.967 147.31C215.967 146.608 215.251 146.165 214.159 146.165C213.066 146.165 212.35 146.608 212.35 147.31ZM231.476 144.045C231.476 145.684 233.61 147.128 235.705 147.441L235.275 148.299C233.454 147.987 231.684 146.972 230.943 145.541C230.188 146.985 228.418 147.987 226.584 148.299L226.155 147.441C228.288 147.128 230.383 145.723 230.383 144.045V143.381H231.476V144.045ZM225.608 150.459V149.587H236.238V150.459H231.424V154.714H230.383V150.459H225.608ZM53.0317 173.836C53.0317 174.877 53.5912 175.983 54.6841 176.621C55.8031 175.931 56.3755 174.747 56.3755 173.836V173.199H57.4034V173.836C57.4034 175.046 58.2751 176.269 59.7714 176.777L59.2379 177.557C58.093 177.141 57.2733 176.321 56.8699 175.346C56.5056 176.295 55.8031 177.193 54.7101 177.662C53.5912 177.219 52.8626 176.36 52.5113 175.385C52.095 176.321 51.2883 177.128 50.1824 177.557L49.6619 176.777C51.1321 176.23 52.0299 174.968 52.0299 173.836V173.199H53.0317V173.836ZM49.3497 169.4C49.3497 167.773 50.6377 166.654 52.4072 166.654C54.1897 166.654 55.4648 167.773 55.4648 169.4C55.4648 171.013 54.1897 172.132 52.4072 172.132C50.6377 172.132 49.3497 171.013 49.3497 169.4ZM50.3775 169.4C50.3775 170.493 51.2362 171.247 52.4072 171.247C53.5912 171.247 54.4499 170.493 54.4499 169.4C54.4499 168.294 53.5912 167.539 52.4072 167.539C51.2362 167.539 50.3775 168.294 50.3775 169.4ZM57.6506 172.691V165.965H58.7045V172.691H57.6506ZM70.4663 171.455V172.327H66.8753V175.359H71.7024V176.23H61.0464V175.359H65.8344V172.327H62.3996V166.902H70.3492V167.773H63.4535V171.455H70.4663ZM83.6724 172.431V173.303H73.0165V172.431H77.8175V171.182H74.3956V168.32H81.2654V167.097H74.3696V166.264H82.2932V169.1H75.4365V170.349H82.5534V171.182H78.8584V172.431H83.6724ZM74.2005 175.072V174.201H82.3713V177.61H81.3174V175.072H74.2005ZM97.0086 165.965V170.805H98.9342V171.69H97.0086V177.714H95.9547V165.965H97.0086ZM87.9009 168.71V167.838H90.8804V166.108H91.9342V167.838H94.8357V168.71H87.9009ZM88.5645 172.392C88.5645 170.805 89.7745 169.686 91.4269 169.686C93.0793 169.686 94.2763 170.805 94.2763 172.392C94.2763 173.98 93.0793 175.085 91.4269 175.085C89.7745 175.085 88.5645 173.98 88.5645 172.392ZM89.5663 172.392C89.5663 173.459 90.36 174.214 91.4269 174.214C92.4938 174.214 93.2744 173.459 93.2744 172.392C93.2744 171.325 92.4938 170.571 91.4269 170.571C90.36 170.571 89.5663 171.325 89.5663 172.392ZM105.843 166.98V168.034H108.549V165.965H109.603V174.552H108.549V171.429H105.843V172.483H100.482V166.98H105.843ZM101.51 171.625H104.802V167.838H101.51V171.625ZM102.057 177.453V173.784H103.111V176.582H109.889V177.453H102.057ZM105.843 170.558H108.549V168.905H105.843V170.558ZM120.714 169.452V170.844H125.541V171.703H114.885V170.844H119.673V169.452H120.714ZM115.458 169.374C117.475 169.205 119.387 168.359 119.504 167.162H115.861V166.329H124.553V167.162H120.896C121.027 168.346 122.926 169.205 124.956 169.374L124.605 170.18C122.64 169.985 120.831 169.218 120.207 167.994C119.569 169.218 117.761 169.985 115.796 170.18L115.458 169.374ZM115.874 174.097V173.264H119.673V172.171H120.727V173.264H124.526V174.097H115.874ZM116.668 176.23C116.668 175.216 117.93 174.682 120.194 174.682C122.458 174.682 123.72 175.216 123.72 176.23C123.72 177.258 122.458 177.779 120.194 177.779C117.93 177.779 116.668 177.258 116.668 176.23ZM117.748 176.23C117.748 176.777 118.633 177.05 120.194 177.05C121.768 177.05 122.653 176.777 122.653 176.23C122.653 175.697 121.768 175.411 120.194 175.411C118.633 175.411 117.748 175.697 117.748 176.23ZM132.164 166.16C134.753 166.16 136.301 166.889 136.301 168.203C136.301 169.517 134.753 170.245 132.164 170.245C129.575 170.245 128.039 169.517 128.039 168.203C128.039 166.889 129.575 166.16 132.164 166.16ZM126.855 171.885V171.039H137.485V171.885H126.855ZM128.144 173.719V172.9H136.119V175.541H129.21V176.751H136.47V177.584H128.17V174.773H135.078V173.719H128.144ZM129.119 168.203C129.119 168.996 130.238 169.439 132.164 169.439C134.089 169.439 135.208 168.996 135.208 168.203C135.208 167.409 134.089 166.967 132.164 166.967C130.238 166.967 129.119 167.409 129.119 168.203ZM151.472 165.965V173.927H150.418V170.154H147.868V169.283H150.418V165.965H151.472ZM142.013 172.327C144.797 171.455 146.489 169.842 146.697 167.76H142.573V166.889H147.829C147.829 169.92 145.825 172.08 142.455 173.173L142.013 172.327ZM143.236 176.842C145.305 176.478 147.165 175.163 147.165 173.446V172.913H148.206V173.446C148.206 175.15 150.054 176.439 152.123 176.816L151.68 177.662C149.95 177.31 148.375 176.4 147.686 175.033C146.983 176.413 145.396 177.336 143.652 177.688L143.236 176.842ZM165.875 165.952V168.697H167.619V169.582H165.875V172.236H164.821V165.952H165.875ZM156.807 171.612C159.747 170.961 161.399 169.491 161.555 167.643H157.288V166.784H162.739C162.739 169.738 160.671 171.677 157.223 172.47L156.807 171.612ZM158.485 177.557V172.783H165.94V173.576H159.539V174.747H165.797V175.528H159.539V176.751H166.2V177.557H158.485ZM171.86 166.863C173.578 166.863 174.801 168.463 174.801 170.961C174.801 173.459 173.578 175.059 171.86 175.059C170.13 175.059 168.907 173.459 168.907 170.961C168.907 168.463 170.13 166.863 171.86 166.863ZM169.908 170.961C169.908 172.874 170.702 174.123 171.86 174.123C173.005 174.123 173.786 172.874 173.786 170.961C173.786 169.048 173.005 167.812 171.86 167.812C170.702 167.812 169.908 169.048 169.908 170.961ZM176.7 177.714V165.965H177.754V170.662H179.693V171.546H177.754V177.714H176.7ZM191.35 175.333V176.204H180.695V175.333H183.323V172.158C182.334 171.638 181.735 170.792 181.735 169.738C181.735 167.89 183.518 166.706 186.003 166.706C188.501 166.706 190.271 167.89 190.271 169.738C190.271 170.779 189.685 171.612 188.722 172.145V175.333H191.35ZM182.75 169.738C182.75 171.039 184.116 171.911 186.003 171.911C187.903 171.911 189.256 171.039 189.256 169.738C189.256 168.411 187.903 167.552 186.003 167.552C184.116 167.552 182.75 168.411 182.75 169.738ZM184.364 175.333H187.668V172.548C187.161 172.678 186.601 172.743 186.003 172.743C185.417 172.743 184.858 172.678 184.364 172.548V175.333ZM192.821 176.712V175.294H194.239V176.712H192.821Z" fill="#393939"/>
<path fill-rule="evenodd" clip-rule="evenodd" d="M247.726 38.7208L252.567 43.6205L253.15 43.044L248.302 38.1373L253.15 33.2305L252.567 32.654L247.726 37.5538L242.885 32.6539L242.301 33.2304L247.149 38.1373L242.301 43.044L242.885 43.6205L247.726 38.7208Z" fill="#191919"/>
<g filter="url(#filter1_d_2174_104)">
<path d="M106.159 211.406H65.0797C55.882 211.406 48.4258 218.862 48.4258 228.06V228.06C48.4258 237.258 55.882 244.714 65.0797 244.714H106.159C115.357 244.714 122.813 237.258 122.813 228.06V228.06C122.813 218.862 115.357 211.406 106.159 211.406Z" fill="white"/>
<path d="M76.7257 222.467L76.4968 230.205H75.0244L75.0711 228.627H71.6557C70.9828 229.31 70.0149 229.704 68.8764 229.704C66.7968 229.704 65.3336 228.369 65.3897 226.473C65.4462 224.561 66.988 223.241 69.0676 223.241C70.1909 223.241 71.1507 223.635 71.7685 224.303H75.199L75.2533 222.467H76.7257ZM66.8013 226.473C66.7659 227.671 67.6529 228.475 68.9128 228.475C70.1575 228.475 71.1072 227.671 71.1426 226.473C71.1785 225.259 70.2764 224.455 69.0317 224.455C67.7718 224.455 66.8372 225.259 66.8013 226.473ZM66.9575 236.077L66.9925 234.894H69.0265L69.1118 232.011H67.2144L67.2494 230.827H76.5847L76.5497 232.011H74.6674L74.5822 234.894H76.6466L76.6116 236.077H66.9575ZM70.4685 234.894H73.1249L73.2102 232.011H70.5538L70.4685 234.894ZM72.4317 225.486C72.529 225.79 72.5646 226.124 72.5543 226.473C72.5445 226.806 72.4895 227.125 72.3894 227.429H75.1065L75.164 225.486H72.4317ZM85.4903 223.286C88.3744 223.286 90.4993 224.834 90.4306 227.155C90.3615 229.492 88.1455 231.024 85.2614 231.024C82.3774 231.024 80.2369 229.492 80.306 227.155C80.3746 224.834 82.6062 223.286 85.4903 223.286ZM78.9199 234.499L78.9559 233.285H91.4788L91.4429 234.499H78.9199ZM81.7328 227.155C81.6853 228.764 83.2026 229.811 85.2973 229.811C87.3921 229.811 88.9562 228.764 89.0037 227.155C89.0513 225.547 87.5496 224.485 85.4549 224.485C83.3601 224.485 81.7804 225.547 81.7328 227.155ZM105.44 233.422L105.404 234.636H92.8809L92.9168 233.422H98.4118L98.484 230.979H94.507L94.6367 226.594H102.667L102.725 224.637H94.6643L94.6993 223.453H104.217L104.089 227.762H96.0594L95.9992 229.796H104.348L104.313 230.979H99.9564L99.8842 233.422H105.44Z" fill="#393939"/>
</g>
<g filter="url(#filter2_d_2174_104)">
<path d="M234.95 211.406H153.901C144.703 211.406 137.247 218.862 137.247 228.06V228.06C137.247 237.258 144.703 244.714 153.901 244.714H234.95C244.148 244.714 251.604 237.258 251.604 228.06V228.06C251.604 218.862 244.148 211.406 234.95 211.406Z" fill="#005AFF"/>
</g>
<path d="M158.808 223.635L158.772 224.834H154.917L154.802 228.703C156.518 228.688 157.78 228.612 159.246 228.309L159.332 229.507C157.668 229.841 156.27 229.887 154.221 229.887H153.31L153.495 223.635H158.808ZM154.295 235.076C156.902 234.681 158.951 233.149 159.002 231.434L159.016 230.949H160.489L160.474 231.434C160.424 233.149 162.382 234.681 164.966 235.076L164.325 236.229C162.241 235.865 160.481 234.818 159.689 233.361C158.796 234.818 156.974 235.865 154.868 236.229L154.295 235.076ZM159.99 230.372L160.216 222.725H161.597L161.501 225.987H163.14L163.244 222.467H164.641L164.371 231.586H162.975L163.104 227.201H161.465L161.371 230.372H159.99ZM177.86 223.044L177.834 223.939C177.806 224.864 177.772 226.033 177.439 227.52H179.306L179.271 228.718H166.748L166.783 227.52H175.952C176.281 226.139 176.342 225.092 176.368 224.227H168.459L168.494 223.044H177.86ZM168.119 231.116L168.153 229.963H177.671L177.564 233.574H169.549L169.508 234.97H177.872L177.837 236.138H168.001L168.11 232.451H176.14L176.179 231.116H168.119ZM196.59 233.361L196.554 234.575H184.031L184.067 233.361H189.562L189.646 230.509H185.578L185.788 223.408H187.245L187.175 225.775H193.885L193.955 223.408H195.412L195.202 230.509H191.119L191.034 233.361H196.59ZM187.07 229.325H193.78L193.85 226.958H187.14L187.07 229.325ZM209.77 222.452L209.36 236.305H207.887L208.107 228.87H205.618L205.653 227.671H208.143L208.297 222.452H209.77ZM198.753 224.91L198.788 223.711H204.966L204.82 228.658H200.129L200.036 231.798C202.222 231.798 203.894 231.723 205.817 231.374L205.918 232.587C203.843 232.936 202.049 233.027 199.621 233.027H198.543L198.707 227.474H203.413L203.488 224.91H198.753ZM222.991 222.452L222.827 227.975H224.953L224.917 229.189H222.792L222.582 236.274H221.11L221.518 222.452H222.991ZM212.035 232.603C215.517 230.858 217.428 228.354 217.826 225.138H212.923L212.959 223.924H219.35C219.232 227.914 217.396 231.465 212.821 233.725L212.035 232.603ZM237.669 222.467L237.26 236.274H235.788L236.196 222.467H237.669ZM226.106 232.603C229.801 230.843 231.635 228.354 232.004 225.122H226.995L227.03 223.939H233.542C233.422 228.005 231.634 231.495 226.861 233.771L226.106 232.603Z" fill="#E8E8E8"/>
</g>
<defs>
<filter id="filter0_d_2174_104" x="0" y="0" width="288.699" height="284.258" filterUnits="userSpaceOnUse" color-interpolation-filters="sRGB">
<feFlood flood-opacity="0" result="BackgroundImageFix"/>
<feColorMatrix in="SourceAlpha" type="matrix" values="0 0 0 0 0 0 0 0 0 0 0 0 0 0 0 0 0 0 127 0" result="hardAlpha"/>
<feOffset dx="-4" dy="4"/>
<feGaussianBlur stdDeviation="10"/>
<feComposite in2="hardAlpha" operator="out"/>
<feColorMatrix type="matrix" values="0 0 0 0 0.408333 0 0 0 0 0.408333 0 0 0 0 0.408333 0 0 0 0.15 0"/>
<feBlend mode="normal" in2="BackgroundImageFix" result="effect1_dropShadow_2174_104"/>
<feBlend mode="normal" in="SourceGraphic" in2="effect1_dropShadow_2174_104" result="shape"/>
</filter>
<filter id="filter1_d_2174_104" x="48.4258" y="211.406" width="83.2698" height="42.19" filterUnits="userSpaceOnUse" color-interpolation-filters="sRGB">
<feFlood flood-opacity="0" result="BackgroundImageFix"/>
<feColorMatrix in="SourceAlpha" type="matrix" values="0 0 0 0 0 0 0 0 0 0 0 0 0 0 0 0 0 0 127 0" result="hardAlpha"/>
<feOffset dx="4.44105" dy="4.44105"/>
<feGaussianBlur stdDeviation="2.22053"/>
<feComposite in2="hardAlpha" operator="out"/>
<feColorMatrix type="matrix" values="0 0 0 0 0 0 0 0 0 0 0 0 0 0 0 0 0 0 0.05 0"/>
<feBlend mode="normal" in2="BackgroundImageFix" result="effect1_dropShadow_2174_104"/>
<feBlend mode="normal" in="SourceGraphic" in2="effect1_dropShadow_2174_104" result="shape"/>
</filter>
<filter id="filter2_d_2174_104" x="137.247" y="211.406" width="123.239" height="42.19" filterUnits="userSpaceOnUse" color-interpolation-filters="sRGB">
<feFlood flood-opacity="0" result="BackgroundImageFix"/>
<feColorMatrix in="SourceAlpha" type="matrix" values="0 0 0 0 0 0 0 0 0 0 0 0 0 0 0 0 0 0 127 0" result="hardAlpha"/>
<feOffset dx="4.44105" dy="4.44105"/>
<feGaussianBlur stdDeviation="2.22053"/>
<feComposite in2="hardAlpha" operator="out"/>
<feColorMatrix type="matrix" values="0 0 0 0 0 0 0 0 0 0 0 0 0 0 0 0 0 0 0.1 0"/>
<feBlend mode="normal" in2="BackgroundImageFix" result="effect1_dropShadow_2174_104"/>
<feBlend mode="normal" in="SourceGraphic" in2="effect1_dropShadow_2174_104" result="shape"/>
</filter>
</defs>
</svg>
