<svg width="29" height="29" viewBox="0 0 29 29" fill="none" xmlns="http://www.w3.org/2000/svg">
<g clip-path="url(#clip0_693_12238)">
<rect width="29" height="29" rx="14.5" fill="#DDDDDD"/>
<path d="M5.62305 14.2183C5.62305 9.39591 9.53239 5.48657 14.3548 5.48657H15.8957C20.7181 5.48657 24.6275 9.39592 24.6275 14.2183V32.1099H5.62305V14.2183Z" fill="white"/>
<ellipse cx="0.570592" cy="0.717063" rx="0.570592" ry="0.717063" transform="matrix(-0.99822 0.0596366 0.0596366 0.99822 15.7148 12.894)" fill="#060C1B"/>
<ellipse cx="0.570592" cy="0.717063" rx="0.570592" ry="0.717063" transform="matrix(-0.998277 0.0586702 0.0586702 0.998277 13.3184 12.7834)" fill="#060C1B"/>
<path d="M3.13477 17.2972C3.13477 16.4863 3.79217 15.8289 4.60312 15.8289H15.7364C16.4992 15.8289 17.1369 16.4129 17.193 17.1736C17.2055 17.3431 17.2162 17.4983 17.2231 17.6164C17.2537 18.1431 17.8502 18.7975 17.8502 18.7975H4.60312C3.79217 18.7975 3.13477 18.1401 3.13477 17.3291V17.2972Z" fill="#FFDC27"/>
</g>
<rect x="0.391892" y="0.391892" width="28.2162" height="28.2162" rx="14.1081" stroke="#DDDDDD" stroke-width="0.783784"/>
<defs>
<clipPath id="clip0_693_12238">
<rect width="29" height="29" rx="14.5" fill="white"/>
</clipPath>
</defs>
</svg>
