<svg width="41" height="41" viewBox="0 0 41 41" fill="none" xmlns="http://www.w3.org/2000/svg">
<path d="M0 20.1443C0 9.01892 9.01892 0 20.1443 0C31.2697 0 40.2887 9.01892 40.2887 20.1443C40.2887 31.2697 31.2697 40.2887 20.1443 40.2887C9.01892 40.2887 0 31.2697 0 20.1443Z" fill="#FDFDFD"/>
<path fill-rule="evenodd" clip-rule="evenodd" d="M11.5467 14.8174C11.2867 12.4834 13.6897 10.7694 15.8127 11.7754L27.7567 17.4334C30.0447 18.5164 30.0447 21.7724 27.7567 22.8554L15.8127 28.5144C13.6897 29.5204 11.2877 27.8064 11.5467 25.4724L12.0267 21.1444H20.1447C20.41 21.1444 20.6643 21.0391 20.8518 20.8516C21.0394 20.664 21.1447 20.4097 21.1447 20.1444C21.1447 19.8792 21.0394 19.6249 20.8518 19.4373C20.6643 19.2498 20.41 19.1444 20.1447 19.1444H12.0277L11.5467 14.8174Z" fill="#005AFF"/>
</svg>
