<svg width="134" height="134" viewBox="0 0 134 134" fill="none" xmlns="http://www.w3.org/2000/svg">
<path d="M0 67C0 29.9969 29.9969 0 67 0C104.003 0 134 29.9969 134 67C134 104.003 104.003 134 67 134C29.9969 134 0 104.003 0 67Z" fill="#005AFF"/>
<path d="M55.8652 68.188C55.4087 66.9079 55.4249 64.1025 55.4249 61.6809C55.4249 59.8225 55.4249 59.1092 55.4249 57.8614C55.4249 56.2452 55.5133 54.7893 55.7541 53.2014C55.9552 51.8743 56.2078 50.4061 56.5421 49.1172C56.8535 47.9167 57.1474 46.7633 57.5696 45.6058C57.959 44.5384 58.4777 43.6504 58.9804 42.6666C59.6028 41.4487 60.8627 40.5284 61.9203 39.9768C63.391 39.2099 64.7682 38.8276 66.3688 38.8276C67.076 38.8276 67.8279 38.7537 68.5257 38.9254C69.2183 39.0958 69.9312 39.5697 70.5155 40.0258C72.7722 41.7872 74.3025 44.1017 75.852 46.7881C76.9054 48.6146 77.3983 50.4474 78.1865 53.4209C78.5832 54.9174 78.5756 56.2135 78.5756 57.4881C78.1924 60.3989 77.6129 60.9057 76.8247 62.9353C75.9564 64.401 75.2991 65.1259 74.071 66.0727C73.0195 66.8835 71.9462 67.3953 70.7073 67.613C67.1333 68.2414 64.2296 65.0994 62.4422 61.6809C61.6807 60.2247 61.0028 58.3978 61.0028 56.6535C61.0028 55.4922 60.7166 52.3436 61.4557 51.4572C62.3914 50.3348 63.4011 50.4474 65.3466 50.2899C67.6811 50.2899 68.3069 50.4681 69.6265 50.4844C71.4205 50.5066 73.3435 50.9892 74.3606 52.8189C74.6109 53.2692 74.6847 53.6414 74.6847 54.1808C74.6847 54.737 74.1404 55.0911 73.7119 55.3481C71.7665 55.5426 71.4783 55.3481 67.9765 55.3481C66.1716 55.3481 65.3466 55.3481 62.2339 54.9174C61.6501 55.0322 58.9266 53.5972 58.1484 54.5698" stroke="white" stroke-width="2.41006" stroke-linecap="round"/>
<path d="M66.9561 46.7876V47.6645" stroke="white" stroke-width="1.26277" stroke-linecap="round"/>
<path d="M70.0059 46.7876C70.0059 47.3608 70.0059 47.2963 70.0059 47.8597" stroke="white" stroke-width="1.26277" stroke-linecap="round"/>
<path d="M41.5173 85.2007V86.4821H31.0151V85.2007H33.4019V83.7937C32.5477 83.4042 32.0703 82.8264 32.0703 82.0726C32.0703 80.6907 33.716 79.8491 36.2662 79.8491C38.8289 79.8491 40.4621 80.6907 40.4621 82.0726C40.4621 82.8264 39.9721 83.4168 39.1053 83.8062V85.2007H41.5173ZM32.2211 89.183C32.2211 87.8388 33.7411 87.0851 36.2411 87.0851C38.7536 87.0851 40.2736 87.8388 40.2736 89.183C40.2736 90.5397 38.7536 91.2935 36.2411 91.2935C33.7411 91.2935 32.2211 90.5397 32.2211 89.183ZM33.7537 82.0726C33.7537 82.7259 34.6582 83.0651 36.2662 83.0651C37.8742 83.0651 38.7913 82.7259 38.7913 82.0726C38.7913 81.4194 37.8742 81.0802 36.2662 81.0802C34.6582 81.0802 33.7537 81.4194 33.7537 82.0726ZM33.8542 89.183C33.8542 89.786 34.6708 90.0749 36.2411 90.0749C37.8239 90.0749 38.6279 89.786 38.6279 89.183C38.6279 88.5926 37.8239 88.3036 36.2411 88.3036C34.6708 88.3036 33.8542 88.5926 33.8542 89.183ZM35.0099 85.2007H37.4973V84.2082C37.1204 84.2585 36.7059 84.2836 36.2662 84.2836C35.8139 84.2836 35.3994 84.2585 35.0099 84.2082V85.2007ZM52.2206 79.6732V85.5147H50.5874V79.6732H52.2206ZM42.7484 84.4469C45.6127 83.9319 46.7684 82.8138 46.9318 81.4068H43.364V80.1129H48.7282C48.7282 83.2786 46.9569 85.0122 43.3137 85.7534L42.7484 84.4469ZM44.4946 87.2358V85.9921H52.2206V89.1202H46.1403V89.9242H52.5221V91.1804H44.5072V87.9519H50.5874V87.2358H44.4946ZM63.7655 79.6606V91.3061H62.1324V79.6606H63.7655ZM54.4692 84.6228C54.4692 82.0852 55.7632 80.4772 57.5219 80.4772C59.2681 80.4772 60.5621 82.0852 60.5621 84.6228C60.5621 87.173 59.2681 88.7684 57.5219 88.7684C55.7632 88.7684 54.4692 87.173 54.4692 84.6228ZM56.0396 84.6228C56.0396 86.3564 56.63 87.2986 57.5219 87.2986C58.4013 87.2986 59.0043 86.3564 59.0043 84.6228C59.0043 82.8892 58.4013 81.9596 57.5219 81.9596C56.63 81.9596 56.0396 82.8892 56.0396 84.6228ZM79.1294 88.6177V89.9367H68.6146V88.6177H73.0492V86.4569H69.7327V80.4144H71.3407V82.2234H76.3657V80.4144H77.9737V86.4569H74.6572V88.6177H79.1294ZM71.3407 85.163H76.3657V83.5047H71.3407V85.163ZM90.0965 79.6732V91.2809H88.5513V85.4771H87.4709V90.7282H85.9509V79.8742H87.4709V84.1706H88.5513V79.6732H90.0965ZM80.6244 88.4418V80.9671H82.2449V87.0474C83.162 87.0222 84.1921 86.9343 85.2976 86.7207L85.4484 88.1152C83.9409 88.3916 82.5967 88.4418 81.4284 88.4418H80.6244ZM101.39 79.6732V91.2809H99.7571V79.6732H101.39ZM91.7673 88.0272C94.7321 86.5951 96.0386 84.7484 96.2898 82.1731H92.3829V80.8792H97.9481C97.9481 84.4218 96.7169 87.3237 92.609 89.3086L91.7673 88.0272Z" fill="white"/>
</svg>
