<svg width="1250" height="644" viewBox="0 0 1250 644" fill="none" xmlns="http://www.w3.org/2000/svg">
<g clip-path="url(#clip0_1478_743)">
<mask id="mask0_1478_743" style="mask-type:luminance" maskUnits="userSpaceOnUse" x="-17" y="0" width="1267" height="644">
<path d="M1250 0.353516H-17V643.354H1250V0.353516Z" fill="white"/>
</mask>
<g mask="url(#mask0_1478_743)">
<path d="M-10.5 337.948V762.854H599.689V337.948C599.689 169.449 463.093 32.8535 294.594 32.8535C126.096 32.8535 -10.5 169.449 -10.5 337.948Z" fill="#005AFF" stroke="black" stroke-width="13"/>
<path d="M418.112 328.859C417.341 332.68 415.628 335.836 413.65 337.871C411.645 339.933 409.713 340.549 408.253 340.323C406.793 340.097 405.219 338.937 404.144 336.396C403.083 333.89 402.71 330.41 403.482 326.589C404.254 322.769 405.966 319.612 407.944 317.578C409.949 315.515 411.882 314.899 413.342 315.125C414.802 315.352 416.375 316.512 417.451 319.052C418.512 321.558 418.884 325.038 418.112 328.859Z" fill="#191919" stroke="#191919" stroke-width="6.28607"/>
<path d="M488.95 331.374C488.609 334.964 487.235 338.031 485.45 340.097C483.66 342.169 481.666 343.043 479.897 342.955C478.129 342.867 476.318 341.804 474.937 339.575C473.56 337.351 472.78 334.178 473.121 330.588C473.462 326.998 474.836 323.931 476.621 321.864C478.41 319.792 480.405 318.919 482.173 319.007C483.942 319.094 485.752 320.156 487.133 322.386C488.51 324.61 489.291 327.784 488.95 331.374Z" fill="#191919" stroke="#191919" stroke-width="6.28607"/>
<path d="M421.311 293.058C424.781 292.144 427.322 290.027 409.718 288.865C392.113 287.703 356.086 272.414 353 267.354" stroke="#191919" stroke-width="9.0481" stroke-linecap="round" stroke-linejoin="round"/>
<path d="M471.105 294.633C468.582 293.97 466.548 292.124 478.591 290.048C490.635 287.971 496.61 277.607 498.092 272.684" stroke="#191919" stroke-width="9.0481" stroke-linecap="round" stroke-linejoin="round"/>
<path d="M381.891 464.565C389.413 422.696 402.253 409.373 409.536 400.451C435.599 373.041 472.416 394.956 482.684 418.134C491.947 439.044 488.323 480.577 481.38 502.801C467.407 547.528 415.622 556.245 397.621 551.105C370.92 543.481 374.369 506.434 381.891 464.565Z" fill="white" stroke="#060C1B" stroke-width="9.0481" stroke-linecap="round" stroke-linejoin="round"/>
<path d="M567.295 354.854H780.501C802.592 354.854 820.501 336.945 820.501 314.854C820.501 292.763 802.592 274.854 780.501 274.854H623.57C596.798 274.854 574.56 296.358 575.707 322.733C576.155 333.046 573.141 342.478 570.111 349.229C569.149 351.371 568.177 353.264 567.295 354.854Z" fill="white" stroke="black" stroke-width="7"/>
<path d="M652.422 294.962C654.984 294.962 656.896 296.301 658.156 298.978C658.156 300.541 657.01 302.832 654.719 305.853C656.323 308.28 657.656 312.098 658.719 317.306C659.104 317.306 659.297 317.499 659.297 317.884V319.603L656.438 320.181H648.984L645.547 320.759C644.016 320.374 643.25 319.223 643.25 317.306L644.391 316.744H647.266V316.165L643.828 310.431V308.712L644.969 306.994C643.823 305.598 643.25 304.259 643.25 302.978V301.837C643.25 300.785 644.203 298.874 646.109 296.103H647.828C648.599 296.103 648.984 296.676 648.984 297.822H649.562C649.562 296.53 650.516 295.577 652.422 294.962ZM650.703 300.119L647.828 299.541C646.964 301.457 646.391 302.415 646.109 302.415C646.495 303.665 647.26 304.426 648.406 304.697C650.74 304.697 652.844 303.363 654.719 300.697V300.119C654.719 299.358 654.333 298.978 653.562 298.978H652.422L650.703 300.119ZM646.688 308.15C647.958 310.942 649.677 313.233 651.844 315.025V316.165H654.719V315.025C653.188 310.442 652.422 307.957 652.422 307.572C650.411 307.957 648.5 308.15 646.688 308.15ZM654.719 323.041C655.771 323.041 657.677 323.999 660.438 325.915H661.016V327.634C661.016 332.405 657.578 335.077 650.703 335.65C648.609 335.65 647.078 334.504 646.109 332.212H645.547V329.915C645.547 326.218 648.604 323.926 654.719 323.041ZM648.406 329.915C648.979 331.447 649.552 332.212 650.125 332.212H651.844C654.906 332.212 656.438 331.067 656.438 328.775V328.197C656.438 327.624 655.672 327.051 654.141 326.478C652.078 326.541 650.167 327.686 648.406 329.915ZM664.359 306.462C665.224 307.223 669.042 307.791 675.812 308.165C676.958 309.561 677.531 310.9 677.531 312.181C676.292 319.087 674.766 323.285 672.953 324.775H671.234V323.056L674.672 312.759C674.286 312.02 674.094 311.447 674.094 311.041H668.375C665.448 311.041 663.729 310.275 663.219 308.744V307.603C663.333 306.843 663.714 306.462 664.359 306.462ZM688.969 306.462H690.109C691.255 306.462 692.214 312.567 692.984 324.775L691.828 325.337H691.266C689.734 325.337 688.969 319.999 688.969 309.322V306.462ZM696.906 313.306H697.484C698.245 313.421 698.625 313.801 698.625 314.447V317.884C698.625 322.853 699.391 325.337 700.922 325.337C703.974 325.337 705.5 325.91 705.5 327.056V328.197C705.5 328.968 705.12 329.353 704.359 329.353C698.88 329.353 696.016 328.207 695.766 325.915C695.766 323.426 695.573 319.603 695.188 314.447L696.906 313.306ZM710.094 313.869H711.812C712.76 313.869 713.526 315.973 714.109 320.181H718.688V319.041C718.688 318.176 718.495 317.41 718.109 316.744C718.495 316.004 718.688 315.431 718.688 315.025H721.547C721.932 315.952 722.318 320.728 722.703 329.353H719.828C719.453 325.53 718.88 323.619 718.109 323.619H713.531V327.634C713.531 328.176 712.958 328.749 711.812 329.353C711.073 328.968 710.5 328.775 710.094 328.775V321.9C710.094 320.306 709.901 318.202 709.516 315.587C709.901 314.848 710.094 314.275 710.094 313.869ZM726.047 305.853H727.766L728.922 306.431L728.344 312.15V313.869C732.552 313.66 734.656 313.28 734.656 312.728L734.078 308.712H736.375C737.135 311.202 737.516 312.921 737.516 313.869V315.587C737.516 318.514 735.604 320.426 731.781 321.322V321.9C731.781 323.806 733.885 324.759 738.094 324.759V326.478C738.094 327.249 737.708 327.634 736.938 327.634H726.625L726.047 325.337C728.339 324.837 729.484 324.264 729.484 323.619V322.478C726.432 320.645 724.906 317.395 724.906 312.728C724.906 311.738 725.286 309.447 726.047 305.853ZM743.828 311.587C744.568 311.962 745.141 312.15 745.547 312.15V315.587L746.109 316.744C747.641 316.171 748.406 315.598 748.406 315.025C749.927 315.4 751.266 315.587 752.422 315.587V317.884C752.422 318.655 752.036 319.041 751.266 319.041H749.547V320.181H748.984V319.041C748.411 319.415 747.266 319.603 745.547 319.603V323.041L744.969 325.915H743.25C742.479 325.915 742.094 325.53 742.094 324.759V324.197C742.094 323.811 742.286 323.619 742.672 323.619C742.672 323.233 742.479 323.041 742.094 323.041C742.479 319.228 742.672 316.363 742.672 314.447V312.728C742.797 311.968 743.182 311.587 743.828 311.587ZM728.344 316.744V317.884C728.75 317.884 729.323 318.077 730.062 318.462C732.354 317.962 733.5 317.389 733.5 316.744V316.165L728.344 316.744Z" fill="#191919"/>
<path d="M550.599 536.143L497 670.736C546.369 688.785 612.588 726.984 625.84 706.448C643.176 679.586 664.542 581.527 676.263 542.828C689.927 512.894 711.624 475.519 709.904 431.826C709.242 415.029 702.502 370.354 639.885 370.354C598.46 370.354 584.503 423.834 582.995 435.644C578.828 444.335 548.768 428.105 557.624 476.372C563.45 508.121 554.937 522.419 550.599 536.143Z" fill="#005AFF" stroke="black" stroke-width="11"/>
<path d="M648.1 507.003H1023.85C1055.64 507.003 1081.42 481.226 1081.42 449.429C1081.42 417.631 1055.64 391.854 1023.85 391.854H731.697C693.499 391.854 661.443 422.785 663.415 460.521C664.164 474.854 659.127 487.965 654.067 497.342C651.984 501.202 649.872 504.477 648.1 507.003Z" fill="#FFDC27" stroke="black" stroke-width="7"/>
<path d="M740.859 440.93H741.565C742.837 443.117 744 448.947 745.055 458.421H746.467C748.743 458.421 751.076 457.721 753.467 456.323C755.324 456.793 756.252 458.192 756.252 460.519C756.252 461.117 752.291 462.28 744.369 464.009C742.322 464.009 740.688 456.552 739.467 441.636L740.859 440.93ZM760.448 443.028H762.565C763.493 446.093 764.193 449.825 764.663 454.225H766.761L770.252 453.519L771.644 455.617V457.028C771.644 458.224 769.546 459.152 765.35 459.813V463.323H763.252C761.51 463.323 760.346 457.257 759.761 445.126C760.219 444.224 760.448 443.524 760.448 443.028ZM777.138 431.164H778.53C779.204 431.164 779.903 431.864 780.628 433.262V442.342L789.707 440.949C791.576 441.649 792.511 442.348 792.511 443.047V443.734C792.511 445.603 788.086 446.538 779.236 446.538H778.53C777.805 446.538 776.871 445.603 775.726 443.734V432.557C775.879 431.628 776.349 431.164 777.138 431.164ZM775.726 450.028C781.499 450.499 784.532 450.734 784.824 450.734L791.805 450.028C793.674 450.728 794.609 451.427 794.609 452.126V453.538C794.609 454.466 794.145 454.93 793.217 454.93H779.236C776.731 454.93 775.097 453.996 774.334 452.126V451.44C774.474 450.499 774.938 450.028 775.726 450.028ZM777.138 459.126L780.628 459.813V466.107C782.777 466.107 786.503 465.643 791.805 464.715L793.903 467.519V468.206C793.903 469.312 789.714 470.247 781.334 471.009C778.066 470.196 776.432 468.098 776.432 464.715V462.617L777.138 459.126ZM840.501 436.028H842.599C843.997 436.499 844.697 437.897 844.697 440.224V452.832H841.912C840.971 452.832 840.501 452.362 840.501 451.421V445.126C833.087 445.597 828.656 445.832 827.206 445.832L826.519 444.421V443.028C826.519 442.1 831.18 441.165 840.501 440.224V436.028ZM813.912 438.832H816.01C816.951 438.832 817.421 439.531 817.421 440.93C816.951 446.703 816.716 449.736 816.716 450.028L818.108 450.734H818.814C819.869 450.734 820.804 450.499 821.618 450.028C824.886 450.842 826.519 451.777 826.519 452.832C826.049 453.735 825.814 454.434 825.814 454.93H815.323C813.454 454.167 812.519 452.533 812.519 450.028V449.323C812.519 447.644 812.755 445.546 813.225 443.028C812.755 442.253 812.519 441.089 812.519 439.538L813.912 438.832ZM863.465 427.655C864.864 429.359 865.563 430.993 865.563 432.557V435.361C865.563 436.594 862.302 438.222 855.779 440.243V441.636C856.923 441.636 859.485 441.172 863.465 440.243L864.858 442.342V444.44C859.555 445.838 856.529 446.538 855.779 446.538C852.981 445.597 851.582 444.662 851.582 443.734V440.949C851.582 438.737 853.216 436.639 856.484 434.655L852.975 435.361C852.047 435.361 851.582 434.89 851.582 433.949V431.851C851.582 430.567 855.543 429.168 863.465 427.655ZM857.171 433.949V435.361C859.078 434.42 860.477 433.949 861.367 433.949V433.262H859.269C858.366 433.72 857.667 433.949 857.171 433.949ZM849.484 447.244C851.875 448.642 854.208 449.342 856.484 449.342H857.171L860.662 448.636V449.342L862.073 448.636H866.956C867.897 448.776 868.367 449.24 868.367 450.028V452.126C865.519 453.067 862.95 453.538 860.662 453.538V454.225C863.93 454.784 865.563 456.882 865.563 460.519C865.563 464.715 861.838 466.813 854.386 466.813L853.681 468.206H857.171L861.367 467.519C862.893 467.977 863.828 468.905 864.171 470.304C863.701 471.207 863.465 471.906 863.465 472.402H860.662L857.171 473.108V472.402L855.779 473.108H854.386C850.19 473.108 848.092 471.474 848.092 468.206C849.3 463.552 853.725 461.225 861.367 461.225V460.519C861.367 459.591 860.903 459.126 859.975 459.126H852.975C852.975 458.631 852.746 457.931 852.288 457.028C852.746 456.126 852.975 455.426 852.975 454.93H857.171C858.099 454.93 858.563 454.466 858.563 453.538C851.341 453.538 847.615 452.368 847.386 450.028V449.342C847.386 448.668 848.086 447.968 849.484 447.244ZM898.847 434.636C901.187 435.284 902.357 436.918 902.357 439.538C902.357 440.364 901.657 442.462 900.259 445.832C901.505 446.366 903.132 448.464 905.142 452.126V454.225L902.357 454.93C900.831 452.247 899.197 450.378 897.455 449.323C894.187 452.082 892.553 454.18 892.553 455.617H889.749L889.062 452.126C892.788 448.515 896.05 444.319 898.847 439.538V438.832C897.919 438.832 897.455 438.597 897.455 438.126L888.357 440.224C887.454 439.767 886.754 439.538 886.259 439.538V436.734C886.259 435.335 890.455 434.636 898.847 434.636ZM912.142 436.028H914.24C916.109 436.028 917.279 442.094 917.749 454.225L916.338 454.93H914.945C914.017 454.93 913.553 454.46 913.553 453.519V452.126C913.553 449.354 913.083 443.988 912.142 436.028ZM933.027 434.636C935.367 435.284 936.537 436.918 936.537 439.538C936.537 440.364 935.838 442.462 934.439 445.832C935.685 446.366 937.313 448.464 939.322 452.126V454.225L936.537 454.93C935.011 452.247 933.377 450.378 931.635 449.323C928.367 452.082 926.733 454.18 926.733 455.617H923.929L923.243 452.126C926.968 448.515 930.23 444.319 933.027 439.538V438.832C932.099 438.832 931.635 438.597 931.635 438.126L922.537 440.224C921.634 439.767 920.935 439.538 920.439 439.538V436.734C920.439 435.335 924.635 434.636 933.027 434.636ZM946.322 436.028H948.42C950.289 436.028 951.459 442.094 951.929 454.225L950.518 454.93H949.126C948.197 454.93 947.733 454.46 947.733 453.519V452.126C947.733 449.354 947.263 443.988 946.322 436.028ZM962.325 430.44H963.717C966.985 436.607 968.619 440.104 968.619 440.93C970.476 441.159 971.404 441.858 971.404 443.028V445.126L970.717 446.519C970.221 446.519 969.522 446.29 968.619 445.832L957.423 447.224C955.553 446.525 954.619 445.826 954.619 445.126L955.325 441.636C956.723 441.636 957.423 441.865 957.423 442.323L960.913 441.636H964.423V440.93C961.613 436.556 960.207 433.523 960.207 431.832L962.325 430.44ZM980.502 440.224H982.6C983.54 440.224 984.48 442.558 985.4 447.224H987.5V440.93H990.31C991.81 448.229 993.21 453.125 994.5 455.617C993.8 457.486 993.1 458.421 992.4 458.421H990.99C990.27 458.421 989.34 456.323 988.21 452.126H985.4C985.4 454.453 984.94 455.617 984.01 455.617H982.6C981.201 455.617 980.502 452.584 980.502 446.519V440.224ZM965.109 450.028H968.619C970.476 450.957 971.874 452.355 972.815 454.225V458.421H970.717L968.619 457.028C967.678 462.153 966.508 464.715 965.109 464.715H964.423C960.061 464.715 957.728 462.153 957.423 457.028C957.423 453.29 959.985 450.957 965.109 450.028ZM960.913 457.028C961.613 458.885 962.312 459.813 963.011 459.813H964.423L965.109 454.93H963.717L960.913 457.028ZM1000 437.459H1002.78C1002.78 437.942 1003.02 438.635 1003.49 439.538C1003.02 444.637 1002.78 449.068 1002.78 452.832V454.93C1002.78 455.859 1002.32 456.323 1001.39 456.323H1000L999.29 452.832V444.44L1000 437.459ZM1002.78 461.911H1004.19C1006.05 462.674 1006.98 464.308 1006.98 466.813V467.519C1006.98 470.367 1004.88 472.23 1000.68 473.108C998.35 472.23 997.19 470.367 997.19 467.519V464.009C997.48 462.611 999.35 461.911 1002.78 461.911ZM1000.68 466.813L1001.39 468.206C1002.29 467.748 1002.99 467.519 1003.49 467.519V466.107H1002.78C1001.88 466.578 1001.18 466.813 1000.68 466.813Z" fill="#191919"/>
<path d="M128.818 537.851L78 673.38C127.651 690.289 194.529 726.931 207.35 706.138C224.12 678.94 243.488 580.594 254.416 541.708C267.459 511.527 288.372 473.739 285.78 430.17C284.784 413.421 277.159 368.983 214.643 370.386C173.284 371.314 160.42 425.001 159.151 436.823C155.165 445.589 124.827 430.065 134.636 478.04C141.088 509.596 132.876 524.057 128.818 537.851Z" fill="#005AFF" stroke="black" stroke-width="11"/>
<path d="M765.927 24.4346H769.286C771.526 25.1879 772.646 27.4277 772.646 31.1539V51.3422H768.187C766.68 51.3422 765.927 50.5889 765.927 49.0821V39.0032C754.056 39.7566 746.96 40.1333 744.639 40.1333L743.539 37.8731V35.6436C743.539 34.1571 751.002 32.6606 765.927 31.1539V24.4346ZM723.351 28.9243H726.71C728.217 28.9243 728.97 30.0441 728.97 32.2839C728.217 41.528 727.84 46.3842 727.84 46.8525L730.07 47.9826H731.2C732.89 47.9826 734.387 47.606 735.69 46.8525C740.923 48.1557 743.539 49.6522 743.539 51.3422C742.786 52.7879 742.409 53.9078 742.409 54.7019H725.611C722.618 53.4803 721.121 50.8637 721.121 46.8525V45.7225C721.121 43.0348 721.498 39.6752 722.251 35.6436C721.498 34.4015 721.121 32.5384 721.121 30.0543L723.351 28.9243ZM786.789 26.6947C798.721 26.6947 804.687 31.5407 804.687 41.2328C804.687 48.6647 798.344 53.1544 785.659 54.7019C778.94 52.1975 775.58 48.0845 775.58 42.3628V41.2328C775.58 34.0451 779.317 29.1991 786.789 26.6947ZM781.17 42.3628C782.391 46.1094 784.631 47.9826 787.889 47.9826C791.819 47.9826 795.179 45.7327 797.968 41.2328V37.8731C797.968 36.8143 796.848 35.6945 794.608 34.5135H791.249C788.602 36.8551 785.619 38.7283 782.3 40.1333L781.17 42.3628ZM813.666 35.6436H817.026C818.513 44.7044 820.376 53.6635 822.615 62.5207C821.882 63.9664 821.516 65.0863 821.516 65.8804C817.016 65.8804 814.023 59.5378 812.537 46.8525L811.437 36.7736L813.666 35.6436ZM803.588 63.6508L804.687 65.8804V67.0104C804.687 70.0036 795.728 71.5002 777.81 71.5002C776.731 71.5002 775.611 70.3803 774.45 68.1405V64.7808C789.131 64.0275 798.844 63.6508 803.588 63.6508ZM864.219 0.916992C869.228 0.916992 872.965 3.53344 875.428 8.76638C875.428 11.8206 873.188 16.3001 868.709 22.205C871.845 26.9492 874.451 34.4117 876.528 44.5924C877.281 44.5924 877.658 44.9691 877.658 45.7225V49.0821L872.068 50.2122H857.5L850.781 51.3422C847.788 50.5889 846.291 48.339 846.291 44.5924L848.52 43.4929H854.14V42.3628L847.421 31.1539V27.7942L849.65 24.4346C847.41 21.7061 846.291 19.0896 846.291 16.5852V14.3556C846.291 12.2991 848.154 8.56272 851.88 3.14658H855.24C856.746 3.14658 857.5 4.26646 857.5 6.50624H858.63C858.63 3.9814 860.493 2.11832 864.219 0.916992ZM860.859 10.996L855.24 9.86589C853.549 13.6124 852.429 15.4857 851.88 15.4857C852.634 17.929 854.13 19.4154 856.369 19.9448C860.931 19.9448 865.044 17.3385 868.709 12.126V10.996C868.709 9.50956 867.955 8.76638 866.449 8.76638H864.219L860.859 10.996ZM853.01 26.6947C855.494 32.1515 858.853 36.6311 863.089 40.1333V42.3628H868.709V40.1333C865.716 31.1742 864.219 26.318 864.219 25.5646C860.289 26.318 856.553 26.6947 853.01 26.6947ZM868.709 55.8014C870.765 55.8014 874.491 57.6747 879.887 61.4212H881.017V64.7808C881.017 74.1065 874.298 79.3292 860.859 80.4492C856.766 80.4492 853.773 78.2092 851.88 73.7297H850.781V69.24C850.781 62.0117 856.757 57.5322 868.709 55.8014ZM856.369 69.24C857.489 72.2332 858.609 73.7297 859.729 73.7297H863.089C869.075 73.7297 872.068 71.49 872.068 67.0104V65.8804C872.068 64.7605 870.572 63.6407 867.578 62.5207C863.547 62.6429 859.811 64.8827 856.369 69.24ZM885.051 23.3961C886.741 24.8825 894.204 25.9922 907.439 26.7252C909.679 29.4537 910.798 32.0701 910.798 34.5745C908.375 48.0742 905.392 56.2799 901.849 59.1916H898.49V55.832L905.209 35.7046C904.455 34.259 904.079 33.1391 904.079 32.3449H892.901C887.179 32.3449 883.82 30.8484 882.822 27.8553V25.6257C883.046 24.1393 883.789 23.3961 885.051 23.3961ZM933.155 23.3961H935.385C937.624 23.3961 939.498 35.328 941.005 59.1916L938.745 60.2911H937.645C934.652 60.2911 933.155 49.8559 933.155 28.9853V23.3961ZM975.306 23.335H979.796C983.42 29.3009 986.4 32.2839 988.74 32.2839H989.87V26.6947C990.1 25.1879 990.84 24.4346 992.1 24.4346H994.33C995.41 24.4346 996.53 25.5544 997.69 27.7942C997.69 32.6606 998.07 40.1333 998.82 50.2122L995.46 52.4418H993.23C991.73 52.4418 990.61 47.9623 989.87 39.0032L984.26 37.8731H982.025V44.5924C982.025 46.0992 981.283 46.8525 979.796 46.8525H977.535C976.049 46.8525 974.929 43.1162 974.176 35.6436L975.306 28.9243V23.335ZM945.039 26.6947H948.398C950.638 27.4277 951.758 29.6674 951.758 33.414V42.3628H952.888L962.967 41.2328C964.413 41.9862 965.533 42.3628 966.326 42.3628V47.9826C957.042 49.469 951.819 50.2122 950.658 50.2122C946.261 50.2122 943.644 42.7395 942.809 27.7942L945.039 26.6947ZM976.406 61.4212H977.535C979.775 61.4212 980.895 62.9077 980.895 65.8804L979.796 71.5002C991.06 69.9935 997.02 69.24 997.69 69.24L999.95 72.6302V75.9895C988.33 78.2295 980.478 79.3495 976.406 79.3495C975.347 79.3495 974.227 78.2295 973.046 75.9895V70.3701C973.046 64.8725 974.166 61.8896 976.406 61.4212ZM1234.93 23.3961C1236.01 23.3961 1237.13 24.5058 1238.29 26.7252L1237.19 40.1638C1243.89 41.2429 1247.24 42.7395 1247.24 44.6535V47.9826C1247.24 49.4894 1246.49 50.2427 1245.01 50.2427C1240.98 49.4894 1237.62 49.1127 1234.93 49.1127V51.3422C1234.93 56.8399 1233.82 59.8229 1231.6 60.2911H1230.47C1229.35 60.2911 1228.23 58.8048 1227.11 55.832C1230.73 34.208 1233.34 23.3961 1234.93 23.3961ZM1205.85 26.7252C1211.08 28.5984 1213.7 31.5916 1213.7 35.7046V37.9342C1209.57 56.565 1206.58 65.8804 1204.75 65.8804H1201.39C1201.39 64.2107 1201.02 62.7243 1200.26 61.4212C1204.74 46.822 1206.98 38.6163 1206.98 36.8041V35.7046H1204.75L1193.54 36.8041L1191.31 33.4445V30.0848C1191.31 28.3948 1196.16 27.275 1205.85 26.7252ZM989.75 123.104C1001.68 123.104 1007.65 127.95 1007.65 137.642C1007.65 145.074 1001.31 149.563 988.62 151.111C981.903 148.607 978.544 144.494 978.544 138.772V137.642C978.544 130.454 982.28 125.608 989.75 123.104ZM984.13 138.772C985.35 142.519 987.59 144.392 990.85 144.392C994.78 144.392 998.14 142.141 1000.93 137.642V134.282C1000.93 133.224 999.81 132.104 997.57 130.923H994.21C991.57 133.264 988.58 135.137 985.26 136.542L984.13 138.772ZM1016.63 132.052H1019.99C1021.48 141.113 1023.34 150.072 1025.58 158.93C1024.85 160.375 1024.48 161.495 1024.48 162.289C1019.98 162.289 1016.99 155.947 1015.5 143.261L1014.4 133.183L1016.63 132.052ZM1006.55 160.06L1007.65 162.289V163.42C1007.65 166.413 998.69 167.91 980.773 167.91C979.694 167.91 978.574 166.79 977.413 164.55V161.19C992.09 160.436 1001.81 160.06 1006.55 160.06ZM1051.48 104.046C1052.56 104.046 1053.68 105.165 1054.84 107.405V115.255L1068.31 116.354V106.275C1068.54 104.788 1069.28 104.046 1070.54 104.046H1071.67C1073.38 104.046 1074.5 109.645 1075.03 120.843H1076.13V117.484H1090.7L1092.96 118.614V115.255H1082.85C1081.36 115.255 1080.62 114.501 1080.62 112.994V110.765C1080.62 109.054 1085.85 107.934 1096.32 107.405C1100.05 118.136 1101.91 124.855 1101.91 127.563V128.693C1101.91 130.179 1100.79 130.923 1098.55 130.923C1097.1 130.19 1095.98 129.823 1095.19 129.823V125.333L1094.06 119.744H1092.96C1092.96 122.717 1091.84 124.203 1089.6 124.203H1078.39L1075.03 121.974C1075.03 129.446 1074.28 133.183 1072.77 133.183H1071.67C1069.15 133.183 1062.79 133.549 1052.61 134.282C1050.37 131.533 1049.25 121.831 1049.25 105.175L1051.48 104.046ZM1055.97 121.974V127.563H1063.82L1069.41 126.464V121.974H1055.97ZM1076.13 134.282H1077.26C1078.75 134.527 1079.49 135.28 1079.49 136.542C1079.49 139.678 1078.75 143.414 1077.26 147.751C1078.01 147.751 1078.39 148.118 1078.39 148.851L1097.42 143.261C1098.86 144.015 1099.98 144.392 1100.78 144.392V149.981C1085.81 153.707 1077.23 155.57 1075.03 155.57L1072.77 152.211V143.261C1072.77 137.743 1073.89 134.75 1076.13 134.282ZM1105.94 123.012H1125.03C1128.02 124.499 1129.52 126.739 1129.52 129.731L1127.26 130.862H1111.53L1105.94 129.731V123.012ZM1129.52 134.221C1130.64 134.221 1131.76 135.717 1132.88 138.711C1132.13 140.971 1131.37 142.101 1130.62 142.101C1129.42 142.101 1121.56 142.844 1107.04 144.331L1104.81 140.971V136.481L1110.43 135.351C1111.17 135.351 1111.53 135.728 1111.53 136.481C1114.77 134.975 1120.77 134.221 1129.52 134.221ZM1142.99 143.2H1145.22C1145.22 152.2 1147.09 156.701 1150.84 156.701L1158.72 157.799V164.55H1149.71C1148.22 164.773 1147.48 165.517 1147.48 166.779L1148.61 173.529C1148.61 174.608 1147.48 175.728 1145.22 176.888H1142.99C1141.48 168.724 1140.73 159.368 1140.73 148.821V145.461C1140.97 143.954 1141.73 143.2 1142.99 143.2ZM1121.64 146.59C1127.63 146.59 1131 149.584 1131.75 155.57C1131.75 161.556 1127.64 165.293 1119.41 166.779C1119.41 172.033 1122.03 174.659 1127.26 174.659H1131.75C1132.5 176.105 1132.88 177.224 1132.88 178.019C1132.13 181.012 1130.63 182.509 1128.39 182.509L1117.15 181.378C1113.1 182.132 1109.73 182.509 1107.04 182.509C1105.6 181.755 1104.48 181.378 1103.68 181.378V174.659H1109.3L1114.92 173.529L1113.79 167.91V164.55C1110.8 164.55 1109.3 161.933 1109.3 156.701C1109.3 149.96 1113.42 146.59 1121.64 146.59ZM1114.92 155.57C1114.92 156.649 1116.04 157.769 1118.28 158.93C1122.78 158.176 1125.03 157.057 1125.03 155.57V154.44H1120.51L1114.92 155.57ZM1186.24 107.436C1188.48 110.164 1189.6 112.78 1189.6 115.285V119.775C1189.6 121.749 1184.38 124.356 1173.93 127.593V129.823C1175.76 129.823 1179.87 129.079 1186.24 127.593L1188.47 130.953V134.313C1179.98 136.553 1175.13 137.673 1173.93 137.673C1169.45 136.166 1167.21 134.669 1167.21 133.183V128.723C1167.21 125.18 1169.83 121.821 1175.06 118.645L1169.44 119.775C1167.96 119.775 1167.21 119.021 1167.21 117.514V114.155C1167.21 112.098 1173.56 109.859 1186.24 107.436ZM1176.16 117.514V119.775C1179.22 118.268 1181.46 117.514 1182.88 117.514V116.415H1179.52C1178.08 117.148 1176.96 117.514 1176.16 117.514ZM1163.85 138.802C1167.68 141.042 1171.42 142.162 1175.06 142.162H1176.16L1181.75 141.032V142.162L1184.01 141.032H1191.83C1193.34 141.256 1194.09 141.999 1194.09 143.261V146.621C1189.53 148.128 1185.42 148.882 1181.75 148.882V149.981C1186.98 150.877 1189.6 154.236 1189.6 160.06C1189.6 166.779 1183.63 170.139 1171.7 170.139L1170.57 172.368H1176.16L1182.88 171.269C1185.32 172.002 1186.82 173.488 1187.37 175.728C1186.62 177.174 1186.24 178.294 1186.24 179.088H1181.75L1176.16 180.217V179.088L1173.93 180.217H1171.7C1164.98 180.217 1161.62 177.602 1161.62 172.368C1163.56 164.916 1170.64 161.19 1182.88 161.19V160.06C1182.88 158.574 1182.14 157.83 1180.65 157.83H1169.44C1169.44 157.036 1169.08 155.916 1168.34 154.47C1169.08 153.025 1169.44 151.905 1169.44 151.111H1176.16C1177.65 151.111 1178.39 150.368 1178.39 148.882C1166.83 148.882 1160.86 147.008 1160.49 143.261V142.162C1160.49 141.083 1161.61 139.963 1163.85 138.802ZM1209.3 144.392H1210.43C1215.65 147.466 1218.25 151.202 1218.25 155.601V160.06C1218.25 165.028 1214.15 169.884 1205.94 174.629H1201.45V169.008C1209.66 163.572 1213.76 160.213 1213.76 158.93V156.701C1210.83 161.608 1206.73 164.59 1201.45 165.649C1197.73 164.611 1195.86 162.005 1195.86 157.83V152.241C1200.53 147.008 1205.01 144.392 1209.3 144.392ZM1199.22 155.601V157.83H1201.45C1205.53 157.83 1208.52 155.967 1210.43 152.241L1208.17 151.111C1202.59 152.027 1199.61 153.524 1199.22 155.601Z" fill="#191919"/>
<path d="M1035.97 10.9956H1037.07C1038.35 10.9956 1040.22 15.4751 1042.69 24.4342C1047.17 24.9024 1049.41 26.0224 1049.41 27.7938C1048.65 29.097 1048.28 30.5935 1048.28 32.2835H1035.97C1027.74 32.2835 1023.63 31.1636 1023.63 28.9239V25.5642L1024.76 23.3346L1032.58 24.4342H1035.97V23.3346C1034.46 18.4682 1033.71 15.0984 1033.71 13.2251C1033.95 11.7388 1034.71 10.9956 1035.97 10.9956ZM1061.71 21.0745H1066.2L1067.33 28.9239H1077.41L1078.51 34.5131V35.6432L1070.69 36.7733C1070.69 36.0198 1070.32 35.6432 1069.56 35.6432C1068.81 36.8852 1068.43 38.7483 1068.43 41.2324H1065.07C1063.06 41.2324 1061.57 36.0097 1060.62 25.5642C1061.35 24.2611 1061.71 22.7645 1061.71 21.0745ZM1037.07 33.4136C1045.29 33.4136 1049.41 37.8931 1049.41 46.8522C1047.21 52.0851 1043.85 54.7016 1039.33 54.7016C1031.85 53.4391 1028.12 49.7028 1028.12 43.4926V40.1329L1029.22 34.5131H1031.48C1032.21 34.5131 1032.58 34.8898 1032.58 35.6432L1037.07 33.4136ZM1033.71 41.2324V43.4926C1035.21 46.4857 1037.45 47.9823 1040.43 47.9823C1043.85 46.5162 1045.72 45.0197 1046.05 43.4926L1042.69 41.2324H1033.71ZM1053.87 49.0818H1055L1056.13 54.7016V61.4209L1068.43 58.0612L1069.56 60.2908V63.6504C1069.56 65.3811 1064.33 67.2442 1053.87 69.2397C1052.42 68.5067 1051.3 68.1402 1050.51 68.1402V52.4415C1050.51 51.3826 1051.63 50.2628 1053.87 49.0818ZM1120.63 27.8244H1121.73C1123.61 27.8244 1125.1 31.9272 1126.22 40.1329C1130.23 40.1329 1132.84 41.6295 1134.04 44.6226C1134.04 45.8443 1131.8 47.3408 1127.32 49.1123C1127.32 52.0851 1126.21 53.5715 1123.99 53.5715H1122.86C1120.75 53.5715 1119.25 45.3658 1118.37 28.9544L1120.63 27.8244ZM1103.83 28.9544H1109.42C1110.91 29.1784 1111.65 29.9216 1111.65 31.184V32.3141C1110.17 50.2322 1108.3 59.1913 1106.06 59.1913H1104.93C1103.16 56.9515 1095.7 55.0782 1082.55 53.5715C1081.06 51.1485 1080.32 49.2854 1080.32 47.9823L1081.45 32.3141H1087.04V46.8522C1093.33 47.6056 1098.55 48.7254 1102.7 50.2119L1106.06 36.7733H1104.93C1102.84 36.7733 1097.61 38.2698 1089.27 41.263V34.5437C1093.52 30.8175 1098.38 28.9544 1103.83 28.9544ZM1181.72 26.7554H1182.82C1185.81 26.7554 1188.05 34.9508 1189.54 51.3419L1186.18 53.602H1185.08C1183 53.602 1180.76 45.3963 1178.36 28.985L1181.72 26.7554ZM1166.05 28.985C1166.81 30.2881 1167.18 31.7745 1167.18 33.4442C1165.53 34.6251 1157.69 36.4882 1143.67 39.0334C1143.67 40.9066 1144.42 45.7628 1145.92 53.602C1157.08 51.3623 1163.42 50.2424 1164.92 50.2424L1167.18 53.602V55.8316C1167.18 57.6031 1159.72 59.0894 1144.79 60.2908H1143.67C1139.76 60.2908 1137.15 51.7186 1135.85 34.5742C1146.33 30.8481 1156.4 28.985 1166.05 28.985ZM768.034 102.915C773.45 104.422 777.553 107.415 780.342 111.894V114.124C780.342 119.377 774.743 123.114 763.544 125.333H761.315C755.329 123.399 752.336 120.039 752.336 115.254C752.336 108.82 757.568 104.707 768.034 102.915ZM759.055 115.254C759.3 116.74 760.053 117.484 761.315 117.484H766.904C767.494 117.484 768.614 116.364 770.263 114.124C769.53 112.678 769.164 111.558 769.164 110.765H766.904C762.893 110.765 760.277 112.261 759.055 115.254ZM772.524 135.412C785.962 136.165 792.682 138.029 792.682 141.001L789.323 145.49L781.472 144.391H778.113C776.321 144.391 774.824 151.854 773.623 166.779H768.034V161.189C768.034 157.443 768.411 151.844 769.164 144.391L766.904 145.49H759.055C757.386 145.49 755.898 145.867 754.595 146.62C751.602 145.5 750.105 144.38 750.105 143.26V141.001C750.105 139.515 757.202 138.029 771.393 136.542C771.393 135.789 771.77 135.412 772.524 135.412ZM809.024 119.774C813.748 119.774 817.097 124.244 819.073 133.183V135.442C819.073 140.655 813.85 143.26 803.404 143.26C801.918 143.505 801.175 144.259 801.175 145.521C801.643 147.761 804.626 148.88 810.123 148.88H817.974C819.46 149.104 820.203 149.848 820.203 151.111V155.6C818.717 155.6 817.974 155.966 817.974 156.699C802.296 155.783 794.456 153.176 794.456 148.88V145.521C794.456 139.535 798.558 136.542 806.764 136.542C808.8 136.542 811.04 135.798 813.483 134.312C811.529 129.527 809.665 126.911 807.894 126.463C803.048 127.97 799.689 128.723 797.815 128.723C796.329 128.723 795.586 127.97 795.586 126.463V123.134C800.432 120.894 804.911 119.774 809.024 119.774ZM840.36 124.233C842.6 124.702 843.72 127.685 843.72 133.183V144.391C843.72 146.061 844.086 147.556 844.82 148.88C843.374 152.28 841.888 154.144 840.36 154.469H839.23C837.744 154.469 837.001 153.726 837.001 152.24V133.183C837.001 127.685 838.121 124.702 840.36 124.233ZM888.652 118.614C892.399 119.652 894.272 122.269 894.272 126.463C894.272 127.787 893.154 131.146 890.914 136.542C892.909 137.397 895.514 140.756 898.732 146.62V149.98L894.272 151.111C891.829 146.815 889.213 143.82 886.423 142.13C881.19 146.548 878.573 149.909 878.573 152.21H874.084L872.985 146.62C878.951 140.837 884.173 134.119 888.652 126.463V125.333C887.166 125.333 886.423 124.956 886.423 124.203L871.854 127.562C870.409 126.829 869.289 126.463 868.495 126.463V121.974C868.495 119.734 875.214 118.614 888.652 118.614ZM909.941 120.843H913.3C916.293 120.843 918.166 130.555 918.92 149.98L916.66 151.111H914.43C912.944 151.111 912.201 150.358 912.201 148.85V146.62C912.201 142.181 911.447 133.589 909.941 120.843ZM971.151 115.254C974.123 115.987 975.609 118.226 975.609 121.974V133.183C975.609 139.149 973.002 142.13 967.79 142.13C967.79 141.336 967.414 140.217 966.66 138.771C967.414 137.326 967.79 136.206 967.79 135.412H966.66C960.042 136.165 955.93 136.542 954.321 136.542L948.732 135.412C944.965 142.884 939.743 146.62 933.065 146.62C924.838 144.909 920.724 140.797 920.724 134.281C920.724 126.32 925.957 120.344 936.423 116.353L947.602 118.614C947.988 118.614 949.485 118.237 952.092 117.484H967.79C967.79 116.73 968.911 115.987 971.151 115.254ZM936.423 123.103C936.423 124.589 934.173 126.829 929.674 129.823L928.574 136.542L935.294 139.902C942.013 136.42 945.372 131.94 945.372 126.463C944.904 124.223 941.92 123.103 936.423 123.103ZM950.961 125.333V127.562L956.581 128.693H962.17L967.79 127.562V125.333H950.961ZM970.021 148.85C972.261 151.722 973.38 155.081 973.38 158.93V163.419L972.25 169.038H967.79C966.283 169.038 965.531 168.286 965.531 166.779V156.699L952.092 157.829C949.098 156.709 947.602 155.589 947.602 154.469V152.21C947.602 149.97 955.075 148.85 970.021 148.85Z" fill="#005AFF"/>
</g>
</g>
<defs>
<clipPath id="clip0_1478_743">
<rect width="1250" height="644" fill="white"/>
</clipPath>
</defs>
</svg>
