<svg width="17" height="21" viewBox="0 0 17 21" fill="none" xmlns="http://www.w3.org/2000/svg">
<path d="M1.28535 20.0158C0.989551 19.1865 1.00005 17.3689 1.00005 15.8001C1.00006 14.5961 1.00005 14.1339 1.00005 13.3256C1.00005 12.2784 1.05736 11.3352 1.21331 10.3065C1.34365 9.44671 1.50726 8.49549 1.72387 7.66047C1.92562 6.88267 2.11602 6.13543 2.38956 5.38551C2.6418 4.69401 2.97789 4.11866 3.30357 3.48133C3.70678 2.69228 4.52302 2.09601 5.20821 1.7387C6.16103 1.24182 7.05329 0.994128 8.09024 0.994128C8.54846 0.994128 9.03556 0.94626 9.48768 1.0575C9.93639 1.16789 10.3982 1.47491 10.7768 1.77039C12.2388 2.91156 13.2303 4.4111 14.2342 6.15149C14.9166 7.33481 15.2359 8.52225 15.7466 10.4487C16.0036 11.4182 15.9987 12.2579 15.9987 13.0837C15.7504 14.9695 15.375 15.2978 14.8643 16.6128C14.3017 17.5623 13.8759 18.032 13.0803 18.6454C12.3991 19.1707 11.7037 19.5022 10.901 19.6433C8.58557 20.0504 6.70432 18.0148 5.54633 15.8001C5.05302 14.8566 4.61383 13.6731 4.61383 12.543C4.61383 11.7906 4.42838 9.75074 4.90722 9.17648C5.51346 8.44931 6.1676 8.52225 7.428 8.4202C8.94047 8.4202 9.3459 8.53563 10.2008 8.54623C11.3631 8.56062 12.609 8.87323 13.2679 10.0587C13.43 10.3504 13.4779 10.5916 13.4779 10.941C13.4779 11.3013 13.1252 11.5307 12.8476 11.6972C11.5873 11.8233 11.4006 11.6972 9.13184 11.6972C7.9625 11.6972 7.428 11.6972 5.41137 11.4182C5.03319 11.4926 3.2687 10.5629 2.76454 11.193" stroke="#96B948" stroke-width="1.10509" stroke-linecap="round"/>
<path d="M8.4707 6.15137V6.71949" stroke="#96B948" stroke-width="0.818109" stroke-linecap="round"/>
<path d="M10.4473 6.15137C10.4473 6.52276 10.4473 6.48093 10.4473 6.84597" stroke="#96B948" stroke-width="0.818109" stroke-linecap="round"/>
</svg>
