<svg width="311" height="262" viewBox="0 0 311 262" fill="none" xmlns="http://www.w3.org/2000/svg">
<g clip-path="url(#clip0_2174_173)">
<path d="M49 181.782V311H229V181.782C229 130.54 188.705 89 139 89C89.295 89 49 130.54 49 181.782Z" fill="white" stroke="black" stroke-width="2.83196"/>
<path d="M119.894 174.359C119.694 175.568 119.251 176.567 118.739 177.21C118.22 177.863 117.719 178.057 117.341 177.986C116.964 177.914 116.556 177.547 116.277 176.744C116.003 175.951 115.906 174.85 116.106 173.641C116.306 172.433 116.75 171.433 117.262 170.79C117.781 170.137 118.281 169.943 118.659 170.014C119.037 170.086 119.444 170.453 119.722 171.257C119.997 172.049 120.094 173.15 119.894 174.359Z" fill="#191919" stroke="#191919" stroke-width="2.63295"/>
<path d="M150.98 174.131C150.895 175.329 150.551 176.354 150.105 177.044C149.656 177.735 149.158 178.028 148.715 177.998C148.273 177.969 147.82 177.614 147.474 176.87C147.13 176.127 146.935 175.067 147.02 173.869C147.106 172.67 147.449 171.646 147.896 170.955C148.343 170.264 148.842 169.972 149.285 170.002C149.727 170.031 150.18 170.386 150.525 171.13C150.87 171.873 151.065 172.933 150.98 174.131Z" fill="#191919" stroke="#191919" stroke-width="2.63295"/>
<path d="M130.944 194.702C142.104 194.587 136.51 194.201 149.891 193.311C172.493 189.833 160.125 216.608 154.876 221.128C144.224 231.428 127.852 228.11 119.976 224.257C107.856 217.084 106.863 206.125 107.013 200.265C107.236 191.573 119.784 194.816 130.944 194.702Z" fill="#F59D91" stroke="#060C1B" stroke-width="2.83196" stroke-linecap="round" stroke-linejoin="round"/>
<path d="M44.2906 233.089L2 262.433C10.7911 277.51 19.9663 301.392 27.0764 298.806C36.3782 295.425 59.9978 274.282 70.1301 266.629C79.1012 261.674 87.0639 258.676 94.8174 246.896C97.7974 242.368 102.737 232.19 87.3012 219.047C77.0894 210.352 62.448 215.791 59.8661 218.561C57.2129 219.958 45.6037 199.739 40.6853 209.836C43.432 222.303 47.9291 230.413 44.2906 233.089Z" fill="white" stroke="black" stroke-width="2.83196"/>
<path d="M160.341 60.0616L148.137 82C147.485 79.8195 146.538 77.0259 145.507 74.1146C144.202 70.427 142.722 66.4303 141.535 63.2249C140.824 61.3049 140.218 59.6681 139.818 58.5535L139.729 58.3049L139.568 58.0984C138.624 56.8843 137.291 56.2227 135.896 55.8541C134.507 55.4876 132.924 55.3784 131.309 55.3708C129.812 55.3643 128.2 55.4476 126.592 55.5308C126.458 55.5373 126.324 55.5438 126.189 55.5514C124.43 55.6411 122.672 55.7222 120.964 55.6951C117.497 55.6422 114.547 55.1373 112.475 53.6335C110.527 52.2184 109.061 49.6908 109.061 44.7957C109.061 41.347 109.043 38.1762 109.027 35.2595C108.99 28.7303 108.961 23.4701 109.153 19.1865C109.435 12.9393 110.187 9.20746 111.776 6.85189C113.276 4.62789 115.735 3.34757 120.339 2.67794C124.976 2.004 131.394 2 140.434 2H283.286C289.289 2 293.868 2.36552 297.376 3.23795C300.859 4.10357 303.188 5.44411 304.812 7.33168C306.449 9.23351 307.514 11.8585 308.158 15.5739C308.803 19.301 309 23.9841 309 29.8897C309 38.3676 308.438 45.4497 306.439 50.3795C305.455 52.8076 304.155 54.627 302.474 55.8486C300.802 57.0627 298.627 57.7784 295.728 57.7784H295.72H295.711L161.702 59.24L160.792 59.2497L160.341 60.0616Z" fill="#FFDC27" stroke="black" stroke-width="2.83196"/>
<path d="M110 154C112.693 151.736 119.462 148.567 125 154" stroke="black" stroke-width="2.83196" stroke-linecap="round"/>
<path d="M141 154C143.693 151.736 150.462 148.567 156 154" stroke="black" stroke-width="2.83196" stroke-linecap="round"/>
<path d="M220.604 235.876L260 264.505C251.519 278.746 242.555 301.373 235.899 298.798C227.192 295.429 205.254 274.907 195.825 267.453C187.45 262.59 179.998 259.609 172.863 248.258C170.121 243.894 165.613 234.113 180.321 221.822C190.051 213.69 203.755 219.103 206.147 221.783C208.625 223.156 219.827 204.059 224.318 213.76C221.561 225.605 217.216 233.268 220.604 235.876Z" fill="white" stroke="black" stroke-width="2.83196"/>
<path d="M137.099 18H137.465C137.891 18 138.513 19.5885 139.332 22.7654C140.82 22.9315 141.564 23.3287 141.564 23.9568C141.314 24.4189 141.189 24.9495 141.189 25.5489H137.099C134.367 25.5489 133 25.1517 133 24.3575V23.1661L133.376 22.3756L135.974 22.7654H137.099V22.3756C136.599 20.6499 136.349 19.4549 136.349 18.7907C136.43 18.2636 136.68 18 137.099 18ZM145.654 21.5741H147.145L147.52 24.3575H150.869L151.234 26.3395V26.7402L148.636 27.1409C148.636 26.8738 148.511 26.7402 148.261 26.7402C148.011 27.1807 147.886 27.8414 147.886 28.722H146.769C146.1 28.722 145.606 26.8702 145.288 23.1661C145.532 22.7041 145.654 22.1734 145.654 21.5741ZM137.465 25.9497C140.197 25.9497 141.564 27.538 141.564 30.7149C140.834 32.5701 139.717 33.4983 138.216 33.4983C135.734 33.0507 134.492 31.7264 134.492 29.5241V28.3323L134.857 26.3395H135.609C135.852 26.3395 135.974 26.4731 135.974 26.7402L137.465 25.9497ZM136.349 28.722V29.5241C136.849 30.5846 137.594 31.1155 138.581 31.1155C139.717 30.5964 140.339 30.0656 140.448 29.5241L139.332 28.722H136.349ZM143.046 31.5053H143.421L143.797 33.4983V35.8811L147.886 34.6902L148.261 35.4805V36.6714C148.261 37.2855 146.522 37.9466 143.046 38.6537C142.566 38.3942 142.194 38.2639 141.929 38.2639V32.6972C141.929 32.3213 142.302 31.924 143.046 31.5053ZM166.058 23.9676H166.423C167.046 23.9676 167.543 25.4225 167.915 28.3323C169.248 28.3323 170.113 28.863 170.513 29.9246C170.513 30.3571 169.768 30.888 168.28 31.516C168.28 32.5701 167.912 33.0977 167.175 33.0977H166.798C166.095 33.0977 165.598 30.1884 165.307 24.3683L166.058 23.9676ZM160.478 24.3683H162.335C162.828 24.4478 163.075 24.7114 163.075 25.159V25.5597C162.581 31.9133 161.962 35.0907 161.218 35.0907H160.843C160.254 34.2961 157.775 33.6318 153.405 33.0977C152.911 32.239 152.665 31.5779 152.665 31.1155L153.04 25.5597H154.897V30.7149C156.987 30.9819 158.723 31.3793 160.102 31.9069L161.218 27.1409H160.843C160.146 27.1409 158.411 27.6717 155.638 28.7326V26.3504C157.051 25.029 158.664 24.3683 160.478 24.3683ZM187.184 23.5885H187.549C188.543 23.5885 189.287 26.4948 189.781 32.3074L188.665 33.1084H188.299C187.61 33.1084 186.865 30.1991 186.067 24.3792L187.184 23.5885ZM181.979 24.3792C182.229 24.8412 182.354 25.3683 182.354 25.9604C181.805 26.3792 179.202 27.0399 174.541 27.9424C174.541 28.6067 174.791 30.3283 175.291 33.1084C178.999 32.3138 181.102 31.9175 181.602 31.9175L182.354 33.1084V33.8988C182.354 34.5278 179.874 35.0544 174.916 35.4805H174.541C173.242 35.4805 172.376 32.4409 171.943 26.3612C175.427 25.0399 178.772 24.3792 181.979 24.3792ZM205.995 26.3504C207.727 26.3504 208.593 27.9388 208.593 31.1155L214.173 29.9246C214.173 28.3359 214.42 27.5417 214.914 27.5417C215.631 27.5778 216.253 28.372 216.781 29.9246C217.275 30.0036 217.522 30.2674 217.522 30.7149V31.9069H216.781V32.7079L217.147 36.6714L216.405 37.073H215.665C215.307 37.073 214.934 36.6757 214.549 35.8811V32.3074C213.29 32.3074 211.305 32.7047 208.593 33.4983V36.6714L208.968 39.4547L207.852 40.2461H207.477C206.97 40.1308 206.475 39.4697 205.995 38.2639L206.36 37.4628C206.117 37.0004 205.995 36.4727 205.995 35.8811C205.995 35.614 206.117 35.4805 206.36 35.4805L205.995 34.6902C205.995 34.4232 206.117 34.2886 206.36 34.2886L205.995 31.516V28.7326H204.879C203.885 28.7326 202.272 28.9965 200.039 29.5241L199.298 28.3323C199.298 27.2782 201.53 26.6175 205.995 26.3504ZM223.031 18.8231H225.264C228.484 18.8231 230.094 19.3502 230.094 20.4044V21.5958C229.829 21.5958 229.457 21.7293 228.977 21.9965C228.165 21.4694 227.422 21.2058 226.746 21.2058H223.406C223.406 22.26 223.281 22.7871 223.031 22.7871C223.281 23.2492 223.406 23.7799 223.406 24.3792H228.236C228.589 24.3792 228.961 24.7763 229.353 25.5705C228.981 26.6247 228.609 27.1517 228.236 27.1517H223.772C222.426 27.1517 221.435 26.6247 220.799 25.5705V20.0145C221.049 19.2202 221.794 18.8231 223.031 18.8231ZM226.004 28.7444H230.094C230.655 28.7444 231.027 29.4044 231.209 30.7256C230.391 31.2532 229.647 31.516 228.977 31.516H224.148L219.683 31.9175C219.189 31.0578 218.942 30.3977 218.942 29.9353C219.706 29.1406 222.061 28.7444 226.004 28.7444ZM226.746 33.1084H227.486C229.718 33.1084 230.834 34.6934 230.834 37.8633C230.543 39.4515 228.189 40.2461 223.772 40.2461V40.636C223.529 41.1049 223.406 41.6357 223.406 42.2274H228.977C229.336 42.2274 229.708 42.6247 230.094 43.4193V45H226.004C224.448 45 222.713 44.6038 220.799 43.8091V42.2274C220.799 39.318 222.409 37.8633 225.629 37.8633C227.367 37.5963 228.236 37.199 228.236 36.6714C228.236 36.1449 227.986 35.8811 227.486 35.8811H227.121L223.406 36.2816L222.656 35.0907V34.2886C222.656 33.5025 224.019 33.1084 226.746 33.1084ZM238.586 25.9604C241.15 25.9604 242.885 27.0182 243.792 29.1342L246.023 29.5348H247.13V27.1517C247.13 26.5525 247.752 26.1554 248.997 25.9604C249.395 26.8558 249.889 29.5016 250.478 33.8988C250.228 35.221 249.608 35.8811 248.621 35.8811C247.877 35.0362 247.505 33.8454 247.505 32.3074H243.05C243.05 35.2456 241.437 37.0976 238.21 37.8633C234.497 37.011 232.64 35.4261 232.64 33.1084C233.696 29.9961 235.431 27.7475 237.845 26.3612L238.586 25.9604ZM235.613 33.1084V33.4983C235.945 34.5599 237.061 35.0907 238.962 35.0907C240.2 34.6934 240.818 33.368 240.818 31.1155V29.1342C237.348 29.4589 235.613 30.7833 235.613 33.1084ZM252.639 19.5921H258.596C259.096 19.6715 259.346 19.9351 259.346 20.3827V22.7654C261.856 22.7654 263.963 23.5597 265.667 25.1482V27.1409L263.811 27.5309C263.811 26.4767 262.072 25.6824 258.596 25.1482C257.418 27.5309 256.675 28.722 256.363 28.722H255.247C255.247 28.4406 255.122 28.0434 254.871 27.5309L257.114 21.9748H256.363L254.131 22.3756C252.642 22.0001 251.899 21.2022 251.899 19.982L252.639 19.5921ZM269.391 25.1482H271.248C271.999 29.3575 272.374 32.5381 272.374 34.6902L270.883 35.08L269.391 31.1155C267.409 30.8484 266.418 30.4479 266.418 29.9139V28.3323H269.391V25.1482ZM255.247 31.9069C256.702 32.7004 257.942 33.0977 258.971 33.0977C261.081 32.8307 262.819 32.6972 264.186 32.6972L264.551 33.4983V34.2886C264.551 34.8888 263.188 35.4186 260.462 35.8811V39.4547C260.462 39.9823 260.212 40.2461 259.711 40.2461H258.971C258.477 40.2461 258.229 39.9823 258.229 39.4547V35.4805C255.497 35.4805 254.131 34.5524 254.131 32.6972C254.131 32.1696 254.503 31.9069 255.247 31.9069ZM275.287 23.5777H276.768C276.768 23.8521 276.893 24.2456 277.143 24.7582C276.893 27.6536 276.768 30.1702 276.768 32.3074V33.4983C276.768 34.0259 276.521 34.2886 276.027 34.2886H275.287L274.911 32.3074V27.5417L275.287 23.5777ZM276.768 37.4628H277.519C278.507 37.8954 279 38.8235 279 40.2461V40.6467C279 42.2637 277.884 43.3221 275.652 43.8198C274.414 43.3221 273.795 42.2637 273.795 40.6467V38.6537C273.95 37.8591 274.942 37.4628 276.768 37.4628ZM275.652 40.2461L276.027 41.0365C276.508 40.777 276.88 40.6467 277.143 40.6467V39.8456H276.768C276.287 40.1126 275.915 40.2461 275.652 40.2461Z" fill="black"/>
<path d="M10.2588 77.1821L48.2588 103.066" stroke="black" stroke-width="3" stroke-linecap="round"/>
<path d="M77 12.3911L95.441 70.6459" stroke="black" stroke-width="3" stroke-linecap="round"/>
<path d="M41 63.0337L63 90.0431" stroke="black" stroke-width="3" stroke-linecap="round"/>
</g>
<defs>
<clipPath id="clip0_2174_173">
<rect width="311" height="262" fill="white"/>
</clipPath>
</defs>
</svg>
