<svg width="600" height="529" viewBox="0 0 600 529" fill="none" xmlns="http://www.w3.org/2000/svg">
<g clip-path="url(#clip0_1832_867)">
<path d="M151.873 287.618C160.255 169.297 262.968 80.173 381.29 88.5547C499.611 96.9364 588.735 199.65 580.353 317.971L557.904 634.871L129.425 604.519L151.873 287.618Z" fill="#FDFDFD" stroke="#191919" stroke-width="8.94559"/>
<path d="M456.168 249.019C455.339 247.515 453.937 246.4 452.744 245.237C453.712 245.413 456.82 246.575 457.731 247.016C460.707 248.457 467.707 255.102 472.453 261.375C473.749 263.087 475.678 265.413 476.301 267.621C476.672 268.94 476.88 269.22 477.214 271.596C477.607 274.393 476.471 277.693 475.062 278.358C473.13 279.271 471.106 279.645 468.431 278.066C465.756 276.486 463.893 274.863 461.882 267.35C461.096 264.608 460.392 261.309 459.623 258.573C458.658 255.139 457.902 252.165 456.168 249.019Z" fill="#5FB2FF"/>
<path d="M469.906 245.273C469.164 244.766 468.25 244.622 467.422 244.391C467.911 244.195 469.712 244.101 470.238 244.054C471.957 243.9 476.687 244.924 480.378 246.66C481.385 247.134 482.832 247.728 483.647 248.646C484.134 249.195 484.297 249.273 485.018 250.36C485.868 251.64 485.633 253.261 485.402 254.058C485.23 254.65 484.174 256.075 482.561 256.071C480.949 256.068 479.649 255.893 476.925 252.737C475.907 251.6 474.793 250.162 473.784 249.024C472.518 247.595 471.459 246.334 469.906 245.273Z" fill="#5FB2FF"/>
<path d="M279.715 297.048C276.119 297.024 273.281 291.99 273.375 285.803C273.469 279.616 276.461 274.62 280.056 274.643C283.652 274.667 286.49 279.701 286.396 285.888C286.302 292.075 283.311 297.071 279.715 297.048Z" fill="#191919"/>
<path d="M233.163 292.635C229.56 292.611 226.713 287.826 226.802 281.947C226.892 276.067 229.885 271.32 233.487 271.343C237.089 271.367 239.937 276.152 239.848 282.032C239.758 287.911 236.765 292.659 233.163 292.635Z" fill="#191919"/>
<path d="M382.181 400.053C379.51 399.681 376.217 399.224 372.422 398.702C361.709 397.227 346.991 395.23 330.976 393.142C298.991 388.97 261.687 384.412 240.825 382.934C208.535 380.646 166.307 379.941 134.705 379.77C114.94 379.663 100.777 360.478 106.654 341.684C110.791 328.454 123.717 320.005 137.495 321.525L347.294 344.671C362.992 346.403 375.142 359.165 374.785 374.516C374.611 382.008 377.602 390.252 380.364 396.294C380.978 397.639 381.593 398.901 382.181 400.053Z" fill="#FFDC27"/>
<path d="M382.181 400.053C379.51 399.681 376.217 399.224 372.422 398.702C361.709 397.227 346.991 395.23 330.976 393.142C298.991 388.97 261.687 384.412 240.825 382.934C208.535 380.646 166.307 379.941 134.705 379.77C114.94 379.663 100.777 360.478 106.654 341.684C110.791 328.454 123.717 320.005 137.495 321.525L347.294 344.671C362.992 346.403 375.142 359.165 374.785 374.516C374.611 382.008 377.602 390.252 380.364 396.294C380.978 397.639 381.593 398.901 382.181 400.053Z" fill="url(#paint0_linear_1832_867)" fill-opacity="0.2"/>
<path d="M382.181 400.053C379.51 399.681 376.217 399.224 372.422 398.702C361.709 397.227 346.991 395.23 330.976 393.142C298.991 388.97 261.687 384.412 240.825 382.934C208.535 380.646 166.307 379.941 134.705 379.77C114.94 379.663 100.777 360.478 106.654 341.684C110.791 328.454 123.717 320.005 137.495 321.525L347.294 344.671C362.992 346.403 375.142 359.165 374.785 374.516C374.611 382.008 377.602 390.252 380.364 396.294C380.978 397.639 381.593 398.901 382.181 400.053Z" stroke="#191919" stroke-width="7.66765"/>
<path d="M282.514 254.053C281.872 252.632 281.854 251.17 286.924 256.692C291.994 262.214 298.073 262.706 300.479 262.261" stroke="#191919" stroke-width="6.38971" stroke-linecap="round" stroke-linejoin="round"/>
<path d="M222.715 247.965C221.531 247.03 220.888 245.749 227.781 248.105C234.674 250.46 240.307 247.877 242.262 246.291" stroke="#191919" stroke-width="6.38971" stroke-linecap="round" stroke-linejoin="round"/>
<path d="M189.535 551.775C183.356 583.631 173.201 597.226 162.85 602.363C152.467 607.515 140.74 604.76 129.524 600.55C118.305 596.338 108.161 590.879 101.926 579.643C95.6278 568.292 92.5876 549.71 98.7941 517.712C105.099 485.206 112.969 444.713 125.133 414.566C131.221 399.476 138.225 387.405 146.32 380.193C154.215 373.16 162.949 370.87 173.152 374.636C184.27 379.968 191.645 389.104 196.372 401.175C201.196 413.493 203.218 428.809 203.294 445.855C203.447 479.957 195.842 519.261 189.535 551.775Z" fill="#FDFDFD" stroke="#191919" stroke-width="8.94559"/>
<path d="M279.275 534.745C284.413 564.926 280.629 581.848 274.124 591.703C267.663 601.49 257.75 605.489 247.632 608.041C237.519 610.592 228.025 611.488 219.741 605.571C211.266 599.518 203.005 585.593 197.844 555.284C192.608 524.531 186.097 486.208 186.237 454.241C186.307 438.232 188.053 424.285 192.175 413.846C196.192 403.673 202.257 397.24 211.139 394.928C221.299 393.413 229.84 396.944 237.338 404.476C245.004 412.175 251.418 423.93 256.843 438.224C267.69 466.804 274.037 503.984 279.275 534.745Z" fill="#FDFDFD" stroke="#191919" stroke-width="8.94559"/>
</g>
<defs>
<linearGradient id="paint0_linear_1832_867" x1="92.1211" y1="346.72" x2="391.931" y2="367.958" gradientUnits="userSpaceOnUse">
<stop stop-opacity="0"/>
<stop offset="1" stop-color="#F78500"/>
</linearGradient>
<clipPath id="clip0_1832_867">
<rect width="600" height="529" fill="white"/>
</clipPath>
</defs>
</svg>
