<svg width="549" height="490" viewBox="0 0 549 490" fill="none" xmlns="http://www.w3.org/2000/svg">
<g clip-path="url(#clip0_693_12180)">
<path d="M491.848 245.924C491.848 110.104 381.744 0.000244141 245.924 0.000244141C110.104 0.000244141 0 110.104 0 245.924V489.595H491.848V245.924Z" fill="white"/>
<path d="M149.425 166.046C150.472 164.543 152.129 163.487 153.556 162.365C152.459 162.476 148.89 163.456 147.835 163.848C144.391 165.127 136.033 171.523 130.225 177.698C128.64 179.384 126.296 181.66 125.425 183.911C124.905 185.255 124.65 185.531 124.088 187.978C123.427 190.859 124.437 194.374 125.96 195.17C128.05 196.262 130.285 196.8 133.402 195.354C136.52 193.909 138.734 192.357 141.579 184.691C142.675 181.897 143.725 178.518 144.803 175.729C146.155 172.229 147.236 169.191 149.425 166.046Z" fill="white"/>
<path d="M134.354 161.139C135.225 160.666 136.258 160.583 137.204 160.404C136.672 160.164 134.664 159.934 134.079 159.846C132.169 159.559 126.795 160.275 122.528 161.809C121.363 162.228 119.697 162.739 118.713 163.634C118.125 164.169 117.936 164.239 117.042 165.316C115.99 166.584 116.125 168.288 116.32 169.134C116.466 169.762 117.535 171.322 119.339 171.437C121.143 171.552 122.612 171.466 125.909 168.384C127.138 167.277 128.498 165.863 129.718 164.754C131.247 163.361 132.533 162.127 134.354 161.139Z" fill="white"/>
<path d="M320.049 232.569C326.304 232.943 331.756 226.873 332.225 219.012C332.695 211.15 328.005 204.475 321.749 204.101C315.494 203.727 310.042 209.797 309.572 217.658C309.103 225.52 313.793 232.195 320.049 232.569Z" fill="#060C1B"/>
<path d="M372.422 232.569C378.677 232.943 384.129 226.873 384.599 219.012C385.068 211.15 380.378 204.475 374.122 204.101C367.867 203.727 362.415 209.797 361.946 217.658C361.476 225.52 366.166 232.195 372.422 232.569Z" fill="#060C1B"/>
<path d="M549 313.737C549 292.791 531.563 276.058 510.635 276.919L219.665 288.903C201.318 289.659 185.604 303.251 184.539 321.583C183.748 335.209 168.314 352.137 168.314 352.137L357.884 344.251L510.632 350.554C531.561 351.418 549 334.684 549 313.737Z" fill="#FFDC27"/>
<path d="M549 313.737C549 292.791 531.563 276.058 510.635 276.919L219.665 288.903C201.318 289.659 185.604 303.251 184.539 321.583C183.748 335.209 168.314 352.137 168.314 352.137L357.884 344.251L510.632 350.554C531.561 351.418 549 334.684 549 313.737Z" fill="url(#paint0_linear_693_12180)" fill-opacity="0.2"/>
<path d="M315.609 168.942C316.44 167.511 316.576 165.993 310.466 171.362C304.356 176.732 297.514 176.795 294.858 176.156" stroke="#060C1B" stroke-width="8.64357" stroke-linecap="round" stroke-linejoin="round"/>
<path d="M384.971 171.865C386.165 170.719 386.715 169.297 379.36 172.771C372.005 176.246 365.412 174.419 363.035 173.071" stroke="#060C1B" stroke-width="8.64357" stroke-linecap="round" stroke-linejoin="round"/>
</g>
<defs>
<linearGradient id="paint0_linear_693_12180" x1="549" y1="313.738" x2="168.314" y2="313.738" gradientUnits="userSpaceOnUse">
<stop stop-opacity="0"/>
<stop offset="1" stop-color="#F78500"/>
</linearGradient>
<clipPath id="clip0_693_12180">
<rect width="549" height="490" fill="white"/>
</clipPath>
</defs>
</svg>
