<svg width="254" height="213" viewBox="0 0 254 213" fill="none" xmlns="http://www.w3.org/2000/svg">
<g id="&#225;&#132;&#133;&#225;&#133;&#169;&#225;&#132;&#128;&#225;&#133;&#169; 1">
<path id="Vector" d="M109.379 52.954C129.75 49.432 153.043 53.2111 167.262 56.6309C188.187 61.6636 205.603 81.3428 213.975 97.7462C223.511 137.742 190.6 157.028 167.607 164.357C146.864 170.969 104.311 169.194 82.264 164.238C63.3804 159.994 31.8484 151.398 24.2116 141.316C13.9046 127.708 45.4679 140.372 52.6963 122.157C56.5901 112.345 52.5164 97.8557 60.785 84.1216C68.5771 71.1789 85.0092 57.1675 109.379 52.954Z" fill="white" stroke="#060C1B" stroke-width="5.72867" stroke-linecap="round" stroke-linejoin="round"/>
<path id="Vector_2" d="M203.977 46.9474C211.659 45.5099 220.442 47.0524 225.803 48.4482C233.694 50.5024 240.261 58.5348 243.417 65.2301C247.013 81.5551 234.604 89.4269 225.934 92.4183C218.112 95.1169 202.066 94.3925 193.753 92.3698C186.633 90.6373 174.743 87.1288 171.863 83.0137C167.977 77.4596 179.878 82.6283 182.604 75.1937C184.072 71.189 182.536 65.2748 185.654 59.669C188.592 54.3862 194.788 48.6672 203.977 46.9474Z" fill="#005AFF" stroke="#060C1B" stroke-width="5.03202" stroke-linecap="round" stroke-linejoin="round"/>
<path id="Vector_3" d="M178.362 42.3628C176.515 42.5734 175.176 40.8982 173.889 39.9779C173.491 39.6936 172.883 38.7522 172.853 38.1301C172.817 37.4029 172.979 36.6148 172.981 35.8936C173.246 34.3373 173.304 34.5259 173.574 33.7569C174.404 32.0221 174.926 31.866 175.228 31.5642C177.374 29.9552 177.538 30.4216 179.021 30.4345C180.669 30.565 180.715 31.0489 181.389 32.0082C182.386 33.4268 182.222 35.7216 181.606 37.8154C181.227 39.1038 179.863 42.1916 178.362 42.3628Z" fill="black" stroke="black" stroke-width="1.68512" stroke-linecap="round"/>
<path id="Vector_4" d="M134.723 34.9419C133.245 33.4771 133.227 30.8216 132.811 28.8703C132.683 28.2675 132.778 26.9035 133.113 26.3338C133.506 25.6678 134.078 25.1252 134.494 24.4973C135.584 23.3767 135.518 23.5929 136.159 23.1636C137.766 22.3905 138.239 22.7207 138.635 22.7272C141.135 23.2381 140.987 23.7913 142.069 25.126C143.203 26.7102 142.959 27.1734 142.902 28.6116C142.817 30.7384 141.377 32.5942 139.72 33.8704C138.7 34.6557 135.923 36.132 134.723 34.9419Z" fill="black" stroke="black" stroke-width="1.8376" stroke-linecap="round"/>
<path id="Vector_5" d="M89.7584 95.9158H90.466C91.2916 95.9158 92.4972 98.7987 94.0827 104.564C96.9656 104.866 98.4071 105.586 98.4071 106.727C97.9222 107.565 97.6798 108.528 97.6798 109.616H89.7584C84.4644 109.616 81.8174 108.895 81.8174 107.454V105.292L82.5447 103.857L87.5766 104.564H89.7584V103.857C88.7887 100.725 88.3039 98.5563 88.3039 97.3507C88.4611 96.3941 88.946 95.9158 89.7584 95.9158ZM106.329 102.402H109.218L109.945 107.454H116.432L117.139 111.051V111.778L112.108 112.505C112.108 112.021 111.865 111.778 111.38 111.778C110.895 112.577 110.653 113.776 110.653 115.375H108.491C107.194 115.375 106.237 112.014 105.621 105.292C106.093 104.453 106.329 103.49 106.329 102.402ZM90.466 110.343C95.7601 110.343 98.4071 113.226 98.4071 118.992C96.9918 122.36 94.8297 124.043 91.9206 124.043C87.1114 123.231 84.7068 120.826 84.7068 116.83V114.668L85.4144 111.051H86.869C87.3407 111.051 87.5766 111.293 87.5766 111.778L90.466 110.343ZM88.3039 115.375V116.83C89.2736 118.756 90.715 119.719 92.6282 119.719C94.8297 118.776 96.0352 117.813 96.2449 116.83L94.0827 115.375H88.3039ZM101.277 120.427H102.004L102.732 124.043V128.368L110.653 126.206L111.38 127.641V129.803C111.38 130.917 108.013 132.116 101.277 133.4C100.347 132.928 99.6257 132.692 99.1147 132.692V122.589C99.1147 121.908 99.8354 121.187 101.277 120.427ZM145.857 106.746H146.565C147.77 106.746 148.733 109.387 149.454 114.668C152.035 114.668 153.713 115.631 154.486 117.557C154.486 118.343 153.044 119.306 150.162 120.446C150.162 122.36 149.447 123.316 148.019 123.316H147.292C145.929 123.316 144.966 118.035 144.402 107.473L145.857 106.746ZM135.046 107.473H138.643C139.6 107.618 140.078 108.096 140.078 108.908V109.636C139.121 121.167 137.922 126.933 136.481 126.933H135.754C134.614 125.491 129.811 124.286 121.346 123.316C120.389 121.757 119.911 120.558 119.911 119.719L120.638 109.636H124.235V118.992C128.284 119.477 131.646 120.197 134.319 121.154L136.481 112.505H135.754C134.404 112.505 131.043 113.469 125.67 115.395V111.071C128.409 108.672 131.534 107.473 135.046 107.473ZM186.781 106.058H187.488C189.415 106.058 190.856 111.333 191.813 121.881L189.651 123.336H188.943C187.606 123.336 186.165 118.055 184.619 107.493L186.781 106.058ZM176.697 107.493C177.182 108.332 177.425 109.288 177.425 110.363C176.363 111.123 171.318 112.322 162.289 113.96C162.289 115.166 162.774 118.291 163.744 123.336C170.925 121.894 175 121.174 175.97 121.174L177.425 123.336V124.771C177.425 125.911 172.622 126.867 163.017 127.641H162.289C159.773 127.641 158.096 122.124 157.257 111.09C164.006 108.692 170.486 107.493 176.697 107.493Z" fill="black"/>
</g>
</svg>
